{
	"asset":{
		"generator":"Khronos glTF Blender I/O v3.6.6",
		"version":"2.0"
	},
	"scene":0,
	"scenes":[
		{
			"name":"Scene",
			"nodes":[
				0,
				1
			]
		}
	],
	"nodes":[
		{
			"mesh":0,
			"name":"base"
		},
		{
			"mesh":1,
			"name":"aileron",
			"translation":[
				0,
				0,
				-0.25099965929985046
			]
		}
	],
	"materials":[
		{
			"doubleSided":true,
			"name":"color1",
			"pbrMetallicRoughness":{
				"baseColorFactor":[
					1,
					1,
					1,
					1
				],
				"metallicFactor":0,
				"roughnessFactor":0
			}
		},
		{
			"doubleSided":true,
			"name":"data-connector",
			"pbrMetallicRoughness":{
				"baseColorFactor":[
					0,
					0.05000019073486328,
					0.5,
					1
				],
				"metallicFactor":1,
				"roughnessFactor":1
			}
		}
	],
	"meshes":[
		{
			"name":"Cube.001",
			"primitives":[
				{
					"attributes":{
						"POSITION":0,
						"NORMAL":1
					},
					"indices":2,
					"material":0
				},
				{
					"attributes":{
						"POSITION":3,
						"NORMAL":4
					},
					"indices":5,
					"material":1
				}
			]
		},
		{
			"name":"Cube.002",
			"primitives":[
				{
					"attributes":{
						"POSITION":6,
						"NORMAL":7
					},
					"indices":8,
					"material":0
				}
			]
		}
	],
	"accessors":[
		{
			"bufferView":0,
			"componentType":5126,
			"count":56,
			"max":[
				0.5,
				0.125,
				0.125
			],
			"min":[
				-0.5,
				-0.125,
				-0.13733792304992676
			],
			"type":"VEC3"
		},
		{
			"bufferView":1,
			"componentType":5126,
			"count":56,
			"type":"VEC3"
		},
		{
			"bufferView":2,
			"componentType":5123,
			"count":126,
			"type":"SCALAR"
		},
		{
			"bufferView":3,
			"componentType":5126,
			"count":372,
			"max":[
				0.02985917031764984,
				0.14564894139766693,
				0.03270387649536133
			],
			"min":[
				-0.02985917031764984,
				0.125,
				-0.027014462277293205
			],
			"type":"VEC3"
		},
		{
			"bufferView":4,
			"componentType":5126,
			"count":372,
			"type":"VEC3"
		},
		{
			"bufferView":5,
			"componentType":5123,
			"count":1014,
			"type":"SCALAR"
		},
		{
			"bufferView":6,
			"componentType":5126,
			"count":84,
			"max":[
				0.5,
				0.1022820845246315,
				0.13294988870620728
			],
			"min":[
				-0.5,
				-0.1022820845246315,
				-0.6170501112937927
			],
			"type":"VEC3"
		},
		{
			"bufferView":7,
			"componentType":5126,
			"count":84,
			"type":"VEC3"
		},
		{
			"bufferView":8,
			"componentType":5123,
			"count":228,
			"type":"SCALAR"
		}
	],
	"bufferViews":[
		{
			"buffer":0,
			"byteLength":672,
			"byteOffset":0,
			"target":34962
		},
		{
			"buffer":0,
			"byteLength":672,
			"byteOffset":672,
			"target":34962
		},
		{
			"buffer":0,
			"byteLength":252,
			"byteOffset":1344,
			"target":34963
		},
		{
			"buffer":0,
			"byteLength":4464,
			"byteOffset":1596,
			"target":34962
		},
		{
			"buffer":0,
			"byteLength":4464,
			"byteOffset":6060,
			"target":34962
		},
		{
			"buffer":0,
			"byteLength":2028,
			"byteOffset":10524,
			"target":34963
		},
		{
			"buffer":0,
			"byteLength":1008,
			"byteOffset":12552,
			"target":34962
		},
		{
			"buffer":0,
			"byteLength":1008,
			"byteOffset":13560,
			"target":34962
		},
		{
			"buffer":0,
			"byteLength":456,
			"byteOffset":14568,
			"target":34963
		}
	],
	"buffers":[
		{
			"byteLength":15024,
			"uri":"Aileron.bin"
		}
	]
}
