{
	"asset":{
		"generator":"Khronos glTF Blender I/O v4.0.44",
		"version":"2.0"
	},
	"scene":0,
	"scenes":[
		{
			"name":"Scene",
			"nodes":[
				0
			]
		}
	],
	"nodes":[
		{
			"mesh":0,
			"name":"Cube.001"
		}
	],
	"materials":[
		{
			"doubleSided":true,
			"name":"Material",
			"pbrMetallicRoughness":{
				"baseColorFactor":[
					0.1779271960258484,
					0.11066023260354996,
					0.058956775814294815,
					1
				],
				"metallicFactor":0,
				"roughnessFactor":1
			}
		},
		{
			"doubleSided":true,
			"name":"scotch",
			"pbrMetallicRoughness":{
				"baseColorFactor":[
					0.01661941222846508,
					0.01661941222846508,
					0.01661941222846508,
					1
				],
				"metallicFactor":0,
				"roughnessFactor":0.5
			}
		},
		{
			"doubleSided":true,
			"name":"Logo",
			"pbrMetallicRoughness":{
				"baseColorFactor":[
					0.002583976835012436,
					0.002583976835012436,
					0.002583976835012436,
					1
				],
				"metallicFactor":0,
				"roughnessFactor":1
			}
		},
		{
			"doubleSided":true,
			"name":"Blue",
			"pbrMetallicRoughness":{
				"baseColorFactor":[
					0.029999999329447746,
					0.7799999713897705,
					0.9800000190734863,
					1
				],
				"metallicFactor":0,
				"roughnessFactor":1
			}
		}
	],
	"meshes":[
		{
			"name":"Cube.003",
			"primitives":[
				{
					"attributes":{
						"POSITION":0
					},
					"indices":1,
					"material":0
				},
				{
					"attributes":{
						"POSITION":2
					},
					"indices":3,
					"material":1
				},
				{
					"attributes":{
						"POSITION":4
					},
					"indices":5,
					"material":2
				},
				{
					"attributes":{
						"POSITION":6
					},
					"indices":7,
					"material":3
				}
			]
		}
	],
	"accessors":[
		{
			"bufferView":0,
			"componentType":5126,
			"count":3132,
			"max":[
				0.29836344718933105,
				0.16030056774616241,
				0.19996149837970734
			],
			"min":[
				-0.3000364601612091,
				-0.15255287289619446,
				-0.20003852248191833
			],
			"type":"VEC3"
		},
		{
			"bufferView":1,
			"componentType":5123,
			"count":10812,
			"type":"SCALAR"
		},
		{
			"bufferView":2,
			"componentType":5126,
			"count":18902,
			"max":[
				0.29953303933143616,
				0.1614554226398468,
				0.048300206661224365
			],
			"min":[
				-0.30101829767227173,
				-0.1538393795490265,
				-0.04837089404463768
			],
			"type":"VEC3"
		},
		{
			"bufferView":3,
			"componentType":5123,
			"count":57501,
			"type":"SCALAR"
		},
		{
			"bufferView":4,
			"componentType":5126,
			"count":2672,
			"max":[
				0.2254134565591812,
				0.05299599841237068,
				0.19998647272586823
			],
			"min":[
				-0.2164953052997589,
				-0.01891687884926796,
				-0.20004227757453918
			],
			"type":"VEC3"
		},
		{
			"bufferView":5,
			"componentType":5123,
			"count":7932,
			"type":"SCALAR"
		},
		{
			"bufferView":6,
			"componentType":5126,
			"count":19487,
			"max":[
				0.29953277111053467,
				0.16145546734333038,
				0.03365270420908928
			],
			"min":[
				-0.3010184168815613,
				-0.15383942425251007,
				-0.03372335061430931
			],
			"type":"VEC3"
		},
		{
			"bufferView":7,
			"componentType":5123,
			"count":60003,
			"type":"SCALAR"
		}
	],
	"bufferViews":[
		{
			"buffer":0,
			"byteLength":37584,
			"byteOffset":0,
			"target":34962
		},
		{
			"buffer":0,
			"byteLength":21624,
			"byteOffset":37584,
			"target":34963
		},
		{
			"buffer":0,
			"byteLength":226824,
			"byteOffset":59208,
			"target":34962
		},
		{
			"buffer":0,
			"byteLength":115002,
			"byteOffset":286032,
			"target":34963
		},
		{
			"buffer":0,
			"byteLength":32064,
			"byteOffset":401036,
			"target":34962
		},
		{
			"buffer":0,
			"byteLength":15864,
			"byteOffset":433100,
			"target":34963
		},
		{
			"buffer":0,
			"byteLength":233844,
			"byteOffset":448964,
			"target":34962
		},
		{
			"buffer":0,
			"byteLength":120006,
			"byteOffset":682808,
			"target":34963
		}
	],
	"buffers":[
		{
			"byteLength":802816,
			"uri":"Box.bin"
		}
	]
}
