{
	"asset":{
		"generator":"Khronos glTF Blender I/O v4.4.55",
		"version":"2.0"
	},
	"scene":0,
	"scenes":[
		{
			"name":"Scene",
			"nodes":[
				0,
				1
			]
		}
	],
	"nodes":[
		{
			"mesh":0,
			"name":"rotor",
			"rotation":[
				0,
				-1,
				0,
				1.6292068494294654e-07
			],
			"translation":[
				0.511520504951477,
				0,
				0
			]
		},
		{
			"mesh":1,
			"name":"base",
			"translation":[
				0.47415289282798767,
				0.0003226881963200867,
				0
			]
		}
	],
	"materials":[
		{
			"doubleSided":true,
			"name":"fan",
			"pbrMetallicRoughness":{
				"baseColorFactor":[
					0.7963865995407104,
					0.7963865995407104,
					0.7963865995407104,
					1
				]
			}
		},
		{
			"doubleSided":true,
			"name":"color1",
			"pbrMetallicRoughness":{
				"metallicFactor":0,
				"roughnessFactor":0
			}
		},
		{
			"doubleSided":true,
			"name":"body",
			"pbrMetallicRoughness":{
				"baseColorFactor":[
					0.009999999776482582,
					0.009999999776482582,
					0.009999999776482582,
					1
				],
				"metallicFactor":0
			}
		},
		{
			"doubleSided":true,
			"name":"color2",
			"pbrMetallicRoughness":{
				"baseColorFactor":[
					0.800000011920929,
					0.800000011920929,
					0.800000011920929,
					1
				]
			}
		},
		{
			"alphaMode":"MASK",
			"doubleSided":true,
			"name":"glass",
			"pbrMetallicRoughness":{
				"baseColorFactor":[
					1,
					1,
					1,
					0
				],
				"metallicFactor":0,
				"roughnessFactor":0
			}
		},
		{
			"doubleSided":true,
			"name":"hv-connector",
			"pbrMetallicRoughness":{
				"baseColorFactor":[
					0.5,
					0.15000000596046448,
					0,
					1
				]
			}
		},
		{
			"doubleSided":true,
			"name":"data-connector",
			"pbrMetallicRoughness":{
				"baseColorFactor":[
					0,
					0.05000000074505806,
					0.5,
					1
				]
			}
		},
		{
			"doubleSided":true,
			"name":"fluid-connector",
			"pbrMetallicRoughness":{
				"baseColorFactor":[
					0.5,
					0.5,
					0.5,
					1
				]
			}
		}
	],
	"meshes":[
		{
			"name":"Cube.001",
			"primitives":[
				{
					"attributes":{
						"POSITION":0,
						"NORMAL":1
					},
					"indices":2,
					"material":0
				}
			]
		},
		{
			"name":"Cube",
			"primitives":[
				{
					"attributes":{
						"POSITION":3,
						"NORMAL":4
					},
					"indices":5,
					"material":1
				},
				{
					"attributes":{
						"POSITION":6,
						"NORMAL":7
					},
					"indices":8,
					"material":2
				},
				{
					"attributes":{
						"POSITION":9,
						"NORMAL":10
					},
					"indices":11,
					"material":3
				},
				{
					"attributes":{
						"POSITION":12,
						"NORMAL":13
					},
					"indices":14,
					"material":4
				},
				{
					"attributes":{
						"POSITION":15,
						"NORMAL":16
					},
					"indices":17,
					"material":0
				},
				{
					"attributes":{
						"POSITION":18,
						"NORMAL":19
					},
					"indices":20,
					"material":5
				},
				{
					"attributes":{
						"POSITION":21,
						"NORMAL":22
					},
					"indices":23,
					"material":6
				},
				{
					"attributes":{
						"POSITION":24,
						"NORMAL":25
					},
					"indices":26,
					"material":7
				}
			]
		}
	],
	"accessors":[
		{
			"bufferView":0,
			"componentType":5126,
			"count":18432,
			"max":[
				0.22186493873596191,
				0.31887465715408325,
				0.3188750445842743
			],
			"min":[
				-0.45014476776123047,
				-0.3188752233982086,
				-0.31887543201446533
			],
			"type":"VEC3"
		},
		{
			"bufferView":1,
			"componentType":5126,
			"count":18432,
			"type":"VEC3"
		},
		{
			"bufferView":2,
			"componentType":5123,
			"count":27648,
			"type":"SCALAR"
		},
		{
			"bufferView":3,
			"componentType":5126,
			"count":2900,
			"max":[
				0.5751959681510925,
				0.374838650226593,
				0.3750000298023224
			],
			"min":[
				-0.24418610334396362,
				-0.375161349773407,
				-0.3750000298023224
			],
			"type":"VEC3"
		},
		{
			"bufferView":4,
			"componentType":5126,
			"count":2900,
			"type":"VEC3"
		},
		{
			"bufferView":5,
			"componentType":5123,
			"count":14658,
			"type":"SCALAR"
		},
		{
			"bufferView":6,
			"componentType":5126,
			"count":2410,
			"max":[
				0.5955443978309631,
				0.3758354187011719,
				0.3758353888988495
			],
			"min":[
				-0.924804151058197,
				-0.3758354187011719,
				-0.3758353888988495
			],
			"type":"VEC3"
		},
		{
			"bufferView":7,
			"componentType":5126,
			"count":2410,
			"type":"VEC3"
		},
		{
			"bufferView":8,
			"componentType":5123,
			"count":7062,
			"type":"SCALAR"
		},
		{
			"bufferView":9,
			"componentType":5126,
			"count":1152,
			"max":[
				-0.2707958221435547,
				0.3751612603664398,
				0.37516123056411743
			],
			"min":[
				-0.9248039126396179,
				-0.37516123056411743,
				-0.37516123056411743
			],
			"type":"VEC3"
		},
		{
			"bufferView":10,
			"componentType":5126,
			"count":1152,
			"type":"VEC3"
		},
		{
			"bufferView":11,
			"componentType":5123,
			"count":2304,
			"type":"SCALAR"
		},
		{
			"bufferView":12,
			"componentType":5126,
			"count":384,
			"max":[
				0.5722460150718689,
				0.29497939348220825,
				0.29497939348220825
			],
			"min":[
				0.5394653081893921,
				-0.29497942328453064,
				-0.29497939348220825
			],
			"type":"VEC3"
		},
		{
			"bufferView":13,
			"componentType":5126,
			"count":384,
			"type":"VEC3"
		},
		{
			"bufferView":14,
			"componentType":5123,
			"count":756,
			"type":"SCALAR"
		},
		{
			"bufferView":15,
			"componentType":5126,
			"count":17232,
			"max":[
				0.4421710968017578,
				0.3019790053367615,
				0.3021409511566162
			],
			"min":[
				-0.1616668552160263,
				-0.3023023009300232,
				-0.30214083194732666
			],
			"type":"VEC3"
		},
		{
			"bufferView":16,
			"componentType":5126,
			"count":17232,
			"type":"VEC3"
		},
		{
			"bufferView":17,
			"componentType":5123,
			"count":25848,
			"type":"SCALAR"
		},
		{
			"bufferView":18,
			"componentType":5126,
			"count":696,
			"max":[
				-0.9039303064346313,
				0.07035040110349655,
				0.07035043835639954
			],
			"min":[
				-0.9456496238708496,
				-0.07035047560930252,
				-0.07035043835639954
			],
			"type":"VEC3"
		},
		{
			"bufferView":19,
			"componentType":5126,
			"count":696,
			"type":"VEC3"
		},
		{
			"bufferView":20,
			"componentType":5123,
			"count":2148,
			"type":"SCALAR"
		},
		{
			"bufferView":21,
			"componentType":5126,
			"count":376,
			"max":[
				-0.8755970001220703,
				-0.18280261754989624,
				0.029859166592359543
			],
			"min":[
				-0.8962459564208984,
				-0.24252095818519592,
				-0.02985917404294014
			],
			"type":"VEC3"
		},
		{
			"bufferView":22,
			"componentType":5126,
			"count":376,
			"type":"VEC3"
		},
		{
			"bufferView":23,
			"componentType":5123,
			"count":1020,
			"type":"SCALAR"
		},
		{
			"bufferView":24,
			"componentType":5126,
			"count":7488,
			"max":[
				0.6285375952720642,
				0.406485915184021,
				0.12489654123783112
			],
			"min":[
				-0.19435721635818481,
				-0.12489651888608932,
				-0.12489652633666992
			],
			"type":"VEC3"
		},
		{
			"bufferView":25,
			"componentType":5126,
			"count":7488,
			"type":"VEC3"
		},
		{
			"bufferView":26,
			"componentType":5123,
			"count":19704,
			"type":"SCALAR"
		}
	],
	"bufferViews":[
		{
			"buffer":0,
			"byteLength":221184,
			"byteOffset":0,
			"target":34962
		},
		{
			"buffer":0,
			"byteLength":221184,
			"byteOffset":221184,
			"target":34962
		},
		{
			"buffer":0,
			"byteLength":55296,
			"byteOffset":442368,
			"target":34963
		},
		{
			"buffer":0,
			"byteLength":34800,
			"byteOffset":497664,
			"target":34962
		},
		{
			"buffer":0,
			"byteLength":34800,
			"byteOffset":532464,
			"target":34962
		},
		{
			"buffer":0,
			"byteLength":29316,
			"byteOffset":567264,
			"target":34963
		},
		{
			"buffer":0,
			"byteLength":28920,
			"byteOffset":596580,
			"target":34962
		},
		{
			"buffer":0,
			"byteLength":28920,
			"byteOffset":625500,
			"target":34962
		},
		{
			"buffer":0,
			"byteLength":14124,
			"byteOffset":654420,
			"target":34963
		},
		{
			"buffer":0,
			"byteLength":13824,
			"byteOffset":668544,
			"target":34962
		},
		{
			"buffer":0,
			"byteLength":13824,
			"byteOffset":682368,
			"target":34962
		},
		{
			"buffer":0,
			"byteLength":4608,
			"byteOffset":696192,
			"target":34963
		},
		{
			"buffer":0,
			"byteLength":4608,
			"byteOffset":700800,
			"target":34962
		},
		{
			"buffer":0,
			"byteLength":4608,
			"byteOffset":705408,
			"target":34962
		},
		{
			"buffer":0,
			"byteLength":1512,
			"byteOffset":710016,
			"target":34963
		},
		{
			"buffer":0,
			"byteLength":206784,
			"byteOffset":711528,
			"target":34962
		},
		{
			"buffer":0,
			"byteLength":206784,
			"byteOffset":918312,
			"target":34962
		},
		{
			"buffer":0,
			"byteLength":51696,
			"byteOffset":1125096,
			"target":34963
		},
		{
			"buffer":0,
			"byteLength":8352,
			"byteOffset":1176792,
			"target":34962
		},
		{
			"buffer":0,
			"byteLength":8352,
			"byteOffset":1185144,
			"target":34962
		},
		{
			"buffer":0,
			"byteLength":4296,
			"byteOffset":1193496,
			"target":34963
		},
		{
			"buffer":0,
			"byteLength":4512,
			"byteOffset":1197792,
			"target":34962
		},
		{
			"buffer":0,
			"byteLength":4512,
			"byteOffset":1202304,
			"target":34962
		},
		{
			"buffer":0,
			"byteLength":2040,
			"byteOffset":1206816,
			"target":34963
		},
		{
			"buffer":0,
			"byteLength":89856,
			"byteOffset":1208856,
			"target":34962
		},
		{
			"buffer":0,
			"byteLength":89856,
			"byteOffset":1298712,
			"target":34962
		},
		{
			"buffer":0,
			"byteLength":39408,
			"byteOffset":1388568,
			"target":34963
		}
	],
	"buffers":[
		{
			"byteLength":1427976,
			"uri":"SmallSteamTurbine.bin"
		}
	]
}
