{
	"asset":{
		"generator":"Khronos glTF Blender I/O v4.0.44",
		"version":"2.0"
	},
	"scene":0,
	"scenes":[
		{
			"name":"grouped",
			"nodes":[
				0,
				1
			]
		}
	],
	"nodes":[
		{
			"mesh":0,
			"name":"body"
		},
		{
			"mesh":1,
			"name":"head",
			"translation":[
				0,
				0.2935706675052643,
				0.004358560778200626
			]
		}
	],
	"materials":[
		{
			"doubleSided":true,
			"name":"color1",
			"pbrMetallicRoughness":{
				"baseColorFactor":[
					1,
					1,
					1,
					1
				],
				"metallicFactor":0,
				"roughnessFactor":0
			}
		},
		{
			"doubleSided":true,
			"name":"color 1",
			"pbrMetallicRoughness":{
				"baseColorFactor":[
					1,
					1,
					1,
					1
				],
				"metallicFactor":1,
				"roughnessFactor":0
			}
		},
		{
			"doubleSided":true,
			"name":"color 2",
			"pbrMetallicRoughness":{
				"baseColorFactor":[
					0.800000011920929,
					0.800000011920929,
					0.800000011920929,
					1
				],
				"metallicFactor":0,
				"roughnessFactor":1
			}
		},
		{
			"doubleSided":true,
			"name":"color 3",
			"pbrMetallicRoughness":{
				"baseColorFactor":[
					0.16447602212429047,
					0.16447602212429047,
					0.16447602212429047,
					1
				],
				"metallicFactor":0,
				"roughnessFactor":1
			}
		},
		{
			"doubleSided":true,
			"name":"led",
			"pbrMetallicRoughness":{
				"baseColorFactor":[
					0.044756121933460236,
					0.06908376514911652,
					0.0751311182975769,
					1
				],
				"metallicFactor":0,
				"roughnessFactor":1
			}
		},
		{
			"doubleSided":true,
			"name":"metal trim",
			"pbrMetallicRoughness":{
				"baseColorFactor":[
					1,
					1,
					1,
					1
				],
				"metallicFactor":1,
				"roughnessFactor":0
			}
		},
		{
			"doubleSided":true,
			"name":"void",
			"pbrMetallicRoughness":{
				"baseColorFactor":[
					0,
					0,
					0,
					1
				],
				"metallicFactor":0,
				"roughnessFactor":0
			}
		},
		{
			"doubleSided":true,
			"name":"seat",
			"pbrMetallicRoughness":{
				"baseColorFactor":[
					1,
					1,
					1,
					1
				],
				"metallicFactor":0,
				"roughnessFactor":1
			}
		},
		{
			"doubleSided":true,
			"name":"Toilet",
			"pbrMetallicRoughness":{
				"baseColorFactor":[
					1,
					1,
					1,
					1
				],
				"metallicFactor":0,
				"roughnessFactor":0
			}
		},
		{
			"doubleSided":true,
			"name":"metal",
			"pbrMetallicRoughness":{
				"baseColorFactor":[
					1,
					1,
					1,
					1
				],
				"metallicFactor":1,
				"roughnessFactor":0
			}
		},
		{
			"doubleSided":true,
			"name":"helmet glass IOR 1.0",
			"pbrMetallicRoughness":{
				"baseColorFactor":[
					0.42594966292381287,
					0.40071195363998413,
					0.36232790350914,
					1
				],
				"metallicFactor":1,
				"roughnessFactor":0
			}
		},
		{
			"doubleSided":true,
			"name":"helmet glass contour IOR 1.5",
			"pbrMetallicRoughness":{
				"baseColorFactor":[
					0.13788658380508423,
					0.1301037073135376,
					0.11823929846286774,
					1
				],
				"metallicFactor":1,
				"roughnessFactor":0
			}
		}
	],
	"meshes":[
		{
			"name":"Cube.004",
			"primitives":[
				{
					"attributes":{
						"POSITION":0,
						"NORMAL":1
					},
					"indices":2,
					"material":0
				},
				{
					"attributes":{
						"POSITION":3,
						"NORMAL":4
					},
					"indices":5,
					"material":1
				},
				{
					"attributes":{
						"POSITION":6,
						"NORMAL":7
					},
					"indices":8,
					"material":2
				},
				{
					"attributes":{
						"POSITION":9,
						"NORMAL":10
					},
					"indices":11,
					"material":3
				},
				{
					"attributes":{
						"POSITION":12,
						"NORMAL":13
					},
					"indices":14,
					"material":4
				},
				{
					"attributes":{
						"POSITION":15,
						"NORMAL":16
					},
					"indices":17,
					"material":5
				},
				{
					"attributes":{
						"POSITION":18,
						"NORMAL":19
					},
					"indices":20,
					"material":6
				},
				{
					"attributes":{
						"POSITION":21,
						"NORMAL":22
					},
					"indices":23,
					"material":7
				},
				{
					"attributes":{
						"POSITION":24,
						"NORMAL":25
					},
					"indices":26,
					"material":8
				},
				{
					"attributes":{
						"POSITION":27,
						"NORMAL":28
					},
					"indices":29,
					"material":9
				}
			]
		},
		{
			"name":"Sphere.187",
			"primitives":[
				{
					"attributes":{
						"POSITION":30,
						"NORMAL":31
					},
					"indices":32,
					"material":1
				},
				{
					"attributes":{
						"POSITION":33,
						"NORMAL":34
					},
					"indices":35,
					"material":2
				},
				{
					"attributes":{
						"POSITION":36,
						"NORMAL":37
					},
					"indices":38,
					"material":3
				},
				{
					"attributes":{
						"POSITION":39,
						"NORMAL":40
					},
					"indices":41,
					"material":5
				},
				{
					"attributes":{
						"POSITION":42,
						"NORMAL":43
					},
					"indices":44,
					"material":10
				},
				{
					"attributes":{
						"POSITION":45,
						"NORMAL":46
					},
					"indices":47,
					"material":4
				},
				{
					"attributes":{
						"POSITION":48,
						"NORMAL":49
					},
					"indices":50,
					"material":11
				}
			]
		}
	],
	"accessors":[
		{
			"bufferView":0,
			"componentType":5126,
			"count":40,
			"max":[
				0.125,
				0.009999999776482582,
				0.125
			],
			"min":[
				-0.125,
				-0.009999999776482582,
				-0.125
			],
			"type":"VEC3"
		},
		{
			"bufferView":1,
			"componentType":5126,
			"count":40,
			"type":"VEC3"
		},
		{
			"bufferView":2,
			"componentType":5123,
			"count":60,
			"type":"SCALAR"
		},
		{
			"bufferView":3,
			"componentType":5126,
			"count":25707,
			"max":[
				0.055720146745443344,
				0.24163906276226044,
				0.05118497461080551
			],
			"min":[
				-0.05572012439370155,
				0.10218449681997299,
				-0.0621161088347435
			],
			"type":"VEC3"
		},
		{
			"bufferView":4,
			"componentType":5126,
			"count":25707,
			"type":"VEC3"
		},
		{
			"bufferView":5,
			"componentType":5123,
			"count":149700,
			"type":"SCALAR"
		},
		{
			"bufferView":6,
			"componentType":5126,
			"count":36786,
			"max":[
				0.05448809638619423,
				0.24339357018470764,
				0.04137419909238815
			],
			"min":[
				-0.05448808893561363,
				0.01963668316602707,
				-0.11360055208206177
			],
			"type":"VEC3"
		},
		{
			"bufferView":7,
			"componentType":5126,
			"count":36786,
			"type":"VEC3"
		},
		{
			"bufferView":8,
			"componentType":5123,
			"count":210624,
			"type":"SCALAR"
		},
		{
			"bufferView":9,
			"componentType":5126,
			"count":30285,
			"max":[
				0.049853965640068054,
				0.27622148394584656,
				0.05449625849723816
			],
			"min":[
				-0.04985401779413223,
				0.01642691344022751,
				-0.10882771015167236
			],
			"type":"VEC3"
		},
		{
			"bufferView":10,
			"componentType":5126,
			"count":30285,
			"type":"VEC3"
		},
		{
			"bufferView":11,
			"componentType":5123,
			"count":163320,
			"type":"SCALAR"
		},
		{
			"bufferView":12,
			"componentType":5126,
			"count":1607,
			"max":[
				0.04585393890738487,
				0.22144393622875214,
				0.03534149378538132
			],
			"min":[
				-0.045853931456804276,
				0.15115892887115479,
				-0.003490801900625229
			],
			"type":"VEC3"
		},
		{
			"bufferView":13,
			"componentType":5126,
			"count":1607,
			"type":"VEC3"
		},
		{
			"bufferView":14,
			"componentType":5123,
			"count":8952,
			"type":"SCALAR"
		},
		{
			"bufferView":15,
			"componentType":5126,
			"count":4531,
			"max":[
				0.047205522656440735,
				0.22261248528957367,
				0.0365707203745842
			],
			"min":[
				-0.04720551520586014,
				0.14960910379886627,
				-0.005125125870108604
			],
			"type":"VEC3"
		},
		{
			"bufferView":16,
			"componentType":5126,
			"count":4531,
			"type":"VEC3"
		},
		{
			"bufferView":17,
			"componentType":5123,
			"count":25584,
			"type":"SCALAR"
		},
		{
			"bufferView":18,
			"componentType":5126,
			"count":7596,
			"max":[
				0.051721300929784775,
				0.23036564886569977,
				0.0401918888092041
			],
			"min":[
				-0.051721278578042984,
				0.039371512830257416,
				-0.09059637784957886
			],
			"type":"VEC3"
		},
		{
			"bufferView":19,
			"componentType":5126,
			"count":7596,
			"type":"VEC3"
		},
		{
			"bufferView":20,
			"componentType":5123,
			"count":43800,
			"type":"SCALAR"
		},
		{
			"bufferView":21,
			"componentType":5126,
			"count":3458,
			"max":[
				0.04653886705636978,
				0.20216694474220276,
				0.06765754520893097
			],
			"min":[
				-0.04554767161607742,
				0.09988294541835785,
				-0.041158221662044525
			],
			"type":"VEC3"
		},
		{
			"bufferView":22,
			"componentType":5126,
			"count":3458,
			"type":"VEC3"
		},
		{
			"bufferView":23,
			"componentType":5123,
			"count":20592,
			"type":"SCALAR"
		},
		{
			"bufferView":24,
			"componentType":5126,
			"count":12035,
			"max":[
				0.05615602806210518,
				0.1832897961139679,
				0.11234869062900543
			],
			"min":[
				-0.05499906465411186,
				0.006345242261886597,
				-0.04164053499698639
			],
			"type":"VEC3"
		},
		{
			"bufferView":25,
			"componentType":5126,
			"count":12035,
			"type":"VEC3"
		},
		{
			"bufferView":26,
			"componentType":5123,
			"count":72150,
			"type":"SCALAR"
		},
		{
			"bufferView":27,
			"componentType":5126,
			"count":477,
			"max":[
				0.05583328753709793,
				0.17079555988311768,
				0.06895484775304794
			],
			"min":[
				0.03349120169878006,
				0.16255410015583038,
				0.06376033276319504
			],
			"type":"VEC3"
		},
		{
			"bufferView":28,
			"componentType":5126,
			"count":477,
			"type":"VEC3"
		},
		{
			"bufferView":29,
			"componentType":5123,
			"count":2850,
			"type":"SCALAR"
		},
		{
			"bufferView":30,
			"componentType":5126,
			"count":1641,
			"max":[
				0.06822799891233444,
				0.1155308336019516,
				0.07808353006839752
			],
			"min":[
				-0.06822798401117325,
				-0.04474470391869545,
				-0.06845946609973907
			],
			"type":"VEC3"
		},
		{
			"bufferView":31,
			"componentType":5126,
			"count":1641,
			"type":"VEC3"
		},
		{
			"bufferView":32,
			"componentType":5123,
			"count":9150,
			"type":"SCALAR"
		},
		{
			"bufferView":33,
			"componentType":5126,
			"count":7706,
			"max":[
				0.07521698623895645,
				0.07290469855070114,
				0.07842716574668884
			],
			"min":[
				-0.07521697133779526,
				-0.0785006582736969,
				-0.06795193254947662
			],
			"type":"VEC3"
		},
		{
			"bufferView":34,
			"componentType":5126,
			"count":7706,
			"type":"VEC3"
		},
		{
			"bufferView":35,
			"componentType":5123,
			"count":42264,
			"type":"SCALAR"
		},
		{
			"bufferView":36,
			"componentType":5126,
			"count":410,
			"max":[
				0.0615965835750103,
				0.06649618595838547,
				0.07687899470329285
			],
			"min":[
				-0.061596568673849106,
				0.029600076377391815,
				0.03542046993970871
			],
			"type":"VEC3"
		},
		{
			"bufferView":37,
			"componentType":5126,
			"count":410,
			"type":"VEC3"
		},
		{
			"bufferView":38,
			"componentType":5123,
			"count":1992,
			"type":"SCALAR"
		},
		{
			"bufferView":39,
			"componentType":5126,
			"count":546,
			"max":[
				0.06405554711818695,
				0.06867268681526184,
				0.07927979528903961
			],
			"min":[
				-0.06405553221702576,
				0.027342118322849274,
				0.03390315920114517
			],
			"type":"VEC3"
		},
		{
			"bufferView":40,
			"componentType":5126,
			"count":546,
			"type":"VEC3"
		},
		{
			"bufferView":41,
			"componentType":5123,
			"count":2904,
			"type":"SCALAR"
		},
		{
			"bufferView":42,
			"componentType":5126,
			"count":655,
			"max":[
				0.06779997050762177,
				0.06925293058156967,
				-0.008010700345039368
			],
			"min":[
				-0.06779995560646057,
				-0.05820367857813835,
				-0.08311593532562256
			],
			"type":"VEC3"
		},
		{
			"bufferView":43,
			"componentType":5126,
			"count":655,
			"type":"VEC3"
		},
		{
			"bufferView":44,
			"componentType":5123,
			"count":3612,
			"type":"SCALAR"
		},
		{
			"bufferView":45,
			"componentType":5126,
			"count":78,
			"max":[
				0.04924868047237396,
				0.06539537757635117,
				0.076617032289505
			],
			"min":[
				-0.04924866557121277,
				0.047322601079940796,
				0.0557398684322834
			],
			"type":"VEC3"
		},
		{
			"bufferView":46,
			"componentType":5126,
			"count":78,
			"type":"VEC3"
		},
		{
			"bufferView":47,
			"componentType":5123,
			"count":330,
			"type":"SCALAR"
		},
		{
			"bufferView":48,
			"componentType":5126,
			"count":520,
			"max":[
				0.06782026588916779,
				0.0718105286359787,
				-0.005590593442320824
			],
			"min":[
				-0.06782025098800659,
				-0.059834785759449005,
				-0.07074381411075592
			],
			"type":"VEC3"
		},
		{
			"bufferView":49,
			"componentType":5126,
			"count":520,
			"type":"VEC3"
		},
		{
			"bufferView":50,
			"componentType":5123,
			"count":2496,
			"type":"SCALAR"
		}
	],
	"bufferViews":[
		{
			"buffer":0,
			"byteLength":480,
			"byteOffset":0,
			"target":34962
		},
		{
			"buffer":0,
			"byteLength":480,
			"byteOffset":480,
			"target":34962
		},
		{
			"buffer":0,
			"byteLength":120,
			"byteOffset":960,
			"target":34963
		},
		{
			"buffer":0,
			"byteLength":308484,
			"byteOffset":1080,
			"target":34962
		},
		{
			"buffer":0,
			"byteLength":308484,
			"byteOffset":309564,
			"target":34962
		},
		{
			"buffer":0,
			"byteLength":299400,
			"byteOffset":618048,
			"target":34963
		},
		{
			"buffer":0,
			"byteLength":441432,
			"byteOffset":917448,
			"target":34962
		},
		{
			"buffer":0,
			"byteLength":441432,
			"byteOffset":1358880,
			"target":34962
		},
		{
			"buffer":0,
			"byteLength":421248,
			"byteOffset":1800312,
			"target":34963
		},
		{
			"buffer":0,
			"byteLength":363420,
			"byteOffset":2221560,
			"target":34962
		},
		{
			"buffer":0,
			"byteLength":363420,
			"byteOffset":2584980,
			"target":34962
		},
		{
			"buffer":0,
			"byteLength":326640,
			"byteOffset":2948400,
			"target":34963
		},
		{
			"buffer":0,
			"byteLength":19284,
			"byteOffset":3275040,
			"target":34962
		},
		{
			"buffer":0,
			"byteLength":19284,
			"byteOffset":3294324,
			"target":34962
		},
		{
			"buffer":0,
			"byteLength":17904,
			"byteOffset":3313608,
			"target":34963
		},
		{
			"buffer":0,
			"byteLength":54372,
			"byteOffset":3331512,
			"target":34962
		},
		{
			"buffer":0,
			"byteLength":54372,
			"byteOffset":3385884,
			"target":34962
		},
		{
			"buffer":0,
			"byteLength":51168,
			"byteOffset":3440256,
			"target":34963
		},
		{
			"buffer":0,
			"byteLength":91152,
			"byteOffset":3491424,
			"target":34962
		},
		{
			"buffer":0,
			"byteLength":91152,
			"byteOffset":3582576,
			"target":34962
		},
		{
			"buffer":0,
			"byteLength":87600,
			"byteOffset":3673728,
			"target":34963
		},
		{
			"buffer":0,
			"byteLength":41496,
			"byteOffset":3761328,
			"target":34962
		},
		{
			"buffer":0,
			"byteLength":41496,
			"byteOffset":3802824,
			"target":34962
		},
		{
			"buffer":0,
			"byteLength":41184,
			"byteOffset":3844320,
			"target":34963
		},
		{
			"buffer":0,
			"byteLength":144420,
			"byteOffset":3885504,
			"target":34962
		},
		{
			"buffer":0,
			"byteLength":144420,
			"byteOffset":4029924,
			"target":34962
		},
		{
			"buffer":0,
			"byteLength":144300,
			"byteOffset":4174344,
			"target":34963
		},
		{
			"buffer":0,
			"byteLength":5724,
			"byteOffset":4318644,
			"target":34962
		},
		{
			"buffer":0,
			"byteLength":5724,
			"byteOffset":4324368,
			"target":34962
		},
		{
			"buffer":0,
			"byteLength":5700,
			"byteOffset":4330092,
			"target":34963
		},
		{
			"buffer":0,
			"byteLength":19692,
			"byteOffset":4335792,
			"target":34962
		},
		{
			"buffer":0,
			"byteLength":19692,
			"byteOffset":4355484,
			"target":34962
		},
		{
			"buffer":0,
			"byteLength":18300,
			"byteOffset":4375176,
			"target":34963
		},
		{
			"buffer":0,
			"byteLength":92472,
			"byteOffset":4393476,
			"target":34962
		},
		{
			"buffer":0,
			"byteLength":92472,
			"byteOffset":4485948,
			"target":34962
		},
		{
			"buffer":0,
			"byteLength":84528,
			"byteOffset":4578420,
			"target":34963
		},
		{
			"buffer":0,
			"byteLength":4920,
			"byteOffset":4662948,
			"target":34962
		},
		{
			"buffer":0,
			"byteLength":4920,
			"byteOffset":4667868,
			"target":34962
		},
		{
			"buffer":0,
			"byteLength":3984,
			"byteOffset":4672788,
			"target":34963
		},
		{
			"buffer":0,
			"byteLength":6552,
			"byteOffset":4676772,
			"target":34962
		},
		{
			"buffer":0,
			"byteLength":6552,
			"byteOffset":4683324,
			"target":34962
		},
		{
			"buffer":0,
			"byteLength":5808,
			"byteOffset":4689876,
			"target":34963
		},
		{
			"buffer":0,
			"byteLength":7860,
			"byteOffset":4695684,
			"target":34962
		},
		{
			"buffer":0,
			"byteLength":7860,
			"byteOffset":4703544,
			"target":34962
		},
		{
			"buffer":0,
			"byteLength":7224,
			"byteOffset":4711404,
			"target":34963
		},
		{
			"buffer":0,
			"byteLength":936,
			"byteOffset":4718628,
			"target":34962
		},
		{
			"buffer":0,
			"byteLength":936,
			"byteOffset":4719564,
			"target":34962
		},
		{
			"buffer":0,
			"byteLength":660,
			"byteOffset":4720500,
			"target":34963
		},
		{
			"buffer":0,
			"byteLength":6240,
			"byteOffset":4721160,
			"target":34962
		},
		{
			"buffer":0,
			"byteLength":6240,
			"byteOffset":4727400,
			"target":34962
		},
		{
			"buffer":0,
			"byteLength":4992,
			"byteOffset":4733640,
			"target":34963
		}
	],
	"buffers":[
		{
			"byteLength":4738632,
			"uri":"Bobblehead.bin"
		}
	]
}
