{
	"asset":{
		"generator":"Khronos glTF Blender I/O v4.3.47",
		"version":"2.0"
	},
	"scene":0,
	"scenes":[
		{
			"name":"Scene",
			"nodes":[
				0
			]
		}
	],
	"nodes":[
		{
			"mesh":0,
			"name":"base"
		}
	],
	"materials":[
		{
			"doubleSided":true,
			"name":"color1",
			"pbrMetallicRoughness":{
				"metallicFactor":0,
				"roughnessFactor":0
			}
		},
		{
			"doubleSided":true,
			"name":"color2",
			"pbrMetallicRoughness":{
				"baseColorFactor":[
					0.800000011920929,
					0.800000011920929,
					0.800000011920929,
					1
				]
			}
		},
		{
			"doubleSided":true,
			"name":"body",
			"pbrMetallicRoughness":{
				"baseColorFactor":[
					0.009999999776482582,
					0.009999999776482582,
					0.009999999776482582,
					1
				],
				"metallicFactor":0
			}
		},
		{
			"doubleSided":true,
			"name":"item-connector",
			"pbrMetallicRoughness":{
				"baseColorFactor":[
					0.800000011920929,
					0.800000011920929,
					0.800000011920929,
					1
				]
			}
		},
		{
			"doubleSided":true,
			"name":"data-connector",
			"pbrMetallicRoughness":{
				"baseColorFactor":[
					0,
					0.05000019073486328,
					0.5,
					1
				]
			}
		}
	],
	"meshes":[
		{
			"name":"Cube",
			"primitives":[
				{
					"attributes":{
						"POSITION":0
					},
					"indices":1,
					"material":0
				},
				{
					"attributes":{
						"POSITION":2
					},
					"indices":3,
					"material":1
				},
				{
					"attributes":{
						"POSITION":4
					},
					"indices":5,
					"material":2
				},
				{
					"attributes":{
						"POSITION":6
					},
					"indices":7,
					"material":3
				},
				{
					"attributes":{
						"POSITION":8
					},
					"indices":9,
					"material":4
				}
			]
		}
	],
	"accessors":[
		{
			"bufferView":0,
			"componentType":5126,
			"count":290,
			"max":[
				0.5000001192092896,
				0.5,
				0.5000000596046448
			],
			"min":[
				-0.5,
				-0.5,
				-0.5000000596046448
			],
			"type":"VEC3"
		},
		{
			"bufferView":1,
			"componentType":5123,
			"count":696,
			"type":"SCALAR"
		},
		{
			"bufferView":2,
			"componentType":5126,
			"count":2549,
			"max":[
				0.48121756315231323,
				0.48338818550109863,
				0.4455491900444031
			],
			"min":[
				-0.4812174439430237,
				-0.48338818550109863,
				-0.4455491900444031
			],
			"type":"VEC3"
		},
		{
			"bufferView":3,
			"componentType":5123,
			"count":8349,
			"type":"SCALAR"
		},
		{
			"bufferView":4,
			"componentType":5126,
			"count":268,
			"max":[
				0.48121756315231323,
				0.48338818550109863,
				0.5000000596046448
			],
			"min":[
				-0.4812174439430237,
				-0.48338818550109863,
				-0.5000000596046448
			],
			"type":"VEC3"
		},
		{
			"bufferView":5,
			"componentType":5123,
			"count":756,
			"type":"SCALAR"
		},
		{
			"bufferView":6,
			"componentType":5126,
			"count":216,
			"max":[
				0.4936259388923645,
				0.125,
				0.1250000298023224
			],
			"min":[
				-0.49362581968307495,
				-0.125,
				-0.1250000298023224
			],
			"type":"VEC3"
		},
		{
			"bufferView":7,
			"componentType":5123,
			"count":372,
			"type":"SCALAR"
		},
		{
			"bufferView":8,
			"componentType":5126,
			"count":376,
			"max":[
				0.02985917031764984,
				0.4988808333873749,
				0.02985917031764984
			],
			"min":[
				-0.02985917031764984,
				0.47823187708854675,
				-0.02985917031764984
			],
			"type":"VEC3"
		},
		{
			"bufferView":9,
			"componentType":5123,
			"count":1020,
			"type":"SCALAR"
		}
	],
	"bufferViews":[
		{
			"buffer":0,
			"byteLength":3480,
			"byteOffset":0,
			"target":34962
		},
		{
			"buffer":0,
			"byteLength":1392,
			"byteOffset":3480,
			"target":34963
		},
		{
			"buffer":0,
			"byteLength":30588,
			"byteOffset":4872,
			"target":34962
		},
		{
			"buffer":0,
			"byteLength":16698,
			"byteOffset":35460,
			"target":34963
		},
		{
			"buffer":0,
			"byteLength":3216,
			"byteOffset":52160,
			"target":34962
		},
		{
			"buffer":0,
			"byteLength":1512,
			"byteOffset":55376,
			"target":34963
		},
		{
			"buffer":0,
			"byteLength":2592,
			"byteOffset":56888,
			"target":34962
		},
		{
			"buffer":0,
			"byteLength":744,
			"byteOffset":59480,
			"target":34963
		},
		{
			"buffer":0,
			"byteLength":4512,
			"byteOffset":60224,
			"target":34962
		},
		{
			"buffer":0,
			"byteLength":2040,
			"byteOffset":64736,
			"target":34963
		}
	],
	"buffers":[
		{
			"byteLength":66776,
			"uri":"SmallContainer.bin"
		}
	]
}
