{
	"asset":{
		"generator":"Khronos glTF Blender I/O v4.0.44",
		"version":"2.0"
	},
	"scene":0,
	"scenes":[
		{
			"name":"Scene",
			"nodes":[
				0
			]
		}
	],
	"nodes":[
		{
			"mesh":0,
			"name":"body"
		}
	],
	"materials":[
		{
			"doubleSided":true,
			"name":"color1",
			"pbrMetallicRoughness":{
				"baseColorFactor":[
					1,
					1,
					1,
					1
				],
				"metallicFactor":0,
				"roughnessFactor":0
			}
		},
		{
			"doubleSided":true,
			"name":"color2",
			"pbrMetallicRoughness":{
				"baseColorFactor":[
					0.8004003763198853,
					0.8004003763198853,
					0.8004003763198853,
					1
				],
				"metallicFactor":1,
				"roughnessFactor":1
			}
		},
		{
			"doubleSided":true,
			"name":"Nut",
			"pbrMetallicRoughness":{
				"baseColorFactor":[
					1,
					1,
					1,
					1
				],
				"metallicFactor":1,
				"roughnessFactor":0
			}
		},
		{
			"doubleSided":true,
			"name":"fluid-connector",
			"pbrMetallicRoughness":{
				"baseColorFactor":[
					0.5,
					0.5,
					0.5,
					1
				],
				"metallicFactor":1,
				"roughnessFactor":1
			}
		},
		{
			"doubleSided":true,
			"name":"data-connector",
			"pbrMetallicRoughness":{
				"baseColorFactor":[
					0,
					0.05000019073486328,
					0.5,
					1
				],
				"metallicFactor":1,
				"roughnessFactor":1
			}
		},
		{
			"doubleSided":true,
			"name":"hv-connector",
			"pbrMetallicRoughness":{
				"baseColorFactor":[
					0.5,
					0.1499999761581421,
					0,
					1
				],
				"metallicFactor":1,
				"roughnessFactor":1
			}
		},
		{
			"doubleSided":true,
			"name":"body",
			"pbrMetallicRoughness":{
				"baseColorFactor":[
					0.009999999776482582,
					0.009999999776482582,
					0.009999999776482582,
					1
				],
				"metallicFactor":0,
				"roughnessFactor":1
			}
		},
		{
			"doubleSided":true,
			"name":"h2",
			"pbrMetallicRoughness":{
				"baseColorFactor":[
					0.8002121448516846,
					0.7361952066421509,
					0.1600424200296402,
					1
				],
				"metallicFactor":1,
				"roughnessFactor":1
			}
		},
		{
			"doubleSided":true,
			"name":"o2",
			"pbrMetallicRoughness":{
				"baseColorFactor":[
					0.19999998807907104,
					1,
					1,
					1
				],
				"metallicFactor":1,
				"roughnessFactor":1
			}
		},
		{
			"doubleSided":true,
			"name":"h20",
			"pbrMetallicRoughness":{
				"baseColorFactor":[
					0.1600313037633896,
					0.22404392063617706,
					0.8001565933227539,
					1
				],
				"metallicFactor":1,
				"roughnessFactor":1
			}
		}
	],
	"meshes":[
		{
			"name":"Cylinder",
			"primitives":[
				{
					"attributes":{
						"POSITION":0,
						"NORMAL":1
					},
					"indices":2,
					"material":0
				},
				{
					"attributes":{
						"POSITION":3,
						"NORMAL":4
					},
					"indices":5,
					"material":1
				},
				{
					"attributes":{
						"POSITION":6,
						"NORMAL":7
					},
					"indices":8,
					"material":2
				},
				{
					"attributes":{
						"POSITION":9,
						"NORMAL":10
					},
					"indices":11,
					"material":3
				},
				{
					"attributes":{
						"POSITION":12,
						"NORMAL":13
					},
					"indices":14,
					"material":4
				},
				{
					"attributes":{
						"POSITION":15,
						"NORMAL":16
					},
					"indices":17,
					"material":5
				},
				{
					"attributes":{
						"POSITION":18,
						"NORMAL":19
					},
					"indices":20,
					"material":6
				},
				{
					"attributes":{
						"POSITION":21,
						"NORMAL":22
					},
					"indices":23,
					"material":7
				},
				{
					"attributes":{
						"POSITION":24,
						"NORMAL":25
					},
					"indices":23,
					"material":8
				},
				{
					"attributes":{
						"POSITION":26,
						"NORMAL":27
					},
					"indices":23,
					"material":9
				}
			]
		}
	],
	"accessors":[
		{
			"bufferView":0,
			"componentType":5126,
			"count":2304,
			"max":[
				0.7958082556724548,
				0.43595606088638306,
				0.43595606088638306
			],
			"min":[
				-0.7958082556724548,
				-0.43595606088638306,
				-0.43595606088638306
			],
			"type":"VEC3"
		},
		{
			"bufferView":1,
			"componentType":5126,
			"count":2304,
			"type":"VEC3"
		},
		{
			"bufferView":2,
			"componentType":5123,
			"count":4596,
			"type":"SCALAR"
		},
		{
			"bufferView":3,
			"componentType":5126,
			"count":464,
			"max":[
				0.6425514817237854,
				0.5000000596046448,
				0.5
			],
			"min":[
				-0.6425514221191406,
				-0.5,
				-0.5
			],
			"type":"VEC3"
		},
		{
			"bufferView":4,
			"componentType":5126,
			"count":464,
			"type":"VEC3"
		},
		{
			"bufferView":5,
			"componentType":5123,
			"count":1320,
			"type":"SCALAR"
		},
		{
			"bufferView":6,
			"componentType":5126,
			"count":2016,
			"max":[
				0.9497218728065491,
				0.37408673763275146,
				0.37408676743507385
			],
			"min":[
				-0.9497218132019043,
				-0.27507105469703674,
				-0.37408679723739624
			],
			"type":"VEC3"
		},
		{
			"bufferView":7,
			"componentType":5126,
			"count":2016,
			"type":"VEC3"
		},
		{
			"bufferView":8,
			"componentType":5123,
			"count":4452,
			"type":"SCALAR"
		},
		{
			"bufferView":9,
			"componentType":5126,
			"count":11712,
			"max":[
				0.8283770680427551,
				0.10250165313482285,
				0.25250163674354553
			],
			"min":[
				-0.8283770680427551,
				-0.10250167548656464,
				-0.2525016963481903
			],
			"type":"VEC3"
		},
		{
			"bufferView":10,
			"componentType":5126,
			"count":11712,
			"type":"VEC3"
		},
		{
			"bufferView":11,
			"componentType":5123,
			"count":26118,
			"type":"SCALAR"
		},
		{
			"bufferView":12,
			"componentType":5126,
			"count":376,
			"max":[
				-0.7958078384399414,
				0.23378866910934448,
				0.02985920011997223
			],
			"min":[
				-0.8164567947387695,
				0.1740703284740448,
				-0.029859140515327454
			],
			"type":"VEC3"
		},
		{
			"bufferView":13,
			"componentType":5126,
			"count":376,
			"type":"VEC3"
		},
		{
			"bufferView":14,
			"componentType":5123,
			"count":1020,
			"type":"SCALAR"
		},
		{
			"bufferView":15,
			"componentType":5126,
			"count":696,
			"max":[
				-0.7958080172538757,
				-0.17389366030693054,
				0.07035046815872192
			],
			"min":[
				-0.8375272750854492,
				-0.3145945370197296,
				-0.07035040855407715
			],
			"type":"VEC3"
		},
		{
			"bufferView":16,
			"componentType":5126,
			"count":696,
			"type":"VEC3"
		},
		{
			"bufferView":17,
			"componentType":5123,
			"count":2148,
			"type":"SCALAR"
		},
		{
			"bufferView":18,
			"componentType":5126,
			"count":6280,
			"max":[
				0.9307729601860046,
				0.37408673763275146,
				0.37408676743507385
			],
			"min":[
				-0.9307726621627808,
				-0.27507105469703674,
				-0.37408679723739624
			],
			"type":"VEC3"
		},
		{
			"bufferView":19,
			"componentType":5126,
			"count":6280,
			"type":"VEC3"
		},
		{
			"bufferView":20,
			"componentType":5123,
			"count":18732,
			"type":"SCALAR"
		},
		{
			"bufferView":21,
			"componentType":5126,
			"count":704,
			"max":[
				0.8336413502693176,
				0.12489649653434753,
				0.274896502494812
			],
			"min":[
				0.7958076000213623,
				-0.12489655613899231,
				0.02510344237089157
			],
			"type":"VEC3"
		},
		{
			"bufferView":22,
			"componentType":5126,
			"count":704,
			"type":"VEC3"
		},
		{
			"bufferView":23,
			"componentType":5123,
			"count":2106,
			"type":"SCALAR"
		},
		{
			"bufferView":24,
			"componentType":5126,
			"count":704,
			"max":[
				0.8336413502693176,
				0.12489649653434753,
				-0.02510351501405239
			],
			"min":[
				0.7958076000213623,
				-0.12489655613899231,
				-0.2748965620994568
			],
			"type":"VEC3"
		},
		{
			"bufferView":25,
			"componentType":5126,
			"count":704,
			"type":"VEC3"
		},
		{
			"bufferView":26,
			"componentType":5126,
			"count":704,
			"max":[
				-0.7958076000213623,
				0.12489653378725052,
				0.12489655613899231
			],
			"min":[
				-0.8336413502693176,
				-0.12489651888608932,
				-0.12489649653434753
			],
			"type":"VEC3"
		},
		{
			"bufferView":27,
			"componentType":5126,
			"count":704,
			"type":"VEC3"
		}
	],
	"bufferViews":[
		{
			"buffer":0,
			"byteLength":27648,
			"byteOffset":0,
			"target":34962
		},
		{
			"buffer":0,
			"byteLength":27648,
			"byteOffset":27648,
			"target":34962
		},
		{
			"buffer":0,
			"byteLength":9192,
			"byteOffset":55296,
			"target":34963
		},
		{
			"buffer":0,
			"byteLength":5568,
			"byteOffset":64488,
			"target":34962
		},
		{
			"buffer":0,
			"byteLength":5568,
			"byteOffset":70056,
			"target":34962
		},
		{
			"buffer":0,
			"byteLength":2640,
			"byteOffset":75624,
			"target":34963
		},
		{
			"buffer":0,
			"byteLength":24192,
			"byteOffset":78264,
			"target":34962
		},
		{
			"buffer":0,
			"byteLength":24192,
			"byteOffset":102456,
			"target":34962
		},
		{
			"buffer":0,
			"byteLength":8904,
			"byteOffset":126648,
			"target":34963
		},
		{
			"buffer":0,
			"byteLength":140544,
			"byteOffset":135552,
			"target":34962
		},
		{
			"buffer":0,
			"byteLength":140544,
			"byteOffset":276096,
			"target":34962
		},
		{
			"buffer":0,
			"byteLength":52236,
			"byteOffset":416640,
			"target":34963
		},
		{
			"buffer":0,
			"byteLength":4512,
			"byteOffset":468876,
			"target":34962
		},
		{
			"buffer":0,
			"byteLength":4512,
			"byteOffset":473388,
			"target":34962
		},
		{
			"buffer":0,
			"byteLength":2040,
			"byteOffset":477900,
			"target":34963
		},
		{
			"buffer":0,
			"byteLength":8352,
			"byteOffset":479940,
			"target":34962
		},
		{
			"buffer":0,
			"byteLength":8352,
			"byteOffset":488292,
			"target":34962
		},
		{
			"buffer":0,
			"byteLength":4296,
			"byteOffset":496644,
			"target":34963
		},
		{
			"buffer":0,
			"byteLength":75360,
			"byteOffset":500940,
			"target":34962
		},
		{
			"buffer":0,
			"byteLength":75360,
			"byteOffset":576300,
			"target":34962
		},
		{
			"buffer":0,
			"byteLength":37464,
			"byteOffset":651660,
			"target":34963
		},
		{
			"buffer":0,
			"byteLength":8448,
			"byteOffset":689124,
			"target":34962
		},
		{
			"buffer":0,
			"byteLength":8448,
			"byteOffset":697572,
			"target":34962
		},
		{
			"buffer":0,
			"byteLength":4212,
			"byteOffset":706020,
			"target":34963
		},
		{
			"buffer":0,
			"byteLength":8448,
			"byteOffset":710232,
			"target":34962
		},
		{
			"buffer":0,
			"byteLength":8448,
			"byteOffset":718680,
			"target":34962
		},
		{
			"buffer":0,
			"byteLength":8448,
			"byteOffset":727128,
			"target":34962
		},
		{
			"buffer":0,
			"byteLength":8448,
			"byteOffset":735576,
			"target":34962
		}
	],
	"buffers":[
		{
			"byteLength":744024,
			"uri":"Electrolyser.bin"
		}
	]
}
