{
	"asset":{
		"generator":"Khronos glTF Blender I/O v3.6.6",
		"version":"2.0"
	},
	"scene":0,
	"scenes":[
		{
			"name":"grouped",
			"nodes":[
				0
			]
		}
	],
	"nodes":[
		{
			"mesh":0,
			"name":"seat",
			"rotation":[
				0.7071068286895752,
				0,
				0,
				0.7071068286895752
			],
			"translation":[
				0.005622731056064367,
				0.8212469816207886,
				0.04044269770383835
			]
		}
	],
	"materials":[
		{
			"doubleSided":true,
			"name":"cushion",
			"pbrMetallicRoughness":{
				"baseColorFactor":[
					0.006370242219418287,
					0.005790944676846266,
					0.005565753672271967,
					1
				],
				"metallicFactor":0,
				"roughnessFactor":1
			}
		},
		{
			"doubleSided":true,
			"name":"Material.003",
			"pbrMetallicRoughness":{
				"baseColorFactor":[
					0.1424006074666977,
					0.1424006074666977,
					0.1424006074666977,
					1
				],
				"metallicFactor":1,
				"roughnessFactor":1
			}
		},
		{
			"doubleSided":true,
			"name":"Material.004",
			"pbrMetallicRoughness":{
				"baseColorFactor":[
					1,
					1,
					1,
					1
				],
				"metallicFactor":1,
				"roughnessFactor":1
			}
		},
		{
			"doubleSided":true,
			"name":"Material.001",
			"pbrMetallicRoughness":{
				"baseColorFactor":[
					0.02037898823618889,
					0.02037898823618889,
					0.02037898823618889,
					1
				],
				"metallicFactor":1,
				"roughnessFactor":1
			}
		},
		{
			"doubleSided":true,
			"name":"Material.002",
			"pbrMetallicRoughness":{
				"baseColorFactor":[
					1,
					1,
					1,
					1
				],
				"metallicFactor":1,
				"roughnessFactor":1
			}
		},
		{
			"doubleSided":true,
			"name":"buttons",
			"pbrMetallicRoughness":{
				"baseColorFactor":[
					0.05221787095069885,
					0.05221787095069885,
					0.05221787095069885,
					1
				],
				"metallicFactor":1,
				"roughnessFactor":0
			}
		},
		{
			"doubleSided":true,
			"name":"connector",
			"pbrMetallicRoughness":{
				"baseColorFactor":[
					0,
					0.025288769975304604,
					0.8000000715255737,
					1
				],
				"metallicFactor":1,
				"roughnessFactor":1
			}
		}
	],
	"meshes":[
		{
			"name":"Box001",
			"primitives":[
				{
					"attributes":{
						"POSITION":0,
						"NORMAL":1
					},
					"indices":2,
					"material":0
				},
				{
					"attributes":{
						"POSITION":3,
						"NORMAL":4
					},
					"indices":5,
					"material":1
				},
				{
					"attributes":{
						"POSITION":6,
						"NORMAL":7
					},
					"indices":8,
					"material":2
				},
				{
					"attributes":{
						"POSITION":9,
						"NORMAL":10
					},
					"indices":11,
					"material":3
				},
				{
					"attributes":{
						"POSITION":12,
						"NORMAL":13
					},
					"indices":14,
					"material":4
				},
				{
					"attributes":{
						"POSITION":15,
						"NORMAL":16
					},
					"indices":17,
					"material":5
				},
				{
					"attributes":{
						"POSITION":18,
						"NORMAL":19
					},
					"indices":20,
					"material":6
				}
			]
		}
	],
	"accessors":[
		{
			"bufferView":0,
			"componentType":5126,
			"count":43342,
			"max":[
				0.3513434827327728,
				0.2704893946647644,
				0.04352297633886337
			],
			"min":[
				-0.3502531051635742,
				-0.41847437620162964,
				-0.983415961265564
			],
			"type":"VEC3"
		},
		{
			"bufferView":1,
			"componentType":5126,
			"count":43342,
			"type":"VEC3"
		},
		{
			"bufferView":2,
			"componentType":5123,
			"count":246984,
			"type":"SCALAR"
		},
		{
			"bufferView":3,
			"componentType":5126,
			"count":17183,
			"max":[
				0.3468838632106781,
				0.38826480507850647,
				0.47406166791915894
			],
			"min":[
				-0.3457939028739929,
				-0.3927994668483734,
				-0.9815796613693237
			],
			"type":"VEC3"
		},
		{
			"bufferView":4,
			"componentType":5126,
			"count":17183,
			"type":"VEC3"
		},
		{
			"bufferView":5,
			"componentType":5123,
			"count":73074,
			"type":"SCALAR"
		},
		{
			"bufferView":6,
			"componentType":5126,
			"count":4750,
			"max":[
				0.3096773624420166,
				0.39031723141670227,
				0.45670703053474426
			],
			"min":[
				-0.308696985244751,
				0.11409805715084076,
				-0.8587923049926758
			],
			"type":"VEC3"
		},
		{
			"bufferView":7,
			"componentType":5126,
			"count":4750,
			"type":"VEC3"
		},
		{
			"bufferView":8,
			"componentType":5123,
			"count":18954,
			"type":"SCALAR"
		},
		{
			"bufferView":9,
			"componentType":5126,
			"count":2132,
			"max":[
				0.06509576737880707,
				0.38091763854026794,
				-0.3867417275905609
			],
			"min":[
				-0.06400225311517715,
				0.2936532199382782,
				-0.7757339477539062
			],
			"type":"VEC3"
		},
		{
			"bufferView":10,
			"componentType":5126,
			"count":2132,
			"type":"VEC3"
		},
		{
			"bufferView":11,
			"componentType":5123,
			"count":8808,
			"type":"SCALAR"
		},
		{
			"bufferView":12,
			"componentType":5126,
			"count":536,
			"max":[
				0.3139778673648834,
				0.19373320043087006,
				-0.10797775536775589
			],
			"min":[
				-0.3128877282142639,
				0.14722205698490143,
				-0.16025519371032715
			],
			"type":"VEC3"
		},
		{
			"bufferView":13,
			"componentType":5126,
			"count":536,
			"type":"VEC3"
		},
		{
			"bufferView":14,
			"componentType":5123,
			"count":1920,
			"type":"SCALAR"
		},
		{
			"bufferView":15,
			"componentType":5126,
			"count":1860,
			"max":[
				0.35253360867500305,
				0.1520153433084488,
				-0.0009731734171509743
			],
			"min":[
				-0.35144349932670593,
				-0.20727868378162384,
				-0.22334975004196167
			],
			"type":"VEC3"
		},
		{
			"bufferView":16,
			"componentType":5126,
			"count":1860,
			"type":"VEC3"
		},
		{
			"bufferView":17,
			"componentType":5123,
			"count":8712,
			"type":"SCALAR"
		},
		{
			"bufferView":18,
			"componentType":5126,
			"count":376,
			"max":[
				0.16351687908172607,
				0.20680229365825653,
				0.4467659294605255
			],
			"min":[
				0.14286790788173676,
				0.14708393812179565,
				0.38704755902290344
			],
			"type":"VEC3"
		},
		{
			"bufferView":19,
			"componentType":5126,
			"count":376,
			"type":"VEC3"
		},
		{
			"bufferView":20,
			"componentType":5123,
			"count":1020,
			"type":"SCALAR"
		}
	],
	"bufferViews":[
		{
			"buffer":0,
			"byteLength":520104,
			"byteOffset":0,
			"target":34962
		},
		{
			"buffer":0,
			"byteLength":520104,
			"byteOffset":520104,
			"target":34962
		},
		{
			"buffer":0,
			"byteLength":493968,
			"byteOffset":1040208,
			"target":34963
		},
		{
			"buffer":0,
			"byteLength":206196,
			"byteOffset":1534176,
			"target":34962
		},
		{
			"buffer":0,
			"byteLength":206196,
			"byteOffset":1740372,
			"target":34962
		},
		{
			"buffer":0,
			"byteLength":146148,
			"byteOffset":1946568,
			"target":34963
		},
		{
			"buffer":0,
			"byteLength":57000,
			"byteOffset":2092716,
			"target":34962
		},
		{
			"buffer":0,
			"byteLength":57000,
			"byteOffset":2149716,
			"target":34962
		},
		{
			"buffer":0,
			"byteLength":37908,
			"byteOffset":2206716,
			"target":34963
		},
		{
			"buffer":0,
			"byteLength":25584,
			"byteOffset":2244624,
			"target":34962
		},
		{
			"buffer":0,
			"byteLength":25584,
			"byteOffset":2270208,
			"target":34962
		},
		{
			"buffer":0,
			"byteLength":17616,
			"byteOffset":2295792,
			"target":34963
		},
		{
			"buffer":0,
			"byteLength":6432,
			"byteOffset":2313408,
			"target":34962
		},
		{
			"buffer":0,
			"byteLength":6432,
			"byteOffset":2319840,
			"target":34962
		},
		{
			"buffer":0,
			"byteLength":3840,
			"byteOffset":2326272,
			"target":34963
		},
		{
			"buffer":0,
			"byteLength":22320,
			"byteOffset":2330112,
			"target":34962
		},
		{
			"buffer":0,
			"byteLength":22320,
			"byteOffset":2352432,
			"target":34962
		},
		{
			"buffer":0,
			"byteLength":17424,
			"byteOffset":2374752,
			"target":34963
		},
		{
			"buffer":0,
			"byteLength":4512,
			"byteOffset":2392176,
			"target":34962
		},
		{
			"buffer":0,
			"byteLength":4512,
			"byteOffset":2396688,
			"target":34962
		},
		{
			"buffer":0,
			"byteLength":2040,
			"byteOffset":2401200,
			"target":34963
		}
	],
	"buffers":[
		{
			"byteLength":2403240,
			"uri":"Seat.bin"
		}
	]
}
