{
	"asset":{
		"generator":"Khronos glTF Blender I/O v3.6.6",
		"version":"2.0"
	},
	"scene":0,
	"scenes":[
		{
			"name":"grouped",
			"nodes":[
				0
			]
		}
	],
	"nodes":[
		{
			"mesh":0,
			"name":"toilet",
			"translation":[
				0.018810372799634933,
				0.8734723329544067,
				0.011837780475616455
			]
		}
	],
	"materials":[
		{
			"doubleSided":true,
			"name":"seat",
			"pbrMetallicRoughness":{
				"baseColorFactor":[
					1,
					1,
					1,
					1
				],
				"metallicFactor":0,
				"roughnessFactor":1
			}
		},
		{
			"doubleSided":true,
			"name":"Toilet",
			"pbrMetallicRoughness":{
				"baseColorFactor":[
					1,
					1,
					1,
					1
				],
				"metallicFactor":0,
				"roughnessFactor":0
			}
		},
		{
			"doubleSided":true,
			"name":"metal",
			"pbrMetallicRoughness":{
				"baseColorFactor":[
					1,
					1,
					1,
					1
				],
				"metallicFactor":1,
				"roughnessFactor":0
			}
		},
		{
			"doubleSided":true,
			"name":"connector",
			"pbrMetallicRoughness":{
				"baseColorFactor":[
					0,
					0.025288769975304604,
					0.8000000715255737,
					1
				],
				"metallicFactor":1,
				"roughnessFactor":1
			}
		}
	],
	"meshes":[
		{
			"name":"toilet",
			"primitives":[
				{
					"attributes":{
						"POSITION":0,
						"NORMAL":1
					},
					"indices":2,
					"material":0
				},
				{
					"attributes":{
						"POSITION":3,
						"NORMAL":4
					},
					"indices":5,
					"material":1
				},
				{
					"attributes":{
						"POSITION":6,
						"NORMAL":7
					},
					"indices":8,
					"material":2
				},
				{
					"attributes":{
						"POSITION":9,
						"NORMAL":10
					},
					"indices":11,
					"material":3
				}
			]
		}
	],
	"accessors":[
		{
			"bufferView":0,
			"componentType":5126,
			"count":3458,
			"max":[
				0.22880786657333374,
				0.528539776802063,
				0.21456627547740936
			],
			"min":[
				-0.26744747161865234,
				-0.02266969531774521,
				-0.37184303998947144
			],
			"type":"VEC3"
		},
		{
			"bufferView":1,
			"componentType":5126,
			"count":3458,
			"type":"VEC3"
		},
		{
			"bufferView":2,
			"componentType":5123,
			"count":20076,
			"type":"SCALAR"
		},
		{
			"bufferView":3,
			"componentType":5126,
			"count":12050,
			"max":[
				0.2806348502635956,
				0.42681071162223816,
				0.4554073214530945
			],
			"min":[
				-0.318381130695343,
				-0.5267454385757446,
				-0.3744422197341919
			],
			"type":"VEC3"
		},
		{
			"bufferView":4,
			"componentType":5126,
			"count":12050,
			"type":"VEC3"
		},
		{
			"bufferView":5,
			"componentType":5123,
			"count":71160,
			"type":"SCALAR"
		},
		{
			"bufferView":6,
			"componentType":5126,
			"count":477,
			"max":[
				0.2788955867290497,
				0.359479159116745,
				0.22155743837356567
			],
			"min":[
				0.15849386155605316,
				0.31506577134132385,
				0.19356413185596466
			],
			"type":"VEC3"
		},
		{
			"bufferView":7,
			"componentType":5126,
			"count":477,
			"type":"VEC3"
		},
		{
			"bufferView":8,
			"componentType":5123,
			"count":2760,
			"type":"SCALAR"
		},
		{
			"bufferView":9,
			"componentType":5126,
			"count":197,
			"max":[
				0.19169914722442627,
				-0.0067460499703884125,
				0.3638532757759094
			],
			"min":[
				0.1319808065891266,
				-0.02739499881863594,
				0.30413496494293213
			],
			"type":"VEC3"
		},
		{
			"bufferView":10,
			"componentType":5126,
			"count":197,
			"type":"VEC3"
		},
		{
			"bufferView":11,
			"componentType":5123,
			"count":1080,
			"type":"SCALAR"
		}
	],
	"bufferViews":[
		{
			"buffer":0,
			"byteLength":41496,
			"byteOffset":0,
			"target":34962
		},
		{
			"buffer":0,
			"byteLength":41496,
			"byteOffset":41496,
			"target":34962
		},
		{
			"buffer":0,
			"byteLength":40152,
			"byteOffset":82992,
			"target":34963
		},
		{
			"buffer":0,
			"byteLength":144600,
			"byteOffset":123144,
			"target":34962
		},
		{
			"buffer":0,
			"byteLength":144600,
			"byteOffset":267744,
			"target":34962
		},
		{
			"buffer":0,
			"byteLength":142320,
			"byteOffset":412344,
			"target":34963
		},
		{
			"buffer":0,
			"byteLength":5724,
			"byteOffset":554664,
			"target":34962
		},
		{
			"buffer":0,
			"byteLength":5724,
			"byteOffset":560388,
			"target":34962
		},
		{
			"buffer":0,
			"byteLength":5520,
			"byteOffset":566112,
			"target":34963
		},
		{
			"buffer":0,
			"byteLength":2364,
			"byteOffset":571632,
			"target":34962
		},
		{
			"buffer":0,
			"byteLength":2364,
			"byteOffset":573996,
			"target":34962
		},
		{
			"buffer":0,
			"byteLength":2160,
			"byteOffset":576360,
			"target":34963
		}
	],
	"buffers":[
		{
			"byteLength":578520,
			"uri":"ToiletSeat.bin"
		}
	]
}
