{
	"asset":{
		"generator":"Khronos glTF Blender I/O v4.0.44",
		"version":"2.0"
	},
	"scene":0,
	"scenes":[
		{
			"name":"Scene",
			"nodes":[
				0
			]
		}
	],
	"nodes":[
		{
			"mesh":0,
			"name":"Body",
			"translation":[
				0,
				0,
				0.3388698101043701
			]
		}
	],
	"materials":[
		{
			"doubleSided":true,
			"name":"color1",
			"pbrMetallicRoughness":{
				"baseColorFactor":[
					1,
					1,
					1,
					1
				],
				"metallicFactor":0,
				"roughnessFactor":0
			}
		},
		{
			"doubleSided":true,
			"name":"antenna",
			"pbrMetallicRoughness":{
				"baseColorFactor":[
					0.009999999776482582,
					0.009999999776482582,
					0.009999999776482582,
					1
				],
				"metallicFactor":0,
				"roughnessFactor":1
			}
		},
		{
			"doubleSided":true,
			"name":"color2",
			"pbrMetallicRoughness":{
				"baseColorFactor":[
					0.800000011920929,
					0.800000011920929,
					0.800000011920929,
					1
				],
				"metallicFactor":1,
				"roughnessFactor":1
			}
		},
		{
			"doubleSided":true,
			"name":"data-connector",
			"pbrMetallicRoughness":{
				"baseColorFactor":[
					0,
					0.05000007152557373,
					0.5,
					1
				],
				"metallicFactor":1,
				"roughnessFactor":1
			}
		},
		{
			"doubleSided":true,
			"name":"lv-connector",
			"pbrMetallicRoughness":{
				"baseColorFactor":[
					0.5,
					0,
					0,
					1
				],
				"metallicFactor":1,
				"roughnessFactor":1
			}
		}
	],
	"meshes":[
		{
			"name":"Mesh",
			"primitives":[
				{
					"attributes":{
						"POSITION":0,
						"NORMAL":1
					},
					"indices":2,
					"material":0
				},
				{
					"attributes":{
						"POSITION":3,
						"NORMAL":4
					},
					"indices":5,
					"material":1
				},
				{
					"attributes":{
						"POSITION":6,
						"NORMAL":7
					},
					"indices":8,
					"material":2
				},
				{
					"attributes":{
						"POSITION":9,
						"NORMAL":10
					},
					"indices":11,
					"material":3
				},
				{
					"attributes":{
						"POSITION":12,
						"NORMAL":13
					},
					"indices":14,
					"material":4
				}
			]
		}
	],
	"accessors":[
		{
			"bufferView":0,
			"componentType":5126,
			"count":24,
			"max":[
				0.125,
				0.125,
				-0.21386981010437012
			],
			"min":[
				-0.125,
				-0.125,
				-0.4638698101043701
			],
			"type":"VEC3"
		},
		{
			"bufferView":1,
			"componentType":5126,
			"count":24,
			"type":"VEC3"
		},
		{
			"bufferView":2,
			"componentType":5123,
			"count":36,
			"type":"SCALAR"
		},
		{
			"bufferView":3,
			"componentType":5126,
			"count":800,
			"max":[
				0.04633009061217308,
				0.9454718828201294,
				-0.29253971576690674
			],
			"min":[
				-0.04633009061217308,
				0.1436738520860672,
				-0.3851999044418335
			],
			"type":"VEC3"
		},
		{
			"bufferView":4,
			"componentType":5126,
			"count":800,
			"type":"VEC3"
		},
		{
			"bufferView":5,
			"componentType":5123,
			"count":4698,
			"type":"SCALAR"
		},
		{
			"bufferView":6,
			"componentType":5126,
			"count":224,
			"max":[
				0.07116007804870605,
				0.14618641138076782,
				-0.26770973205566406
			],
			"min":[
				-0.07116007804870605,
				0.11388958245515823,
				-0.41002988815307617
			],
			"type":"VEC3"
		},
		{
			"bufferView":7,
			"componentType":5126,
			"count":224,
			"type":"VEC3"
		},
		{
			"bufferView":8,
			"componentType":5123,
			"count":666,
			"type":"SCALAR"
		},
		{
			"bufferView":9,
			"componentType":5126,
			"count":376,
			"max":[
				0.02985917031764984,
				0.09235917031764984,
				-0.19322086870670319
			],
			"min":[
				-0.02985917218029499,
				0.03264082968235016,
				-0.21386981010437012
			],
			"type":"VEC3"
		},
		{
			"bufferView":10,
			"componentType":5126,
			"count":376,
			"type":"VEC3"
		},
		{
			"bufferView":11,
			"componentType":5123,
			"count":1020,
			"type":"SCALAR"
		},
		{
			"bufferView":12,
			"componentType":5126,
			"count":312,
			"max":[
				0.030625849962234497,
				-0.0318741500377655,
				-0.1934894621372223
			],
			"min":[
				-0.030625848099589348,
				-0.0931258499622345,
				-0.2138698697090149
			],
			"type":"VEC3"
		},
		{
			"bufferView":13,
			"componentType":5126,
			"count":312,
			"type":"VEC3"
		},
		{
			"bufferView":14,
			"componentType":5123,
			"count":996,
			"type":"SCALAR"
		}
	],
	"bufferViews":[
		{
			"buffer":0,
			"byteLength":288,
			"byteOffset":0,
			"target":34962
		},
		{
			"buffer":0,
			"byteLength":288,
			"byteOffset":288,
			"target":34962
		},
		{
			"buffer":0,
			"byteLength":72,
			"byteOffset":576,
			"target":34963
		},
		{
			"buffer":0,
			"byteLength":9600,
			"byteOffset":648,
			"target":34962
		},
		{
			"buffer":0,
			"byteLength":9600,
			"byteOffset":10248,
			"target":34962
		},
		{
			"buffer":0,
			"byteLength":9396,
			"byteOffset":19848,
			"target":34963
		},
		{
			"buffer":0,
			"byteLength":2688,
			"byteOffset":29244,
			"target":34962
		},
		{
			"buffer":0,
			"byteLength":2688,
			"byteOffset":31932,
			"target":34962
		},
		{
			"buffer":0,
			"byteLength":1332,
			"byteOffset":34620,
			"target":34963
		},
		{
			"buffer":0,
			"byteLength":4512,
			"byteOffset":35952,
			"target":34962
		},
		{
			"buffer":0,
			"byteLength":4512,
			"byteOffset":40464,
			"target":34962
		},
		{
			"buffer":0,
			"byteLength":2040,
			"byteOffset":44976,
			"target":34963
		},
		{
			"buffer":0,
			"byteLength":3744,
			"byteOffset":47016,
			"target":34962
		},
		{
			"buffer":0,
			"byteLength":3744,
			"byteOffset":50760,
			"target":34962
		},
		{
			"buffer":0,
			"byteLength":1992,
			"byteOffset":54504,
			"target":34963
		}
	],
	"buffers":[
		{
			"byteLength":56496,
			"uri":"Beacon.bin"
		}
	]
}
