{
	"asset":{
		"generator":"Khronos glTF Blender I/O v3.6.6",
		"version":"2.0"
	},
	"scene":0,
	"scenes":[
		{
			"name":"Scene",
			"nodes":[
				0
			]
		}
	],
	"nodes":[
		{
			"mesh":0,
			"name":"Antenna",
			"translation":[
				0,
				0.31562474370002747,
				0.0378795750439167
			]
		}
	],
	"materials":[
		{
			"doubleSided":true,
			"name":"antenna",
			"pbrMetallicRoughness":{
				"baseColorFactor":[
					0.009999999776482582,
					0.009999999776482582,
					0.009999999776482582,
					1
				],
				"metallicFactor":0,
				"roughnessFactor":1
			}
		},
		{
			"doubleSided":true,
			"name":"color2",
			"pbrMetallicRoughness":{
				"baseColorFactor":[
					0.800000011920929,
					0.800000011920929,
					0.800000011920929,
					1
				],
				"metallicFactor":1,
				"roughnessFactor":1
			}
		},
		{
			"doubleSided":true,
			"name":"color1",
			"pbrMetallicRoughness":{
				"baseColorFactor":[
					1,
					1,
					1,
					1
				],
				"metallicFactor":0,
				"roughnessFactor":0
			}
		},
		{
			"doubleSided":true,
			"name":"data-connector",
			"pbrMetallicRoughness":{
				"baseColorFactor":[
					0,
					0.05000007152557373,
					0.5,
					1
				],
				"metallicFactor":1,
				"roughnessFactor":1
			}
		},
		{
			"doubleSided":true,
			"name":"lv-connector",
			"pbrMetallicRoughness":{
				"baseColorFactor":[
					0.5,
					0,
					0,
					1
				],
				"metallicFactor":1,
				"roughnessFactor":1
			}
		}
	],
	"meshes":[
		{
			"name":"Cylinder.001",
			"primitives":[
				{
					"attributes":{
						"POSITION":0,
						"NORMAL":1
					},
					"indices":2,
					"material":0
				},
				{
					"attributes":{
						"POSITION":3,
						"NORMAL":4
					},
					"indices":5,
					"material":1
				},
				{
					"attributes":{
						"POSITION":6,
						"NORMAL":7
					},
					"indices":8,
					"material":2
				},
				{
					"attributes":{
						"POSITION":9,
						"NORMAL":10
					},
					"indices":11,
					"material":3
				},
				{
					"attributes":{
						"POSITION":12,
						"NORMAL":13
					},
					"indices":14,
					"material":4
				}
			]
		}
	],
	"accessors":[
		{
			"bufferView":0,
			"componentType":5126,
			"count":800,
			"max":[
				0.04633009061217308,
				0.8204718828201294,
				0.04633009061217308
			],
			"min":[
				-0.04633009061217308,
				0.018673846498131752,
				-0.04633009061217308
			],
			"type":"VEC3"
		},
		{
			"bufferView":1,
			"componentType":5126,
			"count":800,
			"type":"VEC3"
		},
		{
			"bufferView":2,
			"componentType":5123,
			"count":4698,
			"type":"SCALAR"
		},
		{
			"bufferView":3,
			"componentType":5126,
			"count":224,
			"max":[
				0.07116007804870605,
				0.021186411380767822,
				0.07116007804870605
			],
			"min":[
				-0.07116007804870605,
				-0.011110414750874043,
				-0.07116007804870605
			],
			"type":"VEC3"
		},
		{
			"bufferView":4,
			"componentType":5126,
			"count":224,
			"type":"VEC3"
		},
		{
			"bufferView":5,
			"componentType":5123,
			"count":666,
			"type":"SCALAR"
		},
		{
			"bufferView":6,
			"componentType":5126,
			"count":56,
			"max":[
				0.1249999925494194,
				-0.0019370560767129064,
				0.0871204137802124
			],
			"min":[
				-0.1249999925494194,
				-0.31599751114845276,
				-0.11262897402048111
			],
			"type":"VEC3"
		},
		{
			"bufferView":7,
			"componentType":5126,
			"count":56,
			"type":"VEC3"
		},
		{
			"bufferView":8,
			"componentType":5123,
			"count":132,
			"type":"SCALAR"
		},
		{
			"bufferView":9,
			"componentType":5126,
			"count":376,
			"max":[
				-0.1249999925494194,
				-0.06204621493816376,
				0.04074544087052345
			],
			"min":[
				-0.14564894139766693,
				-0.12176455557346344,
				-0.01897289976477623
			],
			"type":"VEC3"
		},
		{
			"bufferView":10,
			"componentType":5126,
			"count":376,
			"type":"VEC3"
		},
		{
			"bufferView":11,
			"componentType":5123,
			"count":1020,
			"type":"SCALAR"
		},
		{
			"bufferView":12,
			"componentType":5126,
			"count":312,
			"max":[
				-0.12499993294477463,
				-0.1862795352935791,
				0.04151212051510811
			],
			"min":[
				-0.14538034796714783,
				-0.2475312352180481,
				-0.019739579409360886
			],
			"type":"VEC3"
		},
		{
			"bufferView":13,
			"componentType":5126,
			"count":312,
			"type":"VEC3"
		},
		{
			"bufferView":14,
			"componentType":5123,
			"count":996,
			"type":"SCALAR"
		}
	],
	"bufferViews":[
		{
			"buffer":0,
			"byteLength":9600,
			"byteOffset":0,
			"target":34962
		},
		{
			"buffer":0,
			"byteLength":9600,
			"byteOffset":9600,
			"target":34962
		},
		{
			"buffer":0,
			"byteLength":9396,
			"byteOffset":19200,
			"target":34963
		},
		{
			"buffer":0,
			"byteLength":2688,
			"byteOffset":28596,
			"target":34962
		},
		{
			"buffer":0,
			"byteLength":2688,
			"byteOffset":31284,
			"target":34962
		},
		{
			"buffer":0,
			"byteLength":1332,
			"byteOffset":33972,
			"target":34963
		},
		{
			"buffer":0,
			"byteLength":672,
			"byteOffset":35304,
			"target":34962
		},
		{
			"buffer":0,
			"byteLength":672,
			"byteOffset":35976,
			"target":34962
		},
		{
			"buffer":0,
			"byteLength":264,
			"byteOffset":36648,
			"target":34963
		},
		{
			"buffer":0,
			"byteLength":4512,
			"byteOffset":36912,
			"target":34962
		},
		{
			"buffer":0,
			"byteLength":4512,
			"byteOffset":41424,
			"target":34962
		},
		{
			"buffer":0,
			"byteLength":2040,
			"byteOffset":45936,
			"target":34963
		},
		{
			"buffer":0,
			"byteLength":3744,
			"byteOffset":47976,
			"target":34962
		},
		{
			"buffer":0,
			"byteLength":3744,
			"byteOffset":51720,
			"target":34962
		},
		{
			"buffer":0,
			"byteLength":1992,
			"byteOffset":55464,
			"target":34963
		}
	],
	"buffers":[
		{
			"byteLength":57456,
			"uri":"Beacon.bin"
		}
	]
}
