{
	"asset":{
		"generator":"Khronos glTF Blender I/O v3.6.6",
		"version":"2.0"
	},
	"scene":0,
	"scenes":[
		{
			"name":"Scene",
			"nodes":[
				0
			]
		}
	],
	"nodes":[
		{
			"mesh":0,
			"name":"instrument"
		}
	],
	"materials":[
		{
			"doubleSided":true,
			"name":"color1",
			"pbrMetallicRoughness":{
				"baseColorFactor":[
					1,
					1,
					1,
					1
				],
				"metallicFactor":0,
				"roughnessFactor":0
			}
		},
		{
			"doubleSided":true,
			"name":"screen",
			"pbrMetallicRoughness":{
				"baseColorFactor":[
					0,
					0,
					0,
					1
				],
				"metallicFactor":0,
				"roughnessFactor":0
			}
		},
		{
			"doubleSided":true,
			"name":"data-connector",
			"pbrMetallicRoughness":{
				"baseColorFactor":[
					0,
					0.05000007152557373,
					0.5,
					1
				],
				"metallicFactor":1,
				"roughnessFactor":1
			}
		},
		{
			"doubleSided":true,
			"name":"lv-connector",
			"pbrMetallicRoughness":{
				"baseColorFactor":[
					0.5,
					0,
					0,
					1
				],
				"metallicFactor":1,
				"roughnessFactor":1
			}
		}
	],
	"meshes":[
		{
			"name":"Cube.001",
			"primitives":[
				{
					"attributes":{
						"POSITION":0,
						"TEXCOORD_0":1,
						"NORMAL":2
					},
					"indices":3,
					"material":0
				},
				{
					"attributes":{
						"POSITION":4,
						"TEXCOORD_0":5,
						"NORMAL":6
					},
					"indices":7,
					"material":1
				},
				{
					"attributes":{
						"POSITION":8,
						"TEXCOORD_0":9,
						"NORMAL":10
					},
					"indices":11,
					"material":2
				},
				{
					"attributes":{
						"POSITION":12,
						"TEXCOORD_0":13,
						"NORMAL":14
					},
					"indices":15,
					"material":3
				}
			]
		}
	],
	"accessors":[
		{
			"bufferView":0,
			"componentType":5126,
			"count":220,
			"max":[
				0.4999324083328247,
				0.3470079302787781,
				0.2944123446941376
			],
			"min":[
				-0.4999324679374695,
				-0.402383029460907,
				-0.3470079302787781
			],
			"type":"VEC3"
		},
		{
			"bufferView":1,
			"componentType":5126,
			"count":220,
			"type":"VEC2"
		},
		{
			"bufferView":2,
			"componentType":5126,
			"count":220,
			"type":"VEC3"
		},
		{
			"bufferView":3,
			"componentType":5123,
			"count":585,
			"type":"SCALAR"
		},
		{
			"bufferView":4,
			"componentType":5126,
			"count":16,
			"max":[
				0.4760245382785797,
				0.3327300250530243,
				0.2675531804561615
			],
			"min":[
				-0.4760245978832245,
				-0.2675531208515167,
				-0.3327300250530243
			],
			"type":"VEC3"
		},
		{
			"bufferView":5,
			"componentType":5126,
			"count":16,
			"type":"VEC2"
		},
		{
			"bufferView":6,
			"componentType":5126,
			"count":16,
			"type":"VEC3"
		},
		{
			"bufferView":7,
			"componentType":5123,
			"count":42,
			"type":"SCALAR"
		},
		{
			"bufferView":8,
			"componentType":5126,
			"count":372,
			"max":[
				0.5205813646316528,
				-0.31853848695755005,
				0.1704610139131546
			],
			"min":[
				0.4999324083328247,
				-0.3782568573951721,
				0.11074267327785492
			],
			"type":"VEC3"
		},
		{
			"bufferView":9,
			"componentType":5126,
			"count":372,
			"type":"VEC2"
		},
		{
			"bufferView":10,
			"componentType":5126,
			"count":372,
			"type":"VEC3"
		},
		{
			"bufferView":11,
			"componentType":5123,
			"count":1062,
			"type":"SCALAR"
		},
		{
			"bufferView":12,
			"componentType":5126,
			"count":289,
			"max":[
				0.5203127264976501,
				-0.3177718222141266,
				0.27134376764297485
			],
			"min":[
				0.4999324083328247,
				-0.3790235221385956,
				0.21009205281734467
			],
			"type":"VEC3"
		},
		{
			"bufferView":13,
			"componentType":5126,
			"count":289,
			"type":"VEC2"
		},
		{
			"bufferView":14,
			"componentType":5126,
			"count":289,
			"type":"VEC3"
		},
		{
			"bufferView":15,
			"componentType":5123,
			"count":933,
			"type":"SCALAR"
		}
	],
	"bufferViews":[
		{
			"buffer":0,
			"byteLength":2640,
			"byteOffset":0,
			"target":34962
		},
		{
			"buffer":0,
			"byteLength":1760,
			"byteOffset":2640,
			"target":34962
		},
		{
			"buffer":0,
			"byteLength":2640,
			"byteOffset":4400,
			"target":34962
		},
		{
			"buffer":0,
			"byteLength":1170,
			"byteOffset":7040,
			"target":34963
		},
		{
			"buffer":0,
			"byteLength":192,
			"byteOffset":8212,
			"target":34962
		},
		{
			"buffer":0,
			"byteLength":128,
			"byteOffset":8404,
			"target":34962
		},
		{
			"buffer":0,
			"byteLength":192,
			"byteOffset":8532,
			"target":34962
		},
		{
			"buffer":0,
			"byteLength":84,
			"byteOffset":8724,
			"target":34963
		},
		{
			"buffer":0,
			"byteLength":4464,
			"byteOffset":8808,
			"target":34962
		},
		{
			"buffer":0,
			"byteLength":2976,
			"byteOffset":13272,
			"target":34962
		},
		{
			"buffer":0,
			"byteLength":4464,
			"byteOffset":16248,
			"target":34962
		},
		{
			"buffer":0,
			"byteLength":2124,
			"byteOffset":20712,
			"target":34963
		},
		{
			"buffer":0,
			"byteLength":3468,
			"byteOffset":22836,
			"target":34962
		},
		{
			"buffer":0,
			"byteLength":2312,
			"byteOffset":26304,
			"target":34962
		},
		{
			"buffer":0,
			"byteLength":3468,
			"byteOffset":28616,
			"target":34962
		},
		{
			"buffer":0,
			"byteLength":1866,
			"byteOffset":32084,
			"target":34963
		}
	],
	"buffers":[
		{
			"byteLength":33952,
			"uri":"NavInstrument.bin"
		}
	]
}
