{
	"asset":{
		"generator":"Khronos glTF Blender I/O v4.0.44",
		"version":"2.0"
	},
	"scene":0,
	"scenes":[
		{
			"name":"Scene",
			"nodes":[
				0
			]
		}
	],
	"nodes":[
		{
			"mesh":0,
			"name":"instrument"
		}
	],
	"materials":[
		{
			"doubleSided":true,
			"name":"color1",
			"pbrMetallicRoughness":{
				"baseColorFactor":[
					1,
					1,
					1,
					1
				],
				"metallicFactor":0,
				"roughnessFactor":0
			}
		},
		{
			"doubleSided":true,
			"name":"screen",
			"pbrMetallicRoughness":{
				"baseColorFactor":[
					0,
					0,
					0,
					1
				],
				"metallicFactor":0,
				"roughnessFactor":0
			}
		},
		{
			"doubleSided":true,
			"name":"data-connector",
			"pbrMetallicRoughness":{
				"baseColorFactor":[
					0,
					0.05000007152557373,
					0.5,
					1
				],
				"metallicFactor":1,
				"roughnessFactor":1
			}
		},
		{
			"doubleSided":true,
			"name":"lv-connector",
			"pbrMetallicRoughness":{
				"baseColorFactor":[
					0.5,
					0,
					0,
					1
				],
				"metallicFactor":1,
				"roughnessFactor":1
			}
		}
	],
	"meshes":[
		{
			"name":"Cube.001",
			"primitives":[
				{
					"attributes":{
						"POSITION":0,
						"NORMAL":1,
						"TEXCOORD_0":2
					},
					"indices":3,
					"material":0
				},
				{
					"attributes":{
						"POSITION":4,
						"NORMAL":5,
						"TEXCOORD_0":6
					},
					"indices":7,
					"material":1
				},
				{
					"attributes":{
						"POSITION":8,
						"NORMAL":9,
						"TEXCOORD_0":10
					},
					"indices":11,
					"material":2
				},
				{
					"attributes":{
						"POSITION":12,
						"NORMAL":13,
						"TEXCOORD_0":14
					},
					"indices":15,
					"material":3
				}
			]
		}
	],
	"accessors":[
		{
			"bufferView":0,
			"componentType":5126,
			"count":239,
			"max":[
				0.4999324083328247,
				0.3475983738899231,
				0.29659971594810486
			],
			"min":[
				-0.4999324679374695,
				-0.402383029460907,
				-0.45301342010498047
			],
			"type":"VEC3"
		},
		{
			"bufferView":1,
			"componentType":5126,
			"count":239,
			"type":"VEC3"
		},
		{
			"bufferView":2,
			"componentType":5126,
			"count":239,
			"type":"VEC2"
		},
		{
			"bufferView":3,
			"componentType":5123,
			"count":570,
			"type":"SCALAR"
		},
		{
			"bufferView":4,
			"componentType":5126,
			"count":16,
			"max":[
				0.4760245382785797,
				0.3327300250530243,
				0.1615476906299591
			],
			"min":[
				-0.4760245978832245,
				-0.2675531208515167,
				-0.4387355148792267
			],
			"type":"VEC3"
		},
		{
			"bufferView":5,
			"componentType":5126,
			"count":16,
			"type":"VEC3"
		},
		{
			"bufferView":6,
			"componentType":5126,
			"count":16,
			"type":"VEC2"
		},
		{
			"bufferView":7,
			"componentType":5123,
			"count":42,
			"type":"SCALAR"
		},
		{
			"bufferView":8,
			"componentType":5126,
			"count":376,
			"max":[
				0.5205813646316528,
				-0.31853848695755005,
				0.1704610139131546
			],
			"min":[
				0.4999324083328247,
				-0.3782568573951721,
				0.11074267327785492
			],
			"type":"VEC3"
		},
		{
			"bufferView":9,
			"componentType":5126,
			"count":376,
			"type":"VEC3"
		},
		{
			"bufferView":10,
			"componentType":5126,
			"count":376,
			"type":"VEC2"
		},
		{
			"bufferView":11,
			"componentType":5123,
			"count":1020,
			"type":"SCALAR"
		},
		{
			"bufferView":12,
			"componentType":5126,
			"count":312,
			"max":[
				0.5203127264976501,
				-0.3177718222141266,
				0.27134376764297485
			],
			"min":[
				0.49993234872817993,
				-0.3790235221385956,
				0.21009205281734467
			],
			"type":"VEC3"
		},
		{
			"bufferView":13,
			"componentType":5126,
			"count":312,
			"type":"VEC3"
		},
		{
			"bufferView":14,
			"componentType":5126,
			"count":312,
			"type":"VEC2"
		},
		{
			"bufferView":15,
			"componentType":5123,
			"count":996,
			"type":"SCALAR"
		}
	],
	"bufferViews":[
		{
			"buffer":0,
			"byteLength":2868,
			"byteOffset":0,
			"target":34962
		},
		{
			"buffer":0,
			"byteLength":2868,
			"byteOffset":2868,
			"target":34962
		},
		{
			"buffer":0,
			"byteLength":1912,
			"byteOffset":5736,
			"target":34962
		},
		{
			"buffer":0,
			"byteLength":1140,
			"byteOffset":7648,
			"target":34963
		},
		{
			"buffer":0,
			"byteLength":192,
			"byteOffset":8788,
			"target":34962
		},
		{
			"buffer":0,
			"byteLength":192,
			"byteOffset":8980,
			"target":34962
		},
		{
			"buffer":0,
			"byteLength":128,
			"byteOffset":9172,
			"target":34962
		},
		{
			"buffer":0,
			"byteLength":84,
			"byteOffset":9300,
			"target":34963
		},
		{
			"buffer":0,
			"byteLength":4512,
			"byteOffset":9384,
			"target":34962
		},
		{
			"buffer":0,
			"byteLength":4512,
			"byteOffset":13896,
			"target":34962
		},
		{
			"buffer":0,
			"byteLength":3008,
			"byteOffset":18408,
			"target":34962
		},
		{
			"buffer":0,
			"byteLength":2040,
			"byteOffset":21416,
			"target":34963
		},
		{
			"buffer":0,
			"byteLength":3744,
			"byteOffset":23456,
			"target":34962
		},
		{
			"buffer":0,
			"byteLength":3744,
			"byteOffset":27200,
			"target":34962
		},
		{
			"buffer":0,
			"byteLength":2496,
			"byteOffset":30944,
			"target":34962
		},
		{
			"buffer":0,
			"byteLength":1992,
			"byteOffset":33440,
			"target":34963
		}
	],
	"buffers":[
		{
			"byteLength":35432,
			"uri":"NavInstrument.bin"
		}
	]
}
