{
	"asset":{
		"generator":"Khronos glTF Blender I/O v4.0.44",
		"version":"2.0"
	},
	"scene":0,
	"scenes":[
		{
			"name":"Scene",
			"nodes":[
				0
			]
		}
	],
	"nodes":[
		{
			"mesh":0,
			"name":"body"
		}
	],
	"materials":[
		{
			"doubleSided":true,
			"name":"color1",
			"pbrMetallicRoughness":{
				"baseColorFactor":[
					1,
					1,
					1,
					1
				],
				"metallicFactor":0,
				"roughnessFactor":0
			}
		},
		{
			"doubleSided":true,
			"name":"body",
			"pbrMetallicRoughness":{
				"baseColorFactor":[
					0.009999999776482582,
					0.009999999776482582,
					0.009999999776482582,
					1
				],
				"metallicFactor":0,
				"roughnessFactor":1
			}
		},
		{
			"doubleSided":true,
			"name":"fluid-connector",
			"pbrMetallicRoughness":{
				"baseColorFactor":[
					0.5,
					0.5,
					0.5,
					1
				],
				"metallicFactor":1,
				"roughnessFactor":1
			}
		},
		{
			"doubleSided":true,
			"name":"hole",
			"pbrMetallicRoughness":{
				"baseColorFactor":[
					0,
					0,
					0,
					1
				],
				"metallicFactor":1,
				"roughnessFactor":0
			}
		}
	],
	"meshes":[
		{
			"name":"Cube",
			"primitives":[
				{
					"attributes":{
						"POSITION":0,
						"NORMAL":1
					},
					"indices":2,
					"material":0
				},
				{
					"attributes":{
						"POSITION":3,
						"NORMAL":4
					},
					"indices":5,
					"material":1
				},
				{
					"attributes":{
						"POSITION":6,
						"NORMAL":7
					},
					"indices":8,
					"material":2
				},
				{
					"attributes":{
						"POSITION":9,
						"NORMAL":10
					},
					"indices":11,
					"material":3
				}
			]
		}
	],
	"accessors":[
		{
			"bufferView":0,
			"componentType":5126,
			"count":88,
			"max":[
				0.125,
				0.125,
				0.125
			],
			"min":[
				-0.125,
				-0.125,
				-0.125
			],
			"type":"VEC3"
		},
		{
			"bufferView":1,
			"componentType":5126,
			"count":88,
			"type":"VEC3"
		},
		{
			"bufferView":2,
			"componentType":5123,
			"count":234,
			"type":"SCALAR"
		},
		{
			"bufferView":3,
			"componentType":5126,
			"count":704,
			"max":[
				0.08792775124311447,
				0.08792780339717865,
				0.05775099992752075
			],
			"min":[
				-0.08792775124311447,
				-0.08792774379253387,
				-0.125
			],
			"type":"VEC3"
		},
		{
			"bufferView":4,
			"componentType":5126,
			"count":704,
			"type":"VEC3"
		},
		{
			"bufferView":5,
			"componentType":5123,
			"count":3456,
			"type":"SCALAR"
		},
		{
			"bufferView":6,
			"componentType":5126,
			"count":4608,
			"max":[
				0.12489652633666992,
				0.12489652633666992,
				0.16283352673053741
			],
			"min":[
				-0.12489652633666992,
				-0.12489652633666992,
				0.1249997466802597
			],
			"type":"VEC3"
		},
		{
			"bufferView":7,
			"componentType":5126,
			"count":4608,
			"type":"VEC3"
		},
		{
			"bufferView":8,
			"componentType":5123,
			"count":10812,
			"type":"SCALAR"
		},
		{
			"bufferView":9,
			"componentType":5126,
			"count":320,
			"max":[
				0.08296526968479156,
				0.08296533674001694,
				0.12289667129516602
			],
			"min":[
				-0.08296526968479156,
				-0.08296531438827515,
				0.05775091052055359
			],
			"type":"VEC3"
		},
		{
			"bufferView":10,
			"componentType":5126,
			"count":320,
			"type":"VEC3"
		},
		{
			"bufferView":11,
			"componentType":5123,
			"count":954,
			"type":"SCALAR"
		}
	],
	"bufferViews":[
		{
			"buffer":0,
			"byteLength":1056,
			"byteOffset":0,
			"target":34962
		},
		{
			"buffer":0,
			"byteLength":1056,
			"byteOffset":1056,
			"target":34962
		},
		{
			"buffer":0,
			"byteLength":468,
			"byteOffset":2112,
			"target":34963
		},
		{
			"buffer":0,
			"byteLength":8448,
			"byteOffset":2580,
			"target":34962
		},
		{
			"buffer":0,
			"byteLength":8448,
			"byteOffset":11028,
			"target":34962
		},
		{
			"buffer":0,
			"byteLength":6912,
			"byteOffset":19476,
			"target":34963
		},
		{
			"buffer":0,
			"byteLength":55296,
			"byteOffset":26388,
			"target":34962
		},
		{
			"buffer":0,
			"byteLength":55296,
			"byteOffset":81684,
			"target":34962
		},
		{
			"buffer":0,
			"byteLength":21624,
			"byteOffset":136980,
			"target":34963
		},
		{
			"buffer":0,
			"byteLength":3840,
			"byteOffset":158604,
			"target":34962
		},
		{
			"buffer":0,
			"byteLength":3840,
			"byteOffset":162444,
			"target":34962
		},
		{
			"buffer":0,
			"byteLength":1908,
			"byteOffset":166284,
			"target":34963
		}
	],
	"buffers":[
		{
			"byteLength":168192,
			"uri":"FluidPort.bin"
		}
	]
}
