{
	"asset":{
		"generator":"Khronos glTF Blender I/O v4.0.44",
		"version":"2.0"
	},
	"scene":0,
	"scenes":[
		{
			"name":"Scene",
			"nodes":[
				0
			]
		}
	],
	"nodes":[
		{
			"mesh":0,
			"name":"body",
			"translation":[
				0,
				0,
				0.0015500353183597326
			]
		}
	],
	"materials":[
		{
			"doubleSided":true,
			"name":"color1",
			"pbrMetallicRoughness":{
				"baseColorFactor":[
					1,
					1,
					1,
					1
				],
				"metallicFactor":0,
				"roughnessFactor":0
			}
		},
		{
			"doubleSided":true,
			"name":"data-connector",
			"pbrMetallicRoughness":{
				"baseColorFactor":[
					0,
					0.05000007152557373,
					0.5,
					1
				],
				"metallicFactor":1,
				"roughnessFactor":1
			}
		},
		{
			"doubleSided":true,
			"name":"lv-connector",
			"pbrMetallicRoughness":{
				"baseColorFactor":[
					0.5,
					0,
					0,
					1
				],
				"metallicFactor":1,
				"roughnessFactor":1
			}
		}
	],
	"meshes":[
		{
			"name":"Cube.001",
			"primitives":[
				{
					"attributes":{
						"POSITION":0,
						"NORMAL":1
					},
					"indices":2,
					"material":0
				},
				{
					"attributes":{
						"POSITION":3,
						"NORMAL":4
					},
					"indices":5,
					"material":1
				},
				{
					"attributes":{
						"POSITION":6,
						"NORMAL":7
					},
					"indices":8,
					"material":2
				}
			]
		}
	],
	"accessors":[
		{
			"bufferView":0,
			"componentType":5126,
			"count":300,
			"max":[
				0.12499994784593582,
				0.2500002086162567,
				0.12344768643379211
			],
			"min":[
				-0.12500004470348358,
				-0.24999967217445374,
				-0.12799695134162903
			],
			"type":"VEC3"
		},
		{
			"bufferView":1,
			"componentType":5126,
			"count":300,
			"type":"VEC3"
		},
		{
			"bufferView":2,
			"componentType":5123,
			"count":456,
			"type":"SCALAR"
		},
		{
			"bufferView":3,
			"componentType":5126,
			"count":5264,
			"max":[
				0.14564889669418335,
				0.21735908091068268,
				0.09080725908279419
			],
			"min":[
				-0.1456487625837326,
				-0.2173592746257782,
				-0.10224442183971405
			],
			"type":"VEC3"
		},
		{
			"bufferView":4,
			"componentType":5126,
			"count":5264,
			"type":"VEC3"
		},
		{
			"bufferView":5,
			"componentType":5123,
			"count":14280,
			"type":"SCALAR"
		},
		{
			"bufferView":6,
			"componentType":5126,
			"count":312,
			"max":[
				0.030625801533460617,
				0.27038055658340454,
				0.02907353639602661
			],
			"min":[
				-0.030625898391008377,
				0.25000014901161194,
				-0.03217816352844238
			],
			"type":"VEC3"
		},
		{
			"bufferView":7,
			"componentType":5126,
			"count":312,
			"type":"VEC3"
		},
		{
			"bufferView":8,
			"componentType":5123,
			"count":996,
			"type":"SCALAR"
		}
	],
	"bufferViews":[
		{
			"buffer":0,
			"byteLength":3600,
			"byteOffset":0,
			"target":34962
		},
		{
			"buffer":0,
			"byteLength":3600,
			"byteOffset":3600,
			"target":34962
		},
		{
			"buffer":0,
			"byteLength":912,
			"byteOffset":7200,
			"target":34963
		},
		{
			"buffer":0,
			"byteLength":63168,
			"byteOffset":8112,
			"target":34962
		},
		{
			"buffer":0,
			"byteLength":63168,
			"byteOffset":71280,
			"target":34962
		},
		{
			"buffer":0,
			"byteLength":28560,
			"byteOffset":134448,
			"target":34963
		},
		{
			"buffer":0,
			"byteLength":3744,
			"byteOffset":163008,
			"target":34962
		},
		{
			"buffer":0,
			"byteLength":3744,
			"byteOffset":166752,
			"target":34962
		},
		{
			"buffer":0,
			"byteLength":1992,
			"byteOffset":170496,
			"target":34963
		}
	],
	"buffers":[
		{
			"byteLength":172488,
			"uri":"MiniRouter.bin"
		}
	]
}
