{
	"asset":{
		"generator":"Khronos glTF Blender I/O v3.6.6",
		"version":"2.0"
	},
	"scene":0,
	"scenes":[
		{
			"name":"Scene",
			"nodes":[
				0
			]
		}
	],
	"nodes":[
		{
			"mesh":0,
			"name":"box.001",
			"translation":[
				0,
				0,
				1.4144071340560913
			]
		}
	],
	"materials":[
		{
			"doubleSided":true,
			"name":"color2",
			"pbrMetallicRoughness":{
				"baseColorFactor":[
					0.800000011920929,
					0.800000011920929,
					0.800000011920929,
					1
				],
				"metallicFactor":1,
				"roughnessFactor":1
			}
		},
		{
			"doubleSided":true,
			"name":"data-connector",
			"pbrMetallicRoughness":{
				"baseColorFactor":[
					0,
					0.05000007152557373,
					0.5,
					1
				],
				"metallicFactor":1,
				"roughnessFactor":1
			}
		},
		{
			"doubleSided":true,
			"name":"hv-connector",
			"pbrMetallicRoughness":{
				"baseColorFactor":[
					0.5,
					0.1499999761581421,
					0,
					1
				],
				"metallicFactor":1,
				"roughnessFactor":1
			}
		}
	],
	"meshes":[
		{
			"name":"Cube.002",
			"primitives":[
				{
					"attributes":{
						"POSITION":0,
						"NORMAL":1
					},
					"indices":2,
					"material":0
				},
				{
					"attributes":{
						"POSITION":3,
						"NORMAL":4
					},
					"indices":5,
					"material":1
				},
				{
					"attributes":{
						"POSITION":6,
						"NORMAL":7
					},
					"indices":8,
					"material":2
				}
			]
		}
	],
	"accessors":[
		{
			"bufferView":0,
			"componentType":5126,
			"count":72,
			"max":[
				0.125,
				0.125,
				0.09375005960464478
			],
			"min":[
				-0.125,
				-0.125,
				-0.09374994039535522
			],
			"type":"VEC3"
		},
		{
			"bufferView":1,
			"componentType":5126,
			"count":72,
			"type":"VEC3"
		},
		{
			"bufferView":2,
			"componentType":5123,
			"count":132,
			"type":"SCALAR"
		},
		{
			"bufferView":3,
			"componentType":5126,
			"count":376,
			"max":[
				-0.1249999925494194,
				-0.047943711280822754,
				0.02985917031764984
			],
			"min":[
				-0.14564894139766693,
				-0.10766205191612244,
				-0.02985917031764984
			],
			"type":"VEC3"
		},
		{
			"bufferView":4,
			"componentType":5126,
			"count":376,
			"type":"VEC3"
		},
		{
			"bufferView":5,
			"componentType":5123,
			"count":1020,
			"type":"SCALAR"
		},
		{
			"bufferView":6,
			"componentType":5126,
			"count":1392,
			"max":[
				0.1667194664478302,
				0.11754755675792694,
				0.07035043835639954
			],
			"min":[
				-0.1667194664478302,
				-0.07035043835639954,
				-0.07035043835639954
			],
			"type":"VEC3"
		},
		{
			"bufferView":7,
			"componentType":5126,
			"count":1392,
			"type":"VEC3"
		},
		{
			"bufferView":8,
			"componentType":5123,
			"count":4296,
			"type":"SCALAR"
		}
	],
	"bufferViews":[
		{
			"buffer":0,
			"byteLength":864,
			"byteOffset":0,
			"target":34962
		},
		{
			"buffer":0,
			"byteLength":864,
			"byteOffset":864,
			"target":34962
		},
		{
			"buffer":0,
			"byteLength":264,
			"byteOffset":1728,
			"target":34963
		},
		{
			"buffer":0,
			"byteLength":4512,
			"byteOffset":1992,
			"target":34962
		},
		{
			"buffer":0,
			"byteLength":4512,
			"byteOffset":6504,
			"target":34962
		},
		{
			"buffer":0,
			"byteLength":2040,
			"byteOffset":11016,
			"target":34963
		},
		{
			"buffer":0,
			"byteLength":16704,
			"byteOffset":13056,
			"target":34962
		},
		{
			"buffer":0,
			"byteLength":16704,
			"byteOffset":29760,
			"target":34962
		},
		{
			"buffer":0,
			"byteLength":8592,
			"byteOffset":46464,
			"target":34963
		}
	],
	"buffers":[
		{
			"byteLength":55056,
			"uri":"HighVoltageRelay.bin"
		}
	]
}
