{
	"asset":{
		"generator":"Khronos glTF Blender I/O v4.0.44",
		"version":"2.0"
	},
	"scene":0,
	"scenes":[
		{
			"name":"Scene",
			"nodes":[
				0
			]
		}
	],
	"nodes":[
		{
			"mesh":0,
			"name":"box"
		}
	],
	"materials":[
		{
			"doubleSided":true,
			"name":"color2",
			"pbrMetallicRoughness":{
				"baseColorFactor":[
					0.800000011920929,
					0.800000011920929,
					0.800000011920929,
					1
				],
				"metallicFactor":1,
				"roughnessFactor":1
			}
		},
		{
			"doubleSided":true,
			"name":"lv-connecor",
			"pbrMetallicRoughness":{
				"baseColorFactor":[
					0.5,
					0,
					0,
					1
				],
				"metallicFactor":1,
				"roughnessFactor":1
			}
		},
		{
			"doubleSided":true,
			"name":"data-connector",
			"pbrMetallicRoughness":{
				"baseColorFactor":[
					0,
					0.05000007152557373,
					0.5,
					1
				],
				"metallicFactor":1,
				"roughnessFactor":1
			}
		}
	],
	"meshes":[
		{
			"name":"Cube.001",
			"primitives":[
				{
					"attributes":{
						"POSITION":0,
						"NORMAL":1
					},
					"indices":2,
					"material":0
				},
				{
					"attributes":{
						"POSITION":3,
						"NORMAL":4
					},
					"indices":5,
					"material":1
				},
				{
					"attributes":{
						"POSITION":6,
						"NORMAL":7
					},
					"indices":8,
					"material":2
				}
			]
		}
	],
	"accessors":[
		{
			"bufferView":0,
			"componentType":5126,
			"count":72,
			"max":[
				0.125,
				0.125,
				0.0625
			],
			"min":[
				-0.125,
				-0.125,
				-0.0625
			],
			"type":"VEC3"
		},
		{
			"bufferView":1,
			"componentType":5126,
			"count":72,
			"type":"VEC3"
		},
		{
			"bufferView":2,
			"componentType":5123,
			"count":132,
			"type":"SCALAR"
		},
		{
			"bufferView":3,
			"componentType":5126,
			"count":624,
			"max":[
				0.14538034796714783,
				0.0931258499622345,
				0.030625849962234497
			],
			"min":[
				-0.14538034796714783,
				-0.030625849962234497,
				-0.030625849962234497
			],
			"type":"VEC3"
		},
		{
			"bufferView":4,
			"componentType":5126,
			"count":624,
			"type":"VEC3"
		},
		{
			"bufferView":5,
			"componentType":5123,
			"count":1992,
			"type":"SCALAR"
		},
		{
			"bufferView":6,
			"componentType":5126,
			"count":376,
			"max":[
				-0.1249999925494194,
				-0.03264082968235016,
				0.02985917031764984
			],
			"min":[
				-0.14564894139766693,
				-0.09235917031764984,
				-0.02985917031764984
			],
			"type":"VEC3"
		},
		{
			"bufferView":7,
			"componentType":5126,
			"count":376,
			"type":"VEC3"
		},
		{
			"bufferView":8,
			"componentType":5123,
			"count":1020,
			"type":"SCALAR"
		}
	],
	"bufferViews":[
		{
			"buffer":0,
			"byteLength":864,
			"byteOffset":0,
			"target":34962
		},
		{
			"buffer":0,
			"byteLength":864,
			"byteOffset":864,
			"target":34962
		},
		{
			"buffer":0,
			"byteLength":264,
			"byteOffset":1728,
			"target":34963
		},
		{
			"buffer":0,
			"byteLength":7488,
			"byteOffset":1992,
			"target":34962
		},
		{
			"buffer":0,
			"byteLength":7488,
			"byteOffset":9480,
			"target":34962
		},
		{
			"buffer":0,
			"byteLength":3984,
			"byteOffset":16968,
			"target":34963
		},
		{
			"buffer":0,
			"byteLength":4512,
			"byteOffset":20952,
			"target":34962
		},
		{
			"buffer":0,
			"byteLength":4512,
			"byteOffset":25464,
			"target":34962
		},
		{
			"buffer":0,
			"byteLength":2040,
			"byteOffset":29976,
			"target":34963
		}
	],
	"buffers":[
		{
			"byteLength":32016,
			"uri":"LowVoltageRelay.bin"
		}
	]
}
