{
	"asset":{
		"generator":"Khronos glTF Blender I/O v4.0.44",
		"version":"2.0"
	},
	"scene":0,
	"scenes":[
		{
			"name":"Scene",
			"nodes":[
				0
			]
		}
	],
	"nodes":[
		{
			"mesh":0,
			"name":"scanner"
		}
	],
	"materials":[
		{
			"doubleSided":true,
			"name":"color1",
			"pbrMetallicRoughness":{
				"baseColorFactor":[
					1,
					1,
					1,
					1
				],
				"metallicFactor":0,
				"roughnessFactor":0
			}
		},
		{
			"doubleSided":true,
			"name":"body",
			"pbrMetallicRoughness":{
				"baseColorFactor":[
					0.009999999776482582,
					0.009999999776482582,
					0.009999999776482582,
					1
				],
				"metallicFactor":0,
				"roughnessFactor":1
			}
		},
		{
			"doubleSided":true,
			"name":"scanner",
			"pbrMetallicRoughness":{
				"baseColorFactor":[
					0.18382646143436432,
					0.08050353825092316,
					0,
					1
				],
				"metallicFactor":1,
				"roughnessFactor":0
			}
		},
		{
			"doubleSided":true,
			"name":"color2",
			"pbrMetallicRoughness":{
				"baseColorFactor":[
					0.800000011920929,
					0.800000011920929,
					0.800000011920929,
					1
				],
				"metallicFactor":1,
				"roughnessFactor":1
			}
		},
		{
			"doubleSided":true,
			"name":"data-connector",
			"pbrMetallicRoughness":{
				"baseColorFactor":[
					0,
					0.05000019073486328,
					0.5,
					1
				],
				"metallicFactor":1,
				"roughnessFactor":1
			}
		},
		{
			"doubleSided":true,
			"name":"lv-connector",
			"pbrMetallicRoughness":{
				"baseColorFactor":[
					0.5,
					0,
					0,
					1
				],
				"metallicFactor":1,
				"roughnessFactor":1
			}
		}
	],
	"meshes":[
		{
			"name":"Cube.002",
			"primitives":[
				{
					"attributes":{
						"POSITION":0,
						"NORMAL":1
					},
					"indices":2,
					"material":0
				},
				{
					"attributes":{
						"POSITION":3,
						"NORMAL":4
					},
					"indices":5,
					"material":1
				},
				{
					"attributes":{
						"POSITION":6,
						"NORMAL":7
					},
					"indices":8,
					"material":2
				},
				{
					"attributes":{
						"POSITION":9,
						"NORMAL":10
					},
					"indices":11,
					"material":3
				},
				{
					"attributes":{
						"POSITION":12,
						"NORMAL":13
					},
					"indices":14,
					"material":4
				},
				{
					"attributes":{
						"POSITION":15,
						"NORMAL":16
					},
					"indices":17,
					"material":5
				}
			]
		}
	],
	"accessors":[
		{
			"bufferView":0,
			"componentType":5126,
			"count":60,
			"max":[
				0.125,
				0.25,
				0.125
			],
			"min":[
				-0.125,
				-0.25,
				-0.125
			],
			"type":"VEC3"
		},
		{
			"bufferView":1,
			"componentType":5126,
			"count":60,
			"type":"VEC3"
		},
		{
			"bufferView":2,
			"componentType":5123,
			"count":114,
			"type":"SCALAR"
		},
		{
			"bufferView":3,
			"componentType":5126,
			"count":16,
			"max":[
				0.1159777119755745,
				0.24078527092933655,
				-0.08810564875602722
			],
			"min":[
				-0.1159777119755745,
				-0.15948253870010376,
				-0.125
			],
			"type":"VEC3"
		},
		{
			"bufferView":4,
			"componentType":5126,
			"count":16,
			"type":"VEC3"
		},
		{
			"bufferView":5,
			"componentType":5123,
			"count":24,
			"type":"SCALAR"
		},
		{
			"bufferView":6,
			"componentType":5126,
			"count":4,
			"max":[
				0.03492558375000954,
				0.22418394684791565,
				-0.08810564875602722
			],
			"min":[
				-0.03492558375000954,
				-0.14288121461868286,
				-0.08810564875602722
			],
			"type":"VEC3"
		},
		{
			"bufferView":7,
			"componentType":5126,
			"count":4,
			"type":"VEC3"
		},
		{
			"bufferView":8,
			"componentType":5123,
			"count":6,
			"type":"SCALAR"
		},
		{
			"bufferView":9,
			"componentType":5126,
			"count":24,
			"max":[
				0.0818946585059166,
				-0.1686972677707672,
				0.10761591047048569
			],
			"min":[
				-0.0818946585059166,
				-0.25,
				-0.10761591047048569
			],
			"type":"VEC3"
		},
		{
			"bufferView":10,
			"componentType":5126,
			"count":24,
			"type":"VEC3"
		},
		{
			"bufferView":11,
			"componentType":5123,
			"count":36,
			"type":"SCALAR"
		},
		{
			"bufferView":12,
			"componentType":5126,
			"count":376,
			"max":[
				0.02985917031764984,
				-0.10358520597219467,
				0.14564894139766693
			],
			"min":[
				-0.02985917031764984,
				-0.16330355405807495,
				0.1249999925494194
			],
			"type":"VEC3"
		},
		{
			"bufferView":13,
			"componentType":5126,
			"count":376,
			"type":"VEC3"
		},
		{
			"bufferView":14,
			"componentType":5123,
			"count":1020,
			"type":"SCALAR"
		},
		{
			"bufferView":15,
			"componentType":5126,
			"count":312,
			"max":[
				0.030625849962234497,
				-0.17833180725574493,
				0.14538034796714783
			],
			"min":[
				-0.030625849962234497,
				-0.23958349227905273,
				0.12499992549419403
			],
			"type":"VEC3"
		},
		{
			"bufferView":16,
			"componentType":5126,
			"count":312,
			"type":"VEC3"
		},
		{
			"bufferView":17,
			"componentType":5123,
			"count":996,
			"type":"SCALAR"
		}
	],
	"bufferViews":[
		{
			"buffer":0,
			"byteLength":720,
			"byteOffset":0,
			"target":34962
		},
		{
			"buffer":0,
			"byteLength":720,
			"byteOffset":720,
			"target":34962
		},
		{
			"buffer":0,
			"byteLength":228,
			"byteOffset":1440,
			"target":34963
		},
		{
			"buffer":0,
			"byteLength":192,
			"byteOffset":1668,
			"target":34962
		},
		{
			"buffer":0,
			"byteLength":192,
			"byteOffset":1860,
			"target":34962
		},
		{
			"buffer":0,
			"byteLength":48,
			"byteOffset":2052,
			"target":34963
		},
		{
			"buffer":0,
			"byteLength":48,
			"byteOffset":2100,
			"target":34962
		},
		{
			"buffer":0,
			"byteLength":48,
			"byteOffset":2148,
			"target":34962
		},
		{
			"buffer":0,
			"byteLength":12,
			"byteOffset":2196,
			"target":34963
		},
		{
			"buffer":0,
			"byteLength":288,
			"byteOffset":2208,
			"target":34962
		},
		{
			"buffer":0,
			"byteLength":288,
			"byteOffset":2496,
			"target":34962
		},
		{
			"buffer":0,
			"byteLength":72,
			"byteOffset":2784,
			"target":34963
		},
		{
			"buffer":0,
			"byteLength":4512,
			"byteOffset":2856,
			"target":34962
		},
		{
			"buffer":0,
			"byteLength":4512,
			"byteOffset":7368,
			"target":34962
		},
		{
			"buffer":0,
			"byteLength":2040,
			"byteOffset":11880,
			"target":34963
		},
		{
			"buffer":0,
			"byteLength":3744,
			"byteOffset":13920,
			"target":34962
		},
		{
			"buffer":0,
			"byteLength":3744,
			"byteOffset":17664,
			"target":34962
		},
		{
			"buffer":0,
			"byteLength":1992,
			"byteOffset":21408,
			"target":34963
		}
	],
	"buffers":[
		{
			"byteLength":23400,
			"uri":"OreScanner.bin"
		}
	]
}
