{
	"asset":{
		"generator":"Khronos glTF Blender I/O v4.4.55",
		"version":"2.0"
	},
	"scene":0,
	"scenes":[
		{
			"name":"Scene",
			"nodes":[
				0
			]
		}
	],
	"nodes":[
		{
			"mesh":0,
			"name":"base",
			"rotation":[
				0.7071068286895752,
				0,
				0,
				0.7071068286895752
			]
		}
	],
	"materials":[
		{
			"doubleSided":true,
			"name":"body",
			"pbrMetallicRoughness":{
				"baseColorFactor":[
					0.029999999329447746,
					0.029999999329447746,
					0.029999999329447746,
					1
				]
			}
		},
		{
			"doubleSided":true,
			"name":"data-connector",
			"pbrMetallicRoughness":{
				"baseColorFactor":[
					0,
					0.05000000074505806,
					0.5,
					1
				]
			}
		},
		{
			"doubleSided":true,
			"name":"color1",
			"pbrMetallicRoughness":{
				"metallicFactor":0,
				"roughnessFactor":0
			}
		},
		{
			"doubleSided":true,
			"name":"plate",
			"pbrMetallicRoughness":{
				"baseColorFactor":[
					0.029999999329447746,
					0.029999999329447746,
					0.029999999329447746,
					1
				],
				"metallicFactor":0
			}
		},
		{
			"doubleSided":true,
			"name":"color2",
			"pbrMetallicRoughness":{
				"baseColorFactor":[
					0.800000011920929,
					0.800000011920929,
					0.800000011920929,
					1
				]
			}
		}
	],
	"meshes":[
		{
			"name":"Cube",
			"primitives":[
				{
					"attributes":{
						"POSITION":0,
						"NORMAL":1
					},
					"indices":2,
					"material":0
				},
				{
					"attributes":{
						"POSITION":3,
						"NORMAL":4
					},
					"indices":5,
					"material":1
				},
				{
					"attributes":{
						"POSITION":6,
						"NORMAL":7
					},
					"indices":8,
					"material":2
				},
				{
					"attributes":{
						"POSITION":9,
						"NORMAL":10
					},
					"indices":11,
					"material":3
				},
				{
					"attributes":{
						"POSITION":12,
						"NORMAL":13
					},
					"indices":14,
					"material":4
				}
			]
		}
	],
	"accessors":[
		{
			"bufferView":0,
			"componentType":5126,
			"count":796,
			"max":[
				0.1250000298023224,
				0.1250000298023224,
				0.05000000447034836
			],
			"min":[
				-0.1250000298023224,
				-0.1250000298023224,
				-0.037474945187568665
			],
			"type":"VEC3"
		},
		{
			"bufferView":1,
			"componentType":5126,
			"count":796,
			"type":"VEC3"
		},
		{
			"bufferView":2,
			"componentType":5123,
			"count":3942,
			"type":"SCALAR"
		},
		{
			"bufferView":3,
			"componentType":5126,
			"count":376,
			"max":[
				0.029859131202101707,
				-0.12026843428611755,
				0.04656745865941048
			],
			"min":[
				-0.029859216883778572,
				-0.14564895629882812,
				-0.013150883838534355
			],
			"type":"VEC3"
		},
		{
			"bufferView":4,
			"componentType":5126,
			"count":376,
			"type":"VEC3"
		},
		{
			"bufferView":5,
			"componentType":5123,
			"count":1020,
			"type":"SCALAR"
		},
		{
			"bufferView":6,
			"componentType":5126,
			"count":744,
			"max":[
				0.10611440986394882,
				0.10611440986394882,
				-0.028839530423283577
			],
			"min":[
				-0.10611440986394882,
				-0.10611440986394882,
				-0.03747495263814926
			],
			"type":"VEC3"
		},
		{
			"bufferView":7,
			"componentType":5126,
			"count":744,
			"type":"VEC3"
		},
		{
			"bufferView":8,
			"componentType":5123,
			"count":2208,
			"type":"SCALAR"
		},
		{
			"bufferView":9,
			"componentType":5126,
			"count":84,
			"max":[
				0.09907344728708267,
				0.09907344728708267,
				-0.028839530423283577
			],
			"min":[
				-0.09907344728708267,
				-0.09907344728708267,
				-0.033614691346883774
			],
			"type":"VEC3"
		},
		{
			"bufferView":10,
			"componentType":5126,
			"count":84,
			"type":"VEC3"
		},
		{
			"bufferView":11,
			"componentType":5123,
			"count":246,
			"type":"SCALAR"
		},
		{
			"bufferView":12,
			"componentType":5126,
			"count":480,
			"max":[
				0.017171761021018028,
				0.04820658639073372,
				-0.033614691346883774
			],
			"min":[
				-0.037468183785676956,
				-0.06609197705984116,
				-0.037474971264600754
			],
			"type":"VEC3"
		},
		{
			"bufferView":13,
			"componentType":5126,
			"count":480,
			"type":"VEC3"
		},
		{
			"bufferView":14,
			"componentType":5123,
			"count":1236,
			"type":"SCALAR"
		}
	],
	"bufferViews":[
		{
			"buffer":0,
			"byteLength":9552,
			"byteOffset":0,
			"target":34962
		},
		{
			"buffer":0,
			"byteLength":9552,
			"byteOffset":9552,
			"target":34962
		},
		{
			"buffer":0,
			"byteLength":7884,
			"byteOffset":19104,
			"target":34963
		},
		{
			"buffer":0,
			"byteLength":4512,
			"byteOffset":26988,
			"target":34962
		},
		{
			"buffer":0,
			"byteLength":4512,
			"byteOffset":31500,
			"target":34962
		},
		{
			"buffer":0,
			"byteLength":2040,
			"byteOffset":36012,
			"target":34963
		},
		{
			"buffer":0,
			"byteLength":8928,
			"byteOffset":38052,
			"target":34962
		},
		{
			"buffer":0,
			"byteLength":8928,
			"byteOffset":46980,
			"target":34962
		},
		{
			"buffer":0,
			"byteLength":4416,
			"byteOffset":55908,
			"target":34963
		},
		{
			"buffer":0,
			"byteLength":1008,
			"byteOffset":60324,
			"target":34962
		},
		{
			"buffer":0,
			"byteLength":1008,
			"byteOffset":61332,
			"target":34962
		},
		{
			"buffer":0,
			"byteLength":492,
			"byteOffset":62340,
			"target":34963
		},
		{
			"buffer":0,
			"byteLength":5760,
			"byteOffset":62832,
			"target":34962
		},
		{
			"buffer":0,
			"byteLength":5760,
			"byteOffset":68592,
			"target":34962
		},
		{
			"buffer":0,
			"byteLength":2472,
			"byteOffset":74352,
			"target":34963
		}
	],
	"buffers":[
		{
			"byteLength":76824,
			"uri":"TemperatureSensor.bin"
		}
	]
}
