{
	"asset":{
		"generator":"Khronos glTF Blender I/O v4.0.44",
		"version":"2.0"
	},
	"scene":0,
	"scenes":[
		{
			"name":"Scene",
			"nodes":[
				0
			]
		}
	],
	"nodes":[
		{
			"mesh":0,
			"name":"Cube"
		}
	],
	"materials":[
		{
			"doubleSided":true,
			"name":"color2",
			"pbrMetallicRoughness":{
				"baseColorFactor":[
					0.800000011920929,
					0.800000011920929,
					0.800000011920929,
					1
				],
				"metallicFactor":1,
				"roughnessFactor":1
			}
		},
		{
			"doubleSided":true,
			"name":"lv-connector",
			"pbrMetallicRoughness":{
				"baseColorFactor":[
					0.5,
					0,
					0,
					1
				],
				"metallicFactor":1,
				"roughnessFactor":1
			}
		},
		{
			"doubleSided":true,
			"name":"hv-connector",
			"pbrMetallicRoughness":{
				"baseColorFactor":[
					0.5,
					0.1499999761581421,
					0,
					1
				],
				"metallicFactor":1,
				"roughnessFactor":1
			}
		}
	],
	"meshes":[
		{
			"name":"Cube.001",
			"primitives":[
				{
					"attributes":{
						"POSITION":0
					},
					"indices":1,
					"material":0
				},
				{
					"attributes":{
						"POSITION":2
					},
					"indices":3,
					"material":1
				},
				{
					"attributes":{
						"POSITION":4
					},
					"indices":5,
					"material":2
				}
			]
		}
	],
	"accessors":[
		{
			"bufferView":0,
			"componentType":5126,
			"count":72,
			"max":[
				0.125,
				0.125,
				0.125
			],
			"min":[
				-0.125,
				-0.125,
				-0.125
			],
			"type":"VEC3"
		},
		{
			"bufferView":1,
			"componentType":5123,
			"count":132,
			"type":"SCALAR"
		},
		{
			"bufferView":2,
			"componentType":5126,
			"count":312,
			"max":[
				-0.12499993294477463,
				0.030625849962234497,
				0.030625849962234497
			],
			"min":[
				-0.14538034796714783,
				-0.030625849962234497,
				-0.030625849962234497
			],
			"type":"VEC3"
		},
		{
			"bufferView":3,
			"componentType":5123,
			"count":996,
			"type":"SCALAR"
		},
		{
			"bufferView":4,
			"componentType":5126,
			"count":696,
			"max":[
				0.1667194664478302,
				0.07035043835639954,
				0.07035043835639954
			],
			"min":[
				0.12500016391277313,
				-0.07035043835639954,
				-0.07035043835639954
			],
			"type":"VEC3"
		},
		{
			"bufferView":5,
			"componentType":5123,
			"count":2148,
			"type":"SCALAR"
		}
	],
	"bufferViews":[
		{
			"buffer":0,
			"byteLength":864,
			"byteOffset":0,
			"target":34962
		},
		{
			"buffer":0,
			"byteLength":264,
			"byteOffset":864,
			"target":34963
		},
		{
			"buffer":0,
			"byteLength":3744,
			"byteOffset":1128,
			"target":34962
		},
		{
			"buffer":0,
			"byteLength":1992,
			"byteOffset":4872,
			"target":34963
		},
		{
			"buffer":0,
			"byteLength":8352,
			"byteOffset":6864,
			"target":34962
		},
		{
			"buffer":0,
			"byteLength":4296,
			"byteOffset":15216,
			"target":34963
		}
	],
	"buffers":[
		{
			"byteLength":19512,
			"uri":"PowerConverter.bin"
		}
	]
}
