{
	"asset":{
		"generator":"Khronos glTF Blender I/O v4.0.44",
		"version":"2.0"
	},
	"scene":0,
	"scenes":[
		{
			"name":"Scene",
			"nodes":[
				0
			]
		}
	],
	"nodes":[
		{
			"mesh":0,
			"name":"body",
			"rotation":[
				-1,
				0,
				0,
				1.6292068494294654e-07
			],
			"translation":[
				0,
				0.0011868756264448166,
				0
			]
		}
	],
	"materials":[
		{
			"doubleSided":true,
			"name":"color1",
			"pbrMetallicRoughness":{
				"baseColorFactor":[
					1,
					1,
					1,
					1
				],
				"metallicFactor":0,
				"roughnessFactor":0
			}
		},
		{
			"doubleSided":true,
			"name":"body",
			"pbrMetallicRoughness":{
				"baseColorFactor":[
					0.0017581582069396973,
					0.0017581582069396973,
					0.0017581582069396973,
					1
				],
				"metallicFactor":0,
				"roughnessFactor":1
			}
		},
		{
			"doubleSided":true,
			"name":"data-connector",
			"pbrMetallicRoughness":{
				"baseColorFactor":[
					0,
					0.04999947547912598,
					0.5,
					1
				],
				"metallicFactor":1,
				"roughnessFactor":1
			}
		},
		{
			"doubleSided":true,
			"name":"lv-connector",
			"pbrMetallicRoughness":{
				"baseColorFactor":[
					0.5,
					0,
					0,
					1
				],
				"metallicFactor":1,
				"roughnessFactor":1
			}
		},
		{
			"doubleSided":true,
			"name":"light",
			"pbrMetallicRoughness":{
				"baseColorFactor":[
					0.11236745119094849,
					0.11236745119094849,
					0.11236745119094849,
					1
				],
				"metallicFactor":0,
				"roughnessFactor":1
			}
		}
	],
	"meshes":[
		{
			"name":"Cylinder.001",
			"primitives":[
				{
					"attributes":{
						"POSITION":0,
						"NORMAL":1
					},
					"indices":2,
					"material":0
				},
				{
					"attributes":{
						"POSITION":3,
						"NORMAL":4
					},
					"indices":5,
					"material":1
				},
				{
					"attributes":{
						"POSITION":6,
						"NORMAL":7
					},
					"indices":8,
					"material":2
				},
				{
					"attributes":{
						"POSITION":9,
						"NORMAL":10
					},
					"indices":11,
					"material":3
				},
				{
					"attributes":{
						"POSITION":12,
						"NORMAL":13
					},
					"indices":14,
					"material":4
				}
			]
		}
	],
	"accessors":[
		{
			"bufferView":0,
			"componentType":5126,
			"count":640,
			"max":[
				0.25,
				0.008588247001171112,
				0.25
			],
			"min":[
				-0.25,
				-0.024173103272914886,
				-0.25
			],
			"type":"VEC3"
		},
		{
			"bufferView":1,
			"componentType":5126,
			"count":640,
			"type":"VEC3"
		},
		{
			"bufferView":2,
			"componentType":5123,
			"count":3258,
			"type":"SCALAR"
		},
		{
			"bufferView":3,
			"componentType":5126,
			"count":384,
			"max":[
				0.19367127120494843,
				0.008588247001171112,
				0.19367127120494843
			],
			"min":[
				-0.19367127120494843,
				0.0036353692412376404,
				-0.19367127120494843
			],
			"type":"VEC3"
		},
		{
			"bufferView":4,
			"componentType":5126,
			"count":384,
			"type":"VEC3"
		},
		{
			"bufferView":5,
			"componentType":5123,
			"count":1152,
			"type":"SCALAR"
		},
		{
			"bufferView":6,
			"componentType":5126,
			"count":376,
			"max":[
				-0.04014082998037338,
				-0.02417309768497944,
				0.02985917031764984
			],
			"min":[
				-0.09985917061567307,
				-0.04482206329703331,
				-0.02985917590558529
			],
			"type":"VEC3"
		},
		{
			"bufferView":7,
			"componentType":5126,
			"count":376,
			"type":"VEC3"
		},
		{
			"bufferView":8,
			"componentType":5123,
			"count":1020,
			"type":"SCALAR"
		},
		{
			"bufferView":9,
			"componentType":5126,
			"count":312,
			"max":[
				0.10062585026025772,
				-0.024173032492399216,
				0.030625849962234497
			],
			"min":[
				0.03937415033578873,
				-0.04455346241593361,
				-0.030625855550169945
			],
			"type":"VEC3"
		},
		{
			"bufferView":10,
			"componentType":5126,
			"count":312,
			"type":"VEC3"
		},
		{
			"bufferView":11,
			"componentType":5123,
			"count":996,
			"type":"SCALAR"
		},
		{
			"bufferView":12,
			"componentType":5126,
			"count":192,
			"max":[
				0.16992458701133728,
				0.008588247001171112,
				0.16992458701133728
			],
			"min":[
				-0.16992458701133728,
				0.006087198853492737,
				-0.16992458701133728
			],
			"type":"VEC3"
		},
		{
			"bufferView":13,
			"componentType":5126,
			"count":192,
			"type":"VEC3"
		},
		{
			"bufferView":14,
			"componentType":5123,
			"count":570,
			"type":"SCALAR"
		}
	],
	"bufferViews":[
		{
			"buffer":0,
			"byteLength":7680,
			"byteOffset":0,
			"target":34962
		},
		{
			"buffer":0,
			"byteLength":7680,
			"byteOffset":7680,
			"target":34962
		},
		{
			"buffer":0,
			"byteLength":6516,
			"byteOffset":15360,
			"target":34963
		},
		{
			"buffer":0,
			"byteLength":4608,
			"byteOffset":21876,
			"target":34962
		},
		{
			"buffer":0,
			"byteLength":4608,
			"byteOffset":26484,
			"target":34962
		},
		{
			"buffer":0,
			"byteLength":2304,
			"byteOffset":31092,
			"target":34963
		},
		{
			"buffer":0,
			"byteLength":4512,
			"byteOffset":33396,
			"target":34962
		},
		{
			"buffer":0,
			"byteLength":4512,
			"byteOffset":37908,
			"target":34962
		},
		{
			"buffer":0,
			"byteLength":2040,
			"byteOffset":42420,
			"target":34963
		},
		{
			"buffer":0,
			"byteLength":3744,
			"byteOffset":44460,
			"target":34962
		},
		{
			"buffer":0,
			"byteLength":3744,
			"byteOffset":48204,
			"target":34962
		},
		{
			"buffer":0,
			"byteLength":1992,
			"byteOffset":51948,
			"target":34963
		},
		{
			"buffer":0,
			"byteLength":2304,
			"byteOffset":53940,
			"target":34962
		},
		{
			"buffer":0,
			"byteLength":2304,
			"byteOffset":56244,
			"target":34962
		},
		{
			"buffer":0,
			"byteLength":1140,
			"byteOffset":58548,
			"target":34963
		}
	],
	"buffers":[
		{
			"byteLength":59688,
			"uri":"Lamp.bin"
		}
	]
}
