{
	"asset":{
		"generator":"Khronos glTF Blender I/O v3.6.6",
		"version":"2.0"
	},
	"scene":0,
	"scenes":[
		{
			"name":"Scene",
			"nodes":[
				0
			]
		}
	],
	"nodes":[
		{
			"mesh":0,
			"name":"case",
			"rotation":[
				1,
				0,
				0,
				4.371138828673793e-08
			],
			"translation":[
				0,
				0.004617702215909958,
				0
			]
		}
	],
	"materials":[
		{
			"doubleSided":true,
			"name":"Material",
			"pbrMetallicRoughness":{
				"baseColorFactor":[
					0.800000011920929,
					0.800000011920929,
					0.800000011920929,
					1
				],
				"metallicFactor":1,
				"roughnessFactor":0
			}
		},
		{
			"doubleSided":true,
			"name":"neon",
			"pbrMetallicRoughness":{
				"baseColorFactor":[
					0.03310249000787735,
					0.03310249000787735,
					0.03310249000787735,
					1
				],
				"metallicFactor":0,
				"roughnessFactor":1
			}
		},
		{
			"doubleSided":true,
			"name":"connector",
			"pbrMetallicRoughness":{
				"baseColorFactor":[
					0.35055553913116455,
					0.01372276060283184,
					0,
					1
				],
				"metallicFactor":1,
				"roughnessFactor":1
			}
		}
	],
	"meshes":[
		{
			"name":"Cube",
			"primitives":[
				{
					"attributes":{
						"POSITION":0,
						"NORMAL":1
					},
					"indices":2,
					"material":0
				},
				{
					"attributes":{
						"POSITION":3,
						"NORMAL":4
					},
					"indices":5,
					"material":1
				},
				{
					"attributes":{
						"POSITION":6,
						"NORMAL":7
					},
					"indices":8,
					"material":2
				}
			]
		}
	],
	"accessors":[
		{
			"bufferView":0,
			"componentType":5126,
			"count":464,
			"max":[
				0.125,
				0.05000000074505806,
				0.5376784801483154
			],
			"min":[
				-0.125,
				-0.05000000074505806,
				-0.5
			],
			"type":"VEC3"
		},
		{
			"bufferView":1,
			"componentType":5126,
			"count":464,
			"type":"VEC3"
		},
		{
			"bufferView":2,
			"componentType":5123,
			"count":744,
			"type":"SCALAR"
		},
		{
			"bufferView":3,
			"componentType":5126,
			"count":68,
			"max":[
				0.1182495728135109,
				0.01421215757727623,
				0.4912415146827698
			],
			"min":[
				-0.1182495728135109,
				-0.0344771146774292,
				-0.4911230802536011
			],
			"type":"VEC3"
		},
		{
			"bufferView":4,
			"componentType":5126,
			"count":68,
			"type":"VEC3"
		},
		{
			"bufferView":5,
			"componentType":5123,
			"count":138,
			"type":"SCALAR"
		},
		{
			"bufferView":6,
			"componentType":5126,
			"count":292,
			"max":[
				0.030625849962234497,
				0.030501188710331917,
				0.5580588579177856
			],
			"min":[
				-0.030625849962234497,
				-0.030750511214137077,
				0.5376784801483154
			],
			"type":"VEC3"
		},
		{
			"bufferView":7,
			"componentType":5126,
			"count":292,
			"type":"VEC3"
		},
		{
			"bufferView":8,
			"componentType":5123,
			"count":942,
			"type":"SCALAR"
		}
	],
	"bufferViews":[
		{
			"buffer":0,
			"byteLength":5568,
			"byteOffset":0,
			"target":34962
		},
		{
			"buffer":0,
			"byteLength":5568,
			"byteOffset":5568,
			"target":34962
		},
		{
			"buffer":0,
			"byteLength":1488,
			"byteOffset":11136,
			"target":34963
		},
		{
			"buffer":0,
			"byteLength":816,
			"byteOffset":12624,
			"target":34962
		},
		{
			"buffer":0,
			"byteLength":816,
			"byteOffset":13440,
			"target":34962
		},
		{
			"buffer":0,
			"byteLength":276,
			"byteOffset":14256,
			"target":34963
		},
		{
			"buffer":0,
			"byteLength":3504,
			"byteOffset":14532,
			"target":34962
		},
		{
			"buffer":0,
			"byteLength":3504,
			"byteOffset":18036,
			"target":34962
		},
		{
			"buffer":0,
			"byteLength":1884,
			"byteOffset":21540,
			"target":34963
		}
	],
	"buffers":[
		{
			"byteLength":23424,
			"uri":"NeonLamp.bin"
		}
	]
}
