{
	"asset":{
		"generator":"Khronos glTF Blender I/O v4.0.44",
		"version":"2.0"
	},
	"scene":0,
	"scenes":[
		{
			"name":"Scene",
			"nodes":[
				0
			]
		}
	],
	"nodes":[
		{
			"mesh":0,
			"name":"body",
			"rotation":[
				0.7071068286895752,
				0,
				0,
				0.7071068286895752
			]
		}
	],
	"materials":[
		{
			"doubleSided":true,
			"name":"color2",
			"pbrMetallicRoughness":{
				"baseColorFactor":[
					0.800000011920929,
					0.800000011920929,
					0.800000011920929,
					1
				],
				"metallicFactor":1,
				"roughnessFactor":1
			}
		},
		{
			"doubleSided":true,
			"name":"color1",
			"pbrMetallicRoughness":{
				"baseColorFactor":[
					1,
					1,
					1,
					1
				],
				"metallicFactor":0,
				"roughnessFactor":0
			}
		},
		{
			"doubleSided":true,
			"name":"body",
			"pbrMetallicRoughness":{
				"baseColorFactor":[
					0.009999999776482582,
					0.009999999776482582,
					0.009999999776482582,
					1
				],
				"metallicFactor":0,
				"roughnessFactor":0
			}
		},
		{
			"doubleSided":true,
			"name":"data-connector",
			"pbrMetallicRoughness":{
				"baseColorFactor":[
					0,
					0.050000905990600586,
					0.5,
					1
				],
				"metallicFactor":1,
				"roughnessFactor":1
			}
		},
		{
			"doubleSided":true,
			"name":"lv-connector",
			"pbrMetallicRoughness":{
				"baseColorFactor":[
					0.5,
					0,
					0,
					1
				],
				"metallicFactor":1,
				"roughnessFactor":1
			}
		},
		{
			"doubleSided":true,
			"name":"reflector",
			"pbrMetallicRoughness":{
				"baseColorFactor":[
					1,
					1,
					1,
					1
				],
				"metallicFactor":1,
				"roughnessFactor":0.10000000149011612
			}
		},
		{
			"doubleSided":true,
			"name":"led",
			"pbrMetallicRoughness":{
				"baseColorFactor":[
					1,
					1,
					0.25714290142059326,
					1
				],
				"metallicFactor":0,
				"roughnessFactor":1
			}
		}
	],
	"meshes":[
		{
			"name":"Cylinder",
			"primitives":[
				{
					"attributes":{
						"POSITION":0,
						"NORMAL":1
					},
					"indices":2,
					"material":0
				},
				{
					"attributes":{
						"POSITION":3,
						"NORMAL":4
					},
					"indices":5,
					"material":1
				},
				{
					"attributes":{
						"POSITION":6,
						"NORMAL":7
					},
					"indices":8,
					"material":2
				},
				{
					"attributes":{
						"POSITION":9,
						"NORMAL":10
					},
					"indices":11,
					"material":3
				},
				{
					"attributes":{
						"POSITION":12,
						"NORMAL":13
					},
					"indices":14,
					"material":4
				},
				{
					"attributes":{
						"POSITION":15,
						"NORMAL":16
					},
					"indices":17,
					"material":5
				},
				{
					"attributes":{
						"POSITION":18,
						"NORMAL":19
					},
					"indices":20,
					"material":6
				}
			]
		}
	],
	"accessors":[
		{
			"bufferView":0,
			"componentType":5126,
			"count":640,
			"max":[
				0.10999999940395355,
				0.07963457703590393,
				0.10999999940395355
			],
			"min":[
				-0.10999999940395355,
				-0.05999999865889549,
				-0.10999999940395355
			],
			"type":"VEC3"
		},
		{
			"bufferView":1,
			"componentType":5126,
			"count":640,
			"type":"VEC3"
		},
		{
			"bufferView":2,
			"componentType":5123,
			"count":1530,
			"type":"SCALAR"
		},
		{
			"bufferView":3,
			"componentType":5126,
			"count":832,
			"max":[
				0.10999999940395355,
				0.08999999612569809,
				0.10999999940395355
			],
			"min":[
				-0.10999999940395355,
				0.06152712553739548,
				-0.10999999940395355
			],
			"type":"VEC3"
		},
		{
			"bufferView":4,
			"componentType":5126,
			"count":832,
			"type":"VEC3"
		},
		{
			"bufferView":5,
			"componentType":5123,
			"count":3840,
			"type":"SCALAR"
		},
		{
			"bufferView":6,
			"componentType":5126,
			"count":896,
			"max":[
				0.09187635034322739,
				0.08999999612569809,
				0.09187635034322739
			],
			"min":[
				-0.09187635034322739,
				0.07938864827156067,
				-0.09187635034322739
			],
			"type":"VEC3"
		},
		{
			"bufferView":7,
			"componentType":5126,
			"count":896,
			"type":"VEC3"
		},
		{
			"bufferView":8,
			"componentType":5123,
			"count":1920,
			"type":"SCALAR"
		},
		{
			"bufferView":9,
			"componentType":5126,
			"count":376,
			"max":[
				-0.00972818210721016,
				-0.05999995023012161,
				0.02985917404294014
			],
			"min":[
				-0.06944651901721954,
				-0.08064890652894974,
				-0.02985917031764984
			],
			"type":"VEC3"
		},
		{
			"bufferView":10,
			"componentType":5126,
			"count":376,
			"type":"VEC3"
		},
		{
			"bufferView":11,
			"componentType":5123,
			"count":1020,
			"type":"SCALAR"
		},
		{
			"bufferView":12,
			"componentType":5126,
			"count":312,
			"max":[
				0.07026155292987823,
				-0.05999988317489624,
				0.030625851824879646
			],
			"min":[
				0.009009845554828644,
				-0.08038030564785004,
				-0.030625849962234497
			],
			"type":"VEC3"
		},
		{
			"bufferView":13,
			"componentType":5126,
			"count":312,
			"type":"VEC3"
		},
		{
			"bufferView":14,
			"componentType":5123,
			"count":996,
			"type":"SCALAR"
		},
		{
			"bufferView":15,
			"componentType":5126,
			"count":1344,
			"max":[
				0.09187635034322739,
				0.08181831240653992,
				0.09187635034322739
			],
			"min":[
				-0.09187635034322739,
				0.010299824178218842,
				-0.09187635034322739
			],
			"type":"VEC3"
		},
		{
			"bufferView":16,
			"componentType":5126,
			"count":1344,
			"type":"VEC3"
		},
		{
			"bufferView":17,
			"componentType":5123,
			"count":2496,
			"type":"SCALAR"
		},
		{
			"bufferView":18,
			"componentType":5126,
			"count":64,
			"max":[
				0.014755289070308208,
				0.010299824178218842,
				0.01475529558956623
			],
			"min":[
				-0.01475529558956623,
				0.010299824178218842,
				-0.014755289070308208
			],
			"type":"VEC3"
		},
		{
			"bufferView":19,
			"componentType":5126,
			"count":64,
			"type":"VEC3"
		},
		{
			"bufferView":20,
			"componentType":5123,
			"count":186,
			"type":"SCALAR"
		}
	],
	"bufferViews":[
		{
			"buffer":0,
			"byteLength":7680,
			"byteOffset":0,
			"target":34962
		},
		{
			"buffer":0,
			"byteLength":7680,
			"byteOffset":7680,
			"target":34962
		},
		{
			"buffer":0,
			"byteLength":3060,
			"byteOffset":15360,
			"target":34963
		},
		{
			"buffer":0,
			"byteLength":9984,
			"byteOffset":18420,
			"target":34962
		},
		{
			"buffer":0,
			"byteLength":9984,
			"byteOffset":28404,
			"target":34962
		},
		{
			"buffer":0,
			"byteLength":7680,
			"byteOffset":38388,
			"target":34963
		},
		{
			"buffer":0,
			"byteLength":10752,
			"byteOffset":46068,
			"target":34962
		},
		{
			"buffer":0,
			"byteLength":10752,
			"byteOffset":56820,
			"target":34962
		},
		{
			"buffer":0,
			"byteLength":3840,
			"byteOffset":67572,
			"target":34963
		},
		{
			"buffer":0,
			"byteLength":4512,
			"byteOffset":71412,
			"target":34962
		},
		{
			"buffer":0,
			"byteLength":4512,
			"byteOffset":75924,
			"target":34962
		},
		{
			"buffer":0,
			"byteLength":2040,
			"byteOffset":80436,
			"target":34963
		},
		{
			"buffer":0,
			"byteLength":3744,
			"byteOffset":82476,
			"target":34962
		},
		{
			"buffer":0,
			"byteLength":3744,
			"byteOffset":86220,
			"target":34962
		},
		{
			"buffer":0,
			"byteLength":1992,
			"byteOffset":89964,
			"target":34963
		},
		{
			"buffer":0,
			"byteLength":16128,
			"byteOffset":91956,
			"target":34962
		},
		{
			"buffer":0,
			"byteLength":16128,
			"byteOffset":108084,
			"target":34962
		},
		{
			"buffer":0,
			"byteLength":4992,
			"byteOffset":124212,
			"target":34963
		},
		{
			"buffer":0,
			"byteLength":768,
			"byteOffset":129204,
			"target":34962
		},
		{
			"buffer":0,
			"byteLength":768,
			"byteOffset":129972,
			"target":34962
		},
		{
			"buffer":0,
			"byteLength":372,
			"byteOffset":130740,
			"target":34963
		}
	],
	"buffers":[
		{
			"byteLength":131112,
			"uri":"SpotLight.bin"
		}
	]
}
