{
	"asset":{
		"generator":"Khronos glTF Blender I/O v3.6.6",
		"version":"2.0"
	},
	"scene":0,
	"scenes":[
		{
			"name":"Scene",
			"nodes":[
				0
			]
		}
	],
	"nodes":[
		{
			"mesh":0,
			"name":"panel",
			"rotation":[
				0.7071068286895752,
				0,
				0,
				0.7071068286895752
			]
		}
	],
	"materials":[
		{
			"doubleSided":true,
			"name":"body",
			"pbrMetallicRoughness":{
				"baseColorFactor":[
					0.009999999776482582,
					0.009999999776482582,
					0.009999999776482582,
					1
				],
				"metallicFactor":0,
				"roughnessFactor":1
			}
		},
		{
			"doubleSided":true,
			"name":"panel",
			"pbrMetallicRoughness":{
				"baseColorFactor":[
					0.005058865528553724,
					0.0058762370608747005,
					0.0071935756132006645,
					1
				],
				"metallicFactor":0.949999988079071,
				"roughnessFactor":0
			}
		},
		{
			"doubleSided":true,
			"name":"lv-connector",
			"pbrMetallicRoughness":{
				"baseColorFactor":[
					0.5,
					0,
					0,
					1
				],
				"metallicFactor":1,
				"roughnessFactor":1
			}
		}
	],
	"meshes":[
		{
			"name":"Cube.001",
			"primitives":[
				{
					"attributes":{
						"POSITION":0,
						"NORMAL":1
					},
					"indices":2,
					"material":0
				},
				{
					"attributes":{
						"POSITION":3,
						"NORMAL":4
					},
					"indices":5,
					"material":1
				},
				{
					"attributes":{
						"POSITION":6,
						"NORMAL":7
					},
					"indices":8,
					"material":2
				}
			]
		}
	],
	"accessors":[
		{
			"bufferView":0,
			"componentType":5126,
			"count":76,
			"max":[
				1,
				1,
				0.03125
			],
			"min":[
				-1,
				-1,
				-0.04015114903450012
			],
			"type":"VEC3"
		},
		{
			"bufferView":1,
			"componentType":5126,
			"count":76,
			"type":"VEC3"
		},
		{
			"bufferView":2,
			"componentType":5123,
			"count":222,
			"type":"SCALAR"
		},
		{
			"bufferView":3,
			"componentType":5126,
			"count":36,
			"max":[
				0.9765653610229492,
				0.9765653610229492,
				-0.04015114903450012
			],
			"min":[
				-0.9765653610229492,
				-0.9765653610229492,
				-0.04015114903450012
			],
			"type":"VEC3"
		},
		{
			"bufferView":4,
			"componentType":5126,
			"count":36,
			"type":"VEC3"
		},
		{
			"bufferView":5,
			"componentType":5123,
			"count":54,
			"type":"SCALAR"
		},
		{
			"bufferView":6,
			"componentType":5126,
			"count":624,
			"max":[
				0.1556258499622345,
				-0.9999999403953552,
				0.030625849962234497
			],
			"min":[
				-0.1556258499622345,
				-1.0203803777694702,
				-0.030625851824879646
			],
			"type":"VEC3"
		},
		{
			"bufferView":7,
			"componentType":5126,
			"count":624,
			"type":"VEC3"
		},
		{
			"bufferView":8,
			"componentType":5123,
			"count":1992,
			"type":"SCALAR"
		}
	],
	"bufferViews":[
		{
			"buffer":0,
			"byteLength":912,
			"byteOffset":0,
			"target":34962
		},
		{
			"buffer":0,
			"byteLength":912,
			"byteOffset":912,
			"target":34962
		},
		{
			"buffer":0,
			"byteLength":444,
			"byteOffset":1824,
			"target":34963
		},
		{
			"buffer":0,
			"byteLength":432,
			"byteOffset":2268,
			"target":34962
		},
		{
			"buffer":0,
			"byteLength":432,
			"byteOffset":2700,
			"target":34962
		},
		{
			"buffer":0,
			"byteLength":108,
			"byteOffset":3132,
			"target":34963
		},
		{
			"buffer":0,
			"byteLength":7488,
			"byteOffset":3240,
			"target":34962
		},
		{
			"buffer":0,
			"byteLength":7488,
			"byteOffset":10728,
			"target":34962
		},
		{
			"buffer":0,
			"byteLength":3984,
			"byteOffset":18216,
			"target":34963
		}
	],
	"buffers":[
		{
			"byteLength":22200,
			"uri":"SolarPanel.bin"
		}
	]
}
