{
	"asset":{
		"generator":"Khronos glTF Blender I/O v4.3.47",
		"version":"2.0"
	},
	"scene":0,
	"scenes":[
		{
			"name":"Scene",
			"nodes":[
				0
			]
		}
	],
	"nodes":[
		{
			"mesh":0,
			"name":"base"
		}
	],
	"materials":[
		{
			"doubleSided":true,
			"name":"t1",
			"pbrMetallicRoughness":{
				"baseColorFactor":[
					0,
					0,
					0,
					1
				]
			}
		},
		{
			"doubleSided":true,
			"name":"t2",
			"pbrMetallicRoughness":{
				"roughnessFactor":0
			}
		},
		{
			"doubleSided":true,
			"name":"color1",
			"pbrMetallicRoughness":{
				"metallicFactor":0,
				"roughnessFactor":0
			}
		},
		{
			"doubleSided":true,
			"name":"data-connector",
			"pbrMetallicRoughness":{
				"baseColorFactor":[
					0,
					0.05000000074505806,
					0.5,
					1
				]
			}
		},
		{
			"doubleSided":true,
			"name":"lv-connector",
			"pbrMetallicRoughness":{
				"baseColorFactor":[
					0.5,
					0,
					0,
					1
				]
			}
		},
		{
			"doubleSided":true,
			"name":"fluid-connector",
			"pbrMetallicRoughness":{
				"baseColorFactor":[
					0.5,
					0.5,
					0.5,
					1
				]
			}
		}
	],
	"meshes":[
		{
			"name":"Cylinder",
			"primitives":[
				{
					"attributes":{
						"POSITION":0,
						"NORMAL":1
					},
					"indices":2,
					"material":0
				},
				{
					"attributes":{
						"POSITION":3,
						"NORMAL":4
					},
					"indices":5,
					"material":1
				},
				{
					"attributes":{
						"POSITION":6,
						"NORMAL":7
					},
					"indices":8,
					"material":2
				},
				{
					"attributes":{
						"POSITION":9,
						"NORMAL":10
					},
					"indices":11,
					"material":3
				},
				{
					"attributes":{
						"POSITION":12,
						"NORMAL":13
					},
					"indices":14,
					"material":4
				},
				{
					"attributes":{
						"POSITION":15,
						"NORMAL":16
					},
					"indices":17,
					"material":5
				}
			]
		}
	],
	"accessors":[
		{
			"bufferView":0,
			"componentType":5126,
			"count":512,
			"max":[
				0.10909297317266464,
				0.10957587510347366,
				0.0013393861008808017
			],
			"min":[
				-0.10909304022789001,
				-0.10958003252744675,
				-0.16665974259376526
			],
			"type":"VEC3"
		},
		{
			"bufferView":1,
			"componentType":5126,
			"count":512,
			"type":"VEC3"
		},
		{
			"bufferView":2,
			"componentType":5123,
			"count":1524,
			"type":"SCALAR"
		},
		{
			"bufferView":3,
			"componentType":5126,
			"count":1152,
			"max":[
				0.10909297317266464,
				0.10957587510347366,
				0.0013393861008808017
			],
			"min":[
				-0.10909304022789001,
				-0.10958003252744675,
				-0.16665974259376526
			],
			"type":"VEC3"
		},
		{
			"bufferView":4,
			"componentType":5126,
			"count":1152,
			"type":"VEC3"
		},
		{
			"bufferView":5,
			"componentType":5123,
			"count":6528,
			"type":"SCALAR"
		},
		{
			"bufferView":6,
			"componentType":5126,
			"count":30,
			"max":[
				0.1237500011920929,
				0.19383403658866882,
				0.24925819039344788
			],
			"min":[
				-0.1237500011920929,
				-0.12399999797344208,
				0.0013393907574936748
			],
			"type":"VEC3"
		},
		{
			"bufferView":7,
			"componentType":5126,
			"count":30,
			"type":"VEC3"
		},
		{
			"bufferView":8,
			"componentType":5123,
			"count":48,
			"type":"SCALAR"
		},
		{
			"bufferView":9,
			"componentType":5126,
			"count":376,
			"max":[
				-0.06014082580804825,
				0.18886762857437134,
				0.2699070870876312
			],
			"min":[
				-0.11985916644334793,
				0.12914928793907166,
				0.2492581158876419
			],
			"type":"VEC3"
		},
		{
			"bufferView":10,
			"componentType":5126,
			"count":376,
			"type":"VEC3"
		},
		{
			"bufferView":11,
			"componentType":5123,
			"count":1020,
			"type":"SCALAR"
		},
		{
			"bufferView":12,
			"componentType":5126,
			"count":312,
			"max":[
				0.12062584608793259,
				0.189634308218956,
				0.2696385085582733
			],
			"min":[
				0.059374142438173294,
				0.128382608294487,
				0.24925807118415833
			],
			"type":"VEC3"
		},
		{
			"bufferView":13,
			"componentType":5126,
			"count":312,
			"type":"VEC3"
		},
		{
			"bufferView":14,
			"componentType":5123,
			"count":996,
			"type":"SCALAR"
		},
		{
			"bufferView":15,
			"componentType":5126,
			"count":4608,
			"max":[
				0.12489652633666992,
				0.12489653378725052,
				0.2870916724205017
			],
			"min":[
				-0.12489652633666992,
				-0.12489651888608932,
				0.2492578774690628
			],
			"type":"VEC3"
		},
		{
			"bufferView":16,
			"componentType":5126,
			"count":4608,
			"type":"VEC3"
		},
		{
			"bufferView":17,
			"componentType":5123,
			"count":10812,
			"type":"SCALAR"
		}
	],
	"bufferViews":[
		{
			"buffer":0,
			"byteLength":6144,
			"byteOffset":0,
			"target":34962
		},
		{
			"buffer":0,
			"byteLength":6144,
			"byteOffset":6144,
			"target":34962
		},
		{
			"buffer":0,
			"byteLength":3048,
			"byteOffset":12288,
			"target":34963
		},
		{
			"buffer":0,
			"byteLength":13824,
			"byteOffset":15336,
			"target":34962
		},
		{
			"buffer":0,
			"byteLength":13824,
			"byteOffset":29160,
			"target":34962
		},
		{
			"buffer":0,
			"byteLength":13056,
			"byteOffset":42984,
			"target":34963
		},
		{
			"buffer":0,
			"byteLength":360,
			"byteOffset":56040,
			"target":34962
		},
		{
			"buffer":0,
			"byteLength":360,
			"byteOffset":56400,
			"target":34962
		},
		{
			"buffer":0,
			"byteLength":96,
			"byteOffset":56760,
			"target":34963
		},
		{
			"buffer":0,
			"byteLength":4512,
			"byteOffset":56856,
			"target":34962
		},
		{
			"buffer":0,
			"byteLength":4512,
			"byteOffset":61368,
			"target":34962
		},
		{
			"buffer":0,
			"byteLength":2040,
			"byteOffset":65880,
			"target":34963
		},
		{
			"buffer":0,
			"byteLength":3744,
			"byteOffset":67920,
			"target":34962
		},
		{
			"buffer":0,
			"byteLength":3744,
			"byteOffset":71664,
			"target":34962
		},
		{
			"buffer":0,
			"byteLength":1992,
			"byteOffset":75408,
			"target":34963
		},
		{
			"buffer":0,
			"byteLength":55296,
			"byteOffset":77400,
			"target":34962
		},
		{
			"buffer":0,
			"byteLength":55296,
			"byteOffset":132696,
			"target":34962
		},
		{
			"buffer":0,
			"byteLength":21624,
			"byteOffset":187992,
			"target":34963
		}
	],
	"buffers":[
		{
			"byteLength":209616,
			"uri":"MiniThruster.bin"
		}
	]
}
