{
	"asset":{
		"generator":"Khronos glTF Blender I/O v4.4.55",
		"version":"2.0"
	},
	"scene":0,
	"scenes":[
		{
			"name":"Scene",
			"nodes":[
				0
			]
		}
	],
	"nodes":[
		{
			"mesh":0,
			"name":"base",
			"translation":[
				0,
				0.04412465542554855,
				0
			]
		}
	],
	"materials":[
		{
			"doubleSided":true,
			"name":"body",
			"pbrMetallicRoughness":{
				"baseColorFactor":[
					0.029999999329447746,
					0.029999999329447746,
					0.029999999329447746,
					1
				]
			}
		},
		{
			"doubleSided":true,
			"name":"ball",
			"pbrMetallicRoughness":{
				"baseColorFactor":[
					0.800000011920929,
					0.800000011920929,
					0.800000011920929,
					1
				],
				"roughnessFactor":0
			}
		},
		{
			"doubleSided":true,
			"name":"data-connector",
			"pbrMetallicRoughness":{
				"baseColorFactor":[
					0,
					0.05000000074505806,
					0.5,
					1
				]
			}
		}
	],
	"meshes":[
		{
			"name":"Cylinder.005",
			"primitives":[
				{
					"attributes":{
						"POSITION":0,
						"NORMAL":1
					},
					"indices":2,
					"material":0
				},
				{
					"attributes":{
						"POSITION":3,
						"NORMAL":4
					},
					"indices":5,
					"material":1
				},
				{
					"attributes":{
						"POSITION":6,
						"NORMAL":7
					},
					"indices":8,
					"material":2
				}
			]
		}
	],
	"accessors":[
		{
			"bufferView":0,
			"componentType":5126,
			"count":640,
			"max":[
				0.12298467010259628,
				-0.02910192310810089,
				0.12298467010259628
			],
			"min":[
				-0.12298467010259628,
				-0.10662464052438736,
				-0.12298467010259628
			],
			"type":"VEC3"
		},
		{
			"bufferView":1,
			"componentType":5126,
			"count":640,
			"type":"VEC3"
		},
		{
			"bufferView":2,
			"componentType":5123,
			"count":1908,
			"type":"SCALAR"
		},
		{
			"bufferView":3,
			"componentType":5126,
			"count":8066,
			"max":[
				0.06239733099937439,
				0.08077266067266464,
				0.0623973086476326
			],
			"min":[
				-0.062397271394729614,
				-0.04402206838130951,
				-0.06239725649356842
			],
			"type":"VEC3"
		},
		{
			"bufferView":4,
			"componentType":5126,
			"count":8066,
			"type":"VEC3"
		},
		{
			"bufferView":5,
			"componentType":5123,
			"count":48384,
			"type":"SCALAR"
		},
		{
			"bufferView":6,
			"componentType":5126,
			"count":376,
			"max":[
				0.029859168455004692,
				-0.10662466287612915,
				0.02985917031764984
			],
			"min":[
				-0.02985917218029499,
				-0.12727363407611847,
				-0.02985917590558529
			],
			"type":"VEC3"
		},
		{
			"bufferView":7,
			"componentType":5126,
			"count":376,
			"type":"VEC3"
		},
		{
			"bufferView":8,
			"componentType":5123,
			"count":1020,
			"type":"SCALAR"
		}
	],
	"bufferViews":[
		{
			"buffer":0,
			"byteLength":7680,
			"byteOffset":0,
			"target":34962
		},
		{
			"buffer":0,
			"byteLength":7680,
			"byteOffset":7680,
			"target":34962
		},
		{
			"buffer":0,
			"byteLength":3816,
			"byteOffset":15360,
			"target":34963
		},
		{
			"buffer":0,
			"byteLength":96792,
			"byteOffset":19176,
			"target":34962
		},
		{
			"buffer":0,
			"byteLength":96792,
			"byteOffset":115968,
			"target":34962
		},
		{
			"buffer":0,
			"byteLength":96768,
			"byteOffset":212760,
			"target":34963
		},
		{
			"buffer":0,
			"byteLength":4512,
			"byteOffset":309528,
			"target":34962
		},
		{
			"buffer":0,
			"byteLength":4512,
			"byteOffset":314040,
			"target":34962
		},
		{
			"buffer":0,
			"byteLength":2040,
			"byteOffset":318552,
			"target":34963
		}
	],
	"buffers":[
		{
			"byteLength":320592,
			"uri":"Hitch.bin"
		}
	]
}
