{
	"asset":{
		"generator":"Khronos glTF Blender I/O v4.4.55",
		"version":"2.0"
	},
	"scene":0,
	"scenes":[
		{
			"name":"Scene",
			"nodes":[
				0
			]
		}
	],
	"nodes":[
		{
			"mesh":0,
			"name":"base",
			"translation":[
				0,
				1.049999713897705,
				0
			]
		}
	],
	"materials":[
		{
			"doubleSided":true,
			"name":"color1",
			"pbrMetallicRoughness":{
				"baseColorFactor":[
					1,
					1,
					1,
					1
				],
				"metallicFactor":0,
				"roughnessFactor":0
			}
		},
		{
			"doubleSided":true,
			"name":"color2",
			"pbrMetallicRoughness":{
				"baseColorFactor":[
					0.800000011920929,
					0.800000011920929,
					0.800000011920929,
					1
				],
				"metallicFactor":1,
				"roughnessFactor":1
			}
		},
		{
			"doubleSided":true,
			"name":"data-connector",
			"pbrMetallicRoughness":{
				"baseColorFactor":[
					0,
					0.05000019073486328,
					0.5,
					1
				],
				"metallicFactor":1,
				"roughnessFactor":1
			}
		},
		{
			"doubleSided":true,
			"name":"lv-connector",
			"pbrMetallicRoughness":{
				"baseColorFactor":[
					0.5,
					0,
					0,
					1
				],
				"metallicFactor":1,
				"roughnessFactor":1
			}
		},
		{
			"doubleSided":true,
			"name":"fluid-connector",
			"pbrMetallicRoughness":{
				"baseColorFactor":[
					0.5,
					0.5,
					0.5,
					1
				],
				"metallicFactor":1,
				"roughnessFactor":1
			}
		}
	],
	"meshes":[
		{
			"name":"Cylinder",
			"primitives":[
				{
					"attributes":{
						"POSITION":0,
						"NORMAL":1
					},
					"indices":2,
					"material":0
				},
				{
					"attributes":{
						"POSITION":3,
						"NORMAL":4
					},
					"indices":5,
					"material":1
				},
				{
					"attributes":{
						"POSITION":6,
						"NORMAL":7
					},
					"indices":8,
					"material":2
				},
				{
					"attributes":{
						"POSITION":9,
						"NORMAL":10
					},
					"indices":11,
					"material":3
				},
				{
					"attributes":{
						"POSITION":12,
						"NORMAL":13
					},
					"indices":14,
					"material":4
				}
			]
		}
	],
	"accessors":[
		{
			"bufferView":0,
			"componentType":5126,
			"count":384,
			"max":[
				0.295407235622406,
				-1.0668995380401611,
				0.295407235622406
			],
			"min":[
				-0.295407235622406,
				-1.0999996662139893,
				-0.295407235622406
			],
			"type":"VEC3"
		},
		{
			"bufferView":1,
			"componentType":5126,
			"count":384,
			"type":"VEC3"
		},
		{
			"bufferView":2,
			"componentType":5123,
			"count":1152,
			"type":"SCALAR"
		},
		{
			"bufferView":3,
			"componentType":5126,
			"count":2076,
			"max":[
				0.295407235622406,
				1.4000003337860107,
				0.295407235622406
			],
			"min":[
				-0.295407235622406,
				-1.0999996662139893,
				-0.295407235622406
			],
			"type":"VEC3"
		},
		{
			"bufferView":4,
			"componentType":5126,
			"count":2076,
			"type":"VEC3"
		},
		{
			"bufferView":5,
			"componentType":5123,
			"count":6204,
			"type":"SCALAR"
		},
		{
			"bufferView":6,
			"componentType":5126,
			"count":372,
			"max":[
				0.02985917031764984,
				-0.5952854156494141,
				0.18331998586654663
			],
			"min":[
				-0.02985917031764984,
				-0.6550037860870361,
				0.15810535848140717
			],
			"type":"VEC3"
		},
		{
			"bufferView":7,
			"componentType":5126,
			"count":372,
			"type":"VEC3"
		},
		{
			"bufferView":8,
			"componentType":5123,
			"count":1014,
			"type":"SCALAR"
		},
		{
			"bufferView":9,
			"componentType":5126,
			"count":288,
			"max":[
				0.030625849962234497,
				-0.7126426696777344,
				0.18305137753486633
			],
			"min":[
				-0.030625849962234497,
				-0.7738944292068481,
				0.1581052839756012
			],
			"type":"VEC3"
		},
		{
			"bufferView":10,
			"componentType":5126,
			"count":288,
			"type":"VEC3"
		},
		{
			"bufferView":11,
			"componentType":5123,
			"count":930,
			"type":"SCALAR"
		},
		{
			"bufferView":12,
			"componentType":5126,
			"count":14208,
			"max":[
				0.12489652633666992,
				1.4152319431304932,
				0.12489652633666992
			],
			"min":[
				-0.20050457119941711,
				-0.8067924380302429,
				-0.12489652633666992
			],
			"type":"VEC3"
		},
		{
			"bufferView":13,
			"componentType":5126,
			"count":14208,
			"type":"VEC3"
		},
		{
			"bufferView":14,
			"componentType":5123,
			"count":33576,
			"type":"SCALAR"
		}
	],
	"bufferViews":[
		{
			"buffer":0,
			"byteLength":4608,
			"byteOffset":0,
			"target":34962
		},
		{
			"buffer":0,
			"byteLength":4608,
			"byteOffset":4608,
			"target":34962
		},
		{
			"buffer":0,
			"byteLength":2304,
			"byteOffset":9216,
			"target":34963
		},
		{
			"buffer":0,
			"byteLength":24912,
			"byteOffset":11520,
			"target":34962
		},
		{
			"buffer":0,
			"byteLength":24912,
			"byteOffset":36432,
			"target":34962
		},
		{
			"buffer":0,
			"byteLength":12408,
			"byteOffset":61344,
			"target":34963
		},
		{
			"buffer":0,
			"byteLength":4464,
			"byteOffset":73752,
			"target":34962
		},
		{
			"buffer":0,
			"byteLength":4464,
			"byteOffset":78216,
			"target":34962
		},
		{
			"buffer":0,
			"byteLength":2028,
			"byteOffset":82680,
			"target":34963
		},
		{
			"buffer":0,
			"byteLength":3456,
			"byteOffset":84708,
			"target":34962
		},
		{
			"buffer":0,
			"byteLength":3456,
			"byteOffset":88164,
			"target":34962
		},
		{
			"buffer":0,
			"byteLength":1860,
			"byteOffset":91620,
			"target":34963
		},
		{
			"buffer":0,
			"byteLength":170496,
			"byteOffset":93480,
			"target":34962
		},
		{
			"buffer":0,
			"byteLength":170496,
			"byteOffset":263976,
			"target":34962
		},
		{
			"buffer":0,
			"byteLength":67152,
			"byteOffset":434472,
			"target":34963
		}
	],
	"buffers":[
		{
			"byteLength":501624,
			"uri":"EnrichmentCentrifuge.bin"
		}
	]
}
