{
	"asset":{
		"generator":"Khronos glTF Blender I/O v4.0.44",
		"version":"2.0"
	},
	"scene":0,
	"scenes":[
		{
			"name":"Scene",
			"nodes":[
				0
			]
		}
	],
	"nodes":[
		{
			"mesh":0,
			"name":"Cube"
		}
	],
	"materials":[
		{
			"doubleSided":true,
			"name":"color1",
			"pbrMetallicRoughness":{
				"baseColorFactor":[
					1,
					1,
					1,
					1
				],
				"metallicFactor":0,
				"roughnessFactor":0
			}
		},
		{
			"doubleSided":true,
			"name":"color2",
			"pbrMetallicRoughness":{
				"baseColorFactor":[
					0.800000011920929,
					0.800000011920929,
					0.800000011920929,
					1
				],
				"metallicFactor":1,
				"roughnessFactor":1
			}
		},
		{
			"doubleSided":true,
			"name":"body",
			"pbrMetallicRoughness":{
				"baseColorFactor":[
					0.009999999776482582,
					0.009999999776482582,
					0.009999999776482582,
					1
				],
				"metallicFactor":0,
				"roughnessFactor":1
			}
		},
		{
			"doubleSided":true,
			"name":"item-connector",
			"pbrMetallicRoughness":{
				"baseColorFactor":[
					0.800000011920929,
					0.800000011920929,
					0.800000011920929,
					1
				],
				"metallicFactor":1,
				"roughnessFactor":1
			}
		}
	],
	"meshes":[
		{
			"name":"Cube",
			"primitives":[
				{
					"attributes":{
						"POSITION":0
					},
					"indices":1,
					"material":0
				},
				{
					"attributes":{
						"POSITION":2
					},
					"indices":3,
					"material":1
				},
				{
					"attributes":{
						"POSITION":4
					},
					"indices":5,
					"material":2
				},
				{
					"attributes":{
						"POSITION":6
					},
					"indices":7,
					"material":3
				}
			]
		}
	],
	"accessors":[
		{
			"bufferView":0,
			"componentType":5126,
			"count":200,
			"max":[
				1,
				0.5,
				0.5000000596046448
			],
			"min":[
				-1,
				-0.5,
				-0.5000000596046448
			],
			"type":"VEC3"
		},
		{
			"bufferView":1,
			"componentType":5123,
			"count":696,
			"type":"SCALAR"
		},
		{
			"bufferView":2,
			"componentType":5126,
			"count":3128,
			"max":[
				0.9812174439430237,
				0.48338818550109863,
				0.4455491900444031
			],
			"min":[
				-0.9812174439430237,
				-0.48338818550109863,
				-0.4455491900444031
			],
			"type":"VEC3"
		},
		{
			"bufferView":3,
			"componentType":5123,
			"count":17472,
			"type":"SCALAR"
		},
		{
			"bufferView":4,
			"componentType":5126,
			"count":452,
			"max":[
				0.9812174439430237,
				0.48338818550109863,
				0.5000000596046448
			],
			"min":[
				-0.9812174439430237,
				-0.48338818550109863,
				-0.5000000596046448
			],
			"type":"VEC3"
		},
		{
			"bufferView":5,
			"componentType":5123,
			"count":1308,
			"type":"SCALAR"
		},
		{
			"bufferView":6,
			"componentType":5126,
			"count":72,
			"max":[
				0.993625819683075,
				0.125,
				0.1250000298023224
			],
			"min":[
				-0.993625819683075,
				-0.125,
				-0.1250000298023224
			],
			"type":"VEC3"
		},
		{
			"bufferView":7,
			"componentType":5123,
			"count":372,
			"type":"SCALAR"
		}
	],
	"bufferViews":[
		{
			"buffer":0,
			"byteLength":2400,
			"byteOffset":0,
			"target":34962
		},
		{
			"buffer":0,
			"byteLength":1392,
			"byteOffset":2400,
			"target":34963
		},
		{
			"buffer":0,
			"byteLength":37536,
			"byteOffset":3792,
			"target":34962
		},
		{
			"buffer":0,
			"byteLength":34944,
			"byteOffset":41328,
			"target":34963
		},
		{
			"buffer":0,
			"byteLength":5424,
			"byteOffset":76272,
			"target":34962
		},
		{
			"buffer":0,
			"byteLength":2616,
			"byteOffset":81696,
			"target":34963
		},
		{
			"buffer":0,
			"byteLength":864,
			"byteOffset":84312,
			"target":34962
		},
		{
			"buffer":0,
			"byteLength":744,
			"byteOffset":85176,
			"target":34963
		}
	],
	"buffers":[
		{
			"byteLength":85920,
			"uri":"Container.bin"
		}
	]
}
