{
	"asset":{
		"generator":"Khronos glTF Blender I/O v4.0.44",
		"version":"2.0"
	},
	"scene":0,
	"scenes":[
		{
			"name":"Scene",
			"nodes":[
				0
			]
		}
	],
	"nodes":[
		{
			"mesh":0,
			"name":"Cube"
		}
	],
	"materials":[
		{
			"doubleSided":true,
			"name":"color1",
			"pbrMetallicRoughness":{
				"baseColorFactor":[
					1,
					1,
					1,
					1
				],
				"metallicFactor":0,
				"roughnessFactor":0
			}
		},
		{
			"doubleSided":true,
			"name":"color2",
			"pbrMetallicRoughness":{
				"baseColorFactor":[
					0.800000011920929,
					0.800000011920929,
					0.800000011920929,
					1
				],
				"metallicFactor":1,
				"roughnessFactor":1
			}
		},
		{
			"doubleSided":true,
			"name":"body",
			"pbrMetallicRoughness":{
				"baseColorFactor":[
					0.009999999776482582,
					0.009999999776482582,
					0.009999999776482582,
					1
				],
				"metallicFactor":0,
				"roughnessFactor":1
			}
		},
		{
			"doubleSided":true,
			"name":"item-connector",
			"pbrMetallicRoughness":{
				"baseColorFactor":[
					0.800000011920929,
					0.800000011920929,
					0.800000011920929,
					1
				],
				"metallicFactor":1,
				"roughnessFactor":1
			}
		},
		{
			"doubleSided":true,
			"name":"data-connector",
			"pbrMetallicRoughness":{
				"baseColorFactor":[
					0,
					0.05000019073486328,
					0.5,
					1
				],
				"metallicFactor":1,
				"roughnessFactor":1
			}
		}
	],
	"meshes":[
		{
			"name":"Cube",
			"primitives":[
				{
					"attributes":{
						"POSITION":0
					},
					"indices":1,
					"material":0
				},
				{
					"attributes":{
						"POSITION":2
					},
					"indices":3,
					"material":1
				},
				{
					"attributes":{
						"POSITION":4
					},
					"indices":5,
					"material":2
				},
				{
					"attributes":{
						"POSITION":6
					},
					"indices":7,
					"material":3
				},
				{
					"attributes":{
						"POSITION":8
					},
					"indices":9,
					"material":4
				}
			]
		}
	],
	"accessors":[
		{
			"bufferView":0,
			"componentType":5126,
			"count":290,
			"max":[
				1,
				0.5,
				0.5000000596046448
			],
			"min":[
				-1,
				-0.5,
				-0.5000000596046448
			],
			"type":"VEC3"
		},
		{
			"bufferView":1,
			"componentType":5123,
			"count":696,
			"type":"SCALAR"
		},
		{
			"bufferView":2,
			"componentType":5126,
			"count":5168,
			"max":[
				0.9812174439430237,
				0.48338818550109863,
				0.4455491900444031
			],
			"min":[
				-0.9812174439430237,
				-0.48338818550109863,
				-0.4455491900444031
			],
			"type":"VEC3"
		},
		{
			"bufferView":3,
			"componentType":5123,
			"count":17472,
			"type":"SCALAR"
		},
		{
			"bufferView":4,
			"componentType":5126,
			"count":452,
			"max":[
				0.9812174439430237,
				0.48338818550109863,
				0.5000000596046448
			],
			"min":[
				-0.9812174439430237,
				-0.48338818550109863,
				-0.5000000596046448
			],
			"type":"VEC3"
		},
		{
			"bufferView":5,
			"componentType":5123,
			"count":1308,
			"type":"SCALAR"
		},
		{
			"bufferView":6,
			"componentType":5126,
			"count":216,
			"max":[
				0.993625819683075,
				0.125,
				0.1250000298023224
			],
			"min":[
				-0.993625819683075,
				-0.125,
				-0.1250000298023224
			],
			"type":"VEC3"
		},
		{
			"bufferView":7,
			"componentType":5123,
			"count":372,
			"type":"SCALAR"
		},
		{
			"bufferView":8,
			"componentType":5126,
			"count":376,
			"max":[
				0.02985917031764984,
				0.4988808333873749,
				0.02985917031764984
			],
			"min":[
				-0.02985917031764984,
				0.47823187708854675,
				-0.02985917031764984
			],
			"type":"VEC3"
		},
		{
			"bufferView":9,
			"componentType":5123,
			"count":1020,
			"type":"SCALAR"
		}
	],
	"bufferViews":[
		{
			"buffer":0,
			"byteLength":3480,
			"byteOffset":0,
			"target":34962
		},
		{
			"buffer":0,
			"byteLength":1392,
			"byteOffset":3480,
			"target":34963
		},
		{
			"buffer":0,
			"byteLength":62016,
			"byteOffset":4872,
			"target":34962
		},
		{
			"buffer":0,
			"byteLength":34944,
			"byteOffset":66888,
			"target":34963
		},
		{
			"buffer":0,
			"byteLength":5424,
			"byteOffset":101832,
			"target":34962
		},
		{
			"buffer":0,
			"byteLength":2616,
			"byteOffset":107256,
			"target":34963
		},
		{
			"buffer":0,
			"byteLength":2592,
			"byteOffset":109872,
			"target":34962
		},
		{
			"buffer":0,
			"byteLength":744,
			"byteOffset":112464,
			"target":34963
		},
		{
			"buffer":0,
			"byteLength":4512,
			"byteOffset":113208,
			"target":34962
		},
		{
			"buffer":0,
			"byteLength":2040,
			"byteOffset":117720,
			"target":34963
		}
	],
	"buffers":[
		{
			"byteLength":119760,
			"uri":"Container.bin"
		}
	]
}
