{
	"asset":{
		"generator":"Khronos glTF Blender I/O v4.3.47",
		"version":"2.0"
	},
	"scene":0,
	"scenes":[
		{
			"name":"Scene",
			"nodes":[
				0
			]
		}
	],
	"nodes":[
		{
			"mesh":0,
			"name":"base"
		}
	],
	"materials":[
		{
			"doubleSided":true,
			"name":"body",
			"pbrMetallicRoughness":{
				"baseColorFactor":[
					0.009999999776482582,
					0.009999999776482582,
					0.009999999776482582,
					1
				],
				"metallicFactor":0
			}
		},
		{
			"doubleSided":true,
			"name":"data-connector",
			"pbrMetallicRoughness":{
				"baseColorFactor":[
					0,
					0.05000000074505806,
					0.5,
					1
				]
			}
		},
		{
			"doubleSided":true,
			"name":"color1",
			"pbrMetallicRoughness":{
				"metallicFactor":0,
				"roughnessFactor":0
			}
		},
		{
			"doubleSided":true,
			"name":"plate",
			"pbrMetallicRoughness":{
				"baseColorFactor":[
					0.026240430772304535,
					0.026240430772304535,
					0.026240430772304535,
					1
				],
				"metallicFactor":0,
				"roughnessFactor":1
			}
		},
		{
			"doubleSided":true,
			"name":"color2",
			"pbrMetallicRoughness":{
				"baseColorFactor":[
					0.800000011920929,
					0.800000011920929,
					0.800000011920929,
					1
				]
			}
		}
	],
	"meshes":[
		{
			"name":"Cube",
			"primitives":[
				{
					"attributes":{
						"POSITION":0,
						"NORMAL":1
					},
					"indices":2,
					"material":0
				},
				{
					"attributes":{
						"POSITION":3,
						"NORMAL":4
					},
					"indices":5,
					"material":1
				},
				{
					"attributes":{
						"POSITION":6,
						"NORMAL":7
					},
					"indices":8,
					"material":2
				},
				{
					"attributes":{
						"POSITION":9,
						"NORMAL":10
					},
					"indices":11,
					"material":3
				},
				{
					"attributes":{
						"POSITION":12,
						"NORMAL":13
					},
					"indices":14,
					"material":4
				}
			]
		}
	],
	"accessors":[
		{
			"bufferView":0,
			"componentType":5126,
			"count":796,
			"max":[
				0.1250000298023224,
				0.037474941462278366,
				0.1250000298023224
			],
			"min":[
				-0.1250000298023224,
				-0.05000000074505806,
				-0.1250000298023224
			],
			"type":"VEC3"
		},
		{
			"bufferView":1,
			"componentType":5126,
			"count":796,
			"type":"VEC3"
		},
		{
			"bufferView":2,
			"componentType":5123,
			"count":3942,
			"type":"SCALAR"
		},
		{
			"bufferView":3,
			"componentType":5126,
			"count":376,
			"max":[
				0.029859131202101707,
				0.013150889426469803,
				-0.12026843428611755
			],
			"min":[
				-0.029859216883778572,
				-0.04656745120882988,
				-0.14564895629882812
			],
			"type":"VEC3"
		},
		{
			"bufferView":4,
			"componentType":5126,
			"count":376,
			"type":"VEC3"
		},
		{
			"bufferView":5,
			"componentType":5123,
			"count":1020,
			"type":"SCALAR"
		},
		{
			"bufferView":6,
			"componentType":5126,
			"count":176,
			"max":[
				0.10611440986394882,
				0.03747493028640747,
				0.10611440986394882
			],
			"min":[
				-0.10611440986394882,
				0.028839534148573875,
				-0.10611440986394882
			],
			"type":"VEC3"
		},
		{
			"bufferView":7,
			"componentType":5126,
			"count":176,
			"type":"VEC3"
		},
		{
			"bufferView":8,
			"componentType":5123,
			"count":348,
			"type":"SCALAR"
		},
		{
			"bufferView":9,
			"componentType":5126,
			"count":84,
			"max":[
				0.09907344728708267,
				0.033614687621593475,
				0.09907344728708267
			],
			"min":[
				-0.09907344728708267,
				0.028839534148573875,
				-0.09907344728708267
			],
			"type":"VEC3"
		},
		{
			"bufferView":10,
			"componentType":5126,
			"count":84,
			"type":"VEC3"
		},
		{
			"bufferView":11,
			"componentType":5123,
			"count":246,
			"type":"SCALAR"
		},
		{
			"bufferView":12,
			"componentType":5126,
			"count":92,
			"max":[
				0.061289072036743164,
				0.03747493401169777,
				0.016240930184721947
			],
			"min":[
				-0.06128908693790436,
				0.033614687621593475,
				-0.016240932047367096
			],
			"type":"VEC3"
		},
		{
			"bufferView":13,
			"componentType":5126,
			"count":92,
			"type":"VEC3"
		},
		{
			"bufferView":14,
			"componentType":5123,
			"count":144,
			"type":"SCALAR"
		}
	],
	"bufferViews":[
		{
			"buffer":0,
			"byteLength":9552,
			"byteOffset":0,
			"target":34962
		},
		{
			"buffer":0,
			"byteLength":9552,
			"byteOffset":9552,
			"target":34962
		},
		{
			"buffer":0,
			"byteLength":7884,
			"byteOffset":19104,
			"target":34963
		},
		{
			"buffer":0,
			"byteLength":4512,
			"byteOffset":26988,
			"target":34962
		},
		{
			"buffer":0,
			"byteLength":4512,
			"byteOffset":31500,
			"target":34962
		},
		{
			"buffer":0,
			"byteLength":2040,
			"byteOffset":36012,
			"target":34963
		},
		{
			"buffer":0,
			"byteLength":2112,
			"byteOffset":38052,
			"target":34962
		},
		{
			"buffer":0,
			"byteLength":2112,
			"byteOffset":40164,
			"target":34962
		},
		{
			"buffer":0,
			"byteLength":696,
			"byteOffset":42276,
			"target":34963
		},
		{
			"buffer":0,
			"byteLength":1008,
			"byteOffset":42972,
			"target":34962
		},
		{
			"buffer":0,
			"byteLength":1008,
			"byteOffset":43980,
			"target":34962
		},
		{
			"buffer":0,
			"byteLength":492,
			"byteOffset":44988,
			"target":34963
		},
		{
			"buffer":0,
			"byteLength":1104,
			"byteOffset":45480,
			"target":34962
		},
		{
			"buffer":0,
			"byteLength":1104,
			"byteOffset":46584,
			"target":34962
		},
		{
			"buffer":0,
			"byteLength":288,
			"byteOffset":47688,
			"target":34963
		}
	],
	"buffers":[
		{
			"byteLength":47976,
			"uri":"AltitudeSensor.bin"
		}
	]
}
