{
	"asset":{
		"generator":"Khronos glTF Blender I/O v4.1.63",
		"version":"2.0"
	},
	"scene":0,
	"scenes":[
		{
			"name":"Scene",
			"nodes":[
				0
			]
		}
	],
	"nodes":[
		{
			"mesh":0,
			"name":"Body"
		}
	],
	"materials":[
		{
			"doubleSided":true,
			"name":"color1",
			"pbrMetallicRoughness":{
				"baseColorFactor":[
					1,
					1,
					1,
					1
				],
				"metallicFactor":0,
				"roughnessFactor":0
			}
		},
		{
			"doubleSided":true,
			"name":"screen",
			"pbrMetallicRoughness":{
				"baseColorTexture":{
					"index":0
				},
				"metallicFactor":0,
				"roughnessFactor":0
			}
		},
		{
			"doubleSided":true,
			"name":"data-connector",
			"pbrMetallicRoughness":{
				"baseColorFactor":[
					0,
					0.05000007152557373,
					0.5,
					1
				],
				"metallicFactor":1,
				"roughnessFactor":1
			}
		}
	],
	"meshes":[
		{
			"name":"Cube",
			"primitives":[
				{
					"attributes":{
						"POSITION":0,
						"TEXCOORD_0":1
					},
					"indices":2,
					"material":0
				},
				{
					"attributes":{
						"POSITION":3,
						"TEXCOORD_0":4
					},
					"indices":5,
					"material":1
				},
				{
					"attributes":{
						"POSITION":6,
						"TEXCOORD_0":7
					},
					"indices":8,
					"material":2
				}
			]
		}
	],
	"textures":[
		{
			"sampler":0,
			"source":0
		}
	],
	"images":[
		{
			"mimeType":"image/png",
			"name":"screen",
			"uri":"screen.png"
		}
	],
	"accessors":[
		{
			"bufferView":0,
			"componentType":5126,
			"count":83,
			"max":[
				0.25,
				0.25,
				0.02500000037252903
			],
			"min":[
				-0.25,
				-0.25,
				-0.02500000037252903
			],
			"type":"VEC3"
		},
		{
			"bufferView":1,
			"componentType":5126,
			"count":83,
			"type":"VEC2"
		},
		{
			"bufferView":2,
			"componentType":5123,
			"count":150,
			"type":"SCALAR"
		},
		{
			"bufferView":3,
			"componentType":5126,
			"count":4,
			"max":[
				0.21677453815937042,
				0.21677453815937042,
				-0.02374049834907055
			],
			"min":[
				-0.21677453815937042,
				-0.21677453815937042,
				-0.02374049834907055
			],
			"type":"VEC3"
		},
		{
			"bufferView":4,
			"componentType":5126,
			"count":4,
			"type":"VEC2"
		},
		{
			"bufferView":5,
			"componentType":5123,
			"count":6,
			"type":"SCALAR"
		},
		{
			"bufferView":6,
			"componentType":5126,
			"count":376,
			"max":[
				0.02985917031764984,
				0.02985917031764984,
				0.04564894735813141
			],
			"min":[
				-0.02985917031764984,
				-0.02985917031764984,
				0.024999994784593582
			],
			"type":"VEC3"
		},
		{
			"bufferView":7,
			"componentType":5126,
			"count":376,
			"type":"VEC2"
		},
		{
			"bufferView":8,
			"componentType":5123,
			"count":1020,
			"type":"SCALAR"
		}
	],
	"bufferViews":[
		{
			"buffer":0,
			"byteLength":996,
			"byteOffset":0,
			"target":34962
		},
		{
			"buffer":0,
			"byteLength":664,
			"byteOffset":996,
			"target":34962
		},
		{
			"buffer":0,
			"byteLength":300,
			"byteOffset":1660,
			"target":34963
		},
		{
			"buffer":0,
			"byteLength":48,
			"byteOffset":1960,
			"target":34962
		},
		{
			"buffer":0,
			"byteLength":32,
			"byteOffset":2008,
			"target":34962
		},
		{
			"buffer":0,
			"byteLength":12,
			"byteOffset":2040,
			"target":34963
		},
		{
			"buffer":0,
			"byteLength":4512,
			"byteOffset":2052,
			"target":34962
		},
		{
			"buffer":0,
			"byteLength":3008,
			"byteOffset":6564,
			"target":34962
		},
		{
			"buffer":0,
			"byteLength":2040,
			"byteOffset":9572,
			"target":34963
		}
	],
	"samplers":[
		{
			"magFilter":9729,
			"minFilter":9987
		}
	],
	"buffers":[
		{
			"byteLength":11612,
			"uri":"OwnerPad.bin"
		}
	]
}
