{
	"asset":{
		"generator":"Khronos glTF Blender I/O v4.4.55",
		"version":"2.0"
	},
	"scene":0,
	"scenes":[
		{
			"name":"Scene",
			"nodes":[
				0,
				1
			]
		}
	],
	"nodes":[
		{
			"mesh":0,
			"name":"base"
		},
		{
			"mesh":1,
			"name":"rods",
			"translation":[
				0,
				-0.011954437009990215,
				0
			]
		}
	],
	"materials":[
		{
			"doubleSided":true,
			"name":"color1",
			"pbrMetallicRoughness":{
				"metallicFactor":0,
				"roughnessFactor":0
			}
		},
		{
			"doubleSided":true,
			"name":"body",
			"pbrMetallicRoughness":{
				"baseColorFactor":[
					0.009999999776482582,
					0.009999999776482582,
					0.009999999776482582,
					1
				],
				"metallicFactor":0
			}
		},
		{
			"doubleSided":true,
			"name":"color2",
			"pbrMetallicRoughness":{
				"baseColorFactor":[
					0.800000011920929,
					0.800000011920929,
					0.800000011920929,
					1
				]
			}
		},
		{
			"doubleSided":true,
			"name":"screen",
			"pbrMetallicRoughness":{
				"baseColorFactor":[
					0,
					0,
					0,
					1
				]
			}
		},
		{
			"doubleSided":true,
			"name":"fluid-connector",
			"pbrMetallicRoughness":{
				"baseColorFactor":[
					0.5,
					0.5,
					0.5,
					1
				]
			}
		},
		{
			"doubleSided":true,
			"name":"data-connector",
			"pbrMetallicRoughness":{
				"baseColorFactor":[
					0,
					0.05000000074505806,
					0.5,
					1
				]
			}
		},
		{
			"doubleSided":true,
			"name":"lv-connector",
			"pbrMetallicRoughness":{
				"baseColorFactor":[
					0.5,
					0,
					0,
					1
				]
			}
		},
		{
			"doubleSided":true,
			"name":"rods",
			"pbrMetallicRoughness":{
				"baseColorFactor":[
					0.51025390625,
					0.51025390625,
					0.51025390625,
					1
				]
			}
		},
		{
			"doubleSided":true,
			"name":"rods2",
			"pbrMetallicRoughness":{
				"baseColorFactor":[
					0.16043239831924438,
					0.16043239831924438,
					0.16043239831924438,
					1
				]
			}
		}
	],
	"meshes":[
		{
			"name":"Cube.003",
			"primitives":[
				{
					"attributes":{
						"POSITION":0,
						"NORMAL":1,
						"TEXCOORD_0":2
					},
					"indices":3,
					"material":0
				},
				{
					"attributes":{
						"POSITION":4,
						"NORMAL":5,
						"TEXCOORD_0":6
					},
					"indices":7,
					"material":1
				},
				{
					"attributes":{
						"POSITION":8,
						"NORMAL":9,
						"TEXCOORD_0":10
					},
					"indices":11,
					"material":2
				},
				{
					"attributes":{
						"POSITION":12,
						"NORMAL":13,
						"TEXCOORD_0":14
					},
					"indices":15,
					"material":3
				},
				{
					"attributes":{
						"POSITION":16,
						"NORMAL":17,
						"TEXCOORD_0":18
					},
					"indices":19,
					"material":4
				},
				{
					"attributes":{
						"POSITION":20,
						"NORMAL":21,
						"TEXCOORD_0":22
					},
					"indices":23,
					"material":5
				},
				{
					"attributes":{
						"POSITION":24,
						"NORMAL":25,
						"TEXCOORD_0":26
					},
					"indices":27,
					"material":6
				}
			]
		},
		{
			"name":"Cube.006",
			"primitives":[
				{
					"attributes":{
						"POSITION":28,
						"NORMAL":29,
						"TEXCOORD_0":30
					},
					"indices":31,
					"material":1
				},
				{
					"attributes":{
						"POSITION":32,
						"NORMAL":33,
						"TEXCOORD_0":34
					},
					"indices":35,
					"material":7
				},
				{
					"attributes":{
						"POSITION":36,
						"NORMAL":37,
						"TEXCOORD_0":38
					},
					"indices":39,
					"material":8
				}
			]
		}
	],
	"accessors":[
		{
			"bufferView":0,
			"componentType":5126,
			"count":10055,
			"max":[
				1.375,
				1.1738765239715576,
				1.375
			],
			"min":[
				-1.375,
				-1.576117753982544,
				-1.375
			],
			"type":"VEC3"
		},
		{
			"bufferView":1,
			"componentType":5126,
			"count":10055,
			"type":"VEC3"
		},
		{
			"bufferView":2,
			"componentType":5126,
			"count":10055,
			"type":"VEC2"
		},
		{
			"bufferView":3,
			"componentType":5123,
			"count":29307,
			"type":"SCALAR"
		},
		{
			"bufferView":4,
			"componentType":5126,
			"count":4108,
			"max":[
				1.369320273399353,
				1.0621106624603271,
				1.3693201541900635
			],
			"min":[
				-1.369320273399353,
				-1.4983500242233276,
				-1.3693201541900635
			],
			"type":"VEC3"
		},
		{
			"bufferView":5,
			"componentType":5126,
			"count":4108,
			"type":"VEC3"
		},
		{
			"bufferView":6,
			"componentType":5126,
			"count":4108,
			"type":"VEC2"
		},
		{
			"bufferView":7,
			"componentType":5123,
			"count":9936,
			"type":"SCALAR"
		},
		{
			"bufferView":8,
			"componentType":5126,
			"count":1268,
			"max":[
				0.793633222579956,
				1.0284278392791748,
				0.7935985326766968
			],
			"min":[
				-0.793633222579956,
				-0.35851162672042847,
				-1.3742387294769287
			],
			"type":"VEC3"
		},
		{
			"bufferView":9,
			"componentType":5126,
			"count":1268,
			"type":"VEC3"
		},
		{
			"bufferView":10,
			"componentType":5126,
			"count":1268,
			"type":"VEC2"
		},
		{
			"bufferView":11,
			"componentType":5123,
			"count":3582,
			"type":"SCALAR"
		},
		{
			"bufferView":12,
			"componentType":5126,
			"count":4,
			"max":[
				0.6261793971061707,
				0.4730863571166992,
				-1.3555773496627808
			],
			"min":[
				-0.6261793971061707,
				-0.2769136428833008,
				-1.3555773496627808
			],
			"type":"VEC3"
		},
		{
			"bufferView":13,
			"componentType":5126,
			"count":4,
			"type":"VEC3"
		},
		{
			"bufferView":14,
			"componentType":5126,
			"count":4,
			"type":"VEC2"
		},
		{
			"bufferView":15,
			"componentType":5123,
			"count":6,
			"type":"SCALAR"
		},
		{
			"bufferView":16,
			"componentType":5126,
			"count":9216,
			"max":[
				0.4248965382575989,
				-1.2374368906021118,
				1.359350562095642
			],
			"min":[
				-0.4248965382575989,
				-1.4872299432754517,
				1.321516752243042
			],
			"type":"VEC3"
		},
		{
			"bufferView":17,
			"componentType":5126,
			"count":9216,
			"type":"VEC3"
		},
		{
			"bufferView":18,
			"componentType":5126,
			"count":9216,
			"type":"VEC2"
		},
		{
			"bufferView":19,
			"componentType":5123,
			"count":21624,
			"type":"SCALAR"
		},
		{
			"bufferView":20,
			"componentType":5126,
			"count":376,
			"max":[
				0.02985917031764984,
				-1.2727571725845337,
				1.3421659469604492
			],
			"min":[
				-0.02985917031764984,
				-1.3324755430221558,
				1.321516990661621
			],
			"type":"VEC3"
		},
		{
			"bufferView":21,
			"componentType":5126,
			"count":376,
			"type":"VEC3"
		},
		{
			"bufferView":22,
			"componentType":5126,
			"count":376,
			"type":"VEC2"
		},
		{
			"bufferView":23,
			"componentType":5123,
			"count":1020,
			"type":"SCALAR"
		},
		{
			"bufferView":24,
			"componentType":5126,
			"count":312,
			"max":[
				0.030625849962234497,
				-1.3904979228973389,
				1.3418973684310913
			],
			"min":[
				-0.030625849962234497,
				-1.451749563217163,
				1.3215168714523315
			],
			"type":"VEC3"
		},
		{
			"bufferView":25,
			"componentType":5126,
			"count":312,
			"type":"VEC3"
		},
		{
			"bufferView":26,
			"componentType":5126,
			"count":312,
			"type":"VEC2"
		},
		{
			"bufferView":27,
			"componentType":5123,
			"count":996,
			"type":"SCALAR"
		},
		{
			"bufferView":28,
			"componentType":5126,
			"count":19272,
			"max":[
				0.7862159013748169,
				1.1418981552124023,
				0.7861812114715576
			],
			"min":[
				-0.7862159013748169,
				-0.14878664910793304,
				-0.7861812114715576
			],
			"type":"VEC3"
		},
		{
			"bufferView":29,
			"componentType":5126,
			"count":19272,
			"type":"VEC3"
		},
		{
			"bufferView":30,
			"componentType":5126,
			"count":19272,
			"type":"VEC2"
		},
		{
			"bufferView":31,
			"componentType":5123,
			"count":25704,
			"type":"SCALAR"
		},
		{
			"bufferView":32,
			"componentType":5126,
			"count":7096,
			"max":[
				0.7787985801696777,
				1.1541990041732788,
				0.7787638902664185
			],
			"min":[
				-0.7787985801696777,
				1.1156061887741089,
				-0.7787638902664185
			],
			"type":"VEC3"
		},
		{
			"bufferView":33,
			"componentType":5126,
			"count":7096,
			"type":"VEC3"
		},
		{
			"bufferView":34,
			"componentType":5126,
			"count":7096,
			"type":"VEC2"
		},
		{
			"bufferView":35,
			"componentType":5123,
			"count":19944,
			"type":"SCALAR"
		},
		{
			"bufferView":36,
			"componentType":5126,
			"count":720,
			"max":[
				0.781128466129303,
				1.0455536842346191,
				0.7858045101165771
			],
			"min":[
				-0.781128466129303,
				-0.07458409667015076,
				-0.7858045101165771
			],
			"type":"VEC3"
		},
		{
			"bufferView":37,
			"componentType":5126,
			"count":720,
			"type":"VEC3"
		},
		{
			"bufferView":38,
			"componentType":5126,
			"count":720,
			"type":"VEC2"
		},
		{
			"bufferView":39,
			"componentType":5123,
			"count":1440,
			"type":"SCALAR"
		}
	],
	"bufferViews":[
		{
			"buffer":0,
			"byteLength":120660,
			"byteOffset":0,
			"target":34962
		},
		{
			"buffer":0,
			"byteLength":120660,
			"byteOffset":120660,
			"target":34962
		},
		{
			"buffer":0,
			"byteLength":80440,
			"byteOffset":241320,
			"target":34962
		},
		{
			"buffer":0,
			"byteLength":58614,
			"byteOffset":321760,
			"target":34963
		},
		{
			"buffer":0,
			"byteLength":49296,
			"byteOffset":380376,
			"target":34962
		},
		{
			"buffer":0,
			"byteLength":49296,
			"byteOffset":429672,
			"target":34962
		},
		{
			"buffer":0,
			"byteLength":32864,
			"byteOffset":478968,
			"target":34962
		},
		{
			"buffer":0,
			"byteLength":19872,
			"byteOffset":511832,
			"target":34963
		},
		{
			"buffer":0,
			"byteLength":15216,
			"byteOffset":531704,
			"target":34962
		},
		{
			"buffer":0,
			"byteLength":15216,
			"byteOffset":546920,
			"target":34962
		},
		{
			"buffer":0,
			"byteLength":10144,
			"byteOffset":562136,
			"target":34962
		},
		{
			"buffer":0,
			"byteLength":7164,
			"byteOffset":572280,
			"target":34963
		},
		{
			"buffer":0,
			"byteLength":48,
			"byteOffset":579444,
			"target":34962
		},
		{
			"buffer":0,
			"byteLength":48,
			"byteOffset":579492,
			"target":34962
		},
		{
			"buffer":0,
			"byteLength":32,
			"byteOffset":579540,
			"target":34962
		},
		{
			"buffer":0,
			"byteLength":12,
			"byteOffset":579572,
			"target":34963
		},
		{
			"buffer":0,
			"byteLength":110592,
			"byteOffset":579584,
			"target":34962
		},
		{
			"buffer":0,
			"byteLength":110592,
			"byteOffset":690176,
			"target":34962
		},
		{
			"buffer":0,
			"byteLength":73728,
			"byteOffset":800768,
			"target":34962
		},
		{
			"buffer":0,
			"byteLength":43248,
			"byteOffset":874496,
			"target":34963
		},
		{
			"buffer":0,
			"byteLength":4512,
			"byteOffset":917744,
			"target":34962
		},
		{
			"buffer":0,
			"byteLength":4512,
			"byteOffset":922256,
			"target":34962
		},
		{
			"buffer":0,
			"byteLength":3008,
			"byteOffset":926768,
			"target":34962
		},
		{
			"buffer":0,
			"byteLength":2040,
			"byteOffset":929776,
			"target":34963
		},
		{
			"buffer":0,
			"byteLength":3744,
			"byteOffset":931816,
			"target":34962
		},
		{
			"buffer":0,
			"byteLength":3744,
			"byteOffset":935560,
			"target":34962
		},
		{
			"buffer":0,
			"byteLength":2496,
			"byteOffset":939304,
			"target":34962
		},
		{
			"buffer":0,
			"byteLength":1992,
			"byteOffset":941800,
			"target":34963
		},
		{
			"buffer":0,
			"byteLength":231264,
			"byteOffset":943792,
			"target":34962
		},
		{
			"buffer":0,
			"byteLength":231264,
			"byteOffset":1175056,
			"target":34962
		},
		{
			"buffer":0,
			"byteLength":154176,
			"byteOffset":1406320,
			"target":34962
		},
		{
			"buffer":0,
			"byteLength":51408,
			"byteOffset":1560496,
			"target":34963
		},
		{
			"buffer":0,
			"byteLength":85152,
			"byteOffset":1611904,
			"target":34962
		},
		{
			"buffer":0,
			"byteLength":85152,
			"byteOffset":1697056,
			"target":34962
		},
		{
			"buffer":0,
			"byteLength":56768,
			"byteOffset":1782208,
			"target":34962
		},
		{
			"buffer":0,
			"byteLength":39888,
			"byteOffset":1838976,
			"target":34963
		},
		{
			"buffer":0,
			"byteLength":8640,
			"byteOffset":1878864,
			"target":34962
		},
		{
			"buffer":0,
			"byteLength":8640,
			"byteOffset":1887504,
			"target":34962
		},
		{
			"buffer":0,
			"byteLength":5760,
			"byteOffset":1896144,
			"target":34962
		},
		{
			"buffer":0,
			"byteLength":2880,
			"byteOffset":1901904,
			"target":34963
		}
	],
	"buffers":[
		{
			"byteLength":1904784,
			"uri":"FissionReactor.bin"
		}
	]
}
