{
	"asset":{
		"generator":"Khronos glTF Blender I/O v4.3.47",
		"version":"2.0"
	},
	"scene":0,
	"scenes":[
		{
			"name":"Scene",
			"nodes":[
				0,
				1
			]
		}
	],
	"nodes":[
		{
			"mesh":0,
			"name":"console",
			"translation":[
				-2.994365692138672,
				0,
				0
			]
		},
		{
			"mesh":1,
			"name":"hdd",
			"translation":[
				-2.994365692138672,
				0,
				0
			]
		}
	],
	"materials":[
		{
			"doubleSided":true,
			"name":"color1",
			"pbrMetallicRoughness":{
				"metallicFactor":0,
				"roughnessFactor":0
			}
		},
		{
			"doubleSided":true,
			"name":"power_button",
			"pbrMetallicRoughness":{
				"baseColorFactor":[
					0,
					0,
					0,
					1
				],
				"metallicFactor":0
			}
		},
		{
			"doubleSided":true,
			"name":"code_button",
			"pbrMetallicRoughness":{
				"baseColorFactor":[
					0.0318116620182991,
					0.03877115622162819,
					0.10653471946716309,
					1
				],
				"metallicFactor":0
			}
		},
		{
			"doubleSided":true,
			"name":"reboot_button",
			"pbrMetallicRoughness":{
				"baseColorFactor":[
					0.1328628659248352,
					0.09991736710071564,
					0.0006564378854818642,
					1
				],
				"metallicFactor":0
			}
		},
		{
			"doubleSided":true,
			"name":"hdd_bay",
			"pbrMetallicRoughness":{
				"baseColorFactor":[
					0.018274808302521706,
					0.031062906607985497,
					0.021525153890252113,
					1
				],
				"metallicFactor":0
			}
		},
		{
			"doubleSided":true,
			"name":"data-connector",
			"pbrMetallicRoughness":{
				"baseColorFactor":[
					0,
					0.05000007152557373,
					0.5,
					1
				]
			}
		},
		{
			"doubleSided":true,
			"name":"lv-connector",
			"pbrMetallicRoughness":{
				"baseColorFactor":[
					0.5,
					0,
					0,
					1
				]
			}
		},
		{
			"doubleSided":true,
			"name":"code_button_text",
			"pbrMetallicRoughness":{
				"baseColorFactor":[
					0,
					0,
					0,
					1
				],
				"metallicFactor":0
			}
		},
		{
			"doubleSided":true,
			"name":"reboot_button_text",
			"pbrMetallicRoughness":{
				"baseColorFactor":[
					0,
					0,
					0,
					1
				],
				"metallicFactor":0
			}
		},
		{
			"doubleSided":true,
			"name":"hdd"
		}
	],
	"meshes":[
		{
			"name":"Cube.003",
			"primitives":[
				{
					"attributes":{
						"POSITION":0,
						"NORMAL":1
					},
					"indices":2,
					"material":0
				},
				{
					"attributes":{
						"POSITION":3,
						"NORMAL":4
					},
					"indices":5,
					"material":1
				},
				{
					"attributes":{
						"POSITION":6,
						"NORMAL":7
					},
					"indices":8,
					"material":2
				},
				{
					"attributes":{
						"POSITION":9,
						"NORMAL":10
					},
					"indices":11,
					"material":3
				},
				{
					"attributes":{
						"POSITION":12,
						"NORMAL":13
					},
					"indices":14,
					"material":4
				},
				{
					"attributes":{
						"POSITION":15,
						"NORMAL":16
					},
					"indices":17,
					"material":5
				},
				{
					"attributes":{
						"POSITION":18,
						"NORMAL":19
					},
					"indices":20,
					"material":6
				},
				{
					"attributes":{
						"POSITION":21,
						"NORMAL":22
					},
					"indices":23,
					"material":7
				},
				{
					"attributes":{
						"POSITION":24,
						"NORMAL":25
					},
					"indices":26,
					"material":8
				}
			]
		},
		{
			"name":"Cube.005",
			"primitives":[
				{
					"attributes":{
						"POSITION":27,
						"NORMAL":28
					},
					"indices":29,
					"material":9
				}
			]
		}
	],
	"accessors":[
		{
			"bufferView":0,
			"componentType":5126,
			"count":116,
			"max":[
				0.125,
				0.25,
				0.125
			],
			"min":[
				-0.125,
				-0.25,
				-0.125
			],
			"type":"VEC3"
		},
		{
			"bufferView":1,
			"componentType":5126,
			"count":116,
			"type":"VEC3"
		},
		{
			"bufferView":2,
			"componentType":5123,
			"count":366,
			"type":"SCALAR"
		},
		{
			"bufferView":3,
			"componentType":5126,
			"count":992,
			"max":[
				0.02898457460105419,
				0.2193886637687683,
				-0.12499997764825821
			],
			"min":[
				-0.028984565287828445,
				0.16141951084136963,
				-0.15398454666137695
			],
			"type":"VEC3"
		},
		{
			"bufferView":4,
			"componentType":5126,
			"count":992,
			"type":"VEC3"
		},
		{
			"bufferView":5,
			"componentType":5123,
			"count":1440,
			"type":"SCALAR"
		},
		{
			"bufferView":6,
			"componentType":5126,
			"count":380,
			"max":[
				0.10856960713863373,
				0.11174006015062332,
				-0.125
			],
			"min":[
				-0.10856960713863373,
				0.01325993612408638,
				-0.13565298914909363
			],
			"type":"VEC3"
		},
		{
			"bufferView":7,
			"componentType":5126,
			"count":380,
			"type":"VEC3"
		},
		{
			"bufferView":8,
			"componentType":5123,
			"count":1002,
			"type":"SCALAR"
		},
		{
			"bufferView":9,
			"componentType":5126,
			"count":512,
			"max":[
				0.10856960713863373,
				-0.01325993612408638,
				-0.125
			],
			"min":[
				-0.10856960713863373,
				-0.11174006015062332,
				-0.13565298914909363
			],
			"type":"VEC3"
		},
		{
			"bufferView":10,
			"componentType":5126,
			"count":512,
			"type":"VEC3"
		},
		{
			"bufferView":11,
			"componentType":5123,
			"count":1416,
			"type":"SCALAR"
		},
		{
			"bufferView":12,
			"componentType":5126,
			"count":80,
			"max":[
				0.11247074604034424,
				-0.15875908732414246,
				-0.062473364174366
			],
			"min":[
				-0.11247074604034424,
				-0.22204908728599548,
				-0.125
			],
			"type":"VEC3"
		},
		{
			"bufferView":13,
			"componentType":5126,
			"count":80,
			"type":"VEC3"
		},
		{
			"bufferView":14,
			"componentType":5123,
			"count":138,
			"type":"SCALAR"
		},
		{
			"bufferView":15,
			"componentType":5126,
			"count":4512,
			"max":[
				0.14564894139766693,
				0.2295524924993515,
				0.09235917031764984
			],
			"min":[
				-0.14564894139766693,
				-0.23016579449176788,
				0.03264082968235016
			],
			"type":"VEC3"
		},
		{
			"bufferView":16,
			"componentType":5126,
			"count":4512,
			"type":"VEC3"
		},
		{
			"bufferView":17,
			"componentType":5123,
			"count":12240,
			"type":"SCALAR"
		},
		{
			"bufferView":18,
			"componentType":5126,
			"count":312,
			"max":[
				0.030625849962234497,
				0.2703803479671478,
				0.0931258499622345
			],
			"min":[
				-0.030625849962234497,
				0.24999992549419403,
				0.0318741500377655
			],
			"type":"VEC3"
		},
		{
			"bufferView":19,
			"componentType":5126,
			"count":312,
			"type":"VEC3"
		},
		{
			"bufferView":20,
			"componentType":5123,
			"count":996,
			"type":"SCALAR"
		},
		{
			"bufferView":21,
			"componentType":5126,
			"count":1360,
			"max":[
				0.06725333631038666,
				0.07841107249259949,
				-0.12721815705299377
			],
			"min":[
				-0.056031160056591034,
				0.0464957058429718,
				-0.13565298914909363
			],
			"type":"VEC3"
		},
		{
			"bufferView":22,
			"componentType":5126,
			"count":1360,
			"type":"VEC3"
		},
		{
			"bufferView":23,
			"componentType":5123,
			"count":2340,
			"type":"SCALAR"
		},
		{
			"bufferView":24,
			"componentType":5126,
			"count":2126,
			"max":[
				0.08868025988340378,
				-0.04685428738594055,
				-0.12773296236991882
			],
			"min":[
				-0.08943046629428864,
				-0.07946676760911942,
				-0.13565298914909363
			],
			"type":"VEC3"
		},
		{
			"bufferView":25,
			"componentType":5126,
			"count":2126,
			"type":"VEC3"
		},
		{
			"bufferView":26,
			"componentType":5123,
			"count":3696,
			"type":"SCALAR"
		},
		{
			"bufferView":27,
			"componentType":5126,
			"count":160,
			"max":[
				0.10907359421253204,
				-0.16103464365005493,
				-0.07499925047159195
			],
			"min":[
				-0.10907359421253204,
				-0.219773530960083,
				-0.1356372833251953
			],
			"type":"VEC3"
		},
		{
			"bufferView":28,
			"componentType":5126,
			"count":160,
			"type":"VEC3"
		},
		{
			"bufferView":29,
			"componentType":5123,
			"count":276,
			"type":"SCALAR"
		}
	],
	"bufferViews":[
		{
			"buffer":0,
			"byteLength":1392,
			"byteOffset":0,
			"target":34962
		},
		{
			"buffer":0,
			"byteLength":1392,
			"byteOffset":1392,
			"target":34962
		},
		{
			"buffer":0,
			"byteLength":732,
			"byteOffset":2784,
			"target":34963
		},
		{
			"buffer":0,
			"byteLength":11904,
			"byteOffset":3516,
			"target":34962
		},
		{
			"buffer":0,
			"byteLength":11904,
			"byteOffset":15420,
			"target":34962
		},
		{
			"buffer":0,
			"byteLength":2880,
			"byteOffset":27324,
			"target":34963
		},
		{
			"buffer":0,
			"byteLength":4560,
			"byteOffset":30204,
			"target":34962
		},
		{
			"buffer":0,
			"byteLength":4560,
			"byteOffset":34764,
			"target":34962
		},
		{
			"buffer":0,
			"byteLength":2004,
			"byteOffset":39324,
			"target":34963
		},
		{
			"buffer":0,
			"byteLength":6144,
			"byteOffset":41328,
			"target":34962
		},
		{
			"buffer":0,
			"byteLength":6144,
			"byteOffset":47472,
			"target":34962
		},
		{
			"buffer":0,
			"byteLength":2832,
			"byteOffset":53616,
			"target":34963
		},
		{
			"buffer":0,
			"byteLength":960,
			"byteOffset":56448,
			"target":34962
		},
		{
			"buffer":0,
			"byteLength":960,
			"byteOffset":57408,
			"target":34962
		},
		{
			"buffer":0,
			"byteLength":276,
			"byteOffset":58368,
			"target":34963
		},
		{
			"buffer":0,
			"byteLength":54144,
			"byteOffset":58644,
			"target":34962
		},
		{
			"buffer":0,
			"byteLength":54144,
			"byteOffset":112788,
			"target":34962
		},
		{
			"buffer":0,
			"byteLength":24480,
			"byteOffset":166932,
			"target":34963
		},
		{
			"buffer":0,
			"byteLength":3744,
			"byteOffset":191412,
			"target":34962
		},
		{
			"buffer":0,
			"byteLength":3744,
			"byteOffset":195156,
			"target":34962
		},
		{
			"buffer":0,
			"byteLength":1992,
			"byteOffset":198900,
			"target":34963
		},
		{
			"buffer":0,
			"byteLength":16320,
			"byteOffset":200892,
			"target":34962
		},
		{
			"buffer":0,
			"byteLength":16320,
			"byteOffset":217212,
			"target":34962
		},
		{
			"buffer":0,
			"byteLength":4680,
			"byteOffset":233532,
			"target":34963
		},
		{
			"buffer":0,
			"byteLength":25512,
			"byteOffset":238212,
			"target":34962
		},
		{
			"buffer":0,
			"byteLength":25512,
			"byteOffset":263724,
			"target":34962
		},
		{
			"buffer":0,
			"byteLength":7392,
			"byteOffset":289236,
			"target":34963
		},
		{
			"buffer":0,
			"byteLength":1920,
			"byteOffset":296628,
			"target":34962
		},
		{
			"buffer":0,
			"byteLength":1920,
			"byteOffset":298548,
			"target":34962
		},
		{
			"buffer":0,
			"byteLength":552,
			"byteOffset":300468,
			"target":34963
		}
	],
	"buffers":[
		{
			"byteLength":301020,
			"uri":"MiniComputer.bin"
		}
	]
}
