{
	"asset":{
		"generator":"Khronos glTF Blender I/O v4.0.44",
		"version":"2.0"
	},
	"scene":0,
	"scenes":[
		{
			"name":"Scene",
			"nodes":[
				0
			]
		}
	],
	"nodes":[
		{
			"mesh":0,
			"name":"box"
		}
	],
	"materials":[
		{
			"doubleSided":true,
			"name":"color2",
			"pbrMetallicRoughness":{
				"baseColorFactor":[
					0.800000011920929,
					0.800000011920929,
					0.800000011920929,
					1
				],
				"metallicFactor":1,
				"roughnessFactor":1
			}
		},
		{
			"doubleSided":true,
			"name":"data-connector",
			"pbrMetallicRoughness":{
				"baseColorFactor":[
					0,
					0.05000007152557373,
					0.5,
					1
				],
				"metallicFactor":1,
				"roughnessFactor":1
			}
		}
	],
	"meshes":[
		{
			"name":"Cube.001",
			"primitives":[
				{
					"attributes":{
						"POSITION":0,
						"NORMAL":1
					},
					"indices":2,
					"material":0
				},
				{
					"attributes":{
						"POSITION":3,
						"NORMAL":4
					},
					"indices":5,
					"material":1
				}
			]
		}
	],
	"accessors":[
		{
			"bufferView":0,
			"componentType":5126,
			"count":108,
			"max":[
				0.125,
				0.125,
				0.0625
			],
			"min":[
				-0.125,
				-0.125,
				-0.0625
			],
			"type":"VEC3"
		},
		{
			"bufferView":1,
			"componentType":5126,
			"count":108,
			"type":"VEC3"
		},
		{
			"bufferView":2,
			"componentType":5123,
			"count":204,
			"type":"SCALAR"
		},
		{
			"bufferView":3,
			"componentType":5126,
			"count":1880,
			"max":[
				0.14564894139766693,
				0.14564894139766693,
				0.02985917031764984
			],
			"min":[
				-0.14564894139766693,
				-0.14564894139766693,
				-0.02985917218029499
			],
			"type":"VEC3"
		},
		{
			"bufferView":4,
			"componentType":5126,
			"count":1880,
			"type":"VEC3"
		},
		{
			"bufferView":5,
			"componentType":5123,
			"count":5100,
			"type":"SCALAR"
		}
	],
	"bufferViews":[
		{
			"buffer":0,
			"byteLength":1296,
			"byteOffset":0,
			"target":34962
		},
		{
			"buffer":0,
			"byteLength":1296,
			"byteOffset":1296,
			"target":34962
		},
		{
			"buffer":0,
			"byteLength":408,
			"byteOffset":2592,
			"target":34963
		},
		{
			"buffer":0,
			"byteLength":22560,
			"byteOffset":3000,
			"target":34962
		},
		{
			"buffer":0,
			"byteLength":22560,
			"byteOffset":25560,
			"target":34962
		},
		{
			"buffer":0,
			"byteLength":10200,
			"byteOffset":48120,
			"target":34963
		}
	],
	"buffers":[
		{
			"byteLength":58320,
			"uri":"DataJunction.bin"
		}
	]
}
