{
	"asset":{
		"generator":"Khronos glTF Blender I/O v3.6.6",
		"version":"2.0"
	},
	"scene":0,
	"scenes":[
		{
			"name":"Scene",
			"nodes":[
				0
			]
		}
	],
	"nodes":[
		{
			"mesh":0,
			"name":"box"
		}
	],
	"materials":[
		{
			"doubleSided":true,
			"name":"color2",
			"pbrMetallicRoughness":{
				"baseColorFactor":[
					0.800000011920929,
					0.800000011920929,
					0.800000011920929,
					1
				],
				"metallicFactor":1,
				"roughnessFactor":1
			}
		},
		{
			"doubleSided":true,
			"name":"data-connector",
			"pbrMetallicRoughness":{
				"baseColorFactor":[
					0,
					0.05000007152557373,
					0.5,
					1
				],
				"metallicFactor":1,
				"roughnessFactor":1
			}
		}
	],
	"meshes":[
		{
			"name":"Cube.001",
			"primitives":[
				{
					"attributes":{
						"POSITION":0,
						"NORMAL":1
					},
					"indices":2,
					"material":0
				},
				{
					"attributes":{
						"POSITION":3,
						"NORMAL":4
					},
					"indices":5,
					"material":1
				}
			]
		}
	],
	"accessors":[
		{
			"bufferView":0,
			"componentType":5126,
			"count":128,
			"max":[
				0.125,
				0.125,
				0.0625
			],
			"min":[
				-0.125,
				-0.125,
				-0.0625
			],
			"type":"VEC3"
		},
		{
			"bufferView":1,
			"componentType":5126,
			"count":128,
			"type":"VEC3"
		},
		{
			"bufferView":2,
			"componentType":5123,
			"count":294,
			"type":"SCALAR"
		},
		{
			"bufferView":3,
			"componentType":5126,
			"count":1860,
			"max":[
				0.14564894139766693,
				0.14564894139766693,
				0.02985917031764984
			],
			"min":[
				-0.14564894139766693,
				-0.14564894139766693,
				-0.02985917031764984
			],
			"type":"VEC3"
		},
		{
			"bufferView":4,
			"componentType":5126,
			"count":1860,
			"type":"VEC3"
		},
		{
			"bufferView":5,
			"componentType":5123,
			"count":5310,
			"type":"SCALAR"
		}
	],
	"bufferViews":[
		{
			"buffer":0,
			"byteLength":1536,
			"byteOffset":0,
			"target":34962
		},
		{
			"buffer":0,
			"byteLength":1536,
			"byteOffset":1536,
			"target":34962
		},
		{
			"buffer":0,
			"byteLength":588,
			"byteOffset":3072,
			"target":34963
		},
		{
			"buffer":0,
			"byteLength":22320,
			"byteOffset":3660,
			"target":34962
		},
		{
			"buffer":0,
			"byteLength":22320,
			"byteOffset":25980,
			"target":34962
		},
		{
			"buffer":0,
			"byteLength":10620,
			"byteOffset":48300,
			"target":34963
		}
	],
	"buffers":[
		{
			"byteLength":58920,
			"uri":"DataJunction.bin"
		}
	]
}
