{
	"asset":{
		"generator":"Khronos glTF Blender I/O v4.3.47",
		"version":"2.0"
	},
	"scene":0,
	"scenes":[
		{
			"name":"Scene",
			"nodes":[
				0
			]
		}
	],
	"nodes":[
		{
			"mesh":0,
			"name":"base",
			"rotation":[
				0.5,
				-0.5,
				0.5,
				0.5
			],
			"translation":[
				-0.01840190216898918,
				-0.08873432874679565,
				2.133941650390625
			]
		}
	],
	"materials":[
		{
			"doubleSided":true,
			"name":"color1",
			"pbrMetallicRoughness":{
				"metallicFactor":0,
				"roughnessFactor":0
			}
		},
		{
			"doubleSided":true,
			"name":"fluid-connector",
			"pbrMetallicRoughness":{
				"baseColorFactor":[
					0.5,
					0.5,
					0.5,
					1
				]
			}
		},
		{
			"doubleSided":true,
			"name":"data-connector",
			"pbrMetallicRoughness":{
				"baseColorFactor":[
					0,
					0.05000000074505806,
					0.5,
					1
				]
			}
		},
		{
			"doubleSided":true,
			"name":"lv-connector",
			"pbrMetallicRoughness":{
				"baseColorFactor":[
					0.5,
					0,
					0,
					1
				]
			}
		}
	],
	"meshes":[
		{
			"name":"Cube.005",
			"primitives":[
				{
					"attributes":{
						"POSITION":0,
						"NORMAL":1
					},
					"indices":2,
					"material":0
				},
				{
					"attributes":{
						"POSITION":3,
						"NORMAL":4
					},
					"indices":5,
					"material":1
				},
				{
					"attributes":{
						"POSITION":6,
						"NORMAL":7
					},
					"indices":8,
					"material":2
				},
				{
					"attributes":{
						"POSITION":9,
						"NORMAL":10
					},
					"indices":11,
					"material":3
				}
			]
		}
	],
	"accessors":[
		{
			"bufferView":0,
			"componentType":5126,
			"count":112,
			"max":[
				0.12499997764825821,
				0.033914871513843536,
				0.1249999850988388
			],
			"min":[
				-0.12499997764825821,
				-0.21608589589595795,
				-0.1249999850988388
			],
			"type":"VEC3"
		},
		{
			"bufferView":1,
			"componentType":5126,
			"count":112,
			"type":"VEC3"
		},
		{
			"bufferView":2,
			"componentType":5123,
			"count":324,
			"type":"SCALAR"
		},
		{
			"bufferView":3,
			"componentType":5126,
			"count":9216,
			"max":[
				0.12489652633666992,
				0.07174836099147797,
				0.12489653378725052
			],
			"min":[
				-0.12489652633666992,
				-0.25391942262649536,
				-0.12489653378725052
			],
			"type":"VEC3"
		},
		{
			"bufferView":4,
			"componentType":5126,
			"count":9216,
			"type":"VEC3"
		},
		{
			"bufferView":5,
			"componentType":5123,
			"count":21624,
			"type":"SCALAR"
		},
		{
			"bufferView":6,
			"componentType":5126,
			"count":376,
			"max":[
				0.029859161004424095,
				-0.011213462799787521,
				-0.1249999925494194
			],
			"min":[
				-0.029859179630875587,
				-0.0709318071603775,
				-0.14564894139766693
			],
			"type":"VEC3"
		},
		{
			"bufferView":7,
			"componentType":5126,
			"count":376,
			"type":"VEC3"
		},
		{
			"bufferView":8,
			"componentType":5123,
			"count":1020,
			"type":"SCALAR"
		},
		{
			"bufferView":9,
			"componentType":5126,
			"count":312,
			"max":[
				0.030625849962234497,
				-0.11044454574584961,
				-0.12499986588954926
			],
			"min":[
				-0.030625849962234497,
				-0.1716962456703186,
				-0.14538027346134186
			],
			"type":"VEC3"
		},
		{
			"bufferView":10,
			"componentType":5126,
			"count":312,
			"type":"VEC3"
		},
		{
			"bufferView":11,
			"componentType":5123,
			"count":996,
			"type":"SCALAR"
		}
	],
	"bufferViews":[
		{
			"buffer":0,
			"byteLength":1344,
			"byteOffset":0,
			"target":34962
		},
		{
			"buffer":0,
			"byteLength":1344,
			"byteOffset":1344,
			"target":34962
		},
		{
			"buffer":0,
			"byteLength":648,
			"byteOffset":2688,
			"target":34963
		},
		{
			"buffer":0,
			"byteLength":110592,
			"byteOffset":3336,
			"target":34962
		},
		{
			"buffer":0,
			"byteLength":110592,
			"byteOffset":113928,
			"target":34962
		},
		{
			"buffer":0,
			"byteLength":43248,
			"byteOffset":224520,
			"target":34963
		},
		{
			"buffer":0,
			"byteLength":4512,
			"byteOffset":267768,
			"target":34962
		},
		{
			"buffer":0,
			"byteLength":4512,
			"byteOffset":272280,
			"target":34962
		},
		{
			"buffer":0,
			"byteLength":2040,
			"byteOffset":276792,
			"target":34963
		},
		{
			"buffer":0,
			"byteLength":3744,
			"byteOffset":278832,
			"target":34962
		},
		{
			"buffer":0,
			"byteLength":3744,
			"byteOffset":282576,
			"target":34962
		},
		{
			"buffer":0,
			"byteLength":1992,
			"byteOffset":286320,
			"target":34963
		}
	],
	"buffers":[
		{
			"byteLength":288312,
			"uri":"FluidPump.bin"
		}
	]
}
