{
	"asset":{
		"generator":"Khronos glTF Blender I/O v4.3.47",
		"version":"2.0"
	},
	"scene":0,
	"scenes":[
		{
			"name":"Scene",
			"nodes":[
				0
			]
		}
	],
	"nodes":[
		{
			"mesh":0,
			"name":"body"
		}
	],
	"materials":[
		{
			"doubleSided":true,
			"name":"body",
			"pbrMetallicRoughness":{
				"baseColorFactor":[
					0.009999999776482582,
					0.009999999776482582,
					0.009999999776482582,
					1
				],
				"metallicFactor":0
			}
		},
		{
			"doubleSided":true,
			"name":"data-connector",
			"pbrMetallicRoughness":{
				"baseColorFactor":[
					0,
					0.05000000074505806,
					0.5,
					1
				]
			}
		},
		{
			"doubleSided":true,
			"name":"color1",
			"pbrMetallicRoughness":{
				"metallicFactor":0,
				"roughnessFactor":0
			}
		},
		{
			"doubleSided":true,
			"name":"plate",
			"pbrMetallicRoughness":{
				"baseColorFactor":[
					0.026240430772304535,
					0.026240430772304535,
					0.026240430772304535,
					1
				],
				"metallicFactor":0,
				"roughnessFactor":1
			}
		},
		{
			"doubleSided":true,
			"name":"color2",
			"pbrMetallicRoughness":{
				"baseColorFactor":[
					0.800000011920929,
					0.800000011920929,
					0.800000011920929,
					1
				]
			}
		}
	],
	"meshes":[
		{
			"name":"Cube.003",
			"primitives":[
				{
					"attributes":{
						"POSITION":0,
						"NORMAL":1
					},
					"indices":2,
					"material":0
				},
				{
					"attributes":{
						"POSITION":3,
						"NORMAL":4
					},
					"indices":5,
					"material":1
				},
				{
					"attributes":{
						"POSITION":6,
						"NORMAL":7
					},
					"indices":8,
					"material":2
				},
				{
					"attributes":{
						"POSITION":9,
						"NORMAL":10
					},
					"indices":11,
					"material":3
				},
				{
					"attributes":{
						"POSITION":12,
						"NORMAL":13
					},
					"indices":14,
					"material":4
				}
			]
		}
	],
	"accessors":[
		{
			"bufferView":0,
			"componentType":5126,
			"count":796,
			"max":[
				0.1250000298023224,
				0.037474941462278366,
				0.1250000298023224
			],
			"min":[
				-0.1250000298023224,
				-0.05000000074505806,
				-0.1250000298023224
			],
			"type":"VEC3"
		},
		{
			"bufferView":1,
			"componentType":5126,
			"count":796,
			"type":"VEC3"
		},
		{
			"bufferView":2,
			"componentType":5123,
			"count":3942,
			"type":"SCALAR"
		},
		{
			"bufferView":3,
			"componentType":5126,
			"count":376,
			"max":[
				0.029859131202101707,
				0.013150889426469803,
				-0.12026843428611755
			],
			"min":[
				-0.029859216883778572,
				-0.04656745120882988,
				-0.14564895629882812
			],
			"type":"VEC3"
		},
		{
			"bufferView":4,
			"componentType":5126,
			"count":376,
			"type":"VEC3"
		},
		{
			"bufferView":5,
			"componentType":5123,
			"count":1020,
			"type":"SCALAR"
		},
		{
			"bufferView":6,
			"componentType":5126,
			"count":56,
			"max":[
				0.10611440986394882,
				0.028839534148573875,
				0.10611440986394882
			],
			"min":[
				-0.10611440986394882,
				0.028839534148573875,
				-0.10611440986394882
			],
			"type":"VEC3"
		},
		{
			"bufferView":7,
			"componentType":5126,
			"count":56,
			"type":"VEC3"
		},
		{
			"bufferView":8,
			"componentType":5123,
			"count":168,
			"type":"SCALAR"
		},
		{
			"bufferView":9,
			"componentType":5126,
			"count":84,
			"max":[
				0.09907344728708267,
				0.033614687621593475,
				0.09907344728708267
			],
			"min":[
				-0.09907344728708267,
				0.028839534148573875,
				-0.09907344728708267
			],
			"type":"VEC3"
		},
		{
			"bufferView":10,
			"componentType":5126,
			"count":84,
			"type":"VEC3"
		},
		{
			"bufferView":11,
			"componentType":5123,
			"count":246,
			"type":"SCALAR"
		},
		{
			"bufferView":12,
			"componentType":5126,
			"count":1792,
			"max":[
				0.07399146258831024,
				0.037474870681762695,
				0.08855879306793213
			],
			"min":[
				-0.07399146258831024,
				0.0336146354675293,
				-0.08855879306793213
			],
			"type":"VEC3"
		},
		{
			"bufferView":13,
			"componentType":5126,
			"count":1792,
			"type":"VEC3"
		},
		{
			"bufferView":14,
			"componentType":5123,
			"count":5364,
			"type":"SCALAR"
		}
	],
	"bufferViews":[
		{
			"buffer":0,
			"byteLength":9552,
			"byteOffset":0,
			"target":34962
		},
		{
			"buffer":0,
			"byteLength":9552,
			"byteOffset":9552,
			"target":34962
		},
		{
			"buffer":0,
			"byteLength":7884,
			"byteOffset":19104,
			"target":34963
		},
		{
			"buffer":0,
			"byteLength":4512,
			"byteOffset":26988,
			"target":34962
		},
		{
			"buffer":0,
			"byteLength":4512,
			"byteOffset":31500,
			"target":34962
		},
		{
			"buffer":0,
			"byteLength":2040,
			"byteOffset":36012,
			"target":34963
		},
		{
			"buffer":0,
			"byteLength":672,
			"byteOffset":38052,
			"target":34962
		},
		{
			"buffer":0,
			"byteLength":672,
			"byteOffset":38724,
			"target":34962
		},
		{
			"buffer":0,
			"byteLength":336,
			"byteOffset":39396,
			"target":34963
		},
		{
			"buffer":0,
			"byteLength":1008,
			"byteOffset":39732,
			"target":34962
		},
		{
			"buffer":0,
			"byteLength":1008,
			"byteOffset":40740,
			"target":34962
		},
		{
			"buffer":0,
			"byteLength":492,
			"byteOffset":41748,
			"target":34963
		},
		{
			"buffer":0,
			"byteLength":21504,
			"byteOffset":42240,
			"target":34962
		},
		{
			"buffer":0,
			"byteLength":21504,
			"byteOffset":63744,
			"target":34962
		},
		{
			"buffer":0,
			"byteLength":10728,
			"byteOffset":85248,
			"target":34963
		}
	],
	"buffers":[
		{
			"byteLength":95976,
			"uri":"VehiclePhysicsSensor.bin"
		}
	]
}
