{
	"asset":{
		"generator":"Khronos glTF Blender I/O v4.0.44",
		"version":"2.0"
	},
	"scene":0,
	"scenes":[
		{
			"name":"Scene",
			"nodes":[
				0
			]
		}
	],
	"nodes":[
		{
			"mesh":0,
			"name":"body"
		}
	],
	"materials":[
		{
			"doubleSided":true,
			"name":"color1",
			"pbrMetallicRoughness":{
				"baseColorFactor":[
					1,
					1,
					1,
					1
				],
				"metallicFactor":0,
				"roughnessFactor":0
			}
		},
		{
			"doubleSided":true,
			"name":"lv-connector",
			"pbrMetallicRoughness":{
				"baseColorFactor":[
					0.5,
					0,
					0,
					1
				],
				"metallicFactor":1,
				"roughnessFactor":1
			}
		}
	],
	"meshes":[
		{
			"name":"Cube.001",
			"primitives":[
				{
					"attributes":{
						"POSITION":0,
						"NORMAL":1
					},
					"indices":2,
					"material":0
				},
				{
					"attributes":{
						"POSITION":3,
						"NORMAL":4
					},
					"indices":5,
					"material":1
				}
			]
		}
	],
	"accessors":[
		{
			"bufferView":0,
			"componentType":5126,
			"count":24,
			"max":[
				0.125,
				0.125,
				0.125
			],
			"min":[
				-0.125,
				-0.125,
				-0.125
			],
			"type":"VEC3"
		},
		{
			"bufferView":1,
			"componentType":5126,
			"count":24,
			"type":"VEC3"
		},
		{
			"bufferView":2,
			"componentType":5123,
			"count":36,
			"type":"SCALAR"
		},
		{
			"bufferView":3,
			"componentType":5126,
			"count":624,
			"max":[
				0.030625849962234497,
				0.030625849962234497,
				0.14538034796714783
			],
			"min":[
				-0.030625849962234497,
				-0.030625851824879646,
				-0.14538034796714783
			],
			"type":"VEC3"
		},
		{
			"bufferView":4,
			"componentType":5126,
			"count":624,
			"type":"VEC3"
		},
		{
			"bufferView":5,
			"componentType":5123,
			"count":1992,
			"type":"SCALAR"
		}
	],
	"bufferViews":[
		{
			"buffer":0,
			"byteLength":288,
			"byteOffset":0,
			"target":34962
		},
		{
			"buffer":0,
			"byteLength":288,
			"byteOffset":288,
			"target":34962
		},
		{
			"buffer":0,
			"byteLength":72,
			"byteOffset":576,
			"target":34963
		},
		{
			"buffer":0,
			"byteLength":7488,
			"byteOffset":648,
			"target":34962
		},
		{
			"buffer":0,
			"byteLength":7488,
			"byteOffset":8136,
			"target":34962
		},
		{
			"buffer":0,
			"byteLength":3984,
			"byteOffset":15624,
			"target":34963
		}
	],
	"buffers":[
		{
			"byteLength":19608,
			"uri":"LowVoltageBridge.bin"
		}
	]
}
