{
	"asset":{
		"generator":"Khronos glTF Blender I/O v4.0.44",
		"version":"2.0"
	},
	"scene":0,
	"scenes":[
		{
			"name":"Scene",
			"nodes":[
				0
			]
		}
	],
	"nodes":[
		{
			"mesh":0,
			"name":"Body",
			"translation":[
				0,
				-0.05000004172325134,
				0
			]
		}
	],
	"materials":[
		{
			"doubleSided":true,
			"name":"body",
			"pbrMetallicRoughness":{
				"baseColorFactor":[
					0.009999999776482582,
					0.009999999776482582,
					0.009999999776482582,
					1
				],
				"metallicFactor":0,
				"roughnessFactor":1
			}
		},
		{
			"doubleSided":true,
			"name":"color2",
			"pbrMetallicRoughness":{
				"baseColorFactor":[
					0.800000011920929,
					0.800000011920929,
					0.800000011920929,
					1
				],
				"metallicFactor":1,
				"roughnessFactor":1
			}
		},
		{
			"doubleSided":true,
			"name":"hv-connector",
			"pbrMetallicRoughness":{
				"baseColorFactor":[
					0.5,
					0.1499999761581421,
					0,
					1
				],
				"metallicFactor":1,
				"roughnessFactor":1
			}
		},
		{
			"doubleSided":true,
			"name":"data-connector",
			"pbrMetallicRoughness":{
				"baseColorFactor":[
					0,
					0.05000019073486328,
					0.5,
					1
				],
				"metallicFactor":1,
				"roughnessFactor":1
			}
		}
	],
	"meshes":[
		{
			"name":"Body",
			"primitives":[
				{
					"attributes":{
						"POSITION":0,
						"NORMAL":1
					},
					"indices":2,
					"material":0
				},
				{
					"attributes":{
						"POSITION":3,
						"NORMAL":4
					},
					"indices":5,
					"material":1
				},
				{
					"attributes":{
						"POSITION":6,
						"NORMAL":7
					},
					"indices":8,
					"material":2
				},
				{
					"attributes":{
						"POSITION":9,
						"NORMAL":10
					},
					"indices":11,
					"material":3
				}
			]
		}
	],
	"accessors":[
		{
			"bufferView":0,
			"componentType":5126,
			"count":1234,
			"max":[
				0.49999988079071045,
				0.49018725752830505,
				0.4999999403953552
			],
			"min":[
				-0.5000001192092896,
				-0.4952460825443268,
				-0.5000000596046448
			],
			"type":"VEC3"
		},
		{
			"bufferView":1,
			"componentType":5126,
			"count":1234,
			"type":"VEC3"
		},
		{
			"bufferView":2,
			"componentType":5123,
			"count":3360,
			"type":"SCALAR"
		},
		{
			"bufferView":3,
			"componentType":5126,
			"count":248,
			"max":[
				0.4802076816558838,
				0.4226070046424866,
				0.4802077114582062
			],
			"min":[
				-0.48020780086517334,
				-0.4417669177055359,
				-0.48020774126052856
			],
			"type":"VEC3"
		},
		{
			"bufferView":4,
			"componentType":5126,
			"count":248,
			"type":"VEC3"
		},
		{
			"bufferView":5,
			"componentType":5123,
			"count":720,
			"type":"SCALAR"
		},
		{
			"bufferView":6,
			"componentType":5126,
			"count":2784,
			"max":[
				0.27307653427124023,
				0.5319067239761353,
				0.2730766534805298
			],
			"min":[
				-0.27307677268981934,
				0.490187406539917,
				-0.2730766832828522
			],
			"type":"VEC3"
		},
		{
			"bufferView":7,
			"componentType":5126,
			"count":2784,
			"type":"VEC3"
		},
		{
			"bufferView":8,
			"componentType":5123,
			"count":8592,
			"type":"SCALAR"
		},
		{
			"bufferView":9,
			"componentType":5126,
			"count":376,
			"max":[
				0.029859066009521484,
				0.5108361840248108,
				0.029859140515327454
			],
			"min":[
				-0.029859274625778198,
				0.49018725752830505,
				-0.02985920011997223
			],
			"type":"VEC3"
		},
		{
			"bufferView":10,
			"componentType":5126,
			"count":376,
			"type":"VEC3"
		},
		{
			"bufferView":11,
			"componentType":5123,
			"count":1020,
			"type":"SCALAR"
		}
	],
	"bufferViews":[
		{
			"buffer":0,
			"byteLength":14808,
			"byteOffset":0,
			"target":34962
		},
		{
			"buffer":0,
			"byteLength":14808,
			"byteOffset":14808,
			"target":34962
		},
		{
			"buffer":0,
			"byteLength":6720,
			"byteOffset":29616,
			"target":34963
		},
		{
			"buffer":0,
			"byteLength":2976,
			"byteOffset":36336,
			"target":34962
		},
		{
			"buffer":0,
			"byteLength":2976,
			"byteOffset":39312,
			"target":34962
		},
		{
			"buffer":0,
			"byteLength":1440,
			"byteOffset":42288,
			"target":34963
		},
		{
			"buffer":0,
			"byteLength":33408,
			"byteOffset":43728,
			"target":34962
		},
		{
			"buffer":0,
			"byteLength":33408,
			"byteOffset":77136,
			"target":34962
		},
		{
			"buffer":0,
			"byteLength":17184,
			"byteOffset":110544,
			"target":34963
		},
		{
			"buffer":0,
			"byteLength":4512,
			"byteOffset":127728,
			"target":34962
		},
		{
			"buffer":0,
			"byteLength":4512,
			"byteOffset":132240,
			"target":34962
		},
		{
			"buffer":0,
			"byteLength":2040,
			"byteOffset":136752,
			"target":34963
		}
	],
	"buffers":[
		{
			"byteLength":138792,
			"uri":"HighVoltageBattery.bin"
		}
	]
}
