{
	"asset":{
		"generator":"Khronos glTF Blender I/O v3.6.6",
		"version":"2.0"
	},
	"scene":0,
	"scenes":[
		{
			"name":"Scene",
			"nodes":[
				0
			]
		}
	],
	"nodes":[
		{
			"mesh":0,
			"name":"Cube"
		}
	],
	"materials":[
		{
			"doubleSided":true,
			"name":"body",
			"pbrMetallicRoughness":{
				"baseColorFactor":[
					0.009999999776482582,
					0.009999999776482582,
					0.009999999776482582,
					1
				],
				"metallicFactor":0,
				"roughnessFactor":1
			}
		},
		{
			"doubleSided":true,
			"name":"lv-connector",
			"pbrMetallicRoughness":{
				"baseColorFactor":[
					0.5,
					0,
					0,
					1
				],
				"metallicFactor":1,
				"roughnessFactor":1
			}
		},
		{
			"doubleSided":true,
			"name":"data-connector",
			"pbrMetallicRoughness":{
				"baseColorFactor":[
					0,
					0.05000007152557373,
					0.5,
					1
				],
				"metallicFactor":1,
				"roughnessFactor":1
			}
		}
	],
	"meshes":[
		{
			"name":"Cube.001",
			"primitives":[
				{
					"attributes":{
						"POSITION":0,
						"NORMAL":1
					},
					"indices":2,
					"material":0
				},
				{
					"attributes":{
						"POSITION":3,
						"NORMAL":4
					},
					"indices":5,
					"material":1
				},
				{
					"attributes":{
						"POSITION":6,
						"NORMAL":7
					},
					"indices":8,
					"material":2
				}
			]
		}
	],
	"accessors":[
		{
			"bufferView":0,
			"componentType":5126,
			"count":196,
			"max":[
				0.25,
				0.25,
				0.25
			],
			"min":[
				-0.25,
				-0.25,
				-0.25
			],
			"type":"VEC3"
		},
		{
			"bufferView":1,
			"componentType":5126,
			"count":196,
			"type":"VEC3"
		},
		{
			"bufferView":2,
			"componentType":5123,
			"count":462,
			"type":"SCALAR"
		},
		{
			"bufferView":3,
			"componentType":5126,
			"count":1152,
			"max":[
				0.13062584400177002,
				0.2703803479671478,
				0.13062584400177002
			],
			"min":[
				-0.13062584400177002,
				0.25,
				-0.13062584400177002
			],
			"type":"VEC3"
		},
		{
			"bufferView":4,
			"componentType":5126,
			"count":1152,
			"type":"VEC3"
		},
		{
			"bufferView":5,
			"componentType":5123,
			"count":3720,
			"type":"SCALAR"
		},
		{
			"bufferView":6,
			"componentType":5126,
			"count":372,
			"max":[
				0.02985917031764984,
				0.2706489562988281,
				0.02985917031764984
			],
			"min":[
				-0.02985917031764984,
				0.25,
				-0.02985917031764984
			],
			"type":"VEC3"
		},
		{
			"bufferView":7,
			"componentType":5126,
			"count":372,
			"type":"VEC3"
		},
		{
			"bufferView":8,
			"componentType":5123,
			"count":1062,
			"type":"SCALAR"
		}
	],
	"bufferViews":[
		{
			"buffer":0,
			"byteLength":2352,
			"byteOffset":0,
			"target":34962
		},
		{
			"buffer":0,
			"byteLength":2352,
			"byteOffset":2352,
			"target":34962
		},
		{
			"buffer":0,
			"byteLength":924,
			"byteOffset":4704,
			"target":34963
		},
		{
			"buffer":0,
			"byteLength":13824,
			"byteOffset":5628,
			"target":34962
		},
		{
			"buffer":0,
			"byteLength":13824,
			"byteOffset":19452,
			"target":34962
		},
		{
			"buffer":0,
			"byteLength":7440,
			"byteOffset":33276,
			"target":34963
		},
		{
			"buffer":0,
			"byteLength":4464,
			"byteOffset":40716,
			"target":34962
		},
		{
			"buffer":0,
			"byteLength":4464,
			"byteOffset":45180,
			"target":34962
		},
		{
			"buffer":0,
			"byteLength":2124,
			"byteOffset":49644,
			"target":34963
		}
	],
	"buffers":[
		{
			"byteLength":51768,
			"uri":"LowVoltageBattery.bin"
		}
	]
}
