{
	"asset":{
		"generator":"Khronos glTF Blender I/O v3.6.6",
		"version":"2.0"
	},
	"scene":0,
	"scenes":[
		{
			"name":"Scene",
			"nodes":[
				0
			]
		}
	],
	"nodes":[
		{
			"mesh":0,
			"name":"Sphere",
			"translation":[
				0,
				-0.1736007034778595,
				0
			]
		}
	],
	"materials":[
		{
			"doubleSided":true,
			"name":"color1",
			"pbrMetallicRoughness":{
				"baseColorFactor":[
					1,
					1,
					1,
					1
				],
				"metallicFactor":0,
				"roughnessFactor":0
			}
		},
		{
			"doubleSided":true,
			"name":"body",
			"pbrMetallicRoughness":{
				"baseColorFactor":[
					0.009999999776482582,
					0.009999999776482582,
					0.009999999776482582,
					1
				],
				"metallicFactor":0,
				"roughnessFactor":1
			}
		},
		{
			"doubleSided":true,
			"name":"data-connector",
			"pbrMetallicRoughness":{
				"baseColorFactor":[
					0,
					0.05000007152557373,
					0.5,
					1
				],
				"metallicFactor":1,
				"roughnessFactor":1
			}
		},
		{
			"doubleSided":true,
			"name":"fluid-connector",
			"pbrMetallicRoughness":{
				"baseColorFactor":[
					0.5,
					0.5,
					0.5,
					1
				],
				"metallicFactor":1,
				"roughnessFactor":1
			}
		},
		{
			"doubleSided":true,
			"name":"color2",
			"pbrMetallicRoughness":{
				"baseColorFactor":[
					0.800000011920929,
					0.800000011920929,
					0.800000011920929,
					1
				],
				"metallicFactor":1,
				"roughnessFactor":1
			}
		}
	],
	"meshes":[
		{
			"name":"Sphere",
			"primitives":[
				{
					"attributes":{
						"POSITION":0,
						"NORMAL":1
					},
					"indices":2,
					"material":0
				},
				{
					"attributes":{
						"POSITION":3,
						"NORMAL":4
					},
					"indices":5,
					"material":1
				},
				{
					"attributes":{
						"POSITION":6,
						"NORMAL":7
					},
					"indices":8,
					"material":2
				},
				{
					"attributes":{
						"POSITION":9,
						"NORMAL":10
					},
					"indices":11,
					"material":3
				},
				{
					"attributes":{
						"POSITION":12,
						"NORMAL":13
					},
					"indices":14,
					"material":4
				}
			]
		}
	],
	"accessors":[
		{
			"bufferView":0,
			"componentType":5126,
			"count":11520,
			"max":[
				1.456465482711792,
				1.3731049299240112,
				1.4564648866653442
			],
			"min":[
				-1.4564646482467651,
				-1.2909352779388428,
				-1.4564660787582397
			],
			"type":"VEC3"
		},
		{
			"bufferView":1,
			"componentType":5126,
			"count":11520,
			"type":"VEC3"
		},
		{
			"bufferView":2,
			"componentType":5123,
			"count":62574,
			"type":"SCALAR"
		},
		{
			"bufferView":3,
			"componentType":5126,
			"count":1088,
			"max":[
				1.0395101308822632,
				-0.629479169845581,
				1.0395101308822632
			],
			"min":[
				-1.0395101308822632,
				-1.333304524421692,
				-1.2261018753051758
			],
			"type":"VEC3"
		},
		{
			"bufferView":4,
			"componentType":5126,
			"count":1088,
			"type":"VEC3"
		},
		{
			"bufferView":5,
			"componentType":5123,
			"count":3192,
			"type":"SCALAR"
		},
		{
			"bufferView":6,
			"componentType":5126,
			"count":376,
			"max":[
				0.02985917031764984,
				-0.8769514560699463,
				-1.2261018753051758
			],
			"min":[
				-0.02985917031764984,
				-0.9366698265075684,
				-1.246750831604004
			],
			"type":"VEC3"
		},
		{
			"bufferView":7,
			"componentType":5126,
			"count":376,
			"type":"VEC3"
		},
		{
			"bufferView":8,
			"componentType":5123,
			"count":1020,
			"type":"SCALAR"
		},
		{
			"bufferView":9,
			"componentType":5126,
			"count":4608,
			"max":[
				0.12489652633666992,
				-0.9696652889251709,
				-1.2261016368865967
			],
			"min":[
				-0.12489652633666992,
				-1.2194583415985107,
				-1.2639354467391968
			],
			"type":"VEC3"
		},
		{
			"bufferView":10,
			"componentType":5126,
			"count":4608,
			"type":"VEC3"
		},
		{
			"bufferView":11,
			"componentType":5123,
			"count":10812,
			"type":"SCALAR"
		},
		{
			"bufferView":12,
			"componentType":5126,
			"count":1152,
			"max":[
				1.4712004661560059,
				1.3731049299240112,
				1.4712004661560059
			],
			"min":[
				-1.4712004661560059,
				-0.09661759436130524,
				-1.4712004661560059
			],
			"type":"VEC3"
		},
		{
			"bufferView":13,
			"componentType":5126,
			"count":1152,
			"type":"VEC3"
		},
		{
			"bufferView":14,
			"componentType":5123,
			"count":3450,
			"type":"SCALAR"
		}
	],
	"bufferViews":[
		{
			"buffer":0,
			"byteLength":138240,
			"byteOffset":0,
			"target":34962
		},
		{
			"buffer":0,
			"byteLength":138240,
			"byteOffset":138240,
			"target":34962
		},
		{
			"buffer":0,
			"byteLength":125148,
			"byteOffset":276480,
			"target":34963
		},
		{
			"buffer":0,
			"byteLength":13056,
			"byteOffset":401628,
			"target":34962
		},
		{
			"buffer":0,
			"byteLength":13056,
			"byteOffset":414684,
			"target":34962
		},
		{
			"buffer":0,
			"byteLength":6384,
			"byteOffset":427740,
			"target":34963
		},
		{
			"buffer":0,
			"byteLength":4512,
			"byteOffset":434124,
			"target":34962
		},
		{
			"buffer":0,
			"byteLength":4512,
			"byteOffset":438636,
			"target":34962
		},
		{
			"buffer":0,
			"byteLength":2040,
			"byteOffset":443148,
			"target":34963
		},
		{
			"buffer":0,
			"byteLength":55296,
			"byteOffset":445188,
			"target":34962
		},
		{
			"buffer":0,
			"byteLength":55296,
			"byteOffset":500484,
			"target":34962
		},
		{
			"buffer":0,
			"byteLength":21624,
			"byteOffset":555780,
			"target":34963
		},
		{
			"buffer":0,
			"byteLength":13824,
			"byteOffset":577404,
			"target":34962
		},
		{
			"buffer":0,
			"byteLength":13824,
			"byteOffset":591228,
			"target":34962
		},
		{
			"buffer":0,
			"byteLength":6900,
			"byteOffset":605052,
			"target":34963
		}
	],
	"buffers":[
		{
			"byteLength":611952,
			"uri":"BigFluidTank.bin"
		}
	]
}
