{
	"asset":{
		"generator":"Khronos glTF Blender I/O v4.0.44",
		"version":"2.0"
	},
	"scene":0,
	"scenes":[
		{
			"name":"Scene",
			"nodes":[
				0
			]
		}
	],
	"nodes":[
		{
			"mesh":0,
			"name":"tank"
		}
	],
	"materials":[
		{
			"doubleSided":true,
			"name":"color1",
			"pbrMetallicRoughness":{
				"baseColorFactor":[
					1,
					1,
					1,
					1
				],
				"metallicFactor":0,
				"roughnessFactor":0
			}
		},
		{
			"doubleSided":true,
			"name":"body",
			"pbrMetallicRoughness":{
				"baseColorFactor":[
					0.009999999776482582,
					0.009999999776482582,
					0.009999999776482582,
					1
				],
				"metallicFactor":0,
				"roughnessFactor":1
			}
		},
		{
			"doubleSided":true,
			"name":"data-connector",
			"pbrMetallicRoughness":{
				"baseColorFactor":[
					0,
					0.05000007152557373,
					0.5,
					1
				],
				"metallicFactor":1,
				"roughnessFactor":1
			}
		},
		{
			"doubleSided":true,
			"name":"fluid-connector",
			"pbrMetallicRoughness":{
				"baseColorFactor":[
					0.5,
					0.5,
					0.5,
					1
				],
				"metallicFactor":1,
				"roughnessFactor":1
			}
		},
		{
			"doubleSided":true,
			"name":"color2",
			"pbrMetallicRoughness":{
				"baseColorFactor":[
					0.800000011920929,
					0.800000011920929,
					0.800000011920929,
					1
				],
				"metallicFactor":1,
				"roughnessFactor":1
			}
		}
	],
	"meshes":[
		{
			"name":"Cylinder",
			"primitives":[
				{
					"attributes":{
						"POSITION":0,
						"NORMAL":1
					},
					"indices":2,
					"material":0
				},
				{
					"attributes":{
						"POSITION":3,
						"NORMAL":4
					},
					"indices":5,
					"material":1
				},
				{
					"attributes":{
						"POSITION":6,
						"NORMAL":7
					},
					"indices":8,
					"material":2
				},
				{
					"attributes":{
						"POSITION":9,
						"NORMAL":10
					},
					"indices":11,
					"material":3
				},
				{
					"attributes":{
						"POSITION":12,
						"NORMAL":13
					},
					"indices":14,
					"material":4
				}
			]
		}
	],
	"accessors":[
		{
			"bufferView":0,
			"componentType":5126,
			"count":2624,
			"max":[
				0.9930956959724426,
				0.5000000596046448,
				0.5000000596046448
			],
			"min":[
				-0.9930956959724426,
				-0.5000000596046448,
				-0.5000000596046448
			],
			"type":"VEC3"
		},
		{
			"bufferView":1,
			"componentType":5126,
			"count":2624,
			"type":"VEC3"
		},
		{
			"bufferView":2,
			"componentType":5123,
			"count":12288,
			"type":"SCALAR"
		},
		{
			"bufferView":3,
			"componentType":5126,
			"count":96,
			"max":[
				0.6626051664352417,
				-0.3566735088825226,
				0.44408655166625977
			],
			"min":[
				-0.6626052260398865,
				-0.5145611763000488,
				-0.44408655166625977
			],
			"type":"VEC3"
		},
		{
			"bufferView":4,
			"componentType":5126,
			"count":96,
			"type":"VEC3"
		},
		{
			"bufferView":5,
			"componentType":5123,
			"count":168,
			"type":"SCALAR"
		},
		{
			"bufferView":6,
			"componentType":5126,
			"count":372,
			"max":[
				0.02985917031764984,
				0.02985917031764984,
				-0.5313975811004639
			],
			"min":[
				-0.02985917031764984,
				-0.02985917031764984,
				-0.552046537399292
			],
			"type":"VEC3"
		},
		{
			"bufferView":7,
			"componentType":5126,
			"count":372,
			"type":"VEC3"
		},
		{
			"bufferView":8,
			"componentType":5123,
			"count":1014,
			"type":"SCALAR"
		},
		{
			"bufferView":9,
			"componentType":5126,
			"count":3896,
			"max":[
				0.12489652633666992,
				0.5231389403343201,
				0.12489652633666992
			],
			"min":[
				-0.12489652633666992,
				0.48530516028404236,
				-0.12489652633666992
			],
			"type":"VEC3"
		},
		{
			"bufferView":10,
			"componentType":5126,
			"count":3896,
			"type":"VEC3"
		},
		{
			"bufferView":11,
			"componentType":5123,
			"count":10302,
			"type":"SCALAR"
		},
		{
			"bufferView":12,
			"componentType":5126,
			"count":1564,
			"max":[
				0.9781877994537354,
				0.5125675797462463,
				0.5125675201416016
			],
			"min":[
				-0.9781877994537354,
				-0.5125674605369568,
				-0.5313975811004639
			],
			"type":"VEC3"
		},
		{
			"bufferView":13,
			"componentType":5126,
			"count":1564,
			"type":"VEC3"
		},
		{
			"bufferView":14,
			"componentType":5123,
			"count":3498,
			"type":"SCALAR"
		}
	],
	"bufferViews":[
		{
			"buffer":0,
			"byteLength":31488,
			"byteOffset":0,
			"target":34962
		},
		{
			"buffer":0,
			"byteLength":31488,
			"byteOffset":31488,
			"target":34962
		},
		{
			"buffer":0,
			"byteLength":24576,
			"byteOffset":62976,
			"target":34963
		},
		{
			"buffer":0,
			"byteLength":1152,
			"byteOffset":87552,
			"target":34962
		},
		{
			"buffer":0,
			"byteLength":1152,
			"byteOffset":88704,
			"target":34962
		},
		{
			"buffer":0,
			"byteLength":336,
			"byteOffset":89856,
			"target":34963
		},
		{
			"buffer":0,
			"byteLength":4464,
			"byteOffset":90192,
			"target":34962
		},
		{
			"buffer":0,
			"byteLength":4464,
			"byteOffset":94656,
			"target":34962
		},
		{
			"buffer":0,
			"byteLength":2028,
			"byteOffset":99120,
			"target":34963
		},
		{
			"buffer":0,
			"byteLength":46752,
			"byteOffset":101148,
			"target":34962
		},
		{
			"buffer":0,
			"byteLength":46752,
			"byteOffset":147900,
			"target":34962
		},
		{
			"buffer":0,
			"byteLength":20604,
			"byteOffset":194652,
			"target":34963
		},
		{
			"buffer":0,
			"byteLength":18768,
			"byteOffset":215256,
			"target":34962
		},
		{
			"buffer":0,
			"byteLength":18768,
			"byteOffset":234024,
			"target":34962
		},
		{
			"buffer":0,
			"byteLength":6996,
			"byteOffset":252792,
			"target":34963
		}
	],
	"buffers":[
		{
			"byteLength":259788,
			"uri":"FluidTank.bin"
		}
	]
}
