{
	"asset":{
		"generator":"Khronos glTF Blender I/O v4.0.44",
		"version":"2.0"
	},
	"scene":0,
	"scenes":[
		{
			"name":"Scene",
			"nodes":[
				0
			]
		}
	],
	"nodes":[
		{
			"mesh":0,
			"name":"body"
		}
	],
	"materials":[
		{
			"doubleSided":true,
			"name":"color1",
			"pbrMetallicRoughness":{
				"baseColorFactor":[
					1,
					1,
					1,
					1
				],
				"metallicFactor":0,
				"roughnessFactor":0
			}
		},
		{
			"doubleSided":true,
			"name":"body",
			"pbrMetallicRoughness":{
				"baseColorFactor":[
					0.009999999776482582,
					0.009999999776482582,
					0.009999999776482582,
					1
				],
				"metallicFactor":0,
				"roughnessFactor":1
			}
		},
		{
			"doubleSided":true,
			"name":"fluid-connector",
			"pbrMetallicRoughness":{
				"baseColorFactor":[
					0.5,
					0.5,
					0.5,
					1
				],
				"metallicFactor":1,
				"roughnessFactor":1
			}
		},
		{
			"doubleSided":true,
			"name":"data-connector",
			"pbrMetallicRoughness":{
				"baseColorFactor":[
					0,
					0.05000019073486328,
					0.5,
					1
				],
				"metallicFactor":1,
				"roughnessFactor":1
			}
		},
		{
			"doubleSided":true,
			"name":"color2",
			"pbrMetallicRoughness":{
				"baseColorFactor":[
					0.800000011920929,
					0.800000011920929,
					0.800000011920929,
					1
				],
				"metallicFactor":1,
				"roughnessFactor":1
			}
		}
	],
	"meshes":[
		{
			"name":"Cylinder",
			"primitives":[
				{
					"attributes":{
						"POSITION":0,
						"NORMAL":1
					},
					"indices":2,
					"material":0
				},
				{
					"attributes":{
						"POSITION":3,
						"NORMAL":4
					},
					"indices":5,
					"material":1
				},
				{
					"attributes":{
						"POSITION":6,
						"NORMAL":7
					},
					"indices":8,
					"material":2
				},
				{
					"attributes":{
						"POSITION":9,
						"NORMAL":10
					},
					"indices":11,
					"material":3
				},
				{
					"attributes":{
						"POSITION":12,
						"NORMAL":13
					},
					"indices":14,
					"material":4
				}
			]
		}
	],
	"accessors":[
		{
			"bufferView":0,
			"componentType":5126,
			"count":1600,
			"max":[
				0.5,
				0.23036913573741913,
				0.23036910593509674
			],
			"min":[
				-0.5,
				-0.23036913573741913,
				-0.23036910593509674
			],
			"type":"VEC3"
		},
		{
			"bufferView":1,
			"componentType":5126,
			"count":1600,
			"type":"VEC3"
		},
		{
			"bufferView":2,
			"componentType":5123,
			"count":7680,
			"type":"SCALAR"
		},
		{
			"bufferView":3,
			"componentType":5126,
			"count":56,
			"max":[
				0.5,
				0.16980662941932678,
				0.23910437524318695
			],
			"min":[
				-0.5,
				-0.16980662941932678,
				0.189104363322258
			],
			"type":"VEC3"
		},
		{
			"bufferView":4,
			"componentType":5126,
			"count":56,
			"type":"VEC3"
		},
		{
			"bufferView":5,
			"componentType":5123,
			"count":132,
			"type":"SCALAR"
		},
		{
			"bufferView":6,
			"componentType":5126,
			"count":4608,
			"max":[
				0.5300725698471069,
				0.12489651143550873,
				0.12489654123783112
			],
			"min":[
				0.4922386407852173,
				-0.12489654123783112,
				-0.12489651888608932
			],
			"type":"VEC3"
		},
		{
			"bufferView":7,
			"componentType":5126,
			"count":4608,
			"type":"VEC3"
		},
		{
			"bufferView":8,
			"componentType":5123,
			"count":10812,
			"type":"SCALAR"
		},
		{
			"bufferView":9,
			"componentType":5126,
			"count":376,
			"max":[
				-0.49223896861076355,
				0.029859201982617378,
				0.02985917031764984
			],
			"min":[
				-0.5128878951072693,
				-0.029859140515327454,
				-0.02985917031764984
			],
			"type":"VEC3"
		},
		{
			"bufferView":10,
			"componentType":5126,
			"count":376,
			"type":"VEC3"
		},
		{
			"bufferView":11,
			"componentType":5123,
			"count":1020,
			"type":"SCALAR"
		},
		{
			"bufferView":12,
			"componentType":5126,
			"count":1024,
			"max":[
				0.4922388195991516,
				0.23899626731872559,
				0.23414260149002075
			],
			"min":[
				-0.4922388195991516,
				-0.23899626731872559,
				-0.2389962524175644
			],
			"type":"VEC3"
		},
		{
			"bufferView":13,
			"componentType":5126,
			"count":1024,
			"type":"VEC3"
		},
		{
			"bufferView":14,
			"componentType":5123,
			"count":3444,
			"type":"SCALAR"
		}
	],
	"bufferViews":[
		{
			"buffer":0,
			"byteLength":19200,
			"byteOffset":0,
			"target":34962
		},
		{
			"buffer":0,
			"byteLength":19200,
			"byteOffset":19200,
			"target":34962
		},
		{
			"buffer":0,
			"byteLength":15360,
			"byteOffset":38400,
			"target":34963
		},
		{
			"buffer":0,
			"byteLength":672,
			"byteOffset":53760,
			"target":34962
		},
		{
			"buffer":0,
			"byteLength":672,
			"byteOffset":54432,
			"target":34962
		},
		{
			"buffer":0,
			"byteLength":264,
			"byteOffset":55104,
			"target":34963
		},
		{
			"buffer":0,
			"byteLength":55296,
			"byteOffset":55368,
			"target":34962
		},
		{
			"buffer":0,
			"byteLength":55296,
			"byteOffset":110664,
			"target":34962
		},
		{
			"buffer":0,
			"byteLength":21624,
			"byteOffset":165960,
			"target":34963
		},
		{
			"buffer":0,
			"byteLength":4512,
			"byteOffset":187584,
			"target":34962
		},
		{
			"buffer":0,
			"byteLength":4512,
			"byteOffset":192096,
			"target":34962
		},
		{
			"buffer":0,
			"byteLength":2040,
			"byteOffset":196608,
			"target":34963
		},
		{
			"buffer":0,
			"byteLength":12288,
			"byteOffset":198648,
			"target":34962
		},
		{
			"buffer":0,
			"byteLength":12288,
			"byteOffset":210936,
			"target":34962
		},
		{
			"buffer":0,
			"byteLength":6888,
			"byteOffset":223224,
			"target":34963
		}
	],
	"buffers":[
		{
			"byteLength":230112,
			"uri":"SmallFluidTank.bin"
		}
	]
}
