{
	"asset":{
		"generator":"Khronos glTF Blender I/O v4.3.47",
		"version":"2.0"
	},
	"scene":0,
	"scenes":[
		{
			"name":"Scene",
			"nodes":[
				0
			]
		}
	],
	"nodes":[
		{
			"mesh":0,
			"name":"body",
			"translation":[
				0,
				0.021690022200345993,
				0
			]
		}
	],
	"materials":[
		{
			"doubleSided":true,
			"name":"body",
			"pbrMetallicRoughness":{
				"baseColorFactor":[
					0.009999999776482582,
					0.009999999776482582,
					0.009999999776482582,
					1
				],
				"metallicFactor":0
			}
		},
		{
			"doubleSided":true,
			"name":"color2",
			"pbrMetallicRoughness":{
				"baseColorFactor":[
					0.800000011920929,
					0.800000011920929,
					0.800000011920929,
					1
				]
			}
		},
		{
			"doubleSided":true,
			"name":"color1",
			"pbrMetallicRoughness":{
				"metallicFactor":0,
				"roughnessFactor":0
			}
		},
		{
			"doubleSided":true,
			"name":"body2",
			"pbrMetallicRoughness":{
				"baseColorFactor":[
					0.05000000074505806,
					0.05000000074505806,
					0.05000000074505806,
					1
				],
				"metallicFactor":0
			}
		}
	],
	"meshes":[
		{
			"name":"Cube.003",
			"primitives":[
				{
					"attributes":{
						"POSITION":0,
						"NORMAL":1
					},
					"indices":2,
					"material":0
				},
				{
					"attributes":{
						"POSITION":3,
						"NORMAL":4
					},
					"indices":5,
					"material":1
				},
				{
					"attributes":{
						"POSITION":6,
						"NORMAL":7
					},
					"indices":8,
					"material":2
				},
				{
					"attributes":{
						"POSITION":9,
						"NORMAL":10
					},
					"indices":11,
					"material":3
				}
			]
		}
	],
	"accessors":[
		{
			"bufferView":0,
			"componentType":5126,
			"count":244,
			"max":[
				0.1249094232916832,
				-0.0009349840111099184,
				0.1249094232916832
			],
			"min":[
				-0.1249094232916832,
				-0.02167130634188652,
				-0.1249094232916832
			],
			"type":"VEC3"
		},
		{
			"bufferView":1,
			"componentType":5126,
			"count":244,
			"type":"VEC3"
		},
		{
			"bufferView":2,
			"componentType":5123,
			"count":474,
			"type":"SCALAR"
		},
		{
			"bufferView":3,
			"componentType":5126,
			"count":4,
			"max":[
				0.08036505430936813,
				-0.006737323943525553,
				0.08036505430936813
			],
			"min":[
				-0.08036505430936813,
				-0.006737323943525553,
				-0.08036505430936813
			],
			"type":"VEC3"
		},
		{
			"bufferView":4,
			"componentType":5126,
			"count":4,
			"type":"VEC3"
		},
		{
			"bufferView":5,
			"componentType":5123,
			"count":6,
			"type":"SCALAR"
		},
		{
			"bufferView":6,
			"componentType":5126,
			"count":852,
			"max":[
				0.0437195748090744,
				-0.00020075765496585518,
				0.010512419044971466
			],
			"min":[
				-0.0437195748090744,
				-0.00673731928691268,
				-0.010512419044971466
			],
			"type":"VEC3"
		},
		{
			"bufferView":7,
			"componentType":5126,
			"count":852,
			"type":"VEC3"
		},
		{
			"bufferView":8,
			"componentType":5123,
			"count":3948,
			"type":"SCALAR"
		},
		{
			"bufferView":9,
			"componentType":5126,
			"count":32,
			"max":[
				0.0011671569664031267,
				-0.0009349840111099184,
				0.055007752031087875
			],
			"min":[
				-0.0011671569664031267,
				-0.002355571137741208,
				-0.05500775948166847
			],
			"type":"VEC3"
		},
		{
			"bufferView":10,
			"componentType":5126,
			"count":32,
			"type":"VEC3"
		},
		{
			"bufferView":11,
			"componentType":5123,
			"count":60,
			"type":"SCALAR"
		}
	],
	"bufferViews":[
		{
			"buffer":0,
			"byteLength":2928,
			"byteOffset":0,
			"target":34962
		},
		{
			"buffer":0,
			"byteLength":2928,
			"byteOffset":2928,
			"target":34962
		},
		{
			"buffer":0,
			"byteLength":948,
			"byteOffset":5856,
			"target":34963
		},
		{
			"buffer":0,
			"byteLength":48,
			"byteOffset":6804,
			"target":34962
		},
		{
			"buffer":0,
			"byteLength":48,
			"byteOffset":6852,
			"target":34962
		},
		{
			"buffer":0,
			"byteLength":12,
			"byteOffset":6900,
			"target":34963
		},
		{
			"buffer":0,
			"byteLength":10224,
			"byteOffset":6912,
			"target":34962
		},
		{
			"buffer":0,
			"byteLength":10224,
			"byteOffset":17136,
			"target":34962
		},
		{
			"buffer":0,
			"byteLength":7896,
			"byteOffset":27360,
			"target":34963
		},
		{
			"buffer":0,
			"byteLength":384,
			"byteOffset":35256,
			"target":34962
		},
		{
			"buffer":0,
			"byteLength":384,
			"byteOffset":35640,
			"target":34962
		},
		{
			"buffer":0,
			"byteLength":120,
			"byteOffset":36024,
			"target":34963
		}
	],
	"buffers":[
		{
			"byteLength":36144,
			"uri":"Volume.bin"
		}
	]
}
