{
	"asset":{
		"generator":"Khronos glTF Blender I/O v4.4.55",
		"version":"2.0"
	},
	"scene":0,
	"scenes":[
		{
			"name":"Scene",
			"nodes":[
				0,
				1
			]
		}
	],
	"nodes":[
		{
			"mesh":0,
			"name":"slave",
			"translation":[
				0,
				0,
				-0.24890755116939545
			]
		},
		{
			"mesh":1,
			"name":"master",
			"rotation":[
				-0.7071068286895752,
				0,
				0,
				0.7071068286895752
			],
			"translation":[
				0,
				0,
				0.00016877800226211548
			]
		}
	],
	"materials":[
		{
			"doubleSided":true,
			"name":"color2",
			"pbrMetallicRoughness":{
				"baseColorFactor":[
					0.800000011920929,
					0.800000011920929,
					0.800000011920929,
					1
				]
			}
		},
		{
			"doubleSided":true,
			"name":"body",
			"pbrMetallicRoughness":{
				"baseColorFactor":[
					0.009999999776482582,
					0.009999999776482582,
					0.009999999776482582,
					1
				],
				"metallicFactor":0
			}
		},
		{
			"doubleSided":true,
			"name":"color1",
			"pbrMetallicRoughness":{
				"metallicFactor":0,
				"roughnessFactor":0
			}
		},
		{
			"doubleSided":true,
			"name":"data-connector",
			"pbrMetallicRoughness":{
				"baseColorFactor":[
					0,
					0.05000000074505806,
					0.5,
					1
				]
			}
		},
		{
			"doubleSided":true,
			"name":"lv-connector",
			"pbrMetallicRoughness":{
				"baseColorFactor":[
					0.5,
					0,
					0,
					1
				]
			}
		}
	],
	"meshes":[
		{
			"name":"Cube.001",
			"primitives":[
				{
					"attributes":{
						"POSITION":0,
						"NORMAL":1
					},
					"indices":2,
					"material":0
				}
			]
		},
		{
			"name":"Cylinder",
			"primitives":[
				{
					"attributes":{
						"POSITION":3,
						"NORMAL":4
					},
					"indices":5,
					"material":1
				},
				{
					"attributes":{
						"POSITION":6,
						"NORMAL":7
					},
					"indices":8,
					"material":2
				},
				{
					"attributes":{
						"POSITION":9,
						"NORMAL":10
					},
					"indices":11,
					"material":3
				},
				{
					"attributes":{
						"POSITION":12,
						"NORMAL":13
					},
					"indices":14,
					"material":4
				}
			]
		}
	],
	"accessors":[
		{
			"bufferView":0,
			"componentType":5126,
			"count":56,
			"max":[
				0.125,
				0.125,
				0.12421881407499313
			],
			"min":[
				-0.125,
				-0.125,
				-0.12578119337558746
			],
			"type":"VEC3"
		},
		{
			"bufferView":1,
			"componentType":5126,
			"count":56,
			"type":"VEC3"
		},
		{
			"bufferView":2,
			"componentType":5123,
			"count":84,
			"type":"SCALAR"
		},
		{
			"bufferView":3,
			"componentType":5126,
			"count":72,
			"max":[
				0.1250004768371582,
				0.13966593146324158,
				0.09090203046798706
			],
			"min":[
				-0.12500333786010742,
				0.12485754489898682,
				-0.09090200811624527
			],
			"type":"VEC3"
		},
		{
			"bufferView":4,
			"componentType":5126,
			"count":72,
			"type":"VEC3"
		},
		{
			"bufferView":5,
			"componentType":5123,
			"count":108,
			"type":"SCALAR"
		},
		{
			"bufferView":6,
			"componentType":5126,
			"count":24,
			"max":[
				0.125,
				0.12485755980014801,
				0.1250000149011612
			],
			"min":[
				-0.125,
				-0.1251424103975296,
				-0.1250000149011612
			],
			"type":"VEC3"
		},
		{
			"bufferView":7,
			"componentType":5126,
			"count":24,
			"type":"VEC3"
		},
		{
			"bufferView":8,
			"componentType":5123,
			"count":36,
			"type":"SCALAR"
		},
		{
			"bufferView":9,
			"componentType":5126,
			"count":376,
			"max":[
				0.02985917031764984,
				0.060744915157556534,
				0.14564892649650574
			],
			"min":[
				-0.02985917031764984,
				0.001026572659611702,
				0.12499997764825821
			],
			"type":"VEC3"
		},
		{
			"bufferView":10,
			"componentType":5126,
			"count":376,
			"type":"VEC3"
		},
		{
			"bufferView":11,
			"componentType":5123,
			"count":1020,
			"type":"SCALAR"
		},
		{
			"bufferView":12,
			"componentType":5126,
			"count":312,
			"max":[
				0.030625849962234497,
				-0.02337862364947796,
				0.14538033306598663
			],
			"min":[
				-0.030625849962234497,
				-0.0846303254365921,
				0.12499991804361343
			],
			"type":"VEC3"
		},
		{
			"bufferView":13,
			"componentType":5126,
			"count":312,
			"type":"VEC3"
		},
		{
			"bufferView":14,
			"componentType":5123,
			"count":996,
			"type":"SCALAR"
		}
	],
	"bufferViews":[
		{
			"buffer":0,
			"byteLength":672,
			"byteOffset":0,
			"target":34962
		},
		{
			"buffer":0,
			"byteLength":672,
			"byteOffset":672,
			"target":34962
		},
		{
			"buffer":0,
			"byteLength":168,
			"byteOffset":1344,
			"target":34963
		},
		{
			"buffer":0,
			"byteLength":864,
			"byteOffset":1512,
			"target":34962
		},
		{
			"buffer":0,
			"byteLength":864,
			"byteOffset":2376,
			"target":34962
		},
		{
			"buffer":0,
			"byteLength":216,
			"byteOffset":3240,
			"target":34963
		},
		{
			"buffer":0,
			"byteLength":288,
			"byteOffset":3456,
			"target":34962
		},
		{
			"buffer":0,
			"byteLength":288,
			"byteOffset":3744,
			"target":34962
		},
		{
			"buffer":0,
			"byteLength":72,
			"byteOffset":4032,
			"target":34963
		},
		{
			"buffer":0,
			"byteLength":4512,
			"byteOffset":4104,
			"target":34962
		},
		{
			"buffer":0,
			"byteLength":4512,
			"byteOffset":8616,
			"target":34962
		},
		{
			"buffer":0,
			"byteLength":2040,
			"byteOffset":13128,
			"target":34963
		},
		{
			"buffer":0,
			"byteLength":3744,
			"byteOffset":15168,
			"target":34962
		},
		{
			"buffer":0,
			"byteLength":3744,
			"byteOffset":18912,
			"target":34962
		},
		{
			"buffer":0,
			"byteLength":1992,
			"byteOffset":22656,
			"target":34963
		}
	],
	"buffers":[
		{
			"byteLength":24648,
			"uri":"LinearTrack.bin"
		}
	]
}
