{
	"asset":{
		"generator":"Khronos glTF Blender I/O v4.0.44",
		"version":"2.0"
	},
	"scene":0,
	"scenes":[
		{
			"name":"Scene",
			"nodes":[
				0
			]
		}
	],
	"nodes":[
		{
			"mesh":0,
			"name":"box.001",
			"translation":[
				0,
				0,
				1.3034472465515137
			]
		}
	],
	"materials":[
		{
			"doubleSided":true,
			"name":"color2",
			"pbrMetallicRoughness":{
				"baseColorFactor":[
					0.800000011920929,
					0.800000011920929,
					0.800000011920929,
					1
				],
				"metallicFactor":1,
				"roughnessFactor":1
			}
		},
		{
			"doubleSided":true,
			"name":"hv-connector",
			"pbrMetallicRoughness":{
				"baseColorFactor":[
					0.5,
					0.1499999761581421,
					0,
					1
				],
				"metallicFactor":1,
				"roughnessFactor":1
			}
		}
	],
	"meshes":[
		{
			"name":"Cube.002",
			"primitives":[
				{
					"attributes":{
						"POSITION":0,
						"NORMAL":1
					},
					"indices":2,
					"material":0
				},
				{
					"attributes":{
						"POSITION":3,
						"NORMAL":4
					},
					"indices":5,
					"material":1
				}
			]
		}
	],
	"accessors":[
		{
			"bufferView":0,
			"componentType":5126,
			"count":108,
			"max":[
				0.125,
				0.1875,
				0.09374988079071045
			],
			"min":[
				-0.125,
				-0.1875,
				-0.09375011920928955
			],
			"type":"VEC3"
		},
		{
			"bufferView":1,
			"componentType":5126,
			"count":108,
			"type":"VEC3"
		},
		{
			"bufferView":2,
			"componentType":5123,
			"count":204,
			"type":"SCALAR"
		},
		{
			"bufferView":3,
			"componentType":5126,
			"count":3480,
			"max":[
				0.1667194664478302,
				0.2292194962501526,
				0.07035043835639954
			],
			"min":[
				-0.1667194664478302,
				-0.2292194664478302,
				-0.07035043835639954
			],
			"type":"VEC3"
		},
		{
			"bufferView":4,
			"componentType":5126,
			"count":3480,
			"type":"VEC3"
		},
		{
			"bufferView":5,
			"componentType":5123,
			"count":10740,
			"type":"SCALAR"
		}
	],
	"bufferViews":[
		{
			"buffer":0,
			"byteLength":1296,
			"byteOffset":0,
			"target":34962
		},
		{
			"buffer":0,
			"byteLength":1296,
			"byteOffset":1296,
			"target":34962
		},
		{
			"buffer":0,
			"byteLength":408,
			"byteOffset":2592,
			"target":34963
		},
		{
			"buffer":0,
			"byteLength":41760,
			"byteOffset":3000,
			"target":34962
		},
		{
			"buffer":0,
			"byteLength":41760,
			"byteOffset":44760,
			"target":34962
		},
		{
			"buffer":0,
			"byteLength":21480,
			"byteOffset":86520,
			"target":34963
		}
	],
	"buffers":[
		{
			"byteLength":108000,
			"uri":"HighVoltageJunction.bin"
		}
	]
}
