{
	"asset":{
		"generator":"Khronos glTF Blender I/O v4.0.44",
		"version":"2.0"
	},
	"scene":0,
	"scenes":[
		{
			"name":"Scene",
			"nodes":[
				0
			]
		}
	],
	"nodes":[
		{
			"mesh":0,
			"name":"box"
		}
	],
	"materials":[
		{
			"doubleSided":true,
			"name":"color2",
			"pbrMetallicRoughness":{
				"baseColorFactor":[
					0.800000011920929,
					0.800000011920929,
					0.800000011920929,
					1
				],
				"metallicFactor":1,
				"roughnessFactor":1
			}
		},
		{
			"doubleSided":true,
			"name":"lv-connector",
			"pbrMetallicRoughness":{
				"baseColorFactor":[
					0.5,
					0,
					0,
					1
				],
				"metallicFactor":1,
				"roughnessFactor":1
			}
		}
	],
	"meshes":[
		{
			"name":"Cube.001",
			"primitives":[
				{
					"attributes":{
						"POSITION":0,
						"NORMAL":1
					},
					"indices":2,
					"material":0
				},
				{
					"attributes":{
						"POSITION":3,
						"NORMAL":4
					},
					"indices":5,
					"material":1
				}
			]
		}
	],
	"accessors":[
		{
			"bufferView":0,
			"componentType":5126,
			"count":108,
			"max":[
				0.125,
				0.125,
				0.0625
			],
			"min":[
				-0.125,
				-0.125,
				-0.0625
			],
			"type":"VEC3"
		},
		{
			"bufferView":1,
			"componentType":5126,
			"count":108,
			"type":"VEC3"
		},
		{
			"bufferView":2,
			"componentType":5123,
			"count":204,
			"type":"SCALAR"
		},
		{
			"bufferView":3,
			"componentType":5126,
			"count":1560,
			"max":[
				0.14538034796714783,
				0.14538034796714783,
				0.030625849962234497
			],
			"min":[
				-0.14538034796714783,
				-0.14538034796714783,
				-0.030625851824879646
			],
			"type":"VEC3"
		},
		{
			"bufferView":4,
			"componentType":5126,
			"count":1560,
			"type":"VEC3"
		},
		{
			"bufferView":5,
			"componentType":5123,
			"count":4980,
			"type":"SCALAR"
		}
	],
	"bufferViews":[
		{
			"buffer":0,
			"byteLength":1296,
			"byteOffset":0,
			"target":34962
		},
		{
			"buffer":0,
			"byteLength":1296,
			"byteOffset":1296,
			"target":34962
		},
		{
			"buffer":0,
			"byteLength":408,
			"byteOffset":2592,
			"target":34963
		},
		{
			"buffer":0,
			"byteLength":18720,
			"byteOffset":3000,
			"target":34962
		},
		{
			"buffer":0,
			"byteLength":18720,
			"byteOffset":21720,
			"target":34962
		},
		{
			"buffer":0,
			"byteLength":9960,
			"byteOffset":40440,
			"target":34963
		}
	],
	"buffers":[
		{
			"byteLength":50400,
			"uri":"LowVoltageJunction.bin"
		}
	]
}
