{
	"asset":{
		"generator":"Khronos glTF Blender I/O v3.6.6",
		"version":"2.0"
	},
	"scene":0,
	"scenes":[
		{
			"name":"Scene",
			"nodes":[
				0,
				1
			]
		}
	],
	"nodes":[
		{
			"mesh":0,
			"name":"spike",
			"translation":[
				0,
				0,
				-0.11398676037788391
			]
		},
		{
			"mesh":1,
			"name":"thruster",
			"rotation":[
				0.7071068286895752,
				0,
				0,
				0.7071068286895752
			],
			"translation":[
				0,
				0,
				0.4928421974182129
			]
		}
	],
	"materials":[
		{
			"doubleSided":true,
			"name":"thruster-nozzle",
			"pbrMetallicRoughness":{
				"baseColorFactor":[
					0.009999999776482582,
					0.009999999776482582,
					0.009999999776482582,
					1
				],
				"metallicFactor":0,
				"roughnessFactor":1
			}
		},
		{
			"doubleSided":true,
			"name":"color2",
			"pbrMetallicRoughness":{
				"baseColorFactor":[
					0.800000011920929,
					0.800000011920929,
					0.800000011920929,
					1
				],
				"metallicFactor":1,
				"roughnessFactor":1
			}
		},
		{
			"doubleSided":true,
			"name":"color1",
			"pbrMetallicRoughness":{
				"baseColorFactor":[
					1,
					1,
					1,
					1
				],
				"metallicFactor":0,
				"roughnessFactor":0
			}
		},
		{
			"doubleSided":true,
			"name":"fluid-connector",
			"pbrMetallicRoughness":{
				"baseColorFactor":[
					0.5,
					0.5,
					0.5,
					1
				],
				"metallicFactor":1,
				"roughnessFactor":1
			}
		},
		{
			"doubleSided":true,
			"name":"hv-connector",
			"pbrMetallicRoughness":{
				"baseColorFactor":[
					0.5,
					0.16493025422096252,
					0.02132895588874817,
					1
				],
				"metallicFactor":1,
				"roughnessFactor":1
			}
		},
		{
			"doubleSided":true,
			"name":"data-connector",
			"pbrMetallicRoughness":{
				"baseColorFactor":[
					0,
					0.05000007152557373,
					0.5,
					1
				],
				"metallicFactor":1,
				"roughnessFactor":1
			}
		},
		{
			"doubleSided":true,
			"name":"chrome",
			"pbrMetallicRoughness":{
				"baseColorFactor":[
					0.5,
					0.5,
					0.5,
					1
				],
				"metallicFactor":1,
				"roughnessFactor":0
			}
		}
	],
	"meshes":[
		{
			"name":"Cylinder.002",
			"primitives":[
				{
					"attributes":{
						"POSITION":0,
						"NORMAL":1
					},
					"indices":2,
					"material":0
				}
			]
		},
		{
			"name":"Cylinder.003",
			"primitives":[
				{
					"attributes":{
						"POSITION":3,
						"NORMAL":4
					},
					"indices":5,
					"material":1
				},
				{
					"attributes":{
						"POSITION":6,
						"NORMAL":7
					},
					"indices":8,
					"material":0
				},
				{
					"attributes":{
						"POSITION":9,
						"NORMAL":10
					},
					"indices":11,
					"material":2
				},
				{
					"attributes":{
						"POSITION":12,
						"NORMAL":13
					},
					"indices":14,
					"material":3
				},
				{
					"attributes":{
						"POSITION":15,
						"NORMAL":16
					},
					"indices":17,
					"material":4
				},
				{
					"attributes":{
						"POSITION":18,
						"NORMAL":19
					},
					"indices":20,
					"material":5
				},
				{
					"attributes":{
						"POSITION":21,
						"NORMAL":22
					},
					"indices":23,
					"material":6
				}
			]
		}
	],
	"accessors":[
		{
			"bufferView":0,
			"componentType":5126,
			"count":1638,
			"max":[
				0.36262840032577515,
				0.3619075417518616,
				0.3223881721496582
			],
			"min":[
				-0.3619075417518616,
				-0.3619075417518616,
				-0.43530288338661194
			],
			"type":"VEC3"
		},
		{
			"bufferView":1,
			"componentType":5126,
			"count":1638,
			"type":"VEC3"
		},
		{
			"bufferView":2,
			"componentType":5123,
			"count":3654,
			"type":"SCALAR"
		},
		{
			"bufferView":3,
			"componentType":5126,
			"count":516,
			"max":[
				0.49900001287460327,
				0.5,
				0.49900007247924805
			],
			"min":[
				-0.49900001287460327,
				-0.4117201566696167,
				-0.4989999830722809
			],
			"type":"VEC3"
		},
		{
			"bufferView":4,
			"componentType":5126,
			"count":516,
			"type":"VEC3"
		},
		{
			"bufferView":5,
			"componentType":5123,
			"count":1260,
			"type":"SCALAR"
		},
		{
			"bufferView":6,
			"componentType":5126,
			"count":528,
			"max":[
				0.4762435257434845,
				-0.24017079174518585,
				0.4762434661388397
			],
			"min":[
				-0.47624343633651733,
				-0.4653297960758209,
				-0.4762434661388397
			],
			"type":"VEC3"
		},
		{
			"bufferView":7,
			"componentType":5126,
			"count":528,
			"type":"VEC3"
		},
		{
			"bufferView":8,
			"componentType":5123,
			"count":1578,
			"type":"SCALAR"
		},
		{
			"bufferView":9,
			"componentType":5126,
			"count":76,
			"max":[
				0.49070826172828674,
				0.5109037160873413,
				0.4838424324989319
			],
			"min":[
				-0.49070826172828674,
				0.49485135078430176,
				-0.4838424324989319
			],
			"type":"VEC3"
		},
		{
			"bufferView":10,
			"componentType":5126,
			"count":76,
			"type":"VEC3"
		},
		{
			"bufferView":11,
			"componentType":5123,
			"count":174,
			"type":"SCALAR"
		},
		{
			"bufferView":12,
			"componentType":5126,
			"count":9216,
			"max":[
				0.2998965382575989,
				0.5378335118293762,
				0.3405938148498535
			],
			"min":[
				-0.2998965382575989,
				0.4999997615814209,
				0.09080076217651367
			],
			"type":"VEC3"
		},
		{
			"bufferView":13,
			"componentType":5126,
			"count":9216,
			"type":"VEC3"
		},
		{
			"bufferView":14,
			"componentType":5123,
			"count":21624,
			"type":"SCALAR"
		},
		{
			"bufferView":15,
			"componentType":5126,
			"count":696,
			"max":[
				0.07035043835639954,
				0.5417194366455078,
				-0.07856370508670807
			],
			"min":[
				-0.07035043835639954,
				0.5000001788139343,
				-0.21926458179950714
			],
			"type":"VEC3"
		},
		{
			"bufferView":16,
			"componentType":5126,
			"count":696,
			"type":"VEC3"
		},
		{
			"bufferView":17,
			"componentType":5123,
			"count":2148,
			"type":"SCALAR"
		},
		{
			"bufferView":18,
			"componentType":5126,
			"count":376,
			"max":[
				0.02985917031764984,
				0.5206489562988281,
				-0.2985072731971741
			],
			"min":[
				-0.02985917031764984,
				0.5,
				-0.35822558403015137
			],
			"type":"VEC3"
		},
		{
			"bufferView":19,
			"componentType":5126,
			"count":376,
			"type":"VEC3"
		},
		{
			"bufferView":20,
			"componentType":5123,
			"count":1020,
			"type":"SCALAR"
		},
		{
			"bufferView":21,
			"componentType":5126,
			"count":720,
			"max":[
				0.5013307332992554,
				-0.39006900787353516,
				0.5013307929039001
			],
			"min":[
				-0.5013307332992554,
				-0.565530002117157,
				-0.5013306140899658
			],
			"type":"VEC3"
		},
		{
			"bufferView":22,
			"componentType":5126,
			"count":720,
			"type":"VEC3"
		},
		{
			"bufferView":23,
			"componentType":5123,
			"count":3456,
			"type":"SCALAR"
		}
	],
	"bufferViews":[
		{
			"buffer":0,
			"byteLength":19656,
			"byteOffset":0,
			"target":34962
		},
		{
			"buffer":0,
			"byteLength":19656,
			"byteOffset":19656,
			"target":34962
		},
		{
			"buffer":0,
			"byteLength":7308,
			"byteOffset":39312,
			"target":34963
		},
		{
			"buffer":0,
			"byteLength":6192,
			"byteOffset":46620,
			"target":34962
		},
		{
			"buffer":0,
			"byteLength":6192,
			"byteOffset":52812,
			"target":34962
		},
		{
			"buffer":0,
			"byteLength":2520,
			"byteOffset":59004,
			"target":34963
		},
		{
			"buffer":0,
			"byteLength":6336,
			"byteOffset":61524,
			"target":34962
		},
		{
			"buffer":0,
			"byteLength":6336,
			"byteOffset":67860,
			"target":34962
		},
		{
			"buffer":0,
			"byteLength":3156,
			"byteOffset":74196,
			"target":34963
		},
		{
			"buffer":0,
			"byteLength":912,
			"byteOffset":77352,
			"target":34962
		},
		{
			"buffer":0,
			"byteLength":912,
			"byteOffset":78264,
			"target":34962
		},
		{
			"buffer":0,
			"byteLength":348,
			"byteOffset":79176,
			"target":34963
		},
		{
			"buffer":0,
			"byteLength":110592,
			"byteOffset":79524,
			"target":34962
		},
		{
			"buffer":0,
			"byteLength":110592,
			"byteOffset":190116,
			"target":34962
		},
		{
			"buffer":0,
			"byteLength":43248,
			"byteOffset":300708,
			"target":34963
		},
		{
			"buffer":0,
			"byteLength":8352,
			"byteOffset":343956,
			"target":34962
		},
		{
			"buffer":0,
			"byteLength":8352,
			"byteOffset":352308,
			"target":34962
		},
		{
			"buffer":0,
			"byteLength":4296,
			"byteOffset":360660,
			"target":34963
		},
		{
			"buffer":0,
			"byteLength":4512,
			"byteOffset":364956,
			"target":34962
		},
		{
			"buffer":0,
			"byteLength":4512,
			"byteOffset":369468,
			"target":34962
		},
		{
			"buffer":0,
			"byteLength":2040,
			"byteOffset":373980,
			"target":34963
		},
		{
			"buffer":0,
			"byteLength":8640,
			"byteOffset":376020,
			"target":34962
		},
		{
			"buffer":0,
			"byteLength":8640,
			"byteOffset":384660,
			"target":34962
		},
		{
			"buffer":0,
			"byteLength":6912,
			"byteOffset":393300,
			"target":34963
		}
	],
	"buffers":[
		{
			"byteLength":400212,
			"uri":"BigThruster.bin"
		}
	]
}
