{
	"asset":{
		"generator":"Khronos glTF Blender I/O v4.0.44",
		"version":"2.0"
	},
	"scene":0,
	"scenes":[
		{
			"name":"Scene",
			"nodes":[
				0
			]
		}
	],
	"nodes":[
		{
			"mesh":0,
			"name":"turbopump",
			"rotation":[
				-0.7071068286895752,
				0,
				0,
				0.7071068286895752
			],
			"translation":[
				0.2782849371433258,
				0,
				5.1117048263549805
			]
		}
	],
	"materials":[
		{
			"doubleSided":true,
			"name":"color1",
			"pbrMetallicRoughness":{
				"baseColorFactor":[
					1,
					1,
					1,
					1
				],
				"metallicFactor":0,
				"roughnessFactor":0
			}
		},
		{
			"doubleSided":true,
			"name":"color2",
			"pbrMetallicRoughness":{
				"baseColorFactor":[
					0.800000011920929,
					0.800000011920929,
					0.800000011920929,
					1
				],
				"metallicFactor":1,
				"roughnessFactor":1
			}
		},
		{
			"doubleSided":true,
			"name":"fluid-connector",
			"pbrMetallicRoughness":{
				"baseColorFactor":[
					0.5,
					0.5,
					0.5,
					1
				],
				"metallicFactor":1,
				"roughnessFactor":1
			}
		},
		{
			"doubleSided":true,
			"name":"data-connector",
			"pbrMetallicRoughness":{
				"baseColorFactor":[
					0,
					0.05000007152557373,
					0.5,
					1
				],
				"metallicFactor":1,
				"roughnessFactor":1
			}
		},
		{
			"doubleSided":true,
			"name":"hv-connector",
			"pbrMetallicRoughness":{
				"baseColorFactor":[
					0.5,
					0.16493025422096252,
					0.02132895588874817,
					1
				],
				"metallicFactor":1,
				"roughnessFactor":1
			}
		}
	],
	"meshes":[
		{
			"name":"Cylinder",
			"primitives":[
				{
					"attributes":{
						"POSITION":0,
						"NORMAL":1
					},
					"indices":2,
					"material":0
				},
				{
					"attributes":{
						"POSITION":3,
						"NORMAL":4
					},
					"indices":5,
					"material":1
				},
				{
					"attributes":{
						"POSITION":6,
						"NORMAL":7
					},
					"indices":8,
					"material":2
				},
				{
					"attributes":{
						"POSITION":9,
						"NORMAL":10
					},
					"indices":11,
					"material":3
				},
				{
					"attributes":{
						"POSITION":12,
						"NORMAL":13
					},
					"indices":14,
					"material":4
				}
			]
		}
	],
	"accessors":[
		{
			"bufferView":0,
			"componentType":5126,
			"count":146,
			"max":[
				-0.4924570322036743,
				0.25038960576057434,
				0.24982798099517822
			],
			"min":[
				-0.998422384262085,
				-0.24926628172397614,
				-0.24982792139053345
			],
			"type":"VEC3"
		},
		{
			"bufferView":1,
			"componentType":5126,
			"count":146,
			"type":"VEC3"
		},
		{
			"bufferView":2,
			"componentType":5123,
			"count":432,
			"type":"SCALAR"
		},
		{
			"bufferView":3,
			"componentType":5126,
			"count":1488,
			"max":[
				0.501577615737915,
				0.2458149790763855,
				0.246684730052948
			],
			"min":[
				-0.5309891700744629,
				-0.2458149790763855,
				-0.24668467044830322
			],
			"type":"VEC3"
		},
		{
			"bufferView":4,
			"componentType":5126,
			"count":1488,
			"type":"VEC3"
		},
		{
			"bufferView":5,
			"componentType":5123,
			"count":3594,
			"type":"SCALAR"
		},
		{
			"bufferView":6,
			"componentType":5126,
			"count":9216,
			"max":[
				0.5378333926200867,
				0.12489700317382812,
				0.12489661574363708
			],
			"min":[
				-1.0331153869628906,
				-0.12489654123783112,
				-0.12489654123783112
			],
			"type":"VEC3"
		},
		{
			"bufferView":7,
			"componentType":5126,
			"count":9216,
			"type":"VEC3"
		},
		{
			"bufferView":8,
			"componentType":5123,
			"count":21624,
			"type":"SCALAR"
		},
		{
			"bufferView":9,
			"componentType":5126,
			"count":376,
			"max":[
				-0.5742545127868652,
				0.2710203528404236,
				0.02985917590558529
			],
			"min":[
				-0.6339728832244873,
				0.25037139654159546,
				-0.029859164729714394
			],
			"type":"VEC3"
		},
		{
			"bufferView":10,
			"componentType":5126,
			"count":376,
			"type":"VEC3"
		},
		{
			"bufferView":11,
			"componentType":5123,
			"count":1020,
			"type":"SCALAR"
		},
		{
			"bufferView":12,
			"componentType":5126,
			"count":696,
			"max":[
				-0.7035477161407471,
				0.29209086298942566,
				0.07035044580698013
			],
			"min":[
				-0.8442485332489014,
				0.2503715455532074,
				-0.07035043090581894
			],
			"type":"VEC3"
		},
		{
			"bufferView":13,
			"componentType":5126,
			"count":696,
			"type":"VEC3"
		},
		{
			"bufferView":14,
			"componentType":5123,
			"count":2148,
			"type":"SCALAR"
		}
	],
	"bufferViews":[
		{
			"buffer":0,
			"byteLength":1752,
			"byteOffset":0,
			"target":34962
		},
		{
			"buffer":0,
			"byteLength":1752,
			"byteOffset":1752,
			"target":34962
		},
		{
			"buffer":0,
			"byteLength":864,
			"byteOffset":3504,
			"target":34963
		},
		{
			"buffer":0,
			"byteLength":17856,
			"byteOffset":4368,
			"target":34962
		},
		{
			"buffer":0,
			"byteLength":17856,
			"byteOffset":22224,
			"target":34962
		},
		{
			"buffer":0,
			"byteLength":7188,
			"byteOffset":40080,
			"target":34963
		},
		{
			"buffer":0,
			"byteLength":110592,
			"byteOffset":47268,
			"target":34962
		},
		{
			"buffer":0,
			"byteLength":110592,
			"byteOffset":157860,
			"target":34962
		},
		{
			"buffer":0,
			"byteLength":43248,
			"byteOffset":268452,
			"target":34963
		},
		{
			"buffer":0,
			"byteLength":4512,
			"byteOffset":311700,
			"target":34962
		},
		{
			"buffer":0,
			"byteLength":4512,
			"byteOffset":316212,
			"target":34962
		},
		{
			"buffer":0,
			"byteLength":2040,
			"byteOffset":320724,
			"target":34963
		},
		{
			"buffer":0,
			"byteLength":8352,
			"byteOffset":322764,
			"target":34962
		},
		{
			"buffer":0,
			"byteLength":8352,
			"byteOffset":331116,
			"target":34962
		},
		{
			"buffer":0,
			"byteLength":4296,
			"byteOffset":339468,
			"target":34963
		}
	],
	"buffers":[
		{
			"byteLength":343764,
			"uri":"BigTurboPump.bin"
		}
	]
}
