{
	"asset":{
		"generator":"Khronos glTF Blender I/O v3.6.6",
		"version":"2.0"
	},
	"scene":0,
	"scenes":[
		{
			"name":"Scene",
			"nodes":[
				0,
				1
			]
		}
	],
	"nodes":[
		{
			"mesh":0,
			"name":"spike"
		},
		{
			"mesh":1,
			"name":"thruster"
		}
	],
	"materials":[
		{
			"doubleSided":true,
			"name":"thruster-nozzle",
			"pbrMetallicRoughness":{
				"baseColorFactor":[
					0.009999999776482582,
					0.009999999776482582,
					0.009999999776482582,
					1
				],
				"metallicFactor":0,
				"roughnessFactor":1
			}
		},
		{
			"doubleSided":true,
			"name":"color1",
			"pbrMetallicRoughness":{
				"baseColorFactor":[
					1,
					1,
					1,
					1
				],
				"metallicFactor":0,
				"roughnessFactor":0
			}
		},
		{
			"doubleSided":true,
			"name":"fluid-connector",
			"pbrMetallicRoughness":{
				"baseColorFactor":[
					0.5,
					0.5,
					0.5,
					1
				],
				"metallicFactor":1,
				"roughnessFactor":1
			}
		},
		{
			"doubleSided":true,
			"name":"data-connector",
			"pbrMetallicRoughness":{
				"baseColorFactor":[
					0,
					0.05000007152557373,
					0.5,
					1
				],
				"metallicFactor":1,
				"roughnessFactor":1
			}
		},
		{
			"doubleSided":true,
			"name":"hv-connector",
			"pbrMetallicRoughness":{
				"baseColorFactor":[
					0.5,
					0.16493025422096252,
					0.02132895588874817,
					1
				],
				"metallicFactor":1,
				"roughnessFactor":1
			}
		},
		{
			"doubleSided":true,
			"name":"color2",
			"pbrMetallicRoughness":{
				"baseColorFactor":[
					0.800000011920929,
					0.800000011920929,
					0.800000011920929,
					1
				],
				"metallicFactor":1,
				"roughnessFactor":1
			}
		}
	],
	"meshes":[
		{
			"name":"Cylinder.002",
			"primitives":[
				{
					"attributes":{
						"POSITION":0,
						"NORMAL":1
					},
					"indices":2,
					"material":0
				},
				{
					"attributes":{
						"POSITION":3,
						"NORMAL":4
					},
					"indices":5,
					"material":1
				}
			]
		},
		{
			"name":"Cylinder.001",
			"primitives":[
				{
					"attributes":{
						"POSITION":6,
						"NORMAL":7
					},
					"indices":8,
					"material":1
				},
				{
					"attributes":{
						"POSITION":9,
						"NORMAL":10
					},
					"indices":11,
					"material":2
				},
				{
					"attributes":{
						"POSITION":12,
						"NORMAL":13
					},
					"indices":14,
					"material":3
				},
				{
					"attributes":{
						"POSITION":15,
						"NORMAL":16
					},
					"indices":17,
					"material":4
				},
				{
					"attributes":{
						"POSITION":18,
						"NORMAL":19
					},
					"indices":20,
					"material":5
				}
			]
		}
	],
	"accessors":[
		{
			"bufferView":0,
			"componentType":5126,
			"count":336,
			"max":[
				0.17036733031272888,
				0.17036759853363037,
				0.060570091009140015
			],
			"min":[
				-0.17036786675453186,
				-0.17036758363246918,
				-0.08970410376787186
			],
			"type":"VEC3"
		},
		{
			"bufferView":1,
			"componentType":5126,
			"count":336,
			"type":"VEC3"
		},
		{
			"bufferView":2,
			"componentType":5123,
			"count":1632,
			"type":"SCALAR"
		},
		{
			"bufferView":3,
			"componentType":5126,
			"count":84,
			"max":[
				0.2087744027376175,
				0.20877450704574585,
				0.06078130379319191
			],
			"min":[
				-0.20877456665039062,
				-0.20877450704574585,
				0.06057007610797882
			],
			"type":"VEC3"
		},
		{
			"bufferView":4,
			"componentType":5126,
			"count":84,
			"type":"VEC3"
		},
		{
			"bufferView":5,
			"componentType":5123,
			"count":252,
			"type":"SCALAR"
		},
		{
			"bufferView":6,
			"componentType":5126,
			"count":42,
			"max":[
				0.24175822734832764,
				0.24175822734832764,
				0.4139299988746643
			],
			"min":[
				-0.24175821244716644,
				-0.24175822734832764,
				0.41099750995635986
			],
			"type":"VEC3"
		},
		{
			"bufferView":7,
			"componentType":5126,
			"count":42,
			"type":"VEC3"
		},
		{
			"bufferView":8,
			"componentType":5123,
			"count":120,
			"type":"SCALAR"
		},
		{
			"bufferView":9,
			"componentType":5126,
			"count":9216,
			"max":[
				0.24989652633666992,
				0.12489652633666992,
				0.45176368951797485
			],
			"min":[
				-0.24989652633666992,
				-0.12489652633666992,
				0.41392993927001953
			],
			"type":"VEC3"
		},
		{
			"bufferView":10,
			"componentType":5126,
			"count":9216,
			"type":"VEC3"
		},
		{
			"bufferView":11,
			"componentType":5123,
			"count":21624,
			"type":"SCALAR"
		},
		{
			"bufferView":12,
			"componentType":5126,
			"count":376,
			"max":[
				0.02985917031764984,
				0.2048591673374176,
				0.43457913398742676
			],
			"min":[
				-0.02985917031764984,
				0.14514082670211792,
				0.41393017768859863
			],
			"type":"VEC3"
		},
		{
			"bufferView":13,
			"componentType":5126,
			"count":376,
			"type":"VEC3"
		},
		{
			"bufferView":14,
			"componentType":5123,
			"count":1020,
			"type":"SCALAR"
		},
		{
			"bufferView":15,
			"componentType":5126,
			"count":696,
			"max":[
				0.07035043835639954,
				-0.10464955866336823,
				0.45564964413642883
			],
			"min":[
				-0.07035043835639954,
				-0.2453504353761673,
				0.41393032670021057
			],
			"type":"VEC3"
		},
		{
			"bufferView":16,
			"componentType":5126,
			"count":696,
			"type":"VEC3"
		},
		{
			"bufferView":17,
			"componentType":5123,
			"count":2148,
			"type":"SCALAR"
		},
		{
			"bufferView":18,
			"componentType":5126,
			"count":714,
			"max":[
				0.24747724831104279,
				0.24747726321220398,
				0.4139299988746643
			],
			"min":[
				-0.24747724831104279,
				-0.24747726321220398,
				0.005878059193491936
			],
			"type":"VEC3"
		},
		{
			"bufferView":19,
			"componentType":5126,
			"count":714,
			"type":"VEC3"
		},
		{
			"bufferView":20,
			"componentType":5123,
			"count":3780,
			"type":"SCALAR"
		}
	],
	"bufferViews":[
		{
			"buffer":0,
			"byteLength":4032,
			"byteOffset":0,
			"target":34962
		},
		{
			"buffer":0,
			"byteLength":4032,
			"byteOffset":4032,
			"target":34962
		},
		{
			"buffer":0,
			"byteLength":3264,
			"byteOffset":8064,
			"target":34963
		},
		{
			"buffer":0,
			"byteLength":1008,
			"byteOffset":11328,
			"target":34962
		},
		{
			"buffer":0,
			"byteLength":1008,
			"byteOffset":12336,
			"target":34962
		},
		{
			"buffer":0,
			"byteLength":504,
			"byteOffset":13344,
			"target":34963
		},
		{
			"buffer":0,
			"byteLength":504,
			"byteOffset":13848,
			"target":34962
		},
		{
			"buffer":0,
			"byteLength":504,
			"byteOffset":14352,
			"target":34962
		},
		{
			"buffer":0,
			"byteLength":240,
			"byteOffset":14856,
			"target":34963
		},
		{
			"buffer":0,
			"byteLength":110592,
			"byteOffset":15096,
			"target":34962
		},
		{
			"buffer":0,
			"byteLength":110592,
			"byteOffset":125688,
			"target":34962
		},
		{
			"buffer":0,
			"byteLength":43248,
			"byteOffset":236280,
			"target":34963
		},
		{
			"buffer":0,
			"byteLength":4512,
			"byteOffset":279528,
			"target":34962
		},
		{
			"buffer":0,
			"byteLength":4512,
			"byteOffset":284040,
			"target":34962
		},
		{
			"buffer":0,
			"byteLength":2040,
			"byteOffset":288552,
			"target":34963
		},
		{
			"buffer":0,
			"byteLength":8352,
			"byteOffset":290592,
			"target":34962
		},
		{
			"buffer":0,
			"byteLength":8352,
			"byteOffset":298944,
			"target":34962
		},
		{
			"buffer":0,
			"byteLength":4296,
			"byteOffset":307296,
			"target":34963
		},
		{
			"buffer":0,
			"byteLength":8568,
			"byteOffset":311592,
			"target":34962
		},
		{
			"buffer":0,
			"byteLength":8568,
			"byteOffset":320160,
			"target":34962
		},
		{
			"buffer":0,
			"byteLength":7560,
			"byteOffset":328728,
			"target":34963
		}
	],
	"buffers":[
		{
			"byteLength":336288,
			"uri":"SmallThruster.bin"
		}
	]
}
