{
	"asset":{
		"generator":"Khronos glTF Blender I/O v4.0.44",
		"version":"2.0"
	},
	"scene":0,
	"scenes":[
		{
			"name":"Scene",
			"nodes":[
				0
			]
		}
	],
	"nodes":[
		{
			"mesh":0,
			"name":"turbopump",
			"rotation":[
				0.7071068286895752,
				0,
				0,
				0.7071068286895752
			],
			"translation":[
				0,
				-0.08873432874679565,
				2.152343511581421
			]
		}
	],
	"materials":[
		{
			"doubleSided":true,
			"name":"color1",
			"pbrMetallicRoughness":{
				"baseColorFactor":[
					1,
					1,
					1,
					1
				],
				"metallicFactor":0,
				"roughnessFactor":0
			}
		},
		{
			"doubleSided":true,
			"name":"fluid-connector",
			"pbrMetallicRoughness":{
				"baseColorFactor":[
					0.5,
					0.5,
					0.5,
					1
				],
				"metallicFactor":1,
				"roughnessFactor":1
			}
		},
		{
			"doubleSided":true,
			"name":"data-connector",
			"pbrMetallicRoughness":{
				"baseColorFactor":[
					0,
					0.05000007152557373,
					0.5,
					1
				],
				"metallicFactor":1,
				"roughnessFactor":1
			}
		},
		{
			"doubleSided":true,
			"name":"hv-connector",
			"pbrMetallicRoughness":{
				"baseColorFactor":[
					0.5,
					0.16493025422096252,
					0.02132895588874817,
					1
				],
				"metallicFactor":1,
				"roughnessFactor":1
			}
		}
	],
	"meshes":[
		{
			"name":"Cube.005",
			"primitives":[
				{
					"attributes":{
						"POSITION":0,
						"NORMAL":1
					},
					"indices":2,
					"material":0
				},
				{
					"attributes":{
						"POSITION":3,
						"NORMAL":4
					},
					"indices":5,
					"material":1
				},
				{
					"attributes":{
						"POSITION":6,
						"NORMAL":7
					},
					"indices":8,
					"material":2
				},
				{
					"attributes":{
						"POSITION":9,
						"NORMAL":10
					},
					"indices":11,
					"material":3
				}
			]
		}
	],
	"accessors":[
		{
			"bufferView":0,
			"componentType":5126,
			"count":112,
			"max":[
				0.12499997764825821,
				0.21608592569828033,
				0.1249999850988388
			],
			"min":[
				-0.12499997764825821,
				-0.21608589589595795,
				-0.1249999850988388
			],
			"type":"VEC3"
		},
		{
			"bufferView":1,
			"componentType":5126,
			"count":112,
			"type":"VEC3"
		},
		{
			"bufferView":2,
			"componentType":5123,
			"count":324,
			"type":"SCALAR"
		},
		{
			"bufferView":3,
			"componentType":5126,
			"count":9216,
			"max":[
				0.12489652633666992,
				0.25391942262649536,
				0.12489653378725052
			],
			"min":[
				-0.12489652633666992,
				-0.25391942262649536,
				-0.12489653378725052
			],
			"type":"VEC3"
		},
		{
			"bufferView":4,
			"componentType":5126,
			"count":9216,
			"type":"VEC3"
		},
		{
			"bufferView":5,
			"componentType":5123,
			"count":21624,
			"type":"SCALAR"
		},
		{
			"bufferView":6,
			"componentType":5126,
			"count":400,
			"max":[
				0.07035043835639954,
				0.18784962594509125,
				-0.125
			],
			"min":[
				-0.07035043835639954,
				-0.07035044580698013,
				-0.14564895629882812
			],
			"type":"VEC3"
		},
		{
			"bufferView":7,
			"componentType":5126,
			"count":400,
			"type":"VEC3"
		},
		{
			"bufferView":8,
			"componentType":5123,
			"count":1086,
			"type":"SCALAR"
		},
		{
			"bufferView":9,
			"componentType":5126,
			"count":672,
			"max":[
				0.07035043835639954,
				0.07035043090581894,
				-0.12500016391277313
			],
			"min":[
				-0.07035043835639954,
				-0.07035044580698013,
				-0.1667194664478302
			],
			"type":"VEC3"
		},
		{
			"bufferView":10,
			"componentType":5126,
			"count":672,
			"type":"VEC3"
		},
		{
			"bufferView":11,
			"componentType":5123,
			"count":2082,
			"type":"SCALAR"
		}
	],
	"bufferViews":[
		{
			"buffer":0,
			"byteLength":1344,
			"byteOffset":0,
			"target":34962
		},
		{
			"buffer":0,
			"byteLength":1344,
			"byteOffset":1344,
			"target":34962
		},
		{
			"buffer":0,
			"byteLength":648,
			"byteOffset":2688,
			"target":34963
		},
		{
			"buffer":0,
			"byteLength":110592,
			"byteOffset":3336,
			"target":34962
		},
		{
			"buffer":0,
			"byteLength":110592,
			"byteOffset":113928,
			"target":34962
		},
		{
			"buffer":0,
			"byteLength":43248,
			"byteOffset":224520,
			"target":34963
		},
		{
			"buffer":0,
			"byteLength":4800,
			"byteOffset":267768,
			"target":34962
		},
		{
			"buffer":0,
			"byteLength":4800,
			"byteOffset":272568,
			"target":34962
		},
		{
			"buffer":0,
			"byteLength":2172,
			"byteOffset":277368,
			"target":34963
		},
		{
			"buffer":0,
			"byteLength":8064,
			"byteOffset":279540,
			"target":34962
		},
		{
			"buffer":0,
			"byteLength":8064,
			"byteOffset":287604,
			"target":34962
		},
		{
			"buffer":0,
			"byteLength":4164,
			"byteOffset":295668,
			"target":34963
		}
	],
	"buffers":[
		{
			"byteLength":299832,
			"uri":"SmallTurboPump.bin"
		}
	]
}
