{
	"asset":{
		"generator":"Khronos glTF Blender I/O v4.0.44",
		"version":"2.0"
	},
	"scene":0,
	"scenes":[
		{
			"name":"Scene",
			"nodes":[
				0
			]
		}
	],
	"nodes":[
		{
			"mesh":0,
			"name":"body",
			"translation":[
				-0.0952380895614624,
				0,
				-0.095238097012043
			]
		}
	],
	"materials":[
		{
			"doubleSided":true,
			"name":"color1",
			"pbrMetallicRoughness":{
				"baseColorFactor":[
					1,
					1,
					1,
					1
				],
				"metallicFactor":0,
				"roughnessFactor":0
			}
		},
		{
			"doubleSided":true,
			"name":"body",
			"pbrMetallicRoughness":{
				"baseColorFactor":[
					0.07957769185304642,
					0.07957769185304642,
					0.07957769185304642,
					1
				],
				"metallicFactor":0,
				"roughnessFactor":1
			}
		},
		{
			"doubleSided":true,
			"name":"color2",
			"pbrMetallicRoughness":{
				"baseColorFactor":[
					0.800000011920929,
					0.800000011920929,
					0.800000011920929,
					1
				],
				"metallicFactor":1,
				"roughnessFactor":1
			}
		},
		{
			"doubleSided":true,
			"name":"lv-connector",
			"pbrMetallicRoughness":{
				"baseColorFactor":[
					0.5,
					0,
					0,
					1
				],
				"metallicFactor":1,
				"roughnessFactor":1
			}
		},
		{
			"doubleSided":true,
			"name":"data-connector",
			"pbrMetallicRoughness":{
				"baseColorFactor":[
					0,
					0.05000019073486328,
					0.5,
					1
				],
				"metallicFactor":1,
				"roughnessFactor":1
			}
		},
		{
			"doubleSided":true,
			"name":"fluid-connector",
			"pbrMetallicRoughness":{
				"baseColorFactor":[
					0.5,
					0.5,
					0.5,
					1
				],
				"metallicFactor":1,
				"roughnessFactor":1
			}
		}
	],
	"meshes":[
		{
			"name":"Cube.001",
			"primitives":[
				{
					"attributes":{
						"POSITION":0,
						"NORMAL":1
					},
					"indices":2,
					"material":0
				},
				{
					"attributes":{
						"POSITION":3,
						"NORMAL":4
					},
					"indices":5,
					"material":1
				},
				{
					"attributes":{
						"POSITION":6,
						"NORMAL":7
					},
					"indices":8,
					"material":2
				},
				{
					"attributes":{
						"POSITION":9,
						"NORMAL":10
					},
					"indices":11,
					"material":3
				},
				{
					"attributes":{
						"POSITION":12,
						"NORMAL":13
					},
					"indices":14,
					"material":4
				},
				{
					"attributes":{
						"POSITION":15,
						"NORMAL":16
					},
					"indices":17,
					"material":5
				}
			]
		}
	],
	"accessors":[
		{
			"bufferView":0,
			"componentType":5126,
			"count":188,
			"max":[
				0.5000000596046448,
				0.25,
				0.25000011920928955
			],
			"min":[
				-0.5000000596046448,
				-0.25000011920928955,
				-0.25000011920928955
			],
			"type":"VEC3"
		},
		{
			"bufferView":1,
			"componentType":5126,
			"count":188,
			"type":"VEC3"
		},
		{
			"bufferView":2,
			"componentType":5123,
			"count":336,
			"type":"SCALAR"
		},
		{
			"bufferView":3,
			"componentType":5126,
			"count":2856,
			"max":[
				0.4413023293018341,
				0.25,
				0.25000011920928955
			],
			"min":[
				-0.47206154465675354,
				-0.2500000298023224,
				-0.25
			],
			"type":"VEC3"
		},
		{
			"bufferView":4,
			"componentType":5126,
			"count":2856,
			"type":"VEC3"
		},
		{
			"bufferView":5,
			"componentType":5123,
			"count":4464,
			"type":"SCALAR"
		},
		{
			"bufferView":6,
			"componentType":5126,
			"count":12,
			"max":[
				-0.04064569249749184,
				0.24290980398654938,
				0.24290990829467773
			],
			"min":[
				-0.4488203227519989,
				-0.24290983378887177,
				-0.24290981888771057
			],
			"type":"VEC3"
		},
		{
			"bufferView":7,
			"componentType":5126,
			"count":12,
			"type":"VEC3"
		},
		{
			"bufferView":8,
			"componentType":5123,
			"count":12,
			"type":"SCALAR"
		},
		{
			"bufferView":9,
			"componentType":5126,
			"count":624,
			"max":[
				0.2563401162624359,
				0.2703803479671478,
				0.03062586486339569
			],
			"min":[
				0.19508841633796692,
				0.24999992549419403,
				-0.030625835061073303
			],
			"type":"VEC3"
		},
		{
			"bufferView":10,
			"componentType":5126,
			"count":624,
			"type":"VEC3"
		},
		{
			"bufferView":11,
			"componentType":5123,
			"count":996,
			"type":"SCALAR"
		},
		{
			"bufferView":12,
			"componentType":5126,
			"count":552,
			"max":[
				0.37557345628738403,
				0.2706489562988281,
				0.029859187081456184
			],
			"min":[
				0.31585508584976196,
				0.25,
				-0.029859168455004692
			],
			"type":"VEC3"
		},
		{
			"bufferView":13,
			"componentType":5126,
			"count":552,
			"type":"VEC3"
		},
		{
			"bufferView":14,
			"componentType":5123,
			"count":1020,
			"type":"SCALAR"
		},
		{
			"bufferView":15,
			"componentType":5126,
			"count":248,
			"max":[
				0.5500001311302185,
				0.125,
				0.12500013411045074
			],
			"min":[
				-0.5500000715255737,
				-0.125,
				-0.12500014901161194
			],
			"type":"VEC3"
		},
		{
			"bufferView":16,
			"componentType":5126,
			"count":248,
			"type":"VEC3"
		},
		{
			"bufferView":17,
			"componentType":5123,
			"count":396,
			"type":"SCALAR"
		}
	],
	"bufferViews":[
		{
			"buffer":0,
			"byteLength":2256,
			"byteOffset":0,
			"target":34962
		},
		{
			"buffer":0,
			"byteLength":2256,
			"byteOffset":2256,
			"target":34962
		},
		{
			"buffer":0,
			"byteLength":672,
			"byteOffset":4512,
			"target":34963
		},
		{
			"buffer":0,
			"byteLength":34272,
			"byteOffset":5184,
			"target":34962
		},
		{
			"buffer":0,
			"byteLength":34272,
			"byteOffset":39456,
			"target":34962
		},
		{
			"buffer":0,
			"byteLength":8928,
			"byteOffset":73728,
			"target":34963
		},
		{
			"buffer":0,
			"byteLength":144,
			"byteOffset":82656,
			"target":34962
		},
		{
			"buffer":0,
			"byteLength":144,
			"byteOffset":82800,
			"target":34962
		},
		{
			"buffer":0,
			"byteLength":24,
			"byteOffset":82944,
			"target":34963
		},
		{
			"buffer":0,
			"byteLength":7488,
			"byteOffset":82968,
			"target":34962
		},
		{
			"buffer":0,
			"byteLength":7488,
			"byteOffset":90456,
			"target":34962
		},
		{
			"buffer":0,
			"byteLength":1992,
			"byteOffset":97944,
			"target":34963
		},
		{
			"buffer":0,
			"byteLength":6624,
			"byteOffset":99936,
			"target":34962
		},
		{
			"buffer":0,
			"byteLength":6624,
			"byteOffset":106560,
			"target":34962
		},
		{
			"buffer":0,
			"byteLength":2040,
			"byteOffset":113184,
			"target":34963
		},
		{
			"buffer":0,
			"byteLength":2976,
			"byteOffset":115224,
			"target":34962
		},
		{
			"buffer":0,
			"byteLength":2976,
			"byteOffset":118200,
			"target":34962
		},
		{
			"buffer":0,
			"byteLength":792,
			"byteOffset":121176,
			"target":34963
		}
	],
	"buffers":[
		{
			"byteLength":121968,
			"uri":"ItemConveyor.bin"
		}
	]
}
