{
	"asset":{
		"generator":"Khronos glTF Blender I/O v4.0.44",
		"version":"2.0"
	},
	"scene":0,
	"scenes":[
		{
			"name":"Scene",
			"nodes":[
				0,
				1
			]
		}
	],
	"nodes":[
		{
			"mesh":0,
			"name":"flywheel",
			"translation":[
				0.07710188627243042,
				0.8633569478988647,
				0.4104352593421936
			]
		},
		{
			"mesh":1,
			"name":"body",
			"translation":[
				-0.4228980541229248,
				0.46335726976394653,
				0.4104353189468384
			]
		}
	],
	"materials":[
		{
			"doubleSided":true,
			"name":"color2",
			"pbrMetallicRoughness":{
				"baseColorFactor":[
					0.800000011920929,
					0.800000011920929,
					0.800000011920929,
					1
				],
				"metallicFactor":1,
				"roughnessFactor":1
			}
		},
		{
			"doubleSided":true,
			"name":"color1",
			"pbrMetallicRoughness":{
				"baseColorFactor":[
					1,
					1,
					1,
					1
				],
				"metallicFactor":0,
				"roughnessFactor":0
			}
		},
		{
			"doubleSided":true,
			"name":"body",
			"pbrMetallicRoughness":{
				"baseColorFactor":[
					0.009999999776482582,
					0.009999999776482582,
					0.009999999776482582,
					1
				],
				"metallicFactor":0,
				"roughnessFactor":1
			}
		},
		{
			"doubleSided":true,
			"name":"item-connector",
			"pbrMetallicRoughness":{
				"baseColorFactor":[
					0.5,
					0.5,
					0.5,
					1
				],
				"metallicFactor":1,
				"roughnessFactor":1
			}
		},
		{
			"doubleSided":true,
			"name":"data-connector",
			"pbrMetallicRoughness":{
				"baseColorFactor":[
					0,
					0.050000905990600586,
					0.5,
					1
				],
				"metallicFactor":1,
				"roughnessFactor":1
			}
		},
		{
			"doubleSided":true,
			"name":"hv-connector",
			"pbrMetallicRoughness":{
				"baseColorFactor":[
					0.5,
					0.1500009298324585,
					0,
					1
				],
				"metallicFactor":1,
				"roughnessFactor":1
			}
		}
	],
	"meshes":[
		{
			"name":"Cylinder.002",
			"primitives":[
				{
					"attributes":{
						"POSITION":0,
						"NORMAL":1
					},
					"indices":2,
					"material":0
				}
			]
		},
		{
			"name":"Cube.001",
			"primitives":[
				{
					"attributes":{
						"POSITION":3,
						"NORMAL":4
					},
					"indices":5,
					"material":1
				},
				{
					"attributes":{
						"POSITION":6,
						"NORMAL":7
					},
					"indices":8,
					"material":2
				},
				{
					"attributes":{
						"POSITION":9,
						"NORMAL":10
					},
					"indices":11,
					"material":3
				},
				{
					"attributes":{
						"POSITION":12,
						"NORMAL":13
					},
					"indices":14,
					"material":4
				},
				{
					"attributes":{
						"POSITION":15,
						"NORMAL":16
					},
					"indices":17,
					"material":5
				}
			]
		}
	],
	"accessors":[
		{
			"bufferView":0,
			"componentType":5126,
			"count":5378,
			"max":[
				0.393446147441864,
				0.39344608783721924,
				0.3826480507850647
			],
			"min":[
				-0.39344608783721924,
				-0.39344602823257446,
				-0.3826500475406647
			],
			"type":"VEC3"
		},
		{
			"bufferView":1,
			"componentType":5126,
			"count":5378,
			"type":"VEC3"
		},
		{
			"bufferView":2,
			"componentType":5123,
			"count":17772,
			"type":"SCALAR"
		},
		{
			"bufferView":3,
			"componentType":5126,
			"count":484,
			"max":[
				1.000000238418579,
				0.5995287895202637,
				0.5000006556510925
			],
			"min":[
				-1.000000238418579,
				-0.5,
				-0.5000006556510925
			],
			"type":"VEC3"
		},
		{
			"bufferView":4,
			"componentType":5126,
			"count":484,
			"type":"VEC3"
		},
		{
			"bufferView":5,
			"componentType":5123,
			"count":1272,
			"type":"SCALAR"
		},
		{
			"bufferView":6,
			"componentType":5126,
			"count":1477,
			"max":[
				0.041462719440460205,
				0.4914655387401581,
				0.4579446017742157
			],
			"min":[
				-0.9638601541519165,
				-0.03634569048881531,
				-0.4579443037509918
			],
			"type":"VEC3"
		},
		{
			"bufferView":7,
			"componentType":5126,
			"count":1477,
			"type":"VEC3"
		},
		{
			"bufferView":8,
			"componentType":5123,
			"count":2355,
			"type":"SCALAR"
		},
		{
			"bufferView":9,
			"componentType":5126,
			"count":232,
			"max":[
				1.0500000715255737,
				-0.13556557893753052,
				0.12500068545341492
			],
			"min":[
				-1.0499999523162842,
				-0.3855655789375305,
				-0.12500078976154327
			],
			"type":"VEC3"
		},
		{
			"bufferView":10,
			"componentType":5126,
			"count":232,
			"type":"VEC3"
		},
		{
			"bufferView":11,
			"componentType":5123,
			"count":396,
			"type":"SCALAR"
		},
		{
			"bufferView":12,
			"componentType":5126,
			"count":376,
			"max":[
				1.0206488370895386,
				-0.23070640861988068,
				-0.23275226354599
			],
			"min":[
				0.9999998807907104,
				-0.29042476415634155,
				-0.2924706041812897
			],
			"type":"VEC3"
		},
		{
			"bufferView":13,
			"componentType":5126,
			"count":376,
			"type":"VEC3"
		},
		{
			"bufferView":14,
			"componentType":5123,
			"count":1020,
			"type":"SCALAR"
		},
		{
			"bufferView":15,
			"componentType":5126,
			"count":696,
			"max":[
				1.0417195558547974,
				-0.19021514058113098,
				0.3703497052192688
			],
			"min":[
				1.000000238418579,
				-0.33091601729393005,
				0.22964878380298615
			],
			"type":"VEC3"
		},
		{
			"bufferView":16,
			"componentType":5126,
			"count":696,
			"type":"VEC3"
		},
		{
			"bufferView":17,
			"componentType":5123,
			"count":2148,
			"type":"SCALAR"
		}
	],
	"bufferViews":[
		{
			"buffer":0,
			"byteLength":64536,
			"byteOffset":0,
			"target":34962
		},
		{
			"buffer":0,
			"byteLength":64536,
			"byteOffset":64536,
			"target":34962
		},
		{
			"buffer":0,
			"byteLength":35544,
			"byteOffset":129072,
			"target":34963
		},
		{
			"buffer":0,
			"byteLength":5808,
			"byteOffset":164616,
			"target":34962
		},
		{
			"buffer":0,
			"byteLength":5808,
			"byteOffset":170424,
			"target":34962
		},
		{
			"buffer":0,
			"byteLength":2544,
			"byteOffset":176232,
			"target":34963
		},
		{
			"buffer":0,
			"byteLength":17724,
			"byteOffset":178776,
			"target":34962
		},
		{
			"buffer":0,
			"byteLength":17724,
			"byteOffset":196500,
			"target":34962
		},
		{
			"buffer":0,
			"byteLength":4710,
			"byteOffset":214224,
			"target":34963
		},
		{
			"buffer":0,
			"byteLength":2784,
			"byteOffset":218936,
			"target":34962
		},
		{
			"buffer":0,
			"byteLength":2784,
			"byteOffset":221720,
			"target":34962
		},
		{
			"buffer":0,
			"byteLength":792,
			"byteOffset":224504,
			"target":34963
		},
		{
			"buffer":0,
			"byteLength":4512,
			"byteOffset":225296,
			"target":34962
		},
		{
			"buffer":0,
			"byteLength":4512,
			"byteOffset":229808,
			"target":34962
		},
		{
			"buffer":0,
			"byteLength":2040,
			"byteOffset":234320,
			"target":34963
		},
		{
			"buffer":0,
			"byteLength":8352,
			"byteOffset":236360,
			"target":34962
		},
		{
			"buffer":0,
			"byteLength":8352,
			"byteOffset":244712,
			"target":34962
		},
		{
			"buffer":0,
			"byteLength":4296,
			"byteOffset":253064,
			"target":34963
		}
	],
	"buffers":[
		{
			"byteLength":257360,
			"uri":"Crusher.bin"
		}
	]
}
