{
	"asset":{
		"generator":"Khronos glTF Blender I/O v3.6.6",
		"version":"2.0"
	},
	"extensionsUsed":[
		"KHR_materials_specular",
		"KHR_materials_ior"
	],
	"scene":0,
	"scenes":[
		{
			"name":"Scene",
			"nodes":[
				0,
				1,
				2,
				3,
				4,
				5,
				6
			]
		},
		{
			"name":"Scene.001"
		}
	],
	"nodes":[
		{
			"mesh":0,
			"name":"door-frame",
			"rotation":[
				0,
				-1,
				0,
				4.371138828673793e-08
			],
			"translation":[
				0,
				0.5,
				2.4602999687194824
			]
		},
		{
			"mesh":1,
			"name":"hinge-left-1-arm",
			"rotation":[
				0,
				-1,
				0,
				4.371139183945161e-08
			],
			"translation":[
				-1.199800729751587,
				0.32719892263412476,
				1.7722220420837402
			]
		},
		{
			"mesh":2,
			"name":"hinge-left-2-arm",
			"rotation":[
				0,
				-1,
				0,
				4.371138828673793e-08
			],
			"translation":[
				-1.0047056674957275,
				0.32719889283180237,
				1.9925568103790283
			]
		},
		{
			"mesh":3,
			"name":"door-left",
			"rotation":[
				0,
				-1,
				0,
				4.371138473402425e-08
			],
			"translation":[
				-0.5957047343254089,
				0.327197790145874,
				2.484905481338501
			]
		},
		{
			"mesh":4,
			"name":"hinge-right-1-arm",
			"rotation":[
				0,
				-1,
				0,
				4.371139183945161e-08
			],
			"translation":[
				1.1998023986816406,
				0.32719892263412476,
				1.7722258567810059
			]
		},
		{
			"mesh":5,
			"name":"hinge-right-2-arm",
			"rotation":[
				0,
				-1,
				0,
				4.371138828673793e-08
			],
			"translation":[
				1.004707932472229,
				0.32719889283180237,
				1.9925568103790283
			]
		},
		{
			"mesh":6,
			"name":"door-right",
			"rotation":[
				0,
				-1,
				0,
				4.371138828673793e-08
			],
			"translation":[
				0.5722739100456238,
				0.32719773054122925,
				2.484903335571289
			]
		}
	],
	"materials":[
		{
			"doubleSided":true,
			"name":"door",
			"pbrMetallicRoughness":{
				"baseColorFactor":[
					0.06372056156396866,
					0.06372056156396866,
					0.06372056156396866,
					1
				],
				"metallicFactor":0,
				"roughnessFactor":1
			}
		},
		{
			"doubleSided":true,
			"name":"hinge",
			"pbrMetallicRoughness":{
				"baseColorFactor":[
					0.800000011920929,
					0.800000011920929,
					0.800000011920929,
					1
				],
				"metallicFactor":1,
				"roughnessFactor":0
			}
		},
		{
			"doubleSided":true,
			"name":"screen",
			"pbrMetallicRoughness":{
				"baseColorFactor":[
					0,
					0,
					0,
					1
				],
				"metallicFactor":0,
				"roughnessFactor":1
			}
		},
		{
			"doubleSided":true,
			"name":"data-connector",
			"pbrMetallicRoughness":{
				"baseColorFactor":[
					0,
					0.026469435542821884,
					0.25979673862457275,
					1
				],
				"metallicFactor":1,
				"roughnessFactor":1
			}
		},
		{
			"doubleSided":true,
			"name":"lowvoltage-connector",
			"pbrMetallicRoughness":{
				"baseColorFactor":[
					0.46720191836357117,
					0.01223392691463232,
					0,
					1
				],
				"metallicFactor":1,
				"roughnessFactor":1
			}
		},
		{
			"alphaMode":"BLEND",
			"doubleSided":true,
			"extensions":{
				"KHR_materials_specular":{
					"specularColorFactor":[
						0,
						0,
						0
					]
				},
				"KHR_materials_ior":{
					"ior":1.4500000476837158
				}
			},
			"name":"Glass",
			"pbrMetallicRoughness":{
				"baseColorFactor":[
					0.6000000238418579,
					0.6499999761581421,
					0.75,
					0.4000000059604645
				],
				"metallicFactor":0,
				"roughnessFactor":0
			}
		}
	],
	"meshes":[
		{
			"name":"Cube.022",
			"primitives":[
				{
					"attributes":{
						"POSITION":0,
						"TEXCOORD_0":1,
						"NORMAL":2
					},
					"indices":3,
					"material":0
				},
				{
					"attributes":{
						"POSITION":4,
						"TEXCOORD_0":5,
						"NORMAL":6
					},
					"indices":7,
					"material":1
				},
				{
					"attributes":{
						"POSITION":8,
						"TEXCOORD_0":9,
						"NORMAL":10
					},
					"indices":11,
					"material":2
				},
				{
					"attributes":{
						"POSITION":12,
						"TEXCOORD_0":13,
						"NORMAL":14
					},
					"indices":15,
					"material":3
				},
				{
					"attributes":{
						"POSITION":16,
						"TEXCOORD_0":17,
						"NORMAL":18
					},
					"indices":19,
					"material":4
				}
			]
		},
		{
			"name":"Cylinder.014",
			"primitives":[
				{
					"attributes":{
						"POSITION":20,
						"TEXCOORD_0":21,
						"NORMAL":22
					},
					"indices":23,
					"material":1
				}
			]
		},
		{
			"name":"Cylinder.013",
			"primitives":[
				{
					"attributes":{
						"POSITION":24,
						"TEXCOORD_0":25,
						"NORMAL":26
					},
					"indices":27,
					"material":1
				}
			]
		},
		{
			"name":"Cube.021",
			"primitives":[
				{
					"attributes":{
						"POSITION":28,
						"TEXCOORD_0":29,
						"NORMAL":30
					},
					"indices":31,
					"material":0
				},
				{
					"attributes":{
						"POSITION":32,
						"TEXCOORD_0":33,
						"NORMAL":34
					},
					"indices":35,
					"material":5
				},
				{
					"attributes":{
						"POSITION":36,
						"TEXCOORD_0":37,
						"NORMAL":38
					},
					"indices":39,
					"material":1
				}
			]
		},
		{
			"name":"Cylinder.016",
			"primitives":[
				{
					"attributes":{
						"POSITION":40,
						"TEXCOORD_0":41,
						"NORMAL":42
					},
					"indices":23,
					"material":1
				}
			]
		},
		{
			"name":"Cylinder.017",
			"primitives":[
				{
					"attributes":{
						"POSITION":43,
						"TEXCOORD_0":44,
						"NORMAL":45
					},
					"indices":46,
					"material":1
				}
			]
		},
		{
			"name":"Cube.023",
			"primitives":[
				{
					"attributes":{
						"POSITION":47,
						"TEXCOORD_0":48,
						"NORMAL":49
					},
					"indices":50,
					"material":0
				},
				{
					"attributes":{
						"POSITION":51,
						"TEXCOORD_0":52,
						"NORMAL":53
					},
					"indices":35,
					"material":5
				},
				{
					"attributes":{
						"POSITION":54,
						"TEXCOORD_0":55,
						"NORMAL":56
					},
					"indices":57,
					"material":1
				}
			]
		}
	],
	"accessors":[
		{
			"bufferView":0,
			"componentType":5126,
			"count":2693,
			"max":[
				1.4000000953674316,
				1.399999976158142,
				1.024025321006775
			],
			"min":[
				-1.4000000953674316,
				-1.399999976158142,
				-0.09851080179214478
			],
			"type":"VEC3"
		},
		{
			"bufferView":1,
			"componentType":5126,
			"count":2693,
			"type":"VEC2"
		},
		{
			"bufferView":2,
			"componentType":5126,
			"count":2693,
			"type":"VEC3"
		},
		{
			"bufferView":3,
			"componentType":5123,
			"count":4209,
			"type":"SCALAR"
		},
		{
			"bufferView":4,
			"componentType":5126,
			"count":2102,
			"max":[
				1.2509845495224,
				1.0094188451766968,
				0.792635440826416
			],
			"min":[
				-1.2509812116622925,
				-1.0096322298049927,
				0.5907474160194397
			],
			"type":"VEC3"
		},
		{
			"bufferView":5,
			"componentType":5126,
			"count":2102,
			"type":"VEC2"
		},
		{
			"bufferView":6,
			"componentType":5126,
			"count":2102,
			"type":"VEC3"
		},
		{
			"bufferView":7,
			"componentType":5123,
			"count":4194,
			"type":"SCALAR"
		},
		{
			"bufferView":8,
			"componentType":5126,
			"count":16,
			"max":[
				1.2220525741577148,
				0.38655591011047363,
				1.0182214975357056
			],
			"min":[
				-1.222052812576294,
				0.13148991763591766,
				-0.07497715950012207
			],
			"type":"VEC3"
		},
		{
			"bufferView":9,
			"componentType":5126,
			"count":16,
			"type":"VEC2"
		},
		{
			"bufferView":10,
			"componentType":5126,
			"count":16,
			"type":"VEC3"
		},
		{
			"bufferView":11,
			"componentType":5123,
			"count":24,
			"type":"SCALAR"
		},
		{
			"bufferView":12,
			"componentType":5126,
			"count":556,
			"max":[
				1.2243410348892212,
				0.09183996915817261,
				1.0039018392562866
			],
			"min":[
				1.1646226644515991,
				0.07119102776050568,
				0.9441834688186646
			],
			"type":"VEC3"
		},
		{
			"bufferView":13,
			"componentType":5126,
			"count":556,
			"type":"VEC2"
		},
		{
			"bufferView":14,
			"componentType":5126,
			"count":556,
			"type":"VEC3"
		},
		{
			"bufferView":15,
			"componentType":5123,
			"count":1524,
			"type":"SCALAR"
		},
		{
			"bufferView":16,
			"componentType":5126,
			"count":289,
			"max":[
				-1.1682873964309692,
				0.0918399766087532,
				0.9975422620773315
			],
			"min":[
				-1.2295390367507935,
				0.07145962119102478,
				0.9362906217575073
			],
			"type":"VEC3"
		},
		{
			"bufferView":17,
			"componentType":5126,
			"count":289,
			"type":"VEC2"
		},
		{
			"bufferView":18,
			"componentType":5126,
			"count":289,
			"type":"VEC3"
		},
		{
			"bufferView":19,
			"componentType":5123,
			"count":933,
			"type":"SCALAR"
		},
		{
			"bufferView":20,
			"componentType":5126,
			"count":1500,
			"max":[
				0.02995981276035309,
				1.180552363395691,
				0.02995981276035309
			],
			"min":[
				-0.21945056319236755,
				-0.8356200456619263,
				-0.24385912716388702
			],
			"type":"VEC3"
		},
		{
			"bufferView":21,
			"componentType":5126,
			"count":1500,
			"type":"VEC2"
		},
		{
			"bufferView":22,
			"componentType":5126,
			"count":1500,
			"type":"VEC3"
		},
		{
			"bufferView":23,
			"componentType":5123,
			"count":3120,
			"type":"SCALAR"
		},
		{
			"bufferView":24,
			"componentType":5126,
			"count":382,
			"max":[
				0.02606271207332611,
				1.1747044324874878,
				0.05853040888905525
			],
			"min":[
				-0.43480560183525085,
				-0.8297044634819031,
				-0.48700377345085144
			],
			"type":"VEC3"
		},
		{
			"bufferView":25,
			"componentType":5126,
			"count":382,
			"type":"VEC2"
		},
		{
			"bufferView":26,
			"componentType":5126,
			"count":382,
			"type":"VEC3"
		},
		{
			"bufferView":27,
			"componentType":5123,
			"count":1182,
			"type":"SCALAR"
		},
		{
			"bufferView":28,
			"componentType":5126,
			"count":656,
			"max":[
				0.39328211545944214,
				1.4021410942077637,
				3.150614418245823e-07
			],
			"min":[
				-0.6032820343971252,
				-1.056661605834961,
				-0.06711914390325546
			],
			"type":"VEC3"
		},
		{
			"bufferView":29,
			"componentType":5126,
			"count":656,
			"type":"VEC2"
		},
		{
			"bufferView":30,
			"componentType":5126,
			"count":656,
			"type":"VEC3"
		},
		{
			"bufferView":31,
			"componentType":5123,
			"count":1596,
			"type":"SCALAR"
		},
		{
			"bufferView":32,
			"componentType":5126,
			"count":72,
			"max":[
				0.2618906497955322,
				0.8960494995117188,
				-0.01729053258895874
			],
			"min":[
				-0.48953723907470703,
				0.34500226378440857,
				-0.05306321382522583
			],
			"type":"VEC3"
		},
		{
			"bufferView":33,
			"componentType":5126,
			"count":72,
			"type":"VEC2"
		},
		{
			"bufferView":34,
			"componentType":5126,
			"count":72,
			"type":"VEC3"
		},
		{
			"bufferView":35,
			"componentType":5123,
			"count":204,
			"type":"SCALAR"
		},
		{
			"bufferView":36,
			"componentType":5126,
			"count":484,
			"max":[
				0.08642491698265076,
				1.1720998287200928,
				0.045847900211811066
			],
			"min":[
				-0.16216371953487396,
				-0.8273085355758667,
				-0.002550732111558318
			],
			"type":"VEC3"
		},
		{
			"bufferView":37,
			"componentType":5126,
			"count":484,
			"type":"VEC2"
		},
		{
			"bufferView":38,
			"componentType":5126,
			"count":484,
			"type":"VEC3"
		},
		{
			"bufferView":39,
			"componentType":5123,
			"count":1392,
			"type":"SCALAR"
		},
		{
			"bufferView":40,
			"componentType":5126,
			"count":1500,
			"max":[
				0.2194501757621765,
				1.1806200742721558,
				0.02995981276035309
			],
			"min":[
				-0.029959820210933685,
				-0.8355523347854614,
				-0.2438594549894333
			],
			"type":"VEC3"
		},
		{
			"bufferView":41,
			"componentType":5126,
			"count":1500,
			"type":"VEC2"
		},
		{
			"bufferView":42,
			"componentType":5126,
			"count":1500,
			"type":"VEC3"
		},
		{
			"bufferView":43,
			"componentType":5126,
			"count":372,
			"max":[
				0.43480515480041504,
				1.1747044324874878,
				0.05657501518726349
			],
			"min":[
				-0.02606271579861641,
				-0.8297044634819031,
				-0.4870041608810425
			],
			"type":"VEC3"
		},
		{
			"bufferView":44,
			"componentType":5126,
			"count":372,
			"type":"VEC2"
		},
		{
			"bufferView":45,
			"componentType":5126,
			"count":372,
			"type":"VEC3"
		},
		{
			"bufferView":46,
			"componentType":5123,
			"count":1176,
			"type":"SCALAR"
		},
		{
			"bufferView":47,
			"componentType":5126,
			"count":634,
			"max":[
				0.5697539448738098,
				1.4021413326263428,
				8.971491638476436e-08
			],
			"min":[
				-0.4167199730873108,
				-1.0566614866256714,
				-0.06711972504854202
			],
			"type":"VEC3"
		},
		{
			"bufferView":48,
			"componentType":5126,
			"count":634,
			"type":"VEC2"
		},
		{
			"bufferView":49,
			"componentType":5126,
			"count":634,
			"type":"VEC3"
		},
		{
			"bufferView":50,
			"componentType":5123,
			"count":1602,
			"type":"SCALAR"
		},
		{
			"bufferView":51,
			"componentType":5126,
			"count":72,
			"max":[
				0.4660997986793518,
				0.8960493206977844,
				-0.01729561574757099
			],
			"min":[
				-0.28532811999320984,
				0.3450022041797638,
				-0.05306852608919144
			],
			"type":"VEC3"
		},
		{
			"bufferView":52,
			"componentType":5126,
			"count":72,
			"type":"VEC2"
		},
		{
			"bufferView":53,
			"componentType":5126,
			"count":72,
			"type":"VEC3"
		},
		{
			"bufferView":54,
			"componentType":5126,
			"count":487,
			"max":[
				0.138727605342865,
				1.1723088026046753,
				0.04584268108010292
			],
			"min":[
				-0.10986105352640152,
				-0.8270995616912842,
				-0.002556033432483673
			],
			"type":"VEC3"
		},
		{
			"bufferView":55,
			"componentType":5126,
			"count":487,
			"type":"VEC2"
		},
		{
			"bufferView":56,
			"componentType":5126,
			"count":487,
			"type":"VEC3"
		},
		{
			"bufferView":57,
			"componentType":5123,
			"count":1404,
			"type":"SCALAR"
		}
	],
	"bufferViews":[
		{
			"buffer":0,
			"byteLength":32316,
			"byteOffset":0,
			"target":34962
		},
		{
			"buffer":0,
			"byteLength":21544,
			"byteOffset":32316,
			"target":34962
		},
		{
			"buffer":0,
			"byteLength":32316,
			"byteOffset":53860,
			"target":34962
		},
		{
			"buffer":0,
			"byteLength":8418,
			"byteOffset":86176,
			"target":34963
		},
		{
			"buffer":0,
			"byteLength":25224,
			"byteOffset":94596,
			"target":34962
		},
		{
			"buffer":0,
			"byteLength":16816,
			"byteOffset":119820,
			"target":34962
		},
		{
			"buffer":0,
			"byteLength":25224,
			"byteOffset":136636,
			"target":34962
		},
		{
			"buffer":0,
			"byteLength":8388,
			"byteOffset":161860,
			"target":34963
		},
		{
			"buffer":0,
			"byteLength":192,
			"byteOffset":170248,
			"target":34962
		},
		{
			"buffer":0,
			"byteLength":128,
			"byteOffset":170440,
			"target":34962
		},
		{
			"buffer":0,
			"byteLength":192,
			"byteOffset":170568,
			"target":34962
		},
		{
			"buffer":0,
			"byteLength":48,
			"byteOffset":170760,
			"target":34963
		},
		{
			"buffer":0,
			"byteLength":6672,
			"byteOffset":170808,
			"target":34962
		},
		{
			"buffer":0,
			"byteLength":4448,
			"byteOffset":177480,
			"target":34962
		},
		{
			"buffer":0,
			"byteLength":6672,
			"byteOffset":181928,
			"target":34962
		},
		{
			"buffer":0,
			"byteLength":3048,
			"byteOffset":188600,
			"target":34963
		},
		{
			"buffer":0,
			"byteLength":3468,
			"byteOffset":191648,
			"target":34962
		},
		{
			"buffer":0,
			"byteLength":2312,
			"byteOffset":195116,
			"target":34962
		},
		{
			"buffer":0,
			"byteLength":3468,
			"byteOffset":197428,
			"target":34962
		},
		{
			"buffer":0,
			"byteLength":1866,
			"byteOffset":200896,
			"target":34963
		},
		{
			"buffer":0,
			"byteLength":18000,
			"byteOffset":202764,
			"target":34962
		},
		{
			"buffer":0,
			"byteLength":12000,
			"byteOffset":220764,
			"target":34962
		},
		{
			"buffer":0,
			"byteLength":18000,
			"byteOffset":232764,
			"target":34962
		},
		{
			"buffer":0,
			"byteLength":6240,
			"byteOffset":250764,
			"target":34963
		},
		{
			"buffer":0,
			"byteLength":4584,
			"byteOffset":257004,
			"target":34962
		},
		{
			"buffer":0,
			"byteLength":3056,
			"byteOffset":261588,
			"target":34962
		},
		{
			"buffer":0,
			"byteLength":4584,
			"byteOffset":264644,
			"target":34962
		},
		{
			"buffer":0,
			"byteLength":2364,
			"byteOffset":269228,
			"target":34963
		},
		{
			"buffer":0,
			"byteLength":7872,
			"byteOffset":271592,
			"target":34962
		},
		{
			"buffer":0,
			"byteLength":5248,
			"byteOffset":279464,
			"target":34962
		},
		{
			"buffer":0,
			"byteLength":7872,
			"byteOffset":284712,
			"target":34962
		},
		{
			"buffer":0,
			"byteLength":3192,
			"byteOffset":292584,
			"target":34963
		},
		{
			"buffer":0,
			"byteLength":864,
			"byteOffset":295776,
			"target":34962
		},
		{
			"buffer":0,
			"byteLength":576,
			"byteOffset":296640,
			"target":34962
		},
		{
			"buffer":0,
			"byteLength":864,
			"byteOffset":297216,
			"target":34962
		},
		{
			"buffer":0,
			"byteLength":408,
			"byteOffset":298080,
			"target":34963
		},
		{
			"buffer":0,
			"byteLength":5808,
			"byteOffset":298488,
			"target":34962
		},
		{
			"buffer":0,
			"byteLength":3872,
			"byteOffset":304296,
			"target":34962
		},
		{
			"buffer":0,
			"byteLength":5808,
			"byteOffset":308168,
			"target":34962
		},
		{
			"buffer":0,
			"byteLength":2784,
			"byteOffset":313976,
			"target":34963
		},
		{
			"buffer":0,
			"byteLength":18000,
			"byteOffset":316760,
			"target":34962
		},
		{
			"buffer":0,
			"byteLength":12000,
			"byteOffset":334760,
			"target":34962
		},
		{
			"buffer":0,
			"byteLength":18000,
			"byteOffset":346760,
			"target":34962
		},
		{
			"buffer":0,
			"byteLength":4464,
			"byteOffset":364760,
			"target":34962
		},
		{
			"buffer":0,
			"byteLength":2976,
			"byteOffset":369224,
			"target":34962
		},
		{
			"buffer":0,
			"byteLength":4464,
			"byteOffset":372200,
			"target":34962
		},
		{
			"buffer":0,
			"byteLength":2352,
			"byteOffset":376664,
			"target":34963
		},
		{
			"buffer":0,
			"byteLength":7608,
			"byteOffset":379016,
			"target":34962
		},
		{
			"buffer":0,
			"byteLength":5072,
			"byteOffset":386624,
			"target":34962
		},
		{
			"buffer":0,
			"byteLength":7608,
			"byteOffset":391696,
			"target":34962
		},
		{
			"buffer":0,
			"byteLength":3204,
			"byteOffset":399304,
			"target":34963
		},
		{
			"buffer":0,
			"byteLength":864,
			"byteOffset":402508,
			"target":34962
		},
		{
			"buffer":0,
			"byteLength":576,
			"byteOffset":403372,
			"target":34962
		},
		{
			"buffer":0,
			"byteLength":864,
			"byteOffset":403948,
			"target":34962
		},
		{
			"buffer":0,
			"byteLength":5844,
			"byteOffset":404812,
			"target":34962
		},
		{
			"buffer":0,
			"byteLength":3896,
			"byteOffset":410656,
			"target":34962
		},
		{
			"buffer":0,
			"byteLength":5844,
			"byteOffset":414552,
			"target":34962
		},
		{
			"buffer":0,
			"byteLength":2808,
			"byteOffset":420396,
			"target":34963
		}
	],
	"buffers":[
		{
			"byteLength":423204,
			"uri":"Door.bin"
		}
	]
}
