{
	"asset":{
		"generator":"Khronos glTF Blender I/O v3.6.6",
		"version":"2.0"
	},
	"scene":0,
	"scenes":[
		{
			"name":"Scene",
			"nodes":[
				0,
				1
			]
		}
	],
	"nodes":[
		{
			"mesh":0,
			"name":"prop",
			"rotation":[
				-0.7003151178359985,
				0.0977904424071312,
				-0.09776844084262848,
				0.7003121376037598
			],
			"translation":[
				0,
				0,
				-0.46040794253349304
			]
		},
		{
			"mesh":1,
			"name":"Base"
		}
	],
	"materials":[
		{
			"doubleSided":true,
			"name":"props.001",
			"pbrMetallicRoughness":{
				"baseColorFactor":[
					0.6382716298103333,
					0.6382716298103333,
					0.6382716298103333,
					1
				],
				"metallicFactor":1,
				"roughnessFactor":1
			}
		},
		{
			"doubleSided":true,
			"name":"color1",
			"pbrMetallicRoughness":{
				"baseColorFactor":[
					1,
					1,
					1,
					1
				],
				"metallicFactor":0,
				"roughnessFactor":0
			}
		},
		{
			"doubleSided":true,
			"name":"data-connector",
			"pbrMetallicRoughness":{
				"baseColorFactor":[
					0,
					0.05000007152557373,
					0.5,
					1
				],
				"metallicFactor":1,
				"roughnessFactor":1
			}
		},
		{
			"doubleSided":true,
			"name":"lv-connector",
			"pbrMetallicRoughness":{
				"baseColorFactor":[
					0.5,
					0,
					0,
					1
				],
				"metallicFactor":1,
				"roughnessFactor":1
			}
		},
		{
			"doubleSided":true,
			"name":"body",
			"pbrMetallicRoughness":{
				"baseColorFactor":[
					0.009999999776482582,
					0.009999999776482582,
					0.009999999776482582,
					1
				],
				"metallicFactor":0,
				"roughnessFactor":1
			}
		},
		{
			"doubleSided":true,
			"name":"hv-connector",
			"pbrMetallicRoughness":{
				"baseColorFactor":[
					0.5,
					0.1499999761581421,
					0,
					1
				],
				"metallicFactor":1,
				"roughnessFactor":1
			}
		},
		{
			"doubleSided":true,
			"name":"bolt",
			"pbrMetallicRoughness":{
				"baseColorFactor":[
					1,
					1,
					1,
					1
				],
				"metallicFactor":1,
				"roughnessFactor":0
			}
		}
	],
	"meshes":[
		{
			"name":"Cylinder.002",
			"primitives":[
				{
					"attributes":{
						"POSITION":0,
						"NORMAL":1
					},
					"indices":2,
					"material":0
				}
			]
		},
		{
			"name":"Cube",
			"primitives":[
				{
					"attributes":{
						"POSITION":3,
						"NORMAL":4
					},
					"indices":5,
					"material":1
				},
				{
					"attributes":{
						"POSITION":6,
						"NORMAL":7
					},
					"indices":8,
					"material":2
				},
				{
					"attributes":{
						"POSITION":9,
						"NORMAL":10
					},
					"indices":11,
					"material":3
				},
				{
					"attributes":{
						"POSITION":12,
						"NORMAL":13
					},
					"indices":14,
					"material":4
				},
				{
					"attributes":{
						"POSITION":15,
						"NORMAL":16
					},
					"indices":17,
					"material":5
				},
				{
					"attributes":{
						"POSITION":18,
						"NORMAL":19
					},
					"indices":20,
					"material":6
				}
			]
		}
	],
	"accessors":[
		{
			"bufferView":0,
			"componentType":5126,
			"count":2824,
			"max":[
				0.8797042965888977,
				0.09417165815830231,
				0.8797035813331604
			],
			"min":[
				-0.8797017931938171,
				-0.12219960987567902,
				-0.8797028064727783
			],
			"type":"VEC3"
		},
		{
			"bufferView":1,
			"componentType":5126,
			"count":2824,
			"type":"VEC3"
		},
		{
			"bufferView":2,
			"componentType":5123,
			"count":13824,
			"type":"SCALAR"
		},
		{
			"bufferView":3,
			"componentType":5126,
			"count":96,
			"max":[
				0.25,
				0.25,
				0.25
			],
			"min":[
				-0.25,
				-0.25,
				-0.25
			],
			"type":"VEC3"
		},
		{
			"bufferView":4,
			"componentType":5126,
			"count":96,
			"type":"VEC3"
		},
		{
			"bufferView":5,
			"componentType":5123,
			"count":132,
			"type":"SCALAR"
		},
		{
			"bufferView":6,
			"componentType":5126,
			"count":376,
			"max":[
				-0.04014082998037338,
				0.2706489562988281,
				0.02985917031764984
			],
			"min":[
				-0.09985917061567307,
				0.25,
				-0.02985917031764984
			],
			"type":"VEC3"
		},
		{
			"bufferView":7,
			"componentType":5126,
			"count":376,
			"type":"VEC3"
		},
		{
			"bufferView":8,
			"componentType":5123,
			"count":1020,
			"type":"SCALAR"
		},
		{
			"bufferView":9,
			"componentType":5126,
			"count":312,
			"max":[
				0.09062585234642029,
				0.2703803479671478,
				0.030625849962234497
			],
			"min":[
				0.029374148696660995,
				0.24999992549419403,
				-0.030625849962234497
			],
			"type":"VEC3"
		},
		{
			"bufferView":10,
			"componentType":5126,
			"count":312,
			"type":"VEC3"
		},
		{
			"bufferView":11,
			"componentType":5123,
			"count":996,
			"type":"SCALAR"
		},
		{
			"bufferView":12,
			"componentType":5126,
			"count":768,
			"max":[
				0.2128157764673233,
				0.2128157913684845,
				-0.24488526582717896
			],
			"min":[
				-0.21280741691589355,
				-0.21280741691589355,
				-0.6179237365722656
			],
			"type":"VEC3"
		},
		{
			"bufferView":13,
			"componentType":5126,
			"count":768,
			"type":"VEC3"
		},
		{
			"bufferView":14,
			"componentType":5123,
			"count":2292,
			"type":"SCALAR"
		},
		{
			"bufferView":15,
			"componentType":5126,
			"count":696,
			"max":[
				0.07035043835639954,
				0.2917194664478302,
				0.19535043835639954
			],
			"min":[
				-0.07035043835639954,
				0.25000014901161194,
				0.054649561643600464
			],
			"type":"VEC3"
		},
		{
			"bufferView":16,
			"componentType":5126,
			"count":696,
			"type":"VEC3"
		},
		{
			"bufferView":17,
			"componentType":5123,
			"count":2148,
			"type":"SCALAR"
		},
		{
			"bufferView":18,
			"componentType":5126,
			"count":70,
			"max":[
				0.03966307267546654,
				0.03888847306370735,
				-0.539607048034668
			],
			"min":[
				-0.03966103866696358,
				-0.03888820484280586,
				-0.5738444924354553
			],
			"type":"VEC3"
		},
		{
			"bufferView":19,
			"componentType":5126,
			"count":70,
			"type":"VEC3"
		},
		{
			"bufferView":20,
			"componentType":5123,
			"count":204,
			"type":"SCALAR"
		}
	],
	"bufferViews":[
		{
			"buffer":0,
			"byteLength":33888,
			"byteOffset":0,
			"target":34962
		},
		{
			"buffer":0,
			"byteLength":33888,
			"byteOffset":33888,
			"target":34962
		},
		{
			"buffer":0,
			"byteLength":27648,
			"byteOffset":67776,
			"target":34963
		},
		{
			"buffer":0,
			"byteLength":1152,
			"byteOffset":95424,
			"target":34962
		},
		{
			"buffer":0,
			"byteLength":1152,
			"byteOffset":96576,
			"target":34962
		},
		{
			"buffer":0,
			"byteLength":264,
			"byteOffset":97728,
			"target":34963
		},
		{
			"buffer":0,
			"byteLength":4512,
			"byteOffset":97992,
			"target":34962
		},
		{
			"buffer":0,
			"byteLength":4512,
			"byteOffset":102504,
			"target":34962
		},
		{
			"buffer":0,
			"byteLength":2040,
			"byteOffset":107016,
			"target":34963
		},
		{
			"buffer":0,
			"byteLength":3744,
			"byteOffset":109056,
			"target":34962
		},
		{
			"buffer":0,
			"byteLength":3744,
			"byteOffset":112800,
			"target":34962
		},
		{
			"buffer":0,
			"byteLength":1992,
			"byteOffset":116544,
			"target":34963
		},
		{
			"buffer":0,
			"byteLength":9216,
			"byteOffset":118536,
			"target":34962
		},
		{
			"buffer":0,
			"byteLength":9216,
			"byteOffset":127752,
			"target":34962
		},
		{
			"buffer":0,
			"byteLength":4584,
			"byteOffset":136968,
			"target":34963
		},
		{
			"buffer":0,
			"byteLength":8352,
			"byteOffset":141552,
			"target":34962
		},
		{
			"buffer":0,
			"byteLength":8352,
			"byteOffset":149904,
			"target":34962
		},
		{
			"buffer":0,
			"byteLength":4296,
			"byteOffset":158256,
			"target":34963
		},
		{
			"buffer":0,
			"byteLength":840,
			"byteOffset":162552,
			"target":34962
		},
		{
			"buffer":0,
			"byteLength":840,
			"byteOffset":163392,
			"target":34962
		},
		{
			"buffer":0,
			"byteLength":408,
			"byteOffset":164232,
			"target":34963
		}
	],
	"buffers":[
		{
			"byteLength":164640,
			"uri":"Propeller.bin"
		}
	]
}
