{
	"asset":{
		"generator":"Khronos glTF Blender I/O v4.0.44",
		"version":"2.0"
	},
	"scene":0,
	"scenes":[
		{
			"name":"Scene",
			"nodes":[
				0
			]
		}
	],
	"nodes":[
		{
			"mesh":0,
			"name":"Cube"
		}
	],
	"materials":[
		{
			"doubleSided":true,
			"name":"color1",
			"pbrMetallicRoughness":{
				"baseColorFactor":[
					1,
					1,
					1,
					1
				],
				"metallicFactor":0,
				"roughnessFactor":0
			}
		},
		{
			"doubleSided":true,
			"name":"body",
			"pbrMetallicRoughness":{
				"baseColorFactor":[
					0,
					0,
					0,
					1
				],
				"metallicFactor":0,
				"roughnessFactor":0
			}
		},
		{
			"doubleSided":true,
			"name":"color2",
			"pbrMetallicRoughness":{
				"baseColorFactor":[
					0.800000011920929,
					0.800000011920929,
					0.800000011920929,
					1
				],
				"metallicFactor":1,
				"roughnessFactor":1
			}
		},
		{
			"doubleSided":true,
			"name":"grid",
			"pbrMetallicRoughness":{
				"baseColorFactor":[
					0.800000011920929,
					0.800000011920929,
					0.800000011920929,
					1
				],
				"metallicFactor":1,
				"roughnessFactor":0
			}
		},
		{
			"doubleSided":true,
			"name":"data-connector",
			"pbrMetallicRoughness":{
				"baseColorFactor":[
					0,
					0.05000019073486328,
					0.5,
					1
				],
				"metallicFactor":1,
				"roughnessFactor":1
			}
		},
		{
			"doubleSided":true,
			"name":"body2",
			"pbrMetallicRoughness":{
				"baseColorFactor":[
					0.004038411192595959,
					0.004038411192595959,
					0.004038411192595959,
					1
				],
				"metallicFactor":0,
				"roughnessFactor":1
			}
		}
	],
	"meshes":[
		{
			"name":"Cube",
			"primitives":[
				{
					"attributes":{
						"POSITION":0,
						"NORMAL":1
					},
					"indices":2,
					"material":0
				},
				{
					"attributes":{
						"POSITION":3,
						"NORMAL":4
					},
					"indices":5,
					"material":1
				},
				{
					"attributes":{
						"POSITION":6,
						"NORMAL":7
					},
					"indices":8,
					"material":2
				},
				{
					"attributes":{
						"POSITION":9,
						"NORMAL":10
					},
					"indices":11,
					"material":3
				},
				{
					"attributes":{
						"POSITION":12,
						"NORMAL":13
					},
					"indices":14,
					"material":4
				},
				{
					"attributes":{
						"POSITION":15,
						"NORMAL":16
					},
					"indices":17,
					"material":5
				}
			]
		}
	],
	"accessors":[
		{
			"bufferView":0,
			"componentType":5126,
			"count":1288,
			"max":[
				0.125,
				0.125,
				0.125
			],
			"min":[
				-0.125,
				-0.125,
				-0.125
			],
			"type":"VEC3"
		},
		{
			"bufferView":1,
			"componentType":5126,
			"count":1288,
			"type":"VEC3"
		},
		{
			"bufferView":2,
			"componentType":5123,
			"count":2316,
			"type":"SCALAR"
		},
		{
			"bufferView":3,
			"componentType":5126,
			"count":2089,
			"max":[
				0.1032155305147171,
				0.1032155454158783,
				-0.021784476935863495
			],
			"min":[
				-0.10321551561355591,
				-0.1032155454158783,
				-0.125
			],
			"type":"VEC3"
		},
		{
			"bufferView":4,
			"componentType":5126,
			"count":2089,
			"type":"VEC3"
		},
		{
			"bufferView":5,
			"componentType":5123,
			"count":12120,
			"type":"SCALAR"
		},
		{
			"bufferView":6,
			"componentType":5126,
			"count":1088,
			"max":[
				0.10588131844997406,
				0.10588131844997406,
				-0.1249999925494194
			],
			"min":[
				-0.10588131844997406,
				-0.10588131844997406,
				-0.129072368144989
			],
			"type":"VEC3"
		},
		{
			"bufferView":7,
			"componentType":5126,
			"count":1088,
			"type":"VEC3"
		},
		{
			"bufferView":8,
			"componentType":5123,
			"count":6144,
			"type":"SCALAR"
		},
		{
			"bufferView":9,
			"componentType":5126,
			"count":20056,
			"max":[
				0.10301165282726288,
				0.10312242060899734,
				-0.1199861615896225
			],
			"min":[
				-0.10301162302494049,
				-0.10312242060899734,
				-0.15607395768165588
			],
			"type":"VEC3"
		},
		{
			"bufferView":10,
			"componentType":5126,
			"count":20056,
			"type":"VEC3"
		},
		{
			"bufferView":11,
			"componentType":5123,
			"count":30456,
			"type":"SCALAR"
		},
		{
			"bufferView":12,
			"componentType":5126,
			"count":376,
			"max":[
				0.02985917031764984,
				-0.1249999850988388,
				0.02985917031764984
			],
			"min":[
				-0.02985917031764984,
				-0.14564895629882812,
				-0.02985917590558529
			],
			"type":"VEC3"
		},
		{
			"bufferView":13,
			"componentType":5126,
			"count":376,
			"type":"VEC3"
		},
		{
			"bufferView":14,
			"componentType":5123,
			"count":1020,
			"type":"SCALAR"
		},
		{
			"bufferView":15,
			"componentType":5126,
			"count":225,
			"max":[
				0.03443065658211708,
				0.03443066403269768,
				-0.020655812695622444
			],
			"min":[
				-0.03443063050508499,
				-0.03443066403269768,
				-0.07872976362705231
			],
			"type":"VEC3"
		},
		{
			"bufferView":16,
			"componentType":5126,
			"count":225,
			"type":"VEC3"
		},
		{
			"bufferView":17,
			"componentType":5123,
			"count":1176,
			"type":"SCALAR"
		}
	],
	"bufferViews":[
		{
			"buffer":0,
			"byteLength":15456,
			"byteOffset":0,
			"target":34962
		},
		{
			"buffer":0,
			"byteLength":15456,
			"byteOffset":15456,
			"target":34962
		},
		{
			"buffer":0,
			"byteLength":4632,
			"byteOffset":30912,
			"target":34963
		},
		{
			"buffer":0,
			"byteLength":25068,
			"byteOffset":35544,
			"target":34962
		},
		{
			"buffer":0,
			"byteLength":25068,
			"byteOffset":60612,
			"target":34962
		},
		{
			"buffer":0,
			"byteLength":24240,
			"byteOffset":85680,
			"target":34963
		},
		{
			"buffer":0,
			"byteLength":13056,
			"byteOffset":109920,
			"target":34962
		},
		{
			"buffer":0,
			"byteLength":13056,
			"byteOffset":122976,
			"target":34962
		},
		{
			"buffer":0,
			"byteLength":12288,
			"byteOffset":136032,
			"target":34963
		},
		{
			"buffer":0,
			"byteLength":240672,
			"byteOffset":148320,
			"target":34962
		},
		{
			"buffer":0,
			"byteLength":240672,
			"byteOffset":388992,
			"target":34962
		},
		{
			"buffer":0,
			"byteLength":60912,
			"byteOffset":629664,
			"target":34963
		},
		{
			"buffer":0,
			"byteLength":4512,
			"byteOffset":690576,
			"target":34962
		},
		{
			"buffer":0,
			"byteLength":4512,
			"byteOffset":695088,
			"target":34962
		},
		{
			"buffer":0,
			"byteLength":2040,
			"byteOffset":699600,
			"target":34963
		},
		{
			"buffer":0,
			"byteLength":2700,
			"byteOffset":701640,
			"target":34962
		},
		{
			"buffer":0,
			"byteLength":2700,
			"byteOffset":704340,
			"target":34962
		},
		{
			"buffer":0,
			"byteLength":2352,
			"byteOffset":707040,
			"target":34963
		}
	],
	"buffers":[
		{
			"byteLength":709392,
			"uri":"Buzzer.bin"
		}
	]
}
