{
	"asset":{
		"generator":"Khronos glTF Blender I/O v4.0.44",
		"version":"2.0"
	},
	"scene":0,
	"scenes":[
		{
			"name":"Scene",
			"nodes":[
				0
			]
		}
	],
	"nodes":[
		{
			"mesh":0,
			"name":"body"
		}
	],
	"materials":[
		{
			"doubleSided":true,
			"name":"color1",
			"pbrMetallicRoughness":{
				"baseColorFactor":[
					1,
					1,
					1,
					1
				],
				"metallicFactor":0,
				"roughnessFactor":0
			}
		},
		{
			"doubleSided":true,
			"name":"nozzle",
			"pbrMetallicRoughness":{
				"baseColorFactor":[
					0.009999999776482582,
					0.009999999776482582,
					0.009999999776482582,
					1
				],
				"metallicFactor":1,
				"roughnessFactor":1
			}
		},
		{
			"doubleSided":true,
			"name":"data-connector",
			"pbrMetallicRoughness":{
				"baseColorFactor":[
					0,
					0.05000007152557373,
					0.5,
					1
				],
				"metallicFactor":1,
				"roughnessFactor":1
			}
		},
		{
			"doubleSided":true,
			"name":"fluid-connector",
			"pbrMetallicRoughness":{
				"baseColorFactor":[
					0.5,
					0.5,
					0.5,
					1
				],
				"metallicFactor":1,
				"roughnessFactor":1
			}
		}
	],
	"meshes":[
		{
			"name":"Cube",
			"primitives":[
				{
					"attributes":{
						"POSITION":0,
						"NORMAL":1
					},
					"indices":2,
					"material":0
				},
				{
					"attributes":{
						"POSITION":3,
						"NORMAL":4
					},
					"indices":5,
					"material":1
				},
				{
					"attributes":{
						"POSITION":6,
						"NORMAL":7
					},
					"indices":8,
					"material":2
				},
				{
					"attributes":{
						"POSITION":9,
						"NORMAL":10
					},
					"indices":11,
					"material":3
				}
			]
		}
	],
	"accessors":[
		{
			"bufferView":0,
			"componentType":5126,
			"count":558,
			"max":[
				0.2565620541572571,
				0.15827347338199615,
				0.2565620541572571
			],
			"min":[
				-0.2565620541572571,
				-0.25999873876571655,
				-0.2565620541572571
			],
			"type":"VEC3"
		},
		{
			"bufferView":1,
			"componentType":5126,
			"count":558,
			"type":"VEC3"
		},
		{
			"bufferView":2,
			"componentType":5123,
			"count":2094,
			"type":"SCALAR"
		},
		{
			"bufferView":3,
			"componentType":5126,
			"count":960,
			"max":[
				0.23834319412708282,
				0.15827347338199615,
				0.23834317922592163
			],
			"min":[
				-0.23834319412708282,
				0.021602068096399307,
				-0.23834319412708282
			],
			"type":"VEC3"
		},
		{
			"bufferView":4,
			"componentType":5126,
			"count":960,
			"type":"VEC3"
		},
		{
			"bufferView":5,
			"componentType":5123,
			"count":2850,
			"type":"SCALAR"
		},
		{
			"bufferView":6,
			"componentType":5126,
			"count":376,
			"max":[
				0.22441455721855164,
				-0.25999879837036133,
				0.02985917031764984
			],
			"min":[
				0.16469621658325195,
				-0.28064775466918945,
				-0.02985917404294014
			],
			"type":"VEC3"
		},
		{
			"bufferView":7,
			"componentType":5126,
			"count":376,
			"type":"VEC3"
		},
		{
			"bufferView":8,
			"componentType":5123,
			"count":1020,
			"type":"SCALAR"
		},
		{
			"bufferView":9,
			"componentType":5126,
			"count":4608,
			"max":[
				0.13405945897102356,
				-0.25999853014945984,
				0.12489653378725052
			],
			"min":[
				-0.11573358625173569,
				-0.29783234000205994,
				-0.12489651888608932
			],
			"type":"VEC3"
		},
		{
			"bufferView":10,
			"componentType":5126,
			"count":4608,
			"type":"VEC3"
		},
		{
			"bufferView":11,
			"componentType":5123,
			"count":10812,
			"type":"SCALAR"
		}
	],
	"bufferViews":[
		{
			"buffer":0,
			"byteLength":6696,
			"byteOffset":0,
			"target":34962
		},
		{
			"buffer":0,
			"byteLength":6696,
			"byteOffset":6696,
			"target":34962
		},
		{
			"buffer":0,
			"byteLength":4188,
			"byteOffset":13392,
			"target":34963
		},
		{
			"buffer":0,
			"byteLength":11520,
			"byteOffset":17580,
			"target":34962
		},
		{
			"buffer":0,
			"byteLength":11520,
			"byteOffset":29100,
			"target":34962
		},
		{
			"buffer":0,
			"byteLength":5700,
			"byteOffset":40620,
			"target":34963
		},
		{
			"buffer":0,
			"byteLength":4512,
			"byteOffset":46320,
			"target":34962
		},
		{
			"buffer":0,
			"byteLength":4512,
			"byteOffset":50832,
			"target":34962
		},
		{
			"buffer":0,
			"byteLength":2040,
			"byteOffset":55344,
			"target":34963
		},
		{
			"buffer":0,
			"byteLength":55296,
			"byteOffset":57384,
			"target":34962
		},
		{
			"buffer":0,
			"byteLength":55296,
			"byteOffset":112680,
			"target":34962
		},
		{
			"buffer":0,
			"byteLength":21624,
			"byteOffset":167976,
			"target":34963
		}
	],
	"buffers":[
		{
			"byteLength":189600,
			"uri":"RCS.bin"
		}
	]
}
