{
	"asset":{
		"generator":"Khronos glTF Blender I/O v3.6.6",
		"version":"2.0"
	},
	"scene":0,
	"scenes":[
		{
			"name":"Scene",
			"nodes":[
				0,
				1
			]
		}
	],
	"nodes":[
		{
			"mesh":0,
			"name":"verrin",
			"rotation":[
				0,
				0.7071067094802856,
				0,
				0.7071068286895752
			],
			"translation":[
				0,
				0.47698020935058594,
				0
			]
		},
		{
			"mesh":1,
			"name":"base"
		}
	],
	"materials":[
		{
			"doubleSided":true,
			"name":"verrin",
			"pbrMetallicRoughness":{
				"baseColorFactor":[
					1,
					1,
					1,
					1
				],
				"metallicFactor":1,
				"roughnessFactor":0
			}
		},
		{
			"doubleSided":true,
			"name":"DrillBody",
			"pbrMetallicRoughness":{
				"baseColorFactor":[
					0.5,
					0.5,
					0.5,
					1
				],
				"metallicFactor":0,
				"roughnessFactor":1
			}
		},
		{
			"doubleSided":true,
			"name":"DrillTooth",
			"pbrMetallicRoughness":{
				"baseColorFactor":[
					0.8000000715255737,
					0.32306787371635437,
					0,
					1
				],
				"metallicFactor":1,
				"roughnessFactor":0
			}
		},
		{
			"doubleSided":true,
			"name":"body",
			"pbrMetallicRoughness":{
				"baseColorFactor":[
					0.009999999776482582,
					0.009999999776482582,
					0.009999999776482582,
					1
				],
				"metallicFactor":0,
				"roughnessFactor":1
			}
		},
		{
			"doubleSided":true,
			"name":"data-connector",
			"pbrMetallicRoughness":{
				"baseColorFactor":[
					0,
					0.05000007152557373,
					0.5,
					1
				],
				"metallicFactor":1,
				"roughnessFactor":1
			}
		},
		{
			"doubleSided":true,
			"name":"color1",
			"pbrMetallicRoughness":{
				"baseColorFactor":[
					1,
					1,
					1,
					1
				],
				"metallicFactor":0,
				"roughnessFactor":0
			}
		}
	],
	"meshes":[
		{
			"name":"Cylinder.001",
			"primitives":[
				{
					"attributes":{
						"POSITION":0,
						"NORMAL":1
					},
					"indices":2,
					"material":0
				},
				{
					"attributes":{
						"POSITION":3,
						"NORMAL":4
					},
					"indices":5,
					"material":1
				},
				{
					"attributes":{
						"POSITION":6,
						"NORMAL":7
					},
					"indices":8,
					"material":2
				}
			]
		},
		{
			"name":"Cube",
			"primitives":[
				{
					"attributes":{
						"POSITION":9,
						"NORMAL":10
					},
					"indices":11,
					"material":3
				},
				{
					"attributes":{
						"POSITION":12,
						"NORMAL":13
					},
					"indices":14,
					"material":4
				},
				{
					"attributes":{
						"POSITION":15,
						"NORMAL":16
					},
					"indices":17,
					"material":5
				}
			]
		}
	],
	"accessors":[
		{
			"bufferView":0,
			"componentType":5126,
			"count":256,
			"max":[
				0.08706627786159515,
				0.780239462852478,
				0.08706627786159515
			],
			"min":[
				-0.08706627786159515,
				-0.8524819612503052,
				-0.08706627786159515
			],
			"type":"VEC3"
		},
		{
			"bufferView":1,
			"componentType":5126,
			"count":256,
			"type":"VEC3"
		},
		{
			"bufferView":2,
			"componentType":5123,
			"count":756,
			"type":"SCALAR"
		},
		{
			"bufferView":3,
			"componentType":5126,
			"count":544,
			"max":[
				0.12902554869651794,
				-0.8291597366333008,
				0.12902523577213287
			],
			"min":[
				-0.12902554869651794,
				-1.1205153465270996,
				-0.12902586162090302
			],
			"type":"VEC3"
		},
		{
			"bufferView":4,
			"componentType":5126,
			"count":544,
			"type":"VEC3"
		},
		{
			"bufferView":5,
			"componentType":5123,
			"count":1242,
			"type":"SCALAR"
		},
		{
			"bufferView":6,
			"componentType":5126,
			"count":736,
			"max":[
				0.1293943226337433,
				-0.8642742037773132,
				0.12939400970935822
			],
			"min":[
				-0.1293943226337433,
				-1.1324701309204102,
				-0.12939463555812836
			],
			"type":"VEC3"
		},
		{
			"bufferView":7,
			"componentType":5126,
			"count":736,
			"type":"VEC3"
		},
		{
			"bufferView":8,
			"componentType":5123,
			"count":1056,
			"type":"SCALAR"
		},
		{
			"bufferView":9,
			"componentType":5126,
			"count":182,
			"max":[
				0.5,
				0.25,
				0.2500000298023224
			],
			"min":[
				-0.5,
				-0.6597662568092346,
				-0.2500000298023224
			],
			"type":"VEC3"
		},
		{
			"bufferView":10,
			"componentType":5126,
			"count":182,
			"type":"VEC3"
		},
		{
			"bufferView":11,
			"componentType":5123,
			"count":504,
			"type":"SCALAR"
		},
		{
			"bufferView":12,
			"componentType":5126,
			"count":376,
			"max":[
				-0.2701408267021179,
				0.2706489562988281,
				0.030792510136961937
			],
			"min":[
				-0.32985919713974,
				0.25,
				-0.028925834223628044
			],
			"type":"VEC3"
		},
		{
			"bufferView":13,
			"componentType":5126,
			"count":376,
			"type":"VEC3"
		},
		{
			"bufferView":14,
			"componentType":5123,
			"count":1020,
			"type":"SCALAR"
		},
		{
			"bufferView":15,
			"componentType":5126,
			"count":1226,
			"max":[
				0.13551241159439087,
				1.2859070301055908,
				0.13551241159439087
			],
			"min":[
				-0.13551241159439087,
				-0.3386934995651245,
				-0.13551241159439087
			],
			"type":"VEC3"
		},
		{
			"bufferView":16,
			"componentType":5126,
			"count":1226,
			"type":"VEC3"
		},
		{
			"bufferView":17,
			"componentType":5123,
			"count":3864,
			"type":"SCALAR"
		}
	],
	"bufferViews":[
		{
			"buffer":0,
			"byteLength":3072,
			"byteOffset":0,
			"target":34962
		},
		{
			"buffer":0,
			"byteLength":3072,
			"byteOffset":3072,
			"target":34962
		},
		{
			"buffer":0,
			"byteLength":1512,
			"byteOffset":6144,
			"target":34963
		},
		{
			"buffer":0,
			"byteLength":6528,
			"byteOffset":7656,
			"target":34962
		},
		{
			"buffer":0,
			"byteLength":6528,
			"byteOffset":14184,
			"target":34962
		},
		{
			"buffer":0,
			"byteLength":2484,
			"byteOffset":20712,
			"target":34963
		},
		{
			"buffer":0,
			"byteLength":8832,
			"byteOffset":23196,
			"target":34962
		},
		{
			"buffer":0,
			"byteLength":8832,
			"byteOffset":32028,
			"target":34962
		},
		{
			"buffer":0,
			"byteLength":2112,
			"byteOffset":40860,
			"target":34963
		},
		{
			"buffer":0,
			"byteLength":2184,
			"byteOffset":42972,
			"target":34962
		},
		{
			"buffer":0,
			"byteLength":2184,
			"byteOffset":45156,
			"target":34962
		},
		{
			"buffer":0,
			"byteLength":1008,
			"byteOffset":47340,
			"target":34963
		},
		{
			"buffer":0,
			"byteLength":4512,
			"byteOffset":48348,
			"target":34962
		},
		{
			"buffer":0,
			"byteLength":4512,
			"byteOffset":52860,
			"target":34962
		},
		{
			"buffer":0,
			"byteLength":2040,
			"byteOffset":57372,
			"target":34963
		},
		{
			"buffer":0,
			"byteLength":14712,
			"byteOffset":59412,
			"target":34962
		},
		{
			"buffer":0,
			"byteLength":14712,
			"byteOffset":74124,
			"target":34962
		},
		{
			"buffer":0,
			"byteLength":7728,
			"byteOffset":88836,
			"target":34963
		}
	],
	"buffers":[
		{
			"byteLength":96564,
			"uri":"GroundAnchor.bin"
		}
	]
}
