{
	"asset":{
		"generator":"Khronos glTF Blender I/O v4.3.47",
		"version":"2.0"
	},
	"scene":0,
	"scenes":[
		{
			"name":"Scene",
			"nodes":[
				0
			]
		}
	],
	"nodes":[
		{
			"mesh":0,
			"name":"base",
			"rotation":[
				0.5,
				0.5,
				-0.5,
				0.5
			]
		}
	],
	"materials":[
		{
			"doubleSided":true,
			"name":"color2",
			"pbrMetallicRoughness":{
				"baseColorFactor":[
					0.800000011920929,
					0.800000011920929,
					0.800000011920929,
					1
				]
			}
		},
		{
			"doubleSided":true,
			"name":"fluid",
			"pbrMetallicRoughness":{
				"baseColorFactor":[
					0.5,
					0.5,
					0.5,
					1
				]
			}
		}
	],
	"meshes":[
		{
			"name":"Cube.001",
			"primitives":[
				{
					"attributes":{
						"POSITION":0,
						"NORMAL":1
					},
					"indices":2,
					"material":0
				},
				{
					"attributes":{
						"POSITION":3,
						"NORMAL":4
					},
					"indices":5,
					"material":1
				}
			]
		}
	],
	"accessors":[
		{
			"bufferView":0,
			"componentType":5126,
			"count":56,
			"max":[
				0.5,
				0.125,
				0.125
			],
			"min":[
				-0.5,
				-0.1250000298023224,
				-0.125
			],
			"type":"VEC3"
		},
		{
			"bufferView":1,
			"componentType":5126,
			"count":56,
			"type":"VEC3"
		},
		{
			"bufferView":2,
			"componentType":5123,
			"count":132,
			"type":"SCALAR"
		},
		{
			"bufferView":3,
			"componentType":5126,
			"count":23040,
			"max":[
				0.4998965263366699,
				0.16283351182937622,
				0.12489652633666992
			],
			"min":[
				-0.4998965263366699,
				-0.1628335416316986,
				-0.12489653378725052
			],
			"type":"VEC3"
		},
		{
			"bufferView":4,
			"componentType":5126,
			"count":23040,
			"type":"VEC3"
		},
		{
			"bufferView":5,
			"componentType":5123,
			"count":54060,
			"type":"SCALAR"
		}
	],
	"bufferViews":[
		{
			"buffer":0,
			"byteLength":672,
			"byteOffset":0,
			"target":34962
		},
		{
			"buffer":0,
			"byteLength":672,
			"byteOffset":672,
			"target":34962
		},
		{
			"buffer":0,
			"byteLength":264,
			"byteOffset":1344,
			"target":34963
		},
		{
			"buffer":0,
			"byteLength":276480,
			"byteOffset":1608,
			"target":34962
		},
		{
			"buffer":0,
			"byteLength":276480,
			"byteOffset":278088,
			"target":34962
		},
		{
			"buffer":0,
			"byteLength":108120,
			"byteOffset":554568,
			"target":34963
		}
	],
	"buffers":[
		{
			"byteLength":662688,
			"uri":"FluidJunction.bin"
		}
	]
}
