{
	"asset":{
		"generator":"Khronos glTF Blender I/O v4.3.47",
		"version":"2.0"
	},
	"scene":0,
	"scenes":[
		{
			"name":"grouped",
			"nodes":[
				0,
				1
			]
		}
	],
	"nodes":[
		{
			"mesh":0,
			"name":"base"
		},
		{
			"mesh":1,
			"name":"head",
			"translation":[
				0,
				0.2935706675052643,
				0.004358560778200626
			]
		}
	],
	"materials":[
		{
			"doubleSided":true,
			"name":"color1",
			"pbrMetallicRoughness":{
				"metallicFactor":0,
				"roughnessFactor":0
			}
		},
		{
			"doubleSided":true,
			"name":"color 1",
			"pbrMetallicRoughness":{
				"roughnessFactor":0
			}
		},
		{
			"doubleSided":true,
			"name":"color 2",
			"pbrMetallicRoughness":{
				"baseColorFactor":[
					0.800000011920929,
					0.800000011920929,
					0.800000011920929,
					1
				],
				"metallicFactor":0
			}
		},
		{
			"doubleSided":true,
			"name":"color 3",
			"pbrMetallicRoughness":{
				"baseColorFactor":[
					0.16447602212429047,
					0.16447602212429047,
					0.16447602212429047,
					1
				],
				"metallicFactor":0
			}
		},
		{
			"doubleSided":true,
			"name":"led",
			"pbrMetallicRoughness":{
				"baseColorFactor":[
					0.044756121933460236,
					0.06908376514911652,
					0.0751311182975769,
					1
				],
				"metallicFactor":0
			}
		},
		{
			"doubleSided":true,
			"name":"metal trim",
			"pbrMetallicRoughness":{
				"roughnessFactor":0
			}
		},
		{
			"doubleSided":true,
			"name":"void",
			"pbrMetallicRoughness":{
				"baseColorFactor":[
					0,
					0,
					0,
					1
				],
				"metallicFactor":0,
				"roughnessFactor":0
			}
		},
		{
			"doubleSided":true,
			"name":"seat",
			"pbrMetallicRoughness":{
				"metallicFactor":0
			}
		},
		{
			"doubleSided":true,
			"name":"Toilet",
			"pbrMetallicRoughness":{
				"metallicFactor":0,
				"roughnessFactor":0
			}
		},
		{
			"doubleSided":true,
			"name":"metal",
			"pbrMetallicRoughness":{
				"roughnessFactor":0
			}
		},
		{
			"doubleSided":true,
			"name":"helmet glass IOR 1.0",
			"pbrMetallicRoughness":{
				"baseColorFactor":[
					0.42594966292381287,
					0.40071195363998413,
					0.36232790350914,
					1
				],
				"roughnessFactor":0
			}
		},
		{
			"doubleSided":true,
			"name":"helmet glass contour IOR 1.5",
			"pbrMetallicRoughness":{
				"baseColorFactor":[
					0.13788658380508423,
					0.1301037073135376,
					0.11823929846286774,
					1
				],
				"roughnessFactor":0
			}
		}
	],
	"meshes":[
		{
			"name":"Cube.004",
			"primitives":[
				{
					"attributes":{
						"POSITION":0,
						"NORMAL":1,
						"COLOR_0":2,
						"COLOR_1":3
					},
					"indices":4,
					"material":0
				},
				{
					"attributes":{
						"POSITION":5,
						"NORMAL":6,
						"COLOR_0":7,
						"COLOR_1":8
					},
					"indices":9,
					"material":1
				},
				{
					"attributes":{
						"POSITION":10,
						"NORMAL":11,
						"COLOR_0":12,
						"COLOR_1":13
					},
					"indices":14,
					"material":2
				},
				{
					"attributes":{
						"POSITION":15,
						"NORMAL":16,
						"COLOR_0":17,
						"COLOR_1":18
					},
					"indices":19,
					"material":3
				},
				{
					"attributes":{
						"POSITION":20,
						"NORMAL":21,
						"COLOR_0":22,
						"COLOR_1":23
					},
					"indices":24,
					"material":4
				},
				{
					"attributes":{
						"POSITION":25,
						"NORMAL":26,
						"COLOR_0":27,
						"COLOR_1":28
					},
					"indices":29,
					"material":5
				},
				{
					"attributes":{
						"POSITION":30,
						"NORMAL":31,
						"COLOR_0":32,
						"COLOR_1":33
					},
					"indices":34,
					"material":6
				},
				{
					"attributes":{
						"POSITION":35,
						"NORMAL":36,
						"COLOR_0":37,
						"COLOR_1":38
					},
					"indices":39,
					"material":7
				},
				{
					"attributes":{
						"POSITION":40,
						"NORMAL":41,
						"COLOR_0":42,
						"COLOR_1":43
					},
					"indices":44,
					"material":8
				},
				{
					"attributes":{
						"POSITION":45,
						"NORMAL":46,
						"COLOR_0":47,
						"COLOR_1":48
					},
					"indices":49,
					"material":9
				}
			]
		},
		{
			"name":"Sphere.187",
			"primitives":[
				{
					"attributes":{
						"POSITION":50,
						"NORMAL":51
					},
					"indices":52,
					"material":1
				},
				{
					"attributes":{
						"POSITION":53,
						"NORMAL":54
					},
					"indices":55,
					"material":2
				},
				{
					"attributes":{
						"POSITION":56,
						"NORMAL":57
					},
					"indices":58,
					"material":3
				},
				{
					"attributes":{
						"POSITION":59,
						"NORMAL":60
					},
					"indices":61,
					"material":5
				},
				{
					"attributes":{
						"POSITION":62,
						"NORMAL":63
					},
					"indices":64,
					"material":10
				},
				{
					"attributes":{
						"POSITION":65,
						"NORMAL":66
					},
					"indices":67,
					"material":4
				},
				{
					"attributes":{
						"POSITION":68,
						"NORMAL":69
					},
					"indices":70,
					"material":11
				}
			]
		}
	],
	"accessors":[
		{
			"bufferView":0,
			"componentType":5126,
			"count":40,
			"max":[
				0.125,
				0.009999999776482582,
				0.125
			],
			"min":[
				-0.125,
				-0.009999999776482582,
				-0.125
			],
			"type":"VEC3"
		},
		{
			"bufferView":1,
			"componentType":5126,
			"count":40,
			"type":"VEC3"
		},
		{
			"bufferView":2,
			"componentType":5121,
			"count":40,
			"normalized":true,
			"type":"VEC4"
		},
		{
			"bufferView":3,
			"componentType":5123,
			"count":40,
			"normalized":true,
			"type":"VEC4"
		},
		{
			"bufferView":4,
			"componentType":5123,
			"count":60,
			"type":"SCALAR"
		},
		{
			"bufferView":5,
			"componentType":5126,
			"count":25899,
			"max":[
				0.055720146745443344,
				0.24163906276226044,
				0.05118497461080551
			],
			"min":[
				-0.05572012439370155,
				0.10218449681997299,
				-0.0621161088347435
			],
			"type":"VEC3"
		},
		{
			"bufferView":6,
			"componentType":5126,
			"count":25899,
			"type":"VEC3"
		},
		{
			"bufferView":7,
			"componentType":5121,
			"count":25899,
			"normalized":true,
			"type":"VEC4"
		},
		{
			"bufferView":8,
			"componentType":5123,
			"count":25899,
			"normalized":true,
			"type":"VEC4"
		},
		{
			"bufferView":9,
			"componentType":5123,
			"count":149700,
			"type":"SCALAR"
		},
		{
			"bufferView":10,
			"componentType":5126,
			"count":36877,
			"max":[
				0.05448809638619423,
				0.24339357018470764,
				0.04137419909238815
			],
			"min":[
				-0.05448808893561363,
				0.01963668316602707,
				-0.11360055208206177
			],
			"type":"VEC3"
		},
		{
			"bufferView":11,
			"componentType":5126,
			"count":36877,
			"type":"VEC3"
		},
		{
			"bufferView":12,
			"componentType":5121,
			"count":36877,
			"normalized":true,
			"type":"VEC4"
		},
		{
			"bufferView":13,
			"componentType":5123,
			"count":36877,
			"normalized":true,
			"type":"VEC4"
		},
		{
			"bufferView":14,
			"componentType":5123,
			"count":210624,
			"type":"SCALAR"
		},
		{
			"bufferView":15,
			"componentType":5126,
			"count":31258,
			"max":[
				0.049853965640068054,
				0.27622148394584656,
				0.05449625849723816
			],
			"min":[
				-0.04985401779413223,
				0.01642691344022751,
				-0.10882771015167236
			],
			"type":"VEC3"
		},
		{
			"bufferView":16,
			"componentType":5126,
			"count":31258,
			"type":"VEC3"
		},
		{
			"bufferView":17,
			"componentType":5121,
			"count":31258,
			"normalized":true,
			"type":"VEC4"
		},
		{
			"bufferView":18,
			"componentType":5123,
			"count":31258,
			"normalized":true,
			"type":"VEC4"
		},
		{
			"bufferView":19,
			"componentType":5123,
			"count":163320,
			"type":"SCALAR"
		},
		{
			"bufferView":20,
			"componentType":5126,
			"count":1607,
			"max":[
				0.04585393890738487,
				0.22144393622875214,
				0.03534149378538132
			],
			"min":[
				-0.045853931456804276,
				0.15115892887115479,
				-0.003490801900625229
			],
			"type":"VEC3"
		},
		{
			"bufferView":21,
			"componentType":5126,
			"count":1607,
			"type":"VEC3"
		},
		{
			"bufferView":22,
			"componentType":5121,
			"count":1607,
			"normalized":true,
			"type":"VEC4"
		},
		{
			"bufferView":23,
			"componentType":5123,
			"count":1607,
			"normalized":true,
			"type":"VEC4"
		},
		{
			"bufferView":24,
			"componentType":5123,
			"count":8952,
			"type":"SCALAR"
		},
		{
			"bufferView":25,
			"componentType":5126,
			"count":4531,
			"max":[
				0.047205522656440735,
				0.22261248528957367,
				0.0365707203745842
			],
			"min":[
				-0.04720551520586014,
				0.14960910379886627,
				-0.005125125870108604
			],
			"type":"VEC3"
		},
		{
			"bufferView":26,
			"componentType":5126,
			"count":4531,
			"type":"VEC3"
		},
		{
			"bufferView":27,
			"componentType":5121,
			"count":4531,
			"normalized":true,
			"type":"VEC4"
		},
		{
			"bufferView":28,
			"componentType":5123,
			"count":4531,
			"normalized":true,
			"type":"VEC4"
		},
		{
			"bufferView":29,
			"componentType":5123,
			"count":25584,
			"type":"SCALAR"
		},
		{
			"bufferView":30,
			"componentType":5126,
			"count":7980,
			"max":[
				0.051721300929784775,
				0.23036564886569977,
				0.0401918888092041
			],
			"min":[
				-0.051721278578042984,
				0.039371512830257416,
				-0.09059637784957886
			],
			"type":"VEC3"
		},
		{
			"bufferView":31,
			"componentType":5126,
			"count":7980,
			"type":"VEC3"
		},
		{
			"bufferView":32,
			"componentType":5121,
			"count":7980,
			"normalized":true,
			"type":"VEC4"
		},
		{
			"bufferView":33,
			"componentType":5123,
			"count":7980,
			"normalized":true,
			"type":"VEC4"
		},
		{
			"bufferView":34,
			"componentType":5123,
			"count":43800,
			"type":"SCALAR"
		},
		{
			"bufferView":35,
			"componentType":5126,
			"count":3458,
			"max":[
				0.04653886705636978,
				0.20216694474220276,
				0.06765754520893097
			],
			"min":[
				-0.04554767161607742,
				0.09988294541835785,
				-0.041158221662044525
			],
			"type":"VEC3"
		},
		{
			"bufferView":36,
			"componentType":5126,
			"count":3458,
			"type":"VEC3"
		},
		{
			"bufferView":37,
			"componentType":5121,
			"count":3458,
			"normalized":true,
			"type":"VEC4"
		},
		{
			"bufferView":38,
			"componentType":5123,
			"count":3458,
			"normalized":true,
			"type":"VEC4"
		},
		{
			"bufferView":39,
			"componentType":5123,
			"count":20592,
			"type":"SCALAR"
		},
		{
			"bufferView":40,
			"componentType":5126,
			"count":12035,
			"max":[
				0.05615602806210518,
				0.1832897961139679,
				0.11234869062900543
			],
			"min":[
				-0.05499906465411186,
				0.006345242261886597,
				-0.04164053499698639
			],
			"type":"VEC3"
		},
		{
			"bufferView":41,
			"componentType":5126,
			"count":12035,
			"type":"VEC3"
		},
		{
			"bufferView":42,
			"componentType":5121,
			"count":12035,
			"normalized":true,
			"type":"VEC4"
		},
		{
			"bufferView":43,
			"componentType":5123,
			"count":12035,
			"normalized":true,
			"type":"VEC4"
		},
		{
			"bufferView":44,
			"componentType":5123,
			"count":72150,
			"type":"SCALAR"
		},
		{
			"bufferView":45,
			"componentType":5126,
			"count":477,
			"max":[
				0.05583328753709793,
				0.17079555988311768,
				0.06895484775304794
			],
			"min":[
				0.03349120169878006,
				0.16255410015583038,
				0.06376033276319504
			],
			"type":"VEC3"
		},
		{
			"bufferView":46,
			"componentType":5126,
			"count":477,
			"type":"VEC3"
		},
		{
			"bufferView":47,
			"componentType":5121,
			"count":477,
			"normalized":true,
			"type":"VEC4"
		},
		{
			"bufferView":48,
			"componentType":5123,
			"count":477,
			"normalized":true,
			"type":"VEC4"
		},
		{
			"bufferView":49,
			"componentType":5123,
			"count":2850,
			"type":"SCALAR"
		},
		{
			"bufferView":50,
			"componentType":5126,
			"count":1641,
			"max":[
				0.06822799891233444,
				0.1155308336019516,
				0.07808353006839752
			],
			"min":[
				-0.06822798401117325,
				-0.04474470391869545,
				-0.06845946609973907
			],
			"type":"VEC3"
		},
		{
			"bufferView":51,
			"componentType":5126,
			"count":1641,
			"type":"VEC3"
		},
		{
			"bufferView":52,
			"componentType":5123,
			"count":9150,
			"type":"SCALAR"
		},
		{
			"bufferView":53,
			"componentType":5126,
			"count":7706,
			"max":[
				0.07521698623895645,
				0.07290469855070114,
				0.07842716574668884
			],
			"min":[
				-0.07521697133779526,
				-0.0785006582736969,
				-0.06795193254947662
			],
			"type":"VEC3"
		},
		{
			"bufferView":54,
			"componentType":5126,
			"count":7706,
			"type":"VEC3"
		},
		{
			"bufferView":55,
			"componentType":5123,
			"count":42264,
			"type":"SCALAR"
		},
		{
			"bufferView":56,
			"componentType":5126,
			"count":410,
			"max":[
				0.0615965835750103,
				0.06649618595838547,
				0.07687899470329285
			],
			"min":[
				-0.061596568673849106,
				0.029600076377391815,
				0.03542046993970871
			],
			"type":"VEC3"
		},
		{
			"bufferView":57,
			"componentType":5126,
			"count":410,
			"type":"VEC3"
		},
		{
			"bufferView":58,
			"componentType":5123,
			"count":1992,
			"type":"SCALAR"
		},
		{
			"bufferView":59,
			"componentType":5126,
			"count":546,
			"max":[
				0.06405554711818695,
				0.06867268681526184,
				0.07927979528903961
			],
			"min":[
				-0.06405553221702576,
				0.027342118322849274,
				0.03390315920114517
			],
			"type":"VEC3"
		},
		{
			"bufferView":60,
			"componentType":5126,
			"count":546,
			"type":"VEC3"
		},
		{
			"bufferView":61,
			"componentType":5123,
			"count":2904,
			"type":"SCALAR"
		},
		{
			"bufferView":62,
			"componentType":5126,
			"count":655,
			"max":[
				0.06779997050762177,
				0.06925293058156967,
				-0.008010700345039368
			],
			"min":[
				-0.06779995560646057,
				-0.05820367857813835,
				-0.08311593532562256
			],
			"type":"VEC3"
		},
		{
			"bufferView":63,
			"componentType":5126,
			"count":655,
			"type":"VEC3"
		},
		{
			"bufferView":64,
			"componentType":5123,
			"count":3612,
			"type":"SCALAR"
		},
		{
			"bufferView":65,
			"componentType":5126,
			"count":78,
			"max":[
				0.04924868047237396,
				0.06539537757635117,
				0.076617032289505
			],
			"min":[
				-0.04924866557121277,
				0.047322601079940796,
				0.0557398684322834
			],
			"type":"VEC3"
		},
		{
			"bufferView":66,
			"componentType":5126,
			"count":78,
			"type":"VEC3"
		},
		{
			"bufferView":67,
			"componentType":5123,
			"count":330,
			"type":"SCALAR"
		},
		{
			"bufferView":68,
			"componentType":5126,
			"count":520,
			"max":[
				0.06782026588916779,
				0.0718105286359787,
				-0.005590593442320824
			],
			"min":[
				-0.06782025098800659,
				-0.059834785759449005,
				-0.07074381411075592
			],
			"type":"VEC3"
		},
		{
			"bufferView":69,
			"componentType":5126,
			"count":520,
			"type":"VEC3"
		},
		{
			"bufferView":70,
			"componentType":5123,
			"count":2496,
			"type":"SCALAR"
		}
	],
	"bufferViews":[
		{
			"buffer":0,
			"byteLength":480,
			"byteOffset":0,
			"target":34962
		},
		{
			"buffer":0,
			"byteLength":480,
			"byteOffset":480,
			"target":34962
		},
		{
			"buffer":0,
			"byteLength":160,
			"byteOffset":960,
			"target":34962
		},
		{
			"buffer":0,
			"byteLength":320,
			"byteOffset":1120,
			"target":34962
		},
		{
			"buffer":0,
			"byteLength":120,
			"byteOffset":1440,
			"target":34963
		},
		{
			"buffer":0,
			"byteLength":310788,
			"byteOffset":1560,
			"target":34962
		},
		{
			"buffer":0,
			"byteLength":310788,
			"byteOffset":312348,
			"target":34962
		},
		{
			"buffer":0,
			"byteLength":103596,
			"byteOffset":623136,
			"target":34962
		},
		{
			"buffer":0,
			"byteLength":207192,
			"byteOffset":726732,
			"target":34962
		},
		{
			"buffer":0,
			"byteLength":299400,
			"byteOffset":933924,
			"target":34963
		},
		{
			"buffer":0,
			"byteLength":442524,
			"byteOffset":1233324,
			"target":34962
		},
		{
			"buffer":0,
			"byteLength":442524,
			"byteOffset":1675848,
			"target":34962
		},
		{
			"buffer":0,
			"byteLength":147508,
			"byteOffset":2118372,
			"target":34962
		},
		{
			"buffer":0,
			"byteLength":295016,
			"byteOffset":2265880,
			"target":34962
		},
		{
			"buffer":0,
			"byteLength":421248,
			"byteOffset":2560896,
			"target":34963
		},
		{
			"buffer":0,
			"byteLength":375096,
			"byteOffset":2982144,
			"target":34962
		},
		{
			"buffer":0,
			"byteLength":375096,
			"byteOffset":3357240,
			"target":34962
		},
		{
			"buffer":0,
			"byteLength":125032,
			"byteOffset":3732336,
			"target":34962
		},
		{
			"buffer":0,
			"byteLength":250064,
			"byteOffset":3857368,
			"target":34962
		},
		{
			"buffer":0,
			"byteLength":326640,
			"byteOffset":4107432,
			"target":34963
		},
		{
			"buffer":0,
			"byteLength":19284,
			"byteOffset":4434072,
			"target":34962
		},
		{
			"buffer":0,
			"byteLength":19284,
			"byteOffset":4453356,
			"target":34962
		},
		{
			"buffer":0,
			"byteLength":6428,
			"byteOffset":4472640,
			"target":34962
		},
		{
			"buffer":0,
			"byteLength":12856,
			"byteOffset":4479068,
			"target":34962
		},
		{
			"buffer":0,
			"byteLength":17904,
			"byteOffset":4491924,
			"target":34963
		},
		{
			"buffer":0,
			"byteLength":54372,
			"byteOffset":4509828,
			"target":34962
		},
		{
			"buffer":0,
			"byteLength":54372,
			"byteOffset":4564200,
			"target":34962
		},
		{
			"buffer":0,
			"byteLength":18124,
			"byteOffset":4618572,
			"target":34962
		},
		{
			"buffer":0,
			"byteLength":36248,
			"byteOffset":4636696,
			"target":34962
		},
		{
			"buffer":0,
			"byteLength":51168,
			"byteOffset":4672944,
			"target":34963
		},
		{
			"buffer":0,
			"byteLength":95760,
			"byteOffset":4724112,
			"target":34962
		},
		{
			"buffer":0,
			"byteLength":95760,
			"byteOffset":4819872,
			"target":34962
		},
		{
			"buffer":0,
			"byteLength":31920,
			"byteOffset":4915632,
			"target":34962
		},
		{
			"buffer":0,
			"byteLength":63840,
			"byteOffset":4947552,
			"target":34962
		},
		{
			"buffer":0,
			"byteLength":87600,
			"byteOffset":5011392,
			"target":34963
		},
		{
			"buffer":0,
			"byteLength":41496,
			"byteOffset":5098992,
			"target":34962
		},
		{
			"buffer":0,
			"byteLength":41496,
			"byteOffset":5140488,
			"target":34962
		},
		{
			"buffer":0,
			"byteLength":13832,
			"byteOffset":5181984,
			"target":34962
		},
		{
			"buffer":0,
			"byteLength":27664,
			"byteOffset":5195816,
			"target":34962
		},
		{
			"buffer":0,
			"byteLength":41184,
			"byteOffset":5223480,
			"target":34963
		},
		{
			"buffer":0,
			"byteLength":144420,
			"byteOffset":5264664,
			"target":34962
		},
		{
			"buffer":0,
			"byteLength":144420,
			"byteOffset":5409084,
			"target":34962
		},
		{
			"buffer":0,
			"byteLength":48140,
			"byteOffset":5553504,
			"target":34962
		},
		{
			"buffer":0,
			"byteLength":96280,
			"byteOffset":5601644,
			"target":34962
		},
		{
			"buffer":0,
			"byteLength":144300,
			"byteOffset":5697924,
			"target":34963
		},
		{
			"buffer":0,
			"byteLength":5724,
			"byteOffset":5842224,
			"target":34962
		},
		{
			"buffer":0,
			"byteLength":5724,
			"byteOffset":5847948,
			"target":34962
		},
		{
			"buffer":0,
			"byteLength":1908,
			"byteOffset":5853672,
			"target":34962
		},
		{
			"buffer":0,
			"byteLength":3816,
			"byteOffset":5855580,
			"target":34962
		},
		{
			"buffer":0,
			"byteLength":5700,
			"byteOffset":5859396,
			"target":34963
		},
		{
			"buffer":0,
			"byteLength":19692,
			"byteOffset":5865096,
			"target":34962
		},
		{
			"buffer":0,
			"byteLength":19692,
			"byteOffset":5884788,
			"target":34962
		},
		{
			"buffer":0,
			"byteLength":18300,
			"byteOffset":5904480,
			"target":34963
		},
		{
			"buffer":0,
			"byteLength":92472,
			"byteOffset":5922780,
			"target":34962
		},
		{
			"buffer":0,
			"byteLength":92472,
			"byteOffset":6015252,
			"target":34962
		},
		{
			"buffer":0,
			"byteLength":84528,
			"byteOffset":6107724,
			"target":34963
		},
		{
			"buffer":0,
			"byteLength":4920,
			"byteOffset":6192252,
			"target":34962
		},
		{
			"buffer":0,
			"byteLength":4920,
			"byteOffset":6197172,
			"target":34962
		},
		{
			"buffer":0,
			"byteLength":3984,
			"byteOffset":6202092,
			"target":34963
		},
		{
			"buffer":0,
			"byteLength":6552,
			"byteOffset":6206076,
			"target":34962
		},
		{
			"buffer":0,
			"byteLength":6552,
			"byteOffset":6212628,
			"target":34962
		},
		{
			"buffer":0,
			"byteLength":5808,
			"byteOffset":6219180,
			"target":34963
		},
		{
			"buffer":0,
			"byteLength":7860,
			"byteOffset":6224988,
			"target":34962
		},
		{
			"buffer":0,
			"byteLength":7860,
			"byteOffset":6232848,
			"target":34962
		},
		{
			"buffer":0,
			"byteLength":7224,
			"byteOffset":6240708,
			"target":34963
		},
		{
			"buffer":0,
			"byteLength":936,
			"byteOffset":6247932,
			"target":34962
		},
		{
			"buffer":0,
			"byteLength":936,
			"byteOffset":6248868,
			"target":34962
		},
		{
			"buffer":0,
			"byteLength":660,
			"byteOffset":6249804,
			"target":34963
		},
		{
			"buffer":0,
			"byteLength":6240,
			"byteOffset":6250464,
			"target":34962
		},
		{
			"buffer":0,
			"byteLength":6240,
			"byteOffset":6256704,
			"target":34962
		},
		{
			"buffer":0,
			"byteLength":4992,
			"byteOffset":6262944,
			"target":34963
		}
	],
	"buffers":[
		{
			"byteLength":6267936,
			"uri":"Bobblehead.bin"
		}
	]
}
