{
	"asset":{
		"generator":"Khronos glTF Blender I/O v4.3.47",
		"version":"2.0"
	},
	"scene":0,
	"scenes":[
		{
			"name":"Scene",
			"nodes":[
				0,
				1,
				2,
				3,
				4
			]
		}
	],
	"nodes":[
		{
			"mesh":0,
			"name":"base",
			"translation":[
				0,
				0,
				0.11550161242485046
			]
		},
		{
			"mesh":1,
			"name":"Torus",
			"translation":[
				0,
				0,
				-0.7090917825698853
			]
		},
		{
			"mesh":2,
			"name":"TorusReverse",
			"rotation":[
				0,
				-0.0017065437277778983,
				0,
				1
			],
			"translation":[
				0,
				0,
				-0.7090917825698853
			]
		},
		{
			"mesh":3,
			"name":"inner",
			"translation":[
				0,
				0,
				-0.5318076014518738
			]
		},
		{
			"mesh":4,
			"name":"suspension-cylinder",
			"translation":[
				0,
				0,
				0.022483661770820618
			]
		}
	],
	"materials":[
		{
			"doubleSided":true,
			"name":"body",
			"pbrMetallicRoughness":{
				"baseColorFactor":[
					0.009999999776482582,
					0.009999999776482582,
					0.009999999776482582,
					1
				],
				"metallicFactor":0
			}
		},
		{
			"doubleSided":true,
			"name":"data-connector",
			"pbrMetallicRoughness":{
				"baseColorFactor":[
					0,
					0.05000000074505806,
					0.5,
					1
				]
			}
		},
		{
			"doubleSided":true,
			"name":"hv-connector",
			"pbrMetallicRoughness":{
				"baseColorFactor":[
					0.5,
					0.15000000596046448,
					0,
					1
				]
			}
		},
		{
			"doubleSided":true,
			"name":"pin",
			"pbrMetallicRoughness":{
				"roughnessFactor":0
			}
		},
		{
			"doubleSided":true,
			"name":"color1",
			"pbrMetallicRoughness":{
				"metallicFactor":0,
				"roughnessFactor":0
			}
		},
		{
			"doubleSided":true,
			"name":"tire",
			"pbrMetallicRoughness":{
				"baseColorFactor":[
					0.01341040339320898,
					0.01341040339320898,
					0.01341040339320898,
					1
				],
				"metallicFactor":0,
				"roughnessFactor":0.5
			}
		},
		{
			"doubleSided":true,
			"name":"color2",
			"pbrMetallicRoughness":{
				"baseColorFactor":[
					0.800000011920929,
					0.800000011920929,
					0.800000011920929,
					1
				]
			}
		},
		{
			"doubleSided":true,
			"name":"nuts",
			"pbrMetallicRoughness":{
				"baseColorFactor":[
					0.800000011920929,
					0.800000011920929,
					0.800000011920929,
					1
				],
				"roughnessFactor":0
			}
		}
	],
	"meshes":[
		{
			"name":"Torus.001",
			"primitives":[
				{
					"attributes":{
						"POSITION":0,
						"NORMAL":1
					},
					"indices":2,
					"material":0
				},
				{
					"attributes":{
						"POSITION":3,
						"NORMAL":4
					},
					"indices":5,
					"material":1
				},
				{
					"attributes":{
						"POSITION":6,
						"NORMAL":7
					},
					"indices":8,
					"material":2
				},
				{
					"attributes":{
						"POSITION":9,
						"NORMAL":10
					},
					"indices":11,
					"material":3
				},
				{
					"attributes":{
						"POSITION":12,
						"NORMAL":13
					},
					"indices":14,
					"material":4
				}
			]
		},
		{
			"name":"Torus",
			"primitives":[
				{
					"attributes":{
						"POSITION":15,
						"NORMAL":16
					},
					"indices":17,
					"material":5
				},
				{
					"attributes":{
						"POSITION":18,
						"NORMAL":19
					},
					"indices":20,
					"material":6
				},
				{
					"attributes":{
						"POSITION":21,
						"NORMAL":22
					},
					"indices":23,
					"material":0
				},
				{
					"attributes":{
						"POSITION":24,
						"NORMAL":25
					},
					"indices":26,
					"material":7
				}
			]
		},
		{
			"name":"Torus.003",
			"primitives":[
				{
					"attributes":{
						"POSITION":27,
						"NORMAL":28
					},
					"indices":29,
					"material":5
				},
				{
					"attributes":{
						"POSITION":30,
						"NORMAL":31
					},
					"indices":32,
					"material":6
				},
				{
					"attributes":{
						"POSITION":33,
						"NORMAL":34
					},
					"indices":35,
					"material":0
				},
				{
					"attributes":{
						"POSITION":36,
						"NORMAL":37
					},
					"indices":38,
					"material":7
				}
			]
		},
		{
			"name":"Torus.004",
			"primitives":[
				{
					"attributes":{
						"POSITION":39,
						"NORMAL":40
					},
					"indices":41,
					"material":0
				}
			]
		},
		{
			"name":"Torus.002",
			"primitives":[
				{
					"attributes":{
						"POSITION":42,
						"NORMAL":43
					},
					"indices":44,
					"material":0
				},
				{
					"attributes":{
						"POSITION":45,
						"NORMAL":46
					},
					"indices":47,
					"material":3
				}
			]
		}
	],
	"accessors":[
		{
			"bufferView":0,
			"componentType":5126,
			"count":608,
			"max":[
				0.11436912417411804,
				0.11436908692121506,
				-0.3602372705936432
			],
			"min":[
				-0.11436912417411804,
				-0.11436913907527924,
				-0.5017115473747253
			],
			"type":"VEC3"
		},
		{
			"bufferView":1,
			"componentType":5126,
			"count":608,
			"type":"VEC3"
		},
		{
			"bufferView":2,
			"componentType":5123,
			"count":1764,
			"type":"SCALAR"
		},
		{
			"bufferView":3,
			"componentType":5126,
			"count":372,
			"max":[
				0.030168455094099045,
				0.20861047506332397,
				-0.1733652651309967
			],
			"min":[
				-0.029549885541200638,
				0.18796153366565704,
				-0.2330836057662964
			],
			"type":"VEC3"
		},
		{
			"bufferView":4,
			"componentType":5126,
			"count":372,
			"type":"VEC3"
		},
		{
			"bufferView":5,
			"componentType":5123,
			"count":1020,
			"type":"SCALAR"
		},
		{
			"bufferView":6,
			"componentType":5126,
			"count":696,
			"max":[
				0.07035044580698013,
				0.22968098521232605,
				0.018959391862154007
			],
			"min":[
				-0.07035043090581894,
				0.18796169757843018,
				-0.12174148857593536
			],
			"type":"VEC3"
		},
		{
			"bufferView":7,
			"componentType":5126,
			"count":696,
			"type":"VEC3"
		},
		{
			"bufferView":8,
			"componentType":5123,
			"count":2148,
			"type":"SCALAR"
		},
		{
			"bufferView":9,
			"componentType":5126,
			"count":125,
			"max":[
				0.10487524420022964,
				0.045625295490026474,
				-0.49939560890197754
			],
			"min":[
				-0.10487525165081024,
				-0.045625362545251846,
				-0.5965617299079895
			],
			"type":"VEC3"
		},
		{
			"bufferView":10,
			"componentType":5126,
			"count":125,
			"type":"VEC3"
		},
		{
			"bufferView":11,
			"componentType":5123,
			"count":372,
			"type":"SCALAR"
		},
		{
			"bufferView":12,
			"componentType":5126,
			"count":38,
			"max":[
				0.25,
				0.18796156346797943,
				0.04801957309246063
			],
			"min":[
				-0.25,
				-0.12440494447946548,
				-0.3663967251777649
			],
			"type":"VEC3"
		},
		{
			"bufferView":13,
			"componentType":5126,
			"count":38,
			"type":"VEC3"
		},
		{
			"bufferView":14,
			"componentType":5123,
			"count":60,
			"type":"SCALAR"
		},
		{
			"bufferView":15,
			"componentType":5126,
			"count":4736,
			"max":[
				1.0029815435409546,
				1.0029815435409546,
				0.3498291075229645
			],
			"min":[
				-1.0029815435409546,
				-1.0029816627502441,
				-0.35490643978118896
			],
			"type":"VEC3"
		},
		{
			"bufferView":16,
			"componentType":5126,
			"count":4736,
			"type":"VEC3"
		},
		{
			"bufferView":17,
			"componentType":5123,
			"count":14208,
			"type":"SCALAR"
		},
		{
			"bufferView":18,
			"componentType":5126,
			"count":528,
			"max":[
				0.6007558703422546,
				0.6007557511329651,
				-0.04048479348421097
			],
			"min":[
				-0.6007557511329651,
				-0.6007559299468994,
				-0.3337182104587555
			],
			"type":"VEC3"
		},
		{
			"bufferView":19,
			"componentType":5126,
			"count":528,
			"type":"VEC3"
		},
		{
			"bufferView":20,
			"componentType":5123,
			"count":1488,
			"type":"SCALAR"
		},
		{
			"bufferView":21,
			"componentType":5126,
			"count":128,
			"max":[
				0.09888909757137299,
				0.09899167716503143,
				-0.04071252420544624
			],
			"min":[
				-0.09909422695636749,
				-0.09899170696735382,
				-0.1540292501449585
			],
			"type":"VEC3"
		},
		{
			"bufferView":22,
			"componentType":5126,
			"count":128,
			"type":"VEC3"
		},
		{
			"bufferView":23,
			"componentType":5123,
			"count":474,
			"type":"SCALAR"
		},
		{
			"bufferView":24,
			"componentType":5126,
			"count":960,
			"max":[
				0.32801154255867004,
				0.3279986083507538,
				-0.12745197117328644
			],
			"min":[
				-0.3280426561832428,
				-0.32799869775772095,
				-0.17241191864013672
			],
			"type":"VEC3"
		},
		{
			"bufferView":25,
			"componentType":5126,
			"count":960,
			"type":"VEC3"
		},
		{
			"bufferView":26,
			"componentType":5123,
			"count":1584,
			"type":"SCALAR"
		},
		{
			"bufferView":27,
			"componentType":5126,
			"count":4736,
			"max":[
				1.0029815435409546,
				1.0029815435409546,
				0.3498291075229645
			],
			"min":[
				-1.0029815435409546,
				-1.0029816627502441,
				-0.35490643978118896
			],
			"type":"VEC3"
		},
		{
			"bufferView":28,
			"componentType":5126,
			"count":4736,
			"type":"VEC3"
		},
		{
			"bufferView":29,
			"componentType":5123,
			"count":14208,
			"type":"SCALAR"
		},
		{
			"bufferView":30,
			"componentType":5126,
			"count":528,
			"max":[
				0.6007557511329651,
				0.6007557511329651,
				-0.04048479348421097
			],
			"min":[
				-0.6007558703422546,
				-0.6007559299468994,
				-0.3337182104587555
			],
			"type":"VEC3"
		},
		{
			"bufferView":31,
			"componentType":5126,
			"count":528,
			"type":"VEC3"
		},
		{
			"bufferView":32,
			"componentType":5123,
			"count":1488,
			"type":"SCALAR"
		},
		{
			"bufferView":33,
			"componentType":5126,
			"count":128,
			"max":[
				0.09909422695636749,
				0.09899167716503143,
				-0.04071252420544624
			],
			"min":[
				-0.09888909757137299,
				-0.09899170696735382,
				-0.1540292501449585
			],
			"type":"VEC3"
		},
		{
			"bufferView":34,
			"componentType":5126,
			"count":128,
			"type":"VEC3"
		},
		{
			"bufferView":35,
			"componentType":5123,
			"count":474,
			"type":"SCALAR"
		},
		{
			"bufferView":36,
			"componentType":5126,
			"count":960,
			"max":[
				0.3280426561832428,
				0.3279986083507538,
				-0.12745197117328644
			],
			"min":[
				-0.32801154255867004,
				-0.32799869775772095,
				-0.17241191864013672
			],
			"type":"VEC3"
		},
		{
			"bufferView":37,
			"componentType":5126,
			"count":960,
			"type":"VEC3"
		},
		{
			"bufferView":38,
			"componentType":5123,
			"count":1584,
			"type":"SCALAR"
		},
		{
			"bufferView":39,
			"componentType":5126,
			"count":433,
			"max":[
				0.6709243059158325,
				0.6709243059158325,
				0.17722557485103607
			],
			"min":[
				-0.6709244251251221,
				-0.6709243059158325,
				0.03151509910821915
			],
			"type":"VEC3"
		},
		{
			"bufferView":40,
			"componentType":5126,
			"count":433,
			"type":"VEC3"
		},
		{
			"bufferView":41,
			"componentType":5123,
			"count":1296,
			"type":"SCALAR"
		},
		{
			"bufferView":42,
			"componentType":5126,
			"count":116,
			"max":[
				0.16080591082572937,
				0.3616713881492615,
				-0.4106364846229553
			],
			"min":[
				-0.1608058512210846,
				-0.3616717755794525,
				-0.5490396618843079
			],
			"type":"VEC3"
		},
		{
			"bufferView":43,
			"componentType":5126,
			"count":116,
			"type":"VEC3"
		},
		{
			"bufferView":44,
			"componentType":5123,
			"count":240,
			"type":"SCALAR"
		},
		{
			"bufferView":45,
			"componentType":5126,
			"count":16,
			"max":[
				0.16080591082572937,
				0.33342570066452026,
				-0.4106364846229553
			],
			"min":[
				-0.1608058512210846,
				-0.33342599868774414,
				-0.5023909211158752
			],
			"type":"VEC3"
		},
		{
			"bufferView":46,
			"componentType":5126,
			"count":16,
			"type":"VEC3"
		},
		{
			"bufferView":47,
			"componentType":5123,
			"count":24,
			"type":"SCALAR"
		}
	],
	"bufferViews":[
		{
			"buffer":0,
			"byteLength":7296,
			"byteOffset":0,
			"target":34962
		},
		{
			"buffer":0,
			"byteLength":7296,
			"byteOffset":7296,
			"target":34962
		},
		{
			"buffer":0,
			"byteLength":3528,
			"byteOffset":14592,
			"target":34963
		},
		{
			"buffer":0,
			"byteLength":4464,
			"byteOffset":18120,
			"target":34962
		},
		{
			"buffer":0,
			"byteLength":4464,
			"byteOffset":22584,
			"target":34962
		},
		{
			"buffer":0,
			"byteLength":2040,
			"byteOffset":27048,
			"target":34963
		},
		{
			"buffer":0,
			"byteLength":8352,
			"byteOffset":29088,
			"target":34962
		},
		{
			"buffer":0,
			"byteLength":8352,
			"byteOffset":37440,
			"target":34962
		},
		{
			"buffer":0,
			"byteLength":4296,
			"byteOffset":45792,
			"target":34963
		},
		{
			"buffer":0,
			"byteLength":1500,
			"byteOffset":50088,
			"target":34962
		},
		{
			"buffer":0,
			"byteLength":1500,
			"byteOffset":51588,
			"target":34962
		},
		{
			"buffer":0,
			"byteLength":744,
			"byteOffset":53088,
			"target":34963
		},
		{
			"buffer":0,
			"byteLength":456,
			"byteOffset":53832,
			"target":34962
		},
		{
			"buffer":0,
			"byteLength":456,
			"byteOffset":54288,
			"target":34962
		},
		{
			"buffer":0,
			"byteLength":120,
			"byteOffset":54744,
			"target":34963
		},
		{
			"buffer":0,
			"byteLength":56832,
			"byteOffset":54864,
			"target":34962
		},
		{
			"buffer":0,
			"byteLength":56832,
			"byteOffset":111696,
			"target":34962
		},
		{
			"buffer":0,
			"byteLength":28416,
			"byteOffset":168528,
			"target":34963
		},
		{
			"buffer":0,
			"byteLength":6336,
			"byteOffset":196944,
			"target":34962
		},
		{
			"buffer":0,
			"byteLength":6336,
			"byteOffset":203280,
			"target":34962
		},
		{
			"buffer":0,
			"byteLength":2976,
			"byteOffset":209616,
			"target":34963
		},
		{
			"buffer":0,
			"byteLength":1536,
			"byteOffset":212592,
			"target":34962
		},
		{
			"buffer":0,
			"byteLength":1536,
			"byteOffset":214128,
			"target":34962
		},
		{
			"buffer":0,
			"byteLength":948,
			"byteOffset":215664,
			"target":34963
		},
		{
			"buffer":0,
			"byteLength":11520,
			"byteOffset":216612,
			"target":34962
		},
		{
			"buffer":0,
			"byteLength":11520,
			"byteOffset":228132,
			"target":34962
		},
		{
			"buffer":0,
			"byteLength":3168,
			"byteOffset":239652,
			"target":34963
		},
		{
			"buffer":0,
			"byteLength":56832,
			"byteOffset":242820,
			"target":34962
		},
		{
			"buffer":0,
			"byteLength":56832,
			"byteOffset":299652,
			"target":34962
		},
		{
			"buffer":0,
			"byteLength":28416,
			"byteOffset":356484,
			"target":34963
		},
		{
			"buffer":0,
			"byteLength":6336,
			"byteOffset":384900,
			"target":34962
		},
		{
			"buffer":0,
			"byteLength":6336,
			"byteOffset":391236,
			"target":34962
		},
		{
			"buffer":0,
			"byteLength":2976,
			"byteOffset":397572,
			"target":34963
		},
		{
			"buffer":0,
			"byteLength":1536,
			"byteOffset":400548,
			"target":34962
		},
		{
			"buffer":0,
			"byteLength":1536,
			"byteOffset":402084,
			"target":34962
		},
		{
			"buffer":0,
			"byteLength":948,
			"byteOffset":403620,
			"target":34963
		},
		{
			"buffer":0,
			"byteLength":11520,
			"byteOffset":404568,
			"target":34962
		},
		{
			"buffer":0,
			"byteLength":11520,
			"byteOffset":416088,
			"target":34962
		},
		{
			"buffer":0,
			"byteLength":3168,
			"byteOffset":427608,
			"target":34963
		},
		{
			"buffer":0,
			"byteLength":5196,
			"byteOffset":430776,
			"target":34962
		},
		{
			"buffer":0,
			"byteLength":5196,
			"byteOffset":435972,
			"target":34962
		},
		{
			"buffer":0,
			"byteLength":2592,
			"byteOffset":441168,
			"target":34963
		},
		{
			"buffer":0,
			"byteLength":1392,
			"byteOffset":443760,
			"target":34962
		},
		{
			"buffer":0,
			"byteLength":1392,
			"byteOffset":445152,
			"target":34962
		},
		{
			"buffer":0,
			"byteLength":480,
			"byteOffset":446544,
			"target":34963
		},
		{
			"buffer":0,
			"byteLength":192,
			"byteOffset":447024,
			"target":34962
		},
		{
			"buffer":0,
			"byteLength":192,
			"byteOffset":447216,
			"target":34962
		},
		{
			"buffer":0,
			"byteLength":48,
			"byteOffset":447408,
			"target":34963
		}
	],
	"buffers":[
		{
			"byteLength":447456,
			"uri":"BigWheel.bin"
		}
	]
}
