{
	"asset":{
		"generator":"Khronos glTF Blender I/O v4.4.55",
		"version":"2.0"
	},
	"scene":0,
	"scenes":[
		{
			"name":"Scene",
			"nodes":[
				0
			]
		}
	],
	"nodes":[
		{
			"mesh":0,
			"name":"base",
			"translation":[
				0,
				0.15813803672790527,
				0
			]
		}
	],
	"materials":[
		{
			"doubleSided":true,
			"name":"color1",
			"pbrMetallicRoughness":{
				"metallicFactor":0,
				"roughnessFactor":0
			}
		},
		{
			"doubleSided":true,
			"name":"body",
			"pbrMetallicRoughness":{
				"baseColorFactor":[
					0.029999999329447746,
					0.029999999329447746,
					0.029999999329447746,
					1
				]
			}
		},
		{
			"doubleSided":true,
			"name":"color2",
			"pbrMetallicRoughness":{
				"baseColorFactor":[
					0.800000011920929,
					0.800000011920929,
					0.800000011920929,
					1
				]
			}
		},
		{
			"doubleSided":true,
			"name":"fluid-connector",
			"pbrMetallicRoughness":{
				"baseColorFactor":[
					0.5,
					0.5,
					0.5,
					1
				]
			}
		},
		{
			"doubleSided":true,
			"name":"data-connector",
			"pbrMetallicRoughness":{
				"baseColorFactor":[
					0,
					0.05000000074505806,
					0.5,
					1
				]
			}
		},
		{
			"doubleSided":true,
			"name":"lv-connector",
			"pbrMetallicRoughness":{
				"baseColorFactor":[
					0.5,
					0,
					0,
					1
				]
			}
		}
	],
	"meshes":[
		{
			"name":"Cylinder.001",
			"primitives":[
				{
					"attributes":{
						"POSITION":0,
						"NORMAL":1
					},
					"indices":2,
					"material":0
				},
				{
					"attributes":{
						"POSITION":3,
						"NORMAL":4
					},
					"indices":5,
					"material":1
				},
				{
					"attributes":{
						"POSITION":6,
						"NORMAL":7
					},
					"indices":8,
					"material":2
				},
				{
					"attributes":{
						"POSITION":9,
						"NORMAL":10
					},
					"indices":11,
					"material":3
				},
				{
					"attributes":{
						"POSITION":12,
						"NORMAL":13
					},
					"indices":14,
					"material":4
				},
				{
					"attributes":{
						"POSITION":15,
						"NORMAL":16
					},
					"indices":17,
					"material":5
				}
			]
		}
	],
	"accessors":[
		{
			"bufferView":0,
			"componentType":5126,
			"count":2280,
			"max":[
				0.4611932039260864,
				1.4888067245483398,
				0.4611932039260864
			],
			"min":[
				-0.4611932039260864,
				-0.5111929774284363,
				-0.38346824049949646
			],
			"type":"VEC3"
		},
		{
			"bufferView":1,
			"componentType":5126,
			"count":2280,
			"type":"VEC3"
		},
		{
			"bufferView":2,
			"componentType":5123,
			"count":5382,
			"type":"SCALAR"
		},
		{
			"bufferView":3,
			"componentType":5126,
			"count":7333,
			"max":[
				0.34969326853752136,
				1.4888067245483398,
				0.34969329833984375
			],
			"min":[
				-0.34969326853752136,
				-1.0811309814453125,
				-0.34969326853752136
			],
			"type":"VEC3"
		},
		{
			"bufferView":4,
			"componentType":5126,
			"count":7333,
			"type":"VEC3"
		},
		{
			"bufferView":5,
			"componentType":5123,
			"count":34992,
			"type":"SCALAR"
		},
		{
			"bufferView":6,
			"componentType":5126,
			"count":896,
			"max":[
				0.3395107388496399,
				1.3111743927001953,
				0.3395107388496399
			],
			"min":[
				-0.3395107388496399,
				0.7311343550682068,
				-0.3395107388496399
			],
			"type":"VEC3"
		},
		{
			"bufferView":7,
			"componentType":5126,
			"count":896,
			"type":"VEC3"
		},
		{
			"bufferView":8,
			"componentType":5123,
			"count":1536,
			"type":"SCALAR"
		},
		{
			"bufferView":9,
			"componentType":5126,
			"count":9792,
			"max":[
				0.12489651888608932,
				1.4909694194793701,
				0.12489651888608932
			],
			"min":[
				-0.12489665299654007,
				-0.32803067564964294,
				-0.4213016629219055
			],
			"type":"VEC3"
		},
		{
			"bufferView":10,
			"componentType":5126,
			"count":9792,
			"type":"VEC3"
		},
		{
			"bufferView":11,
			"componentType":5123,
			"count":19704,
			"type":"SCALAR"
		},
		{
			"bufferView":12,
			"componentType":5126,
			"count":384,
			"max":[
				0.029859039932489395,
				-0.3543453812599182,
				-0.3834681212902069
			],
			"min":[
				-0.029859300702810287,
				-0.4140636920928955,
				-0.40411707758903503
			],
			"type":"VEC3"
		},
		{
			"bufferView":13,
			"componentType":5126,
			"count":384,
			"type":"VEC3"
		},
		{
			"bufferView":14,
			"componentType":5123,
			"count":1020,
			"type":"SCALAR"
		},
		{
			"bufferView":15,
			"componentType":5126,
			"count":432,
			"max":[
				0.0306257177144289,
				-0.43835902214050293,
				-0.38346803188323975
			],
			"min":[
				-0.030625980347394943,
				-0.49961069226264954,
				-0.40384846925735474
			],
			"type":"VEC3"
		},
		{
			"bufferView":16,
			"componentType":5126,
			"count":432,
			"type":"VEC3"
		},
		{
			"bufferView":17,
			"componentType":5123,
			"count":996,
			"type":"SCALAR"
		}
	],
	"bufferViews":[
		{
			"buffer":0,
			"byteLength":27360,
			"byteOffset":0,
			"target":34962
		},
		{
			"buffer":0,
			"byteLength":27360,
			"byteOffset":27360,
			"target":34962
		},
		{
			"buffer":0,
			"byteLength":10764,
			"byteOffset":54720,
			"target":34963
		},
		{
			"buffer":0,
			"byteLength":87996,
			"byteOffset":65484,
			"target":34962
		},
		{
			"buffer":0,
			"byteLength":87996,
			"byteOffset":153480,
			"target":34962
		},
		{
			"buffer":0,
			"byteLength":69984,
			"byteOffset":241476,
			"target":34963
		},
		{
			"buffer":0,
			"byteLength":10752,
			"byteOffset":311460,
			"target":34962
		},
		{
			"buffer":0,
			"byteLength":10752,
			"byteOffset":322212,
			"target":34962
		},
		{
			"buffer":0,
			"byteLength":3072,
			"byteOffset":332964,
			"target":34963
		},
		{
			"buffer":0,
			"byteLength":117504,
			"byteOffset":336036,
			"target":34962
		},
		{
			"buffer":0,
			"byteLength":117504,
			"byteOffset":453540,
			"target":34962
		},
		{
			"buffer":0,
			"byteLength":39408,
			"byteOffset":571044,
			"target":34963
		},
		{
			"buffer":0,
			"byteLength":4608,
			"byteOffset":610452,
			"target":34962
		},
		{
			"buffer":0,
			"byteLength":4608,
			"byteOffset":615060,
			"target":34962
		},
		{
			"buffer":0,
			"byteLength":2040,
			"byteOffset":619668,
			"target":34963
		},
		{
			"buffer":0,
			"byteLength":5184,
			"byteOffset":621708,
			"target":34962
		},
		{
			"buffer":0,
			"byteLength":5184,
			"byteOffset":626892,
			"target":34962
		},
		{
			"buffer":0,
			"byteLength":1992,
			"byteOffset":632076,
			"target":34963
		}
	],
	"buffers":[
		{
			"byteLength":634068,
			"uri":"GeothermalExchanger.bin"
		}
	]
}
