{
	"asset":{
		"generator":"Khronos glTF Blender I/O v4.0.44",
		"version":"2.0"
	},
	"scene":0,
	"scenes":[
		{
			"name":"Scene",
			"nodes":[
				0,
				1
			]
		}
	],
	"nodes":[
		{
			"mesh":0,
			"name":"slave"
		},
		{
			"mesh":1,
			"name":"master"
		}
	],
	"materials":[
		{
			"doubleSided":true,
			"name":"color2",
			"pbrMetallicRoughness":{
				"baseColorFactor":[
					0.800000011920929,
					0.800000011920929,
					0.800000011920929,
					1
				],
				"metallicFactor":1,
				"roughnessFactor":1
			}
		},
		{
			"doubleSided":true,
			"name":"color1",
			"pbrMetallicRoughness":{
				"baseColorFactor":[
					1,
					1,
					1,
					1
				],
				"metallicFactor":0,
				"roughnessFactor":0
			}
		},
		{
			"doubleSided":true,
			"name":"body",
			"pbrMetallicRoughness":{
				"baseColorFactor":[
					0.009999999776482582,
					0.009999999776482582,
					0.009999999776482582,
					1
				],
				"metallicFactor":0,
				"roughnessFactor":1
			}
		},
		{
			"doubleSided":true,
			"name":"lv-connector",
			"pbrMetallicRoughness":{
				"baseColorFactor":[
					0.5,
					0,
					0,
					1
				],
				"metallicFactor":1,
				"roughnessFactor":1
			}
		},
		{
			"doubleSided":true,
			"name":"data-connector",
			"pbrMetallicRoughness":{
				"baseColorFactor":[
					0,
					0.049704231321811676,
					0.5028499960899353,
					1
				],
				"metallicFactor":1,
				"roughnessFactor":1
			}
		}
	],
	"meshes":[
		{
			"name":"Cube.002",
			"primitives":[
				{
					"attributes":{
						"POSITION":0,
						"NORMAL":1
					},
					"indices":2,
					"material":0
				}
			]
		},
		{
			"name":"Cube.001",
			"primitives":[
				{
					"attributes":{
						"POSITION":3,
						"NORMAL":4
					},
					"indices":5,
					"material":1
				},
				{
					"attributes":{
						"POSITION":6,
						"NORMAL":7
					},
					"indices":8,
					"material":2
				},
				{
					"attributes":{
						"POSITION":9,
						"NORMAL":10
					},
					"indices":11,
					"material":3
				},
				{
					"attributes":{
						"POSITION":12,
						"NORMAL":13
					},
					"indices":14,
					"material":4
				}
			]
		}
	],
	"accessors":[
		{
			"bufferView":0,
			"componentType":5126,
			"count":262,
			"max":[
				0.1250000149011612,
				0.375,
				0.1250000149011612
			],
			"min":[
				-0.1250000149011612,
				-0.08979488909244537,
				-0.1250000149011612
			],
			"type":"VEC3"
		},
		{
			"bufferView":1,
			"componentType":5126,
			"count":262,
			"type":"VEC3"
		},
		{
			"bufferView":2,
			"componentType":5123,
			"count":792,
			"type":"SCALAR"
		},
		{
			"bufferView":3,
			"componentType":5126,
			"count":541,
			"max":[
				0.125,
				0.11931563913822174,
				0.125
			],
			"min":[
				-0.125,
				-0.125,
				-0.125
			],
			"type":"VEC3"
		},
		{
			"bufferView":4,
			"componentType":5126,
			"count":541,
			"type":"VEC3"
		},
		{
			"bufferView":5,
			"componentType":5123,
			"count":1506,
			"type":"SCALAR"
		},
		{
			"bufferView":6,
			"componentType":5126,
			"count":76,
			"max":[
				0.0518624372780323,
				0.06523752212524414,
				-0.07841123640537262
			],
			"min":[
				-0.0518624447286129,
				-0.029372677206993103,
				-0.125
			],
			"type":"VEC3"
		},
		{
			"bufferView":7,
			"componentType":5126,
			"count":76,
			"type":"VEC3"
		},
		{
			"bufferView":8,
			"componentType":5123,
			"count":204,
			"type":"SCALAR"
		},
		{
			"bufferView":9,
			"componentType":5126,
			"count":312,
			"max":[
				0.03062584437429905,
				-0.06016938388347626,
				-0.12499992549419403
			],
			"min":[
				-0.030625855550169945,
				-0.12142109870910645,
				-0.14538034796714783
			],
			"type":"VEC3"
		},
		{
			"bufferView":10,
			"componentType":5126,
			"count":312,
			"type":"VEC3"
		},
		{
			"bufferView":11,
			"componentType":5123,
			"count":996,
			"type":"SCALAR"
		},
		{
			"bufferView":12,
			"componentType":5126,
			"count":376,
			"max":[
				0.029859164729714394,
				0.045539505779743195,
				-0.1249999925494194
			],
			"min":[
				-0.02985917590558529,
				-0.014178834855556488,
				-0.14564894139766693
			],
			"type":"VEC3"
		},
		{
			"bufferView":13,
			"componentType":5126,
			"count":376,
			"type":"VEC3"
		},
		{
			"bufferView":14,
			"componentType":5123,
			"count":1020,
			"type":"SCALAR"
		}
	],
	"bufferViews":[
		{
			"buffer":0,
			"byteLength":3144,
			"byteOffset":0,
			"target":34962
		},
		{
			"buffer":0,
			"byteLength":3144,
			"byteOffset":3144,
			"target":34962
		},
		{
			"buffer":0,
			"byteLength":1584,
			"byteOffset":6288,
			"target":34963
		},
		{
			"buffer":0,
			"byteLength":6492,
			"byteOffset":7872,
			"target":34962
		},
		{
			"buffer":0,
			"byteLength":6492,
			"byteOffset":14364,
			"target":34962
		},
		{
			"buffer":0,
			"byteLength":3012,
			"byteOffset":20856,
			"target":34963
		},
		{
			"buffer":0,
			"byteLength":912,
			"byteOffset":23868,
			"target":34962
		},
		{
			"buffer":0,
			"byteLength":912,
			"byteOffset":24780,
			"target":34962
		},
		{
			"buffer":0,
			"byteLength":408,
			"byteOffset":25692,
			"target":34963
		},
		{
			"buffer":0,
			"byteLength":3744,
			"byteOffset":26100,
			"target":34962
		},
		{
			"buffer":0,
			"byteLength":3744,
			"byteOffset":29844,
			"target":34962
		},
		{
			"buffer":0,
			"byteLength":1992,
			"byteOffset":33588,
			"target":34963
		},
		{
			"buffer":0,
			"byteLength":4512,
			"byteOffset":35580,
			"target":34962
		},
		{
			"buffer":0,
			"byteLength":4512,
			"byteOffset":40092,
			"target":34962
		},
		{
			"buffer":0,
			"byteLength":2040,
			"byteOffset":44604,
			"target":34963
		}
	],
	"buffers":[
		{
			"byteLength":46644,
			"uri":"SmallHinge.bin"
		}
	]
}
