{
	"asset":{
		"generator":"Khronos glTF Blender I/O v3.6.6",
		"version":"2.0"
	},
	"scene":0,
	"scenes":[
		{
			"name":"Scene",
			"nodes":[
				0
			]
		}
	],
	"nodes":[
		{
			"mesh":0,
			"name":"body"
		}
	],
	"materials":[
		{
			"doubleSided":true,
			"name":"body",
			"pbrMetallicRoughness":{
				"baseColorFactor":[
					0.009999999776482582,
					0.009999999776482582,
					0.009999999776482582,
					1
				],
				"metallicFactor":1,
				"roughnessFactor":1
			}
		},
		{
			"doubleSided":true,
			"name":"heatsink",
			"pbrMetallicRoughness":{
				"baseColorFactor":[
					0.004999999888241291,
					0.004999999888241291,
					0.004999999888241291,
					1
				],
				"metallicFactor":0,
				"roughnessFactor":1
			}
		},
		{
			"doubleSided":true,
			"name":"mylar",
			"pbrMetallicRoughness":{
				"baseColorFactor":[
					0.20000000298023224,
					0.10799999535083771,
					0,
					1
				],
				"metallicFactor":1,
				"roughnessFactor":0
			}
		},
		{
			"doubleSided":true,
			"name":"lv-connector",
			"pbrMetallicRoughness":{
				"baseColorFactor":[
					0.5,
					0,
					0,
					1
				],
				"metallicFactor":1,
				"roughnessFactor":1
			}
		},
		{
			"doubleSided":true,
			"name":"head",
			"pbrMetallicRoughness":{
				"baseColorFactor":[
					0.800000011920929,
					0.800000011920929,
					0.800000011920929,
					1
				],
				"metallicFactor":1,
				"roughnessFactor":0
			}
		}
	],
	"meshes":[
		{
			"name":"Cube",
			"primitives":[
				{
					"attributes":{
						"POSITION":0,
						"NORMAL":1
					},
					"indices":2,
					"material":0
				},
				{
					"attributes":{
						"POSITION":3,
						"NORMAL":4
					},
					"indices":5,
					"material":1
				},
				{
					"attributes":{
						"POSITION":6,
						"NORMAL":7
					},
					"indices":8,
					"material":2
				},
				{
					"attributes":{
						"POSITION":9,
						"NORMAL":10
					},
					"indices":11,
					"material":3
				},
				{
					"attributes":{
						"POSITION":12,
						"NORMAL":13
					},
					"indices":14,
					"material":4
				}
			]
		}
	],
	"accessors":[
		{
			"bufferView":0,
			"componentType":5126,
			"count":368,
			"max":[
				0.2500000596046448,
				0.9406150579452515,
				0.24998408555984497
			],
			"min":[
				-0.25000008940696716,
				-0.11814656108617783,
				-0.25001606345176697
			],
			"type":"VEC3"
		},
		{
			"bufferView":1,
			"componentType":5126,
			"count":368,
			"type":"VEC3"
		},
		{
			"bufferView":2,
			"componentType":5123,
			"count":654,
			"type":"SCALAR"
		},
		{
			"bufferView":3,
			"componentType":5126,
			"count":2880,
			"max":[
				0.3497975766658783,
				0.8859345316886902,
				0.35011377930641174
			],
			"min":[
				-0.34956273436546326,
				0.15150851011276245,
				-0.34924665093421936
			],
			"type":"VEC3"
		},
		{
			"bufferView":4,
			"componentType":5126,
			"count":2880,
			"type":"VEC3"
		},
		{
			"bufferView":5,
			"componentType":5123,
			"count":7584,
			"type":"SCALAR"
		},
		{
			"bufferView":6,
			"componentType":5126,
			"count":1280,
			"max":[
				0.13714803755283356,
				0.9416342973709106,
				0.13713209331035614
			],
			"min":[
				-0.13714803755283356,
				0.017103487625718117,
				-0.13716399669647217
			],
			"type":"VEC3"
		},
		{
			"bufferView":7,
			"componentType":5126,
			"count":1280,
			"type":"VEC3"
		},
		{
			"bufferView":8,
			"componentType":5123,
			"count":3828,
			"type":"SCALAR"
		},
		{
			"bufferView":9,
			"componentType":5126,
			"count":312,
			"max":[
				0.030625849962234497,
				0.02749231643974781,
				-0.2500159442424774
			],
			"min":[
				-0.030625855550169945,
				-0.03375938534736633,
				-0.2703963816165924
			],
			"type":"VEC3"
		},
		{
			"bufferView":10,
			"componentType":5126,
			"count":312,
			"type":"VEC3"
		},
		{
			"bufferView":11,
			"componentType":5123,
			"count":996,
			"type":"SCALAR"
		},
		{
			"bufferView":12,
			"componentType":5126,
			"count":431,
			"max":[
				0.13033154606819153,
				0.9406150579452515,
				0.1303156465291977
			],
			"min":[
				-0.13033154606819153,
				0.9084858894348145,
				-0.13034746050834656
			],
			"type":"VEC3"
		},
		{
			"bufferView":13,
			"componentType":5126,
			"count":431,
			"type":"VEC3"
		},
		{
			"bufferView":14,
			"componentType":5123,
			"count":1494,
			"type":"SCALAR"
		}
	],
	"bufferViews":[
		{
			"buffer":0,
			"byteLength":4416,
			"byteOffset":0,
			"target":34962
		},
		{
			"buffer":0,
			"byteLength":4416,
			"byteOffset":4416,
			"target":34962
		},
		{
			"buffer":0,
			"byteLength":1308,
			"byteOffset":8832,
			"target":34963
		},
		{
			"buffer":0,
			"byteLength":34560,
			"byteOffset":10140,
			"target":34962
		},
		{
			"buffer":0,
			"byteLength":34560,
			"byteOffset":44700,
			"target":34962
		},
		{
			"buffer":0,
			"byteLength":15168,
			"byteOffset":79260,
			"target":34963
		},
		{
			"buffer":0,
			"byteLength":15360,
			"byteOffset":94428,
			"target":34962
		},
		{
			"buffer":0,
			"byteLength":15360,
			"byteOffset":109788,
			"target":34962
		},
		{
			"buffer":0,
			"byteLength":7656,
			"byteOffset":125148,
			"target":34963
		},
		{
			"buffer":0,
			"byteLength":3744,
			"byteOffset":132804,
			"target":34962
		},
		{
			"buffer":0,
			"byteLength":3744,
			"byteOffset":136548,
			"target":34962
		},
		{
			"buffer":0,
			"byteLength":1992,
			"byteOffset":140292,
			"target":34963
		},
		{
			"buffer":0,
			"byteLength":5172,
			"byteOffset":142284,
			"target":34962
		},
		{
			"buffer":0,
			"byteLength":5172,
			"byteOffset":147456,
			"target":34962
		},
		{
			"buffer":0,
			"byteLength":2988,
			"byteOffset":152628,
			"target":34963
		}
	],
	"buffers":[
		{
			"byteLength":155616,
			"uri":"RTG.bin"
		}
	]
}
