{
	"asset":{
		"generator":"Khronos glTF Blender I/O v4.0.44",
		"version":"2.0"
	},
	"scene":0,
	"scenes":[
		{
			"name":"Scene",
			"nodes":[
				0,
				1
			]
		}
	],
	"nodes":[
		{
			"mesh":0,
			"name":"arrow",
			"translation":[
				0,
				0,
				0.0024799515958875418
			]
		},
		{
			"mesh":1,
			"name":"base.003"
		}
	],
	"materials":[
		{
			"doubleSided":true,
			"name":"color2",
			"pbrMetallicRoughness":{
				"baseColorFactor":[
					0.800000011920929,
					0.800000011920929,
					0.800000011920929,
					1
				],
				"metallicFactor":1,
				"roughnessFactor":1
			}
		},
		{
			"doubleSided":true,
			"name":"color1",
			"pbrMetallicRoughness":{
				"baseColorFactor":[
					1,
					1,
					1,
					1
				],
				"metallicFactor":0,
				"roughnessFactor":0
			}
		},
		{
			"doubleSided":true,
			"name":"body",
			"pbrMetallicRoughness":{
				"baseColorFactor":[
					0.009999999776482582,
					0.009999999776482582,
					0.009999999776482582,
					1
				],
				"metallicFactor":0,
				"roughnessFactor":1
			}
		}
	],
	"meshes":[
		{
			"name":"Cube.001",
			"primitives":[
				{
					"attributes":{
						"POSITION":0,
						"NORMAL":1
					},
					"indices":2,
					"material":0
				}
			]
		},
		{
			"name":"Cube.003",
			"primitives":[
				{
					"attributes":{
						"POSITION":3,
						"NORMAL":4
					},
					"indices":5,
					"material":1
				},
				{
					"attributes":{
						"POSITION":6,
						"NORMAL":7
					},
					"indices":8,
					"material":2
				}
			]
		}
	],
	"accessors":[
		{
			"bufferView":0,
			"componentType":5126,
			"count":30,
			"max":[
				0.030980639159679413,
				0.031056029722094536,
				-0.010054822079837322
			],
			"min":[
				-0.031056029722094536,
				-0.031056029722094536,
				-0.018398452550172806
			],
			"type":"VEC3"
		},
		{
			"bufferView":1,
			"componentType":5126,
			"count":30,
			"type":"VEC3"
		},
		{
			"bufferView":2,
			"componentType":5123,
			"count":42,
			"type":"SCALAR"
		},
		{
			"bufferView":3,
			"componentType":5126,
			"count":27,
			"max":[
				0.05000000074505806,
				0.05000000074505806,
				0
			],
			"min":[
				-0.05000000074505806,
				-0.05000000074505806,
				-0.009880452416837215
			],
			"type":"VEC3"
		},
		{
			"bufferView":4,
			"componentType":5126,
			"count":27,
			"type":"VEC3"
		},
		{
			"bufferView":5,
			"componentType":5123,
			"count":51,
			"type":"SCALAR"
		},
		{
			"bufferView":6,
			"componentType":5126,
			"count":27,
			"max":[
				0.032788921147584915,
				0.032788921147584915,
				-0.004606985952705145
			],
			"min":[
				-0.032788921147584915,
				-0.03220873698592186,
				-0.009880452416837215
			],
			"type":"VEC3"
		},
		{
			"bufferView":7,
			"componentType":5126,
			"count":27,
			"type":"VEC3"
		},
		{
			"bufferView":8,
			"componentType":5123,
			"count":39,
			"type":"SCALAR"
		}
	],
	"bufferViews":[
		{
			"buffer":0,
			"byteLength":360,
			"byteOffset":0,
			"target":34962
		},
		{
			"buffer":0,
			"byteLength":360,
			"byteOffset":360,
			"target":34962
		},
		{
			"buffer":0,
			"byteLength":84,
			"byteOffset":720,
			"target":34963
		},
		{
			"buffer":0,
			"byteLength":324,
			"byteOffset":804,
			"target":34962
		},
		{
			"buffer":0,
			"byteLength":324,
			"byteOffset":1128,
			"target":34962
		},
		{
			"buffer":0,
			"byteLength":102,
			"byteOffset":1452,
			"target":34963
		},
		{
			"buffer":0,
			"byteLength":324,
			"byteOffset":1556,
			"target":34962
		},
		{
			"buffer":0,
			"byteLength":324,
			"byteOffset":1880,
			"target":34962
		},
		{
			"buffer":0,
			"byteLength":78,
			"byteOffset":2204,
			"target":34963
		}
	],
	"buffers":[
		{
			"byteLength":2284,
			"uri":"ArrowButton.bin"
		}
	]
}
