{
	"asset":{
		"generator":"Khronos glTF Blender I/O v4.0.44",
		"version":"2.0"
	},
	"scene":0,
	"scenes":[
		{
			"name":"Scene",
			"nodes":[
				0,
				1
			]
		}
	],
	"nodes":[
		{
			"mesh":0,
			"name":"Dashboard.001",
			"translation":[
				0,
				0,
				0.16268804669380188
			]
		},
		{
			"mesh":1,
			"name":"dataport",
			"translation":[
				0,
				0,
				0.4854758083820343
			]
		}
	],
	"materials":[
		{
			"doubleSided":true,
			"name":"dashboard-body",
			"pbrMetallicRoughness":{
				"baseColorFactor":[
					1,
					1,
					1,
					1
				],
				"metallicFactor":1,
				"roughnessFactor":0.764064371585846
			}
		},
		{
			"doubleSided":true,
			"name":"data-connector",
			"pbrMetallicRoughness":{
				"baseColorFactor":[
					0,
					0.05000019073486328,
					0.5,
					1
				],
				"metallicFactor":1,
				"roughnessFactor":1
			}
		}
	],
	"meshes":[
		{
			"name":"Cube.007",
			"primitives":[
				{
					"attributes":{
						"POSITION":0,
						"NORMAL":1
					},
					"indices":2,
					"material":0
				}
			]
		},
		{
			"name":"data_adapter_data",
			"primitives":[
				{
					"attributes":{
						"POSITION":3,
						"NORMAL":4
					},
					"indices":5,
					"material":1
				}
			]
		}
	],
	"accessors":[
		{
			"bufferView":0,
			"componentType":5126,
			"count":24,
			"max":[
				0.75,
				0.5,
				0.02500000037252903
			],
			"min":[
				-0.75,
				-0.5,
				-0.02500000037252903
			],
			"type":"VEC3"
		},
		{
			"bufferView":1,
			"componentType":5126,
			"count":24,
			"type":"VEC3"
		},
		{
			"bufferView":2,
			"componentType":5123,
			"count":36,
			"type":"SCALAR"
		},
		{
			"bufferView":3,
			"componentType":5126,
			"count":376,
			"max":[
				0.024529188871383667,
				0.024529192596673965,
				9.432621794758234e-09
			],
			"min":[
				-0.024529188871383667,
				-0.024529188871383667,
				-0.03064895048737526
			],
			"type":"VEC3"
		},
		{
			"bufferView":4,
			"componentType":5126,
			"count":376,
			"type":"VEC3"
		},
		{
			"bufferView":5,
			"componentType":5123,
			"count":1020,
			"type":"SCALAR"
		}
	],
	"bufferViews":[
		{
			"buffer":0,
			"byteLength":288,
			"byteOffset":0,
			"target":34962
		},
		{
			"buffer":0,
			"byteLength":288,
			"byteOffset":288,
			"target":34962
		},
		{
			"buffer":0,
			"byteLength":72,
			"byteOffset":576,
			"target":34963
		},
		{
			"buffer":0,
			"byteLength":4512,
			"byteOffset":648,
			"target":34962
		},
		{
			"buffer":0,
			"byteLength":4512,
			"byteOffset":5160,
			"target":34962
		},
		{
			"buffer":0,
			"byteLength":2040,
			"byteOffset":9672,
			"target":34963
		}
	],
	"buffers":[
		{
			"byteLength":11712,
			"uri":"Dashboard.bin"
		}
	]
}
