{
	"asset":{
		"generator":"Khronos glTF Blender I/O v4.0.44",
		"version":"2.0"
	},
	"scene":0,
	"scenes":[
		{
			"name":"Scene",
			"nodes":[
				0,
				1
			]
		}
	],
	"nodes":[
		{
			"mesh":0,
			"name":"base",
			"translation":[
				-0.40744492411613464,
				0,
				0
			]
		},
		{
			"mesh":1,
			"name":"led",
			"translation":[
				-0.40744492411613464,
				0,
				0
			]
		}
	],
	"materials":[
		{
			"doubleSided":true,
			"name":"color1",
			"pbrMetallicRoughness":{
				"baseColorFactor":[
					1,
					1,
					1,
					1
				],
				"metallicFactor":0,
				"roughnessFactor":0
			}
		},
		{
			"doubleSided":true,
			"name":"led",
			"pbrMetallicRoughness":{
				"baseColorFactor":[
					1,
					1,
					1,
					1
				],
				"metallicFactor":0,
				"roughnessFactor":1
			}
		},
		{
			"doubleSided":true,
			"name":"body",
			"pbrMetallicRoughness":{
				"baseColorFactor":[
					0.009999999776482582,
					0.009999999776482582,
					0.009999999776482582,
					1
				],
				"metallicFactor":0,
				"roughnessFactor":1
			}
		},
		{
			"doubleSided":true,
			"name":"glass",
			"pbrMetallicRoughness":{
				"baseColorFactor":[
					1,
					1,
					1,
					0.009999999776482582
				],
				"metallicFactor":0,
				"roughnessFactor":0
			}
		}
	],
	"meshes":[
		{
			"name":"Cube.013",
			"primitives":[
				{
					"attributes":{
						"POSITION":0,
						"NORMAL":1
					},
					"indices":2,
					"material":0
				},
				{
					"attributes":{
						"POSITION":3,
						"NORMAL":4
					},
					"indices":5,
					"material":1
				},
				{
					"attributes":{
						"POSITION":6,
						"NORMAL":7
					},
					"indices":8,
					"material":2
				}
			]
		},
		{
			"name":"Cylinder.001",
			"primitives":[
				{
					"attributes":{
						"POSITION":9,
						"NORMAL":10
					},
					"indices":11,
					"material":3
				}
			]
		}
	],
	"accessors":[
		{
			"bufferView":0,
			"componentType":5126,
			"count":88,
			"max":[
				0.02500000037252903,
				0.02500000037252903,
				0
			],
			"min":[
				-0.02500000037252903,
				-0.02500000037252903,
				-0.009999995119869709
			],
			"type":"VEC3"
		},
		{
			"bufferView":1,
			"componentType":5126,
			"count":88,
			"type":"VEC3"
		},
		{
			"bufferView":2,
			"componentType":5123,
			"count":234,
			"type":"SCALAR"
		},
		{
			"bufferView":3,
			"componentType":5126,
			"count":64,
			"max":[
				0.014689534902572632,
				0.014689535833895206,
				-0.003481681691482663
			],
			"min":[
				-0.014689536765217781,
				-0.014689535833895206,
				-0.003481681691482663
			],
			"type":"VEC3"
		},
		{
			"bufferView":4,
			"componentType":5126,
			"count":64,
			"type":"VEC3"
		},
		{
			"bufferView":5,
			"componentType":5123,
			"count":186,
			"type":"SCALAR"
		},
		{
			"bufferView":6,
			"componentType":5126,
			"count":256,
			"max":[
				0.014689534902572632,
				0.014689535833895206,
				-0.003481681691482663
			],
			"min":[
				-0.014689536765217781,
				-0.014689535833895206,
				-0.009999995119869709
			],
			"type":"VEC3"
		},
		{
			"bufferView":7,
			"componentType":5126,
			"count":256,
			"type":"VEC3"
		},
		{
			"bufferView":8,
			"componentType":5123,
			"count":384,
			"type":"SCALAR"
		},
		{
			"bufferView":9,
			"componentType":5126,
			"count":384,
			"max":[
				0.014182832092046738,
				0.014182832092046738,
				-0.00545884994789958
			],
			"min":[
				-0.014182832092046738,
				-0.014182832092046738,
				-0.010939349420368671
			],
			"type":"VEC3"
		},
		{
			"bufferView":10,
			"componentType":5126,
			"count":384,
			"type":"VEC3"
		},
		{
			"bufferView":11,
			"componentType":5123,
			"count":1140,
			"type":"SCALAR"
		}
	],
	"bufferViews":[
		{
			"buffer":0,
			"byteLength":1056,
			"byteOffset":0,
			"target":34962
		},
		{
			"buffer":0,
			"byteLength":1056,
			"byteOffset":1056,
			"target":34962
		},
		{
			"buffer":0,
			"byteLength":468,
			"byteOffset":2112,
			"target":34963
		},
		{
			"buffer":0,
			"byteLength":768,
			"byteOffset":2580,
			"target":34962
		},
		{
			"buffer":0,
			"byteLength":768,
			"byteOffset":3348,
			"target":34962
		},
		{
			"buffer":0,
			"byteLength":372,
			"byteOffset":4116,
			"target":34963
		},
		{
			"buffer":0,
			"byteLength":3072,
			"byteOffset":4488,
			"target":34962
		},
		{
			"buffer":0,
			"byteLength":3072,
			"byteOffset":7560,
			"target":34962
		},
		{
			"buffer":0,
			"byteLength":768,
			"byteOffset":10632,
			"target":34963
		},
		{
			"buffer":0,
			"byteLength":4608,
			"byteOffset":11400,
			"target":34962
		},
		{
			"buffer":0,
			"byteLength":4608,
			"byteOffset":16008,
			"target":34962
		},
		{
			"buffer":0,
			"byteLength":2280,
			"byteOffset":20616,
			"target":34963
		}
	],
	"buffers":[
		{
			"byteLength":22896,
			"uri":"Led.bin"
		}
	]
}
