{
	"asset":{
		"generator":"Khronos glTF Blender I/O v4.0.44",
		"version":"2.0"
	},
	"scene":0,
	"scenes":[
		{
			"name":"Scene",
			"nodes":[
				0,
				1
			]
		}
	],
	"nodes":[
		{
			"mesh":0,
			"name":"base.002",
			"translation":[
				-0.2847846746444702,
				0,
				0
			]
		},
		{
			"mesh":1,
			"name":"button",
			"translation":[
				-0.2847846746444702,
				0,
				0
			]
		}
	],
	"materials":[
		{
			"doubleSided":true,
			"name":"color1",
			"pbrMetallicRoughness":{
				"baseColorFactor":[
					1,
					1,
					1,
					1
				],
				"metallicFactor":0,
				"roughnessFactor":0
			}
		},
		{
			"doubleSided":true,
			"name":"body",
			"pbrMetallicRoughness":{
				"baseColorFactor":[
					0.009999999776482582,
					0.009999999776482582,
					0.009999999776482582,
					1
				],
				"metallicFactor":0,
				"roughnessFactor":1
			}
		},
		{
			"doubleSided":true,
			"name":"color2",
			"pbrMetallicRoughness":{
				"baseColorFactor":[
					0.800000011920929,
					0.800000011920929,
					0.800000011920929,
					1
				],
				"metallicFactor":1,
				"roughnessFactor":1
			}
		}
	],
	"meshes":[
		{
			"name":"Cube.008",
			"primitives":[
				{
					"attributes":{
						"POSITION":0,
						"NORMAL":1
					},
					"indices":2,
					"material":0
				},
				{
					"attributes":{
						"POSITION":3,
						"NORMAL":4
					},
					"indices":5,
					"material":1
				}
			]
		},
		{
			"name":"Cube.010",
			"primitives":[
				{
					"attributes":{
						"POSITION":6,
						"NORMAL":7
					},
					"indices":8,
					"material":2
				}
			]
		}
	],
	"accessors":[
		{
			"bufferView":0,
			"componentType":5126,
			"count":28,
			"max":[
				0.05000000074505806,
				0.05000000074505806,
				0
			],
			"min":[
				-0.05000000074505806,
				-0.05000000074505806,
				-0.009880452416837215
			],
			"type":"VEC3"
		},
		{
			"bufferView":1,
			"componentType":5126,
			"count":28,
			"type":"VEC3"
		},
		{
			"bufferView":2,
			"componentType":5123,
			"count":54,
			"type":"SCALAR"
		},
		{
			"bufferView":3,
			"componentType":5126,
			"count":36,
			"max":[
				0.032788921147584915,
				0.032788921147584915,
				-0.004606985952705145
			],
			"min":[
				-0.032788921147584915,
				-0.032788921147584915,
				-0.009880452416837215
			],
			"type":"VEC3"
		},
		{
			"bufferView":4,
			"componentType":5126,
			"count":36,
			"type":"VEC3"
		},
		{
			"bufferView":5,
			"componentType":5123,
			"count":54,
			"type":"SCALAR"
		},
		{
			"bufferView":6,
			"componentType":5126,
			"count":40,
			"max":[
				0.030980639159679413,
				0.030980639159679413,
				-0.010054822079837322
			],
			"min":[
				-0.030980639159679413,
				-0.030980639159679413,
				-0.018398452550172806
			],
			"type":"VEC3"
		},
		{
			"bufferView":7,
			"componentType":5126,
			"count":40,
			"type":"VEC3"
		},
		{
			"bufferView":8,
			"componentType":5123,
			"count":60,
			"type":"SCALAR"
		}
	],
	"bufferViews":[
		{
			"buffer":0,
			"byteLength":336,
			"byteOffset":0,
			"target":34962
		},
		{
			"buffer":0,
			"byteLength":336,
			"byteOffset":336,
			"target":34962
		},
		{
			"buffer":0,
			"byteLength":108,
			"byteOffset":672,
			"target":34963
		},
		{
			"buffer":0,
			"byteLength":432,
			"byteOffset":780,
			"target":34962
		},
		{
			"buffer":0,
			"byteLength":432,
			"byteOffset":1212,
			"target":34962
		},
		{
			"buffer":0,
			"byteLength":108,
			"byteOffset":1644,
			"target":34963
		},
		{
			"buffer":0,
			"byteLength":480,
			"byteOffset":1752,
			"target":34962
		},
		{
			"buffer":0,
			"byteLength":480,
			"byteOffset":2232,
			"target":34962
		},
		{
			"buffer":0,
			"byteLength":120,
			"byteOffset":2712,
			"target":34963
		}
	],
	"buffers":[
		{
			"byteLength":2832,
			"uri":"PushButton.bin"
		}
	]
}
