{
	"asset":{
		"generator":"Khronos glTF Blender I/O v4.0.44",
		"version":"2.0"
	},
	"scene":0,
	"scenes":[
		{
			"name":"Scene",
			"nodes":[
				0,
				1
			]
		}
	],
	"nodes":[
		{
			"mesh":0,
			"name":"base.001",
			"translation":[
				-0.14084722101688385,
				0,
				0
			]
		},
		{
			"mesh":1,
			"name":"switch",
			"translation":[
				-0.14084722101688385,
				0,
				0
			]
		}
	],
	"materials":[
		{
			"doubleSided":true,
			"name":"color1",
			"pbrMetallicRoughness":{
				"baseColorFactor":[
					1,
					1,
					1,
					1
				],
				"metallicFactor":0,
				"roughnessFactor":0
			}
		},
		{
			"doubleSided":true,
			"name":"body",
			"pbrMetallicRoughness":{
				"baseColorFactor":[
					0.009999999776482582,
					0.009999999776482582,
					0.009999999776482582,
					1
				],
				"metallicFactor":0,
				"roughnessFactor":1
			}
		},
		{
			"doubleSided":true,
			"name":"color2",
			"pbrMetallicRoughness":{
				"baseColorFactor":[
					0.800000011920929,
					0.800000011920929,
					0.800000011920929,
					1
				],
				"metallicFactor":1,
				"roughnessFactor":1
			}
		}
	],
	"meshes":[
		{
			"name":"Cube.004",
			"primitives":[
				{
					"attributes":{
						"POSITION":0,
						"NORMAL":1
					},
					"indices":2,
					"material":0
				},
				{
					"attributes":{
						"POSITION":3,
						"NORMAL":4
					},
					"indices":5,
					"material":1
				}
			]
		},
		{
			"name":"Cube.005",
			"primitives":[
				{
					"attributes":{
						"POSITION":6,
						"NORMAL":7
					},
					"indices":8,
					"material":2
				}
			]
		}
	],
	"accessors":[
		{
			"bufferView":0,
			"componentType":5126,
			"count":184,
			"max":[
				0.05000000074505806,
				0.05000000074505806,
				2.2351741790771484e-08
			],
			"min":[
				-0.05000000819563866,
				-0.05000000074505806,
				-0.01963857188820839
			],
			"type":"VEC3"
		},
		{
			"bufferView":1,
			"componentType":5126,
			"count":184,
			"type":"VEC3"
		},
		{
			"bufferView":2,
			"componentType":5123,
			"count":396,
			"type":"SCALAR"
		},
		{
			"bufferView":3,
			"componentType":5126,
			"count":66,
			"max":[
				0.026165340095758438,
				0.016981158405542374,
				-0.009729883633553982
			],
			"min":[
				-0.02616535872220993,
				-0.016981154680252075,
				-0.014877882786095142
			],
			"type":"VEC3"
		},
		{
			"bufferView":4,
			"componentType":5126,
			"count":66,
			"type":"VEC3"
		},
		{
			"bufferView":5,
			"componentType":5123,
			"count":192,
			"type":"SCALAR"
		},
		{
			"bufferView":6,
			"componentType":5126,
			"count":76,
			"max":[
				0.02530776336789131,
				0.005815163720399141,
				-0.0032715382985770702
			],
			"min":[
				-0.025307781994342804,
				-0.005815163254737854,
				-0.04205358028411865
			],
			"type":"VEC3"
		},
		{
			"bufferView":7,
			"componentType":5126,
			"count":76,
			"type":"VEC3"
		},
		{
			"bufferView":8,
			"componentType":5123,
			"count":204,
			"type":"SCALAR"
		}
	],
	"bufferViews":[
		{
			"buffer":0,
			"byteLength":2208,
			"byteOffset":0,
			"target":34962
		},
		{
			"buffer":0,
			"byteLength":2208,
			"byteOffset":2208,
			"target":34962
		},
		{
			"buffer":0,
			"byteLength":792,
			"byteOffset":4416,
			"target":34963
		},
		{
			"buffer":0,
			"byteLength":792,
			"byteOffset":5208,
			"target":34962
		},
		{
			"buffer":0,
			"byteLength":792,
			"byteOffset":6000,
			"target":34962
		},
		{
			"buffer":0,
			"byteLength":384,
			"byteOffset":6792,
			"target":34963
		},
		{
			"buffer":0,
			"byteLength":912,
			"byteOffset":7176,
			"target":34962
		},
		{
			"buffer":0,
			"byteLength":912,
			"byteOffset":8088,
			"target":34962
		},
		{
			"buffer":0,
			"byteLength":408,
			"byteOffset":9000,
			"target":34963
		}
	],
	"buffers":[
		{
			"byteLength":9408,
			"uri":"ToggleButton.bin"
		}
	]
}
