{
	"asset":{
		"generator":"Khronos glTF Blender I/O v4.3.47",
		"version":"2.0"
	},
	"scene":0,
	"scenes":[
		{
			"name":"Scene",
			"nodes":[
				0,
				1
			]
		}
	],
	"nodes":[
		{
			"mesh":0,
			"name":"fan",
			"translation":[
				0,
				0,
				0.10994294285774231
			]
		},
		{
			"mesh":1,
			"name":"base"
		}
	],
	"materials":[
		{
			"doubleSided":true,
			"name":"body",
			"pbrMetallicRoughness":{
				"baseColorFactor":[
					0.009999999776482582,
					0.009999999776482582,
					0.009999999776482582,
					1
				],
				"metallicFactor":0
			}
		},
		{
			"doubleSided":true,
			"name":"color1",
			"pbrMetallicRoughness":{
				"metallicFactor":0,
				"roughnessFactor":0
			}
		},
		{
			"doubleSided":true,
			"name":"fluid-connector",
			"pbrMetallicRoughness":{
				"baseColorFactor":[
					0.5,
					0.5,
					0.5,
					1
				]
			}
		},
		{
			"doubleSided":true,
			"name":"data-connector",
			"pbrMetallicRoughness":{
				"baseColorFactor":[
					0,
					0.05000000074505806,
					0.5,
					1
				]
			}
		},
		{
			"doubleSided":true,
			"name":"lv-connector",
			"pbrMetallicRoughness":{
				"baseColorFactor":[
					0.5,
					0,
					0,
					1
				]
			}
		},
		{
			"doubleSided":true,
			"name":"rad",
			"pbrMetallicRoughness":{
				"baseColorFactor":[
					0.015567878261208534,
					0.015567878261208534,
					0.015567878261208534,
					1
				]
			}
		},
		{
			"doubleSided":true,
			"name":"piping",
			"pbrMetallicRoughness":{
				"baseColorFactor":[
					0.800774097442627,
					0.2859586179256439,
					0,
					1
				],
				"roughnessFactor":0
			}
		},
		{
			"doubleSided":true,
			"name":"color2",
			"pbrMetallicRoughness":{
				"baseColorFactor":[
					0.800000011920929,
					0.800000011920929,
					0.800000011920929,
					1
				]
			}
		}
	],
	"meshes":[
		{
			"name":"Cylinder.005",
			"primitives":[
				{
					"attributes":{
						"POSITION":0,
						"NORMAL":1
					},
					"indices":2,
					"material":0
				}
			]
		},
		{
			"name":"Cube.001",
			"primitives":[
				{
					"attributes":{
						"POSITION":3,
						"NORMAL":4
					},
					"indices":5,
					"material":1
				},
				{
					"attributes":{
						"POSITION":6,
						"NORMAL":7
					},
					"indices":8,
					"material":2
				},
				{
					"attributes":{
						"POSITION":9,
						"NORMAL":10
					},
					"indices":11,
					"material":0
				},
				{
					"attributes":{
						"POSITION":12,
						"NORMAL":13
					},
					"indices":14,
					"material":3
				},
				{
					"attributes":{
						"POSITION":15,
						"NORMAL":16
					},
					"indices":17,
					"material":4
				},
				{
					"attributes":{
						"POSITION":18,
						"NORMAL":19
					},
					"indices":20,
					"material":5
				},
				{
					"attributes":{
						"POSITION":21,
						"NORMAL":22
					},
					"indices":23,
					"material":6
				},
				{
					"attributes":{
						"POSITION":24,
						"NORMAL":25
					},
					"indices":26,
					"material":7
				}
			]
		}
	],
	"accessors":[
		{
			"bufferView":0,
			"componentType":5126,
			"count":7249,
			"max":[
				0.35862648487091064,
				0.36125198006629944,
				0.07521265745162964
			],
			"min":[
				-0.356937050819397,
				-0.34949037432670593,
				-0.01414092630147934
			],
			"type":"VEC3"
		},
		{
			"bufferView":1,
			"componentType":5126,
			"count":7249,
			"type":"VEC3"
		},
		{
			"bufferView":2,
			"componentType":5123,
			"count":27966,
			"type":"SCALAR"
		},
		{
			"bufferView":3,
			"componentType":5126,
			"count":447,
			"max":[
				0.5000000596046448,
				0.5,
				0.12499965727329254
			],
			"min":[
				-0.5000000596046448,
				-0.5,
				-0.12500016391277313
			],
			"type":"VEC3"
		},
		{
			"bufferView":4,
			"componentType":5126,
			"count":447,
			"type":"VEC3"
		},
		{
			"bufferView":5,
			"componentType":5123,
			"count":912,
			"type":"SCALAR"
		},
		{
			"bufferView":6,
			"componentType":5126,
			"count":9216,
			"max":[
				0.4848964810371399,
				-0.24176070094108582,
				-0.12499959766864777
			],
			"min":[
				-0.48489660024642944,
				-0.49155375361442566,
				-0.16283367574214935
			],
			"type":"VEC3"
		},
		{
			"bufferView":7,
			"componentType":5126,
			"count":9216,
			"type":"VEC3"
		},
		{
			"bufferView":8,
			"componentType":5123,
			"count":21624,
			"type":"SCALAR"
		},
		{
			"bufferView":9,
			"componentType":5126,
			"count":628,
			"max":[
				0.4268733561038971,
				0.4268733263015747,
				0.21575449407100677
			],
			"min":[
				-0.4268733561038971,
				-0.4268733263015747,
				-0.12500013411045074
			],
			"type":"VEC3"
		},
		{
			"bufferView":10,
			"componentType":5126,
			"count":628,
			"type":"VEC3"
		},
		{
			"bufferView":11,
			"componentType":5123,
			"count":1734,
			"type":"SCALAR"
		},
		{
			"bufferView":12,
			"componentType":5126,
			"count":552,
			"max":[
				0.029859129339456558,
				-0.397320032119751,
				-0.1249999850988388
			],
			"min":[
				-0.029859216883778572,
				-0.45703834295272827,
				-0.14564895629882812
			],
			"type":"VEC3"
		},
		{
			"bufferView":13,
			"componentType":5126,
			"count":552,
			"type":"VEC3"
		},
		{
			"bufferView":14,
			"componentType":5123,
			"count":1020,
			"type":"SCALAR"
		},
		{
			"bufferView":15,
			"componentType":5126,
			"count":624,
			"max":[
				0.030625808984041214,
				-0.2808675765991211,
				-0.12499992549419403
			],
			"min":[
				-0.030625896528363228,
				-0.3421192765235901,
				-0.14538036286830902
			],
			"type":"VEC3"
		},
		{
			"bufferView":16,
			"componentType":5126,
			"count":624,
			"type":"VEC3"
		},
		{
			"bufferView":17,
			"componentType":5123,
			"count":996,
			"type":"SCALAR"
		},
		{
			"bufferView":18,
			"componentType":5126,
			"count":1704,
			"max":[
				0.4196694493293762,
				0.4268733561038971,
				0.09324392676353455
			],
			"min":[
				-0.4196694493293762,
				-0.4268733561038971,
				-0.10544603317975998
			],
			"type":"VEC3"
		},
		{
			"bufferView":19,
			"componentType":5126,
			"count":1704,
			"type":"VEC3"
		},
		{
			"bufferView":20,
			"componentType":5123,
			"count":2556,
			"type":"SCALAR"
		},
		{
			"bufferView":21,
			"componentType":5126,
			"count":25590,
			"max":[
				0.4809713661670685,
				0.45074692368507385,
				0.01684413105249405
			],
			"min":[
				-0.483970046043396,
				-0.44769006967544556,
				-0.016844239085912704
			],
			"type":"VEC3"
		},
		{
			"bufferView":22,
			"componentType":5126,
			"count":25590,
			"type":"VEC3"
		},
		{
			"bufferView":23,
			"componentType":5123,
			"count":144180,
			"type":"SCALAR"
		},
		{
			"bufferView":24,
			"componentType":5126,
			"count":1262,
			"max":[
				0.43531861901283264,
				0.43531858921051025,
				0.2001274675130844
			],
			"min":[
				-0.43531855940818787,
				-0.43531858921051025,
				0.1109408289194107
			],
			"type":"VEC3"
		},
		{
			"bufferView":25,
			"componentType":5126,
			"count":1262,
			"type":"VEC3"
		},
		{
			"bufferView":26,
			"componentType":5123,
			"count":3108,
			"type":"SCALAR"
		}
	],
	"bufferViews":[
		{
			"buffer":0,
			"byteLength":86988,
			"byteOffset":0,
			"target":34962
		},
		{
			"buffer":0,
			"byteLength":86988,
			"byteOffset":86988,
			"target":34962
		},
		{
			"buffer":0,
			"byteLength":55932,
			"byteOffset":173976,
			"target":34963
		},
		{
			"buffer":0,
			"byteLength":5364,
			"byteOffset":229908,
			"target":34962
		},
		{
			"buffer":0,
			"byteLength":5364,
			"byteOffset":235272,
			"target":34962
		},
		{
			"buffer":0,
			"byteLength":1824,
			"byteOffset":240636,
			"target":34963
		},
		{
			"buffer":0,
			"byteLength":110592,
			"byteOffset":242460,
			"target":34962
		},
		{
			"buffer":0,
			"byteLength":110592,
			"byteOffset":353052,
			"target":34962
		},
		{
			"buffer":0,
			"byteLength":43248,
			"byteOffset":463644,
			"target":34963
		},
		{
			"buffer":0,
			"byteLength":7536,
			"byteOffset":506892,
			"target":34962
		},
		{
			"buffer":0,
			"byteLength":7536,
			"byteOffset":514428,
			"target":34962
		},
		{
			"buffer":0,
			"byteLength":3468,
			"byteOffset":521964,
			"target":34963
		},
		{
			"buffer":0,
			"byteLength":6624,
			"byteOffset":525432,
			"target":34962
		},
		{
			"buffer":0,
			"byteLength":6624,
			"byteOffset":532056,
			"target":34962
		},
		{
			"buffer":0,
			"byteLength":2040,
			"byteOffset":538680,
			"target":34963
		},
		{
			"buffer":0,
			"byteLength":7488,
			"byteOffset":540720,
			"target":34962
		},
		{
			"buffer":0,
			"byteLength":7488,
			"byteOffset":548208,
			"target":34962
		},
		{
			"buffer":0,
			"byteLength":1992,
			"byteOffset":555696,
			"target":34963
		},
		{
			"buffer":0,
			"byteLength":20448,
			"byteOffset":557688,
			"target":34962
		},
		{
			"buffer":0,
			"byteLength":20448,
			"byteOffset":578136,
			"target":34962
		},
		{
			"buffer":0,
			"byteLength":5112,
			"byteOffset":598584,
			"target":34963
		},
		{
			"buffer":0,
			"byteLength":307080,
			"byteOffset":603696,
			"target":34962
		},
		{
			"buffer":0,
			"byteLength":307080,
			"byteOffset":910776,
			"target":34962
		},
		{
			"buffer":0,
			"byteLength":288360,
			"byteOffset":1217856,
			"target":34963
		},
		{
			"buffer":0,
			"byteLength":15144,
			"byteOffset":1506216,
			"target":34962
		},
		{
			"buffer":0,
			"byteLength":15144,
			"byteOffset":1521360,
			"target":34962
		},
		{
			"buffer":0,
			"byteLength":6216,
			"byteOffset":1536504,
			"target":34963
		}
	],
	"buffers":[
		{
			"byteLength":1542720,
			"uri":"ActiveRadiator.bin"
		}
	]
}
