{
	"asset":{
		"generator":"Khronos glTF Blender I/O v4.4.55",
		"version":"2.0"
	},
	"scene":0,
	"scenes":[
		{
			"name":"Scene",
			"nodes":[
				0
			]
		}
	],
	"nodes":[
		{
			"mesh":0,
			"name":"base",
			"translation":[
				0,
				-0.07500000298023224,
				0
			]
		}
	],
	"materials":[
		{
			"doubleSided":true,
			"name":"color1",
			"pbrMetallicRoughness":{
				"baseColorFactor":[
					1,
					1,
					1,
					1
				],
				"metallicFactor":0,
				"roughnessFactor":0
			}
		},
		{
			"doubleSided":true,
			"name":"body",
			"pbrMetallicRoughness":{
				"baseColorFactor":[
					0.029999999329447746,
					0.029999999329447746,
					0.029999999329447746,
					1
				]
			}
		},
		{
			"doubleSided":true,
			"name":"code",
			"pbrMetallicRoughness":{
				"baseColorFactor":[
					0.030000001192092896,
					0.037000030279159546,
					0.10000000149011612,
					1
				],
				"metallicFactor":0
			}
		},
		{
			"doubleSided":true,
			"name":"subscribe",
			"pbrMetallicRoughness":{
				"baseColorFactor":[
					0.030000001192092896,
					0.10000000149011612,
					0.032617487013339996,
					1
				],
				"metallicFactor":0
			}
		},
		{
			"doubleSided":true,
			"name":"codein",
			"pbrMetallicRoughness":{
				"baseColorFactor":[
					0,
					0,
					0,
					1
				],
				"metallicFactor":0
			}
		},
		{
			"doubleSided":true,
			"name":"activein",
			"pbrMetallicRoughness":{
				"baseColorFactor":[
					0,
					0,
					0,
					1
				],
				"metallicFactor":0
			}
		},
		{
			"doubleSided":true,
			"name":"data-connector",
			"pbrMetallicRoughness":{
				"baseColorFactor":[
					0,
					0.05000019073486328,
					0.5,
					1
				],
				"metallicFactor":1,
				"roughnessFactor":1
			}
		}
	],
	"meshes":[
		{
			"name":"Cube",
			"primitives":[
				{
					"attributes":{
						"POSITION":0
					},
					"indices":1,
					"material":0
				},
				{
					"attributes":{
						"POSITION":2
					},
					"indices":3,
					"material":1
				},
				{
					"attributes":{
						"POSITION":4
					},
					"indices":5,
					"material":2
				},
				{
					"attributes":{
						"POSITION":6
					},
					"indices":7,
					"material":3
				},
				{
					"attributes":{
						"POSITION":8
					},
					"indices":9,
					"material":4
				},
				{
					"attributes":{
						"POSITION":10
					},
					"indices":11,
					"material":5
				},
				{
					"attributes":{
						"POSITION":12
					},
					"indices":13,
					"material":6
				}
			]
		}
	],
	"accessors":[
		{
			"bufferView":0,
			"componentType":5126,
			"count":67,
			"max":[
				0.125,
				0,
				0.125
			],
			"min":[
				-0.125,
				-0.05000000074505806,
				-0.125
			],
			"type":"VEC3"
		},
		{
			"bufferView":1,
			"componentType":5123,
			"count":144,
			"type":"SCALAR"
		},
		{
			"bufferView":2,
			"componentType":5126,
			"count":104,
			"max":[
				0.11250847578048706,
				0,
				0.11222273111343384
			],
			"min":[
				-0.11250847578048706,
				-0.01968090794980526,
				-0.11222273111343384
			],
			"type":"VEC3"
		},
		{
			"bufferView":3,
			"componentType":5123,
			"count":216,
			"type":"SCALAR"
		},
		{
			"bufferView":4,
			"componentType":5126,
			"count":293,
			"max":[
				0.1101866289973259,
				0.0034521296620368958,
				0.10940306633710861
			],
			"min":[
				-0.1101866289973259,
				-0.0011388566344976425,
				0.005868755280971527
			],
			"type":"VEC3"
		},
		{
			"bufferView":5,
			"componentType":5123,
			"count":861,
			"type":"SCALAR"
		},
		{
			"bufferView":6,
			"componentType":5126,
			"count":175,
			"max":[
				0.1101866289973259,
				0.0034521296620368958,
				-0.005868755280971527
			],
			"min":[
				-0.1101866289973259,
				-0.0011388566344976425,
				-0.10940306633710861
			],
			"type":"VEC3"
		},
		{
			"bufferView":7,
			"componentType":5123,
			"count":525,
			"type":"SCALAR"
		},
		{
			"bufferView":8,
			"componentType":5126,
			"count":827,
			"max":[
				0.08992233872413635,
				0.0034521296620368958,
				0.08152541518211365
			],
			"min":[
				-0.08601228892803192,
				-0.011416563764214516,
				0.03598020598292351
			],
			"type":"VEC3"
		},
		{
			"bufferView":9,
			"componentType":5123,
			"count":2346,
			"type":"SCALAR"
		},
		{
			"bufferView":10,
			"componentType":5126,
			"count":521,
			"max":[
				0.09728611260652542,
				0.0034521296620368958,
				-0.03717803582549095
			],
			"min":[
				-0.09416551142930984,
				-0.011416548863053322,
				-0.07773981988430023
			],
			"type":"VEC3"
		},
		{
			"bufferView":11,
			"componentType":5123,
			"count":1248,
			"type":"SCALAR"
		},
		{
			"bufferView":12,
			"componentType":5126,
			"count":376,
			"max":[
				0.02985917031764984,
				-0.04999998211860657,
				0.02985917031764984
			],
			"min":[
				-0.02985917031764984,
				-0.07064895331859589,
				-0.02985917590558529
			],
			"type":"VEC3"
		},
		{
			"bufferView":13,
			"componentType":5123,
			"count":1020,
			"type":"SCALAR"
		}
	],
	"bufferViews":[
		{
			"buffer":0,
			"byteLength":804,
			"byteOffset":0,
			"target":34962
		},
		{
			"buffer":0,
			"byteLength":288,
			"byteOffset":804,
			"target":34963
		},
		{
			"buffer":0,
			"byteLength":1248,
			"byteOffset":1092,
			"target":34962
		},
		{
			"buffer":0,
			"byteLength":432,
			"byteOffset":2340,
			"target":34963
		},
		{
			"buffer":0,
			"byteLength":3516,
			"byteOffset":2772,
			"target":34962
		},
		{
			"buffer":0,
			"byteLength":1722,
			"byteOffset":6288,
			"target":34963
		},
		{
			"buffer":0,
			"byteLength":2100,
			"byteOffset":8012,
			"target":34962
		},
		{
			"buffer":0,
			"byteLength":1050,
			"byteOffset":10112,
			"target":34963
		},
		{
			"buffer":0,
			"byteLength":9924,
			"byteOffset":11164,
			"target":34962
		},
		{
			"buffer":0,
			"byteLength":4692,
			"byteOffset":21088,
			"target":34963
		},
		{
			"buffer":0,
			"byteLength":6252,
			"byteOffset":25780,
			"target":34962
		},
		{
			"buffer":0,
			"byteLength":2496,
			"byteOffset":32032,
			"target":34963
		},
		{
			"buffer":0,
			"byteLength":4512,
			"byteOffset":34528,
			"target":34962
		},
		{
			"buffer":0,
			"byteLength":2040,
			"byteOffset":39040,
			"target":34963
		}
	],
	"buffers":[
		{
			"byteLength":41080,
			"uri":"HudController.bin"
		}
	]
}
