{
	"asset":{
		"generator":"Khronos glTF Blender I/O v4.0.44",
		"version":"2.0"
	},
	"scene":0,
	"scenes":[
		{
			"name":"Scene",
			"nodes":[
				0
			]
		}
	],
	"nodes":[
		{
			"mesh":0,
			"name":"body"
		}
	],
	"materials":[
		{
			"doubleSided":true,
			"name":"color1",
			"pbrMetallicRoughness":{
				"baseColorFactor":[
					1,
					1,
					1,
					1
				],
				"metallicFactor":0,
				"roughnessFactor":0
			}
		},
		{
			"doubleSided":true,
			"name":"cell",
			"pbrMetallicRoughness":{
				"baseColorFactor":[
					0.011261645704507828,
					0.011564518325030804,
					0.027718570083379745,
					1
				],
				"metallicFactor":1,
				"roughnessFactor":0
			}
		},
		{
			"doubleSided":true,
			"name":"body",
			"pbrMetallicRoughness":{
				"baseColorFactor":[
					0.009999999776482582,
					0.009999999776482582,
					0.009999999776482582,
					1
				],
				"metallicFactor":0,
				"roughnessFactor":1
			}
		},
		{
			"doubleSided":true,
			"name":"data-connector",
			"pbrMetallicRoughness":{
				"baseColorFactor":[
					0,
					0.05000019073486328,
					0.5,
					1
				],
				"metallicFactor":1,
				"roughnessFactor":1
			}
		}
	],
	"meshes":[
		{
			"name":"Cube",
			"primitives":[
				{
					"attributes":{
						"POSITION":0,
						"NORMAL":1
					},
					"indices":2,
					"material":0
				},
				{
					"attributes":{
						"POSITION":3,
						"NORMAL":4
					},
					"indices":5,
					"material":1
				},
				{
					"attributes":{
						"POSITION":6,
						"NORMAL":7
					},
					"indices":8,
					"material":2
				},
				{
					"attributes":{
						"POSITION":9,
						"NORMAL":10
					},
					"indices":11,
					"material":3
				}
			]
		}
	],
	"accessors":[
		{
			"bufferView":0,
			"componentType":5126,
			"count":88,
			"max":[
				0.125,
				-0.07000000029802322,
				0.125
			],
			"min":[
				-0.125,
				-0.125,
				-0.125
			],
			"type":"VEC3"
		},
		{
			"bufferView":1,
			"componentType":5126,
			"count":88,
			"type":"VEC3"
		},
		{
			"bufferView":2,
			"componentType":5123,
			"count":126,
			"type":"SCALAR"
		},
		{
			"bufferView":3,
			"componentType":5126,
			"count":20,
			"max":[
				0.08934342116117477,
				-0.07408194243907928,
				0.04372527077794075
			],
			"min":[
				-0.08934342116117477,
				-0.0987304076552391,
				-0.04372527077794075
			],
			"type":"VEC3"
		},
		{
			"bufferView":4,
			"componentType":5126,
			"count":20,
			"type":"VEC3"
		},
		{
			"bufferView":5,
			"componentType":5123,
			"count":30,
			"type":"SCALAR"
		},
		{
			"bufferView":6,
			"componentType":5126,
			"count":32,
			"max":[
				0.09240996837615967,
				-0.07000000029802322,
				0.04372527077794075
			],
			"min":[
				-0.09240996837615967,
				-0.0987304076552391,
				-0.04372527077794075
			],
			"type":"VEC3"
		},
		{
			"bufferView":7,
			"componentType":5126,
			"count":32,
			"type":"VEC3"
		},
		{
			"bufferView":8,
			"componentType":5123,
			"count":72,
			"type":"SCALAR"
		},
		{
			"bufferView":9,
			"componentType":5126,
			"count":552,
			"max":[
				0.02985917031764984,
				-0.1249999850988388,
				0.02985917031764984
			],
			"min":[
				-0.02985917590558529,
				-0.14564895629882812,
				-0.02985917031764984
			],
			"type":"VEC3"
		},
		{
			"bufferView":10,
			"componentType":5126,
			"count":552,
			"type":"VEC3"
		},
		{
			"bufferView":11,
			"componentType":5123,
			"count":1020,
			"type":"SCALAR"
		}
	],
	"bufferViews":[
		{
			"buffer":0,
			"byteLength":1056,
			"byteOffset":0,
			"target":34962
		},
		{
			"buffer":0,
			"byteLength":1056,
			"byteOffset":1056,
			"target":34962
		},
		{
			"buffer":0,
			"byteLength":252,
			"byteOffset":2112,
			"target":34963
		},
		{
			"buffer":0,
			"byteLength":240,
			"byteOffset":2364,
			"target":34962
		},
		{
			"buffer":0,
			"byteLength":240,
			"byteOffset":2604,
			"target":34962
		},
		{
			"buffer":0,
			"byteLength":60,
			"byteOffset":2844,
			"target":34963
		},
		{
			"buffer":0,
			"byteLength":384,
			"byteOffset":2904,
			"target":34962
		},
		{
			"buffer":0,
			"byteLength":384,
			"byteOffset":3288,
			"target":34962
		},
		{
			"buffer":0,
			"byteLength":144,
			"byteOffset":3672,
			"target":34963
		},
		{
			"buffer":0,
			"byteLength":6624,
			"byteOffset":3816,
			"target":34962
		},
		{
			"buffer":0,
			"byteLength":6624,
			"byteOffset":10440,
			"target":34962
		},
		{
			"buffer":0,
			"byteLength":2040,
			"byteOffset":17064,
			"target":34963
		}
	],
	"buffers":[
		{
			"byteLength":19104,
			"uri":"SolarSensor.bin"
		}
	]
}
