{
	"asset":{
		"generator":"Khronos glTF Blender I/O v4.4.55",
		"version":"2.0"
	},
	"scene":0,
	"scenes":[
		{
			"name":"Scene",
			"nodes":[
				0
			]
		}
	],
	"nodes":[
		{
			"mesh":0,
			"name":"base",
			"translation":[
				-0.7982901334762573,
				-0.22440531849861145,
				-0.02466798946261406
			]
		}
	],
	"materials":[
		{
			"doubleSided":true,
			"name":"color1",
			"pbrMetallicRoughness":{
				"metallicFactor":0,
				"roughnessFactor":0
			}
		},
		{
			"doubleSided":true,
			"name":"fluid-connector",
			"pbrMetallicRoughness":{
				"baseColorFactor":[
					0.5,
					0.5,
					0.5,
					1
				]
			}
		},
		{
			"doubleSided":true,
			"name":"hv-connector",
			"pbrMetallicRoughness":{
				"baseColorFactor":[
					0.5,
					0.15000000596046448,
					0,
					1
				]
			}
		},
		{
			"doubleSided":true,
			"name":"data-connector",
			"pbrMetallicRoughness":{
				"baseColorFactor":[
					0,
					0.05000000074505806,
					0.5,
					1
				]
			}
		},
		{
			"doubleSided":true,
			"name":"body",
			"pbrMetallicRoughness":{
				"baseColorFactor":[
					0.029999999329447746,
					0.029999999329447746,
					0.029999999329447746,
					1
				]
			}
		},
		{
			"doubleSided":true,
			"name":"door",
			"pbrMetallicRoughness":{
				"baseColorFactor":[
					0.17638050019741058,
					0.1448821872472763,
					0.1282123476266861,
					1
				]
			}
		},
		{
			"doubleSided":true,
			"name":"color2",
			"pbrMetallicRoughness":{
				"baseColorFactor":[
					0.800000011920929,
					0.800000011920929,
					0.800000011920929,
					1
				]
			}
		},
		{
			"doubleSided":true,
			"name":"screen",
			"pbrMetallicRoughness":{
				"baseColorFactor":[
					0,
					0,
					0,
					1
				]
			}
		}
	],
	"meshes":[
		{
			"name":"Cube.008",
			"primitives":[
				{
					"attributes":{
						"POSITION":0,
						"NORMAL":1,
						"TEXCOORD_0":2
					},
					"indices":3,
					"material":0
				},
				{
					"attributes":{
						"POSITION":4,
						"NORMAL":5,
						"TEXCOORD_0":6
					},
					"indices":7,
					"material":1
				},
				{
					"attributes":{
						"POSITION":8,
						"NORMAL":9,
						"TEXCOORD_0":10
					},
					"indices":11,
					"material":2
				},
				{
					"attributes":{
						"POSITION":12,
						"NORMAL":13,
						"TEXCOORD_0":14
					},
					"indices":15,
					"material":3
				},
				{
					"attributes":{
						"POSITION":16,
						"NORMAL":17,
						"TEXCOORD_0":18
					},
					"indices":19,
					"material":4
				},
				{
					"attributes":{
						"POSITION":20,
						"NORMAL":21,
						"TEXCOORD_0":22
					},
					"indices":23,
					"material":5
				},
				{
					"attributes":{
						"POSITION":24,
						"NORMAL":25,
						"TEXCOORD_0":26
					},
					"indices":27,
					"material":6
				},
				{
					"attributes":{
						"POSITION":28,
						"NORMAL":29,
						"TEXCOORD_0":30
					},
					"indices":31,
					"material":7
				}
			]
		}
	],
	"accessors":[
		{
			"bufferView":0,
			"componentType":5126,
			"count":536,
			"max":[
				1.7305316925048828,
				0.9816967248916626,
				0.7088720202445984
			],
			"min":[
				-0.20170927047729492,
				-0.7755948305130005,
				-0.6595367193222046
			],
			"type":"VEC3"
		},
		{
			"bufferView":1,
			"componentType":5126,
			"count":536,
			"type":"VEC3"
		},
		{
			"bufferView":2,
			"componentType":5126,
			"count":536,
			"type":"VEC2"
		},
		{
			"bufferView":3,
			"componentType":5123,
			"count":2022,
			"type":"SCALAR"
		},
		{
			"bufferView":4,
			"componentType":5126,
			"count":7836,
			"max":[
				1.848290205001831,
				-0.32010820508003235,
				0.33956456184387207
			],
			"min":[
				-0.2517091929912567,
				-0.5701084136962891,
				-0.29033201932907104
			],
			"type":"VEC3"
		},
		{
			"bufferView":5,
			"componentType":5126,
			"count":7836,
			"type":"VEC3"
		},
		{
			"bufferView":6,
			"componentType":5126,
			"count":7836,
			"type":"VEC2"
		},
		{
			"bufferView":7,
			"componentType":5123,
			"count":20418,
			"type":"SCALAR"
		},
		{
			"bufferView":8,
			"componentType":5126,
			"count":696,
			"max":[
				0.1806536614894867,
				-0.3752318024635315,
				0.7505914568901062
			],
			"min":[
				0.03995278477668762,
				-0.5159326791763306,
				0.7088721990585327
			],
			"type":"VEC3"
		},
		{
			"bufferView":9,
			"componentType":5126,
			"count":696,
			"type":"VEC3"
		},
		{
			"bufferView":10,
			"componentType":5126,
			"count":696,
			"type":"VEC2"
		},
		{
			"bufferView":11,
			"componentType":5123,
			"count":2148,
			"type":"SCALAR"
		},
		{
			"bufferView":12,
			"componentType":5126,
			"count":376,
			"max":[
				0.140162393450737,
				-0.22118131816387177,
				0.7295209765434265
			],
			"min":[
				0.08044405281543732,
				-0.28089967370033264,
				0.7088720202445984
			],
			"type":"VEC3"
		},
		{
			"bufferView":13,
			"componentType":5126,
			"count":376,
			"type":"VEC3"
		},
		{
			"bufferView":14,
			"componentType":5126,
			"count":376,
			"type":"VEC2"
		},
		{
			"bufferView":15,
			"componentType":5123,
			"count":1020,
			"type":"SCALAR"
		},
		{
			"bufferView":16,
			"componentType":5126,
			"count":528,
			"max":[
				1.7982901334762573,
				1.224405288696289,
				0.7746679782867432
			],
			"min":[
				0.41231560707092285,
				-0.6344482898712158,
				-0.7253320217132568
			],
			"type":"VEC3"
		},
		{
			"bufferView":17,
			"componentType":5126,
			"count":528,
			"type":"VEC3"
		},
		{
			"bufferView":18,
			"componentType":5126,
			"count":528,
			"type":"VEC2"
		},
		{
			"bufferView":19,
			"componentType":5123,
			"count":2424,
			"type":"SCALAR"
		},
		{
			"bufferView":20,
			"componentType":5126,
			"count":40,
			"max":[
				1.6679885387420654,
				1.0790401697158813,
				-0.7082760334014893
			],
			"min":[
				0.54261714220047,
				-0.5561600923538208,
				-0.7253320217132568
			],
			"type":"VEC3"
		},
		{
			"bufferView":21,
			"componentType":5126,
			"count":40,
			"type":"VEC3"
		},
		{
			"bufferView":22,
			"componentType":5126,
			"count":40,
			"type":"VEC2"
		},
		{
			"bufferView":23,
			"componentType":5123,
			"count":60,
			"type":"SCALAR"
		},
		{
			"bufferView":24,
			"componentType":5126,
			"count":16,
			"max":[
				0.3549967408180237,
				0.8426110744476318,
				-0.6542178392410278
			],
			"min":[
				-0.13439029455184937,
				0.6035351753234863,
				-0.6566131711006165
			],
			"type":"VEC3"
		},
		{
			"bufferView":25,
			"componentType":5126,
			"count":16,
			"type":"VEC3"
		},
		{
			"bufferView":26,
			"componentType":5126,
			"count":16,
			"type":"VEC2"
		},
		{
			"bufferView":27,
			"componentType":5123,
			"count":24,
			"type":"SCALAR"
		},
		{
			"bufferView":28,
			"componentType":5126,
			"count":4,
			"max":[
				0.3549967408180237,
				0.8426110744476318,
				-0.6542178392410278
			],
			"min":[
				-0.13439029455184937,
				0.6035351753234863,
				-0.6542178392410278
			],
			"type":"VEC3"
		},
		{
			"bufferView":29,
			"componentType":5126,
			"count":4,
			"type":"VEC3"
		},
		{
			"bufferView":30,
			"componentType":5126,
			"count":4,
			"type":"VEC2"
		},
		{
			"bufferView":31,
			"componentType":5123,
			"count":6,
			"type":"SCALAR"
		}
	],
	"bufferViews":[
		{
			"buffer":0,
			"byteLength":6432,
			"byteOffset":0,
			"target":34962
		},
		{
			"buffer":0,
			"byteLength":6432,
			"byteOffset":6432,
			"target":34962
		},
		{
			"buffer":0,
			"byteLength":4288,
			"byteOffset":12864,
			"target":34962
		},
		{
			"buffer":0,
			"byteLength":4044,
			"byteOffset":17152,
			"target":34963
		},
		{
			"buffer":0,
			"byteLength":94032,
			"byteOffset":21196,
			"target":34962
		},
		{
			"buffer":0,
			"byteLength":94032,
			"byteOffset":115228,
			"target":34962
		},
		{
			"buffer":0,
			"byteLength":62688,
			"byteOffset":209260,
			"target":34962
		},
		{
			"buffer":0,
			"byteLength":40836,
			"byteOffset":271948,
			"target":34963
		},
		{
			"buffer":0,
			"byteLength":8352,
			"byteOffset":312784,
			"target":34962
		},
		{
			"buffer":0,
			"byteLength":8352,
			"byteOffset":321136,
			"target":34962
		},
		{
			"buffer":0,
			"byteLength":5568,
			"byteOffset":329488,
			"target":34962
		},
		{
			"buffer":0,
			"byteLength":4296,
			"byteOffset":335056,
			"target":34963
		},
		{
			"buffer":0,
			"byteLength":4512,
			"byteOffset":339352,
			"target":34962
		},
		{
			"buffer":0,
			"byteLength":4512,
			"byteOffset":343864,
			"target":34962
		},
		{
			"buffer":0,
			"byteLength":3008,
			"byteOffset":348376,
			"target":34962
		},
		{
			"buffer":0,
			"byteLength":2040,
			"byteOffset":351384,
			"target":34963
		},
		{
			"buffer":0,
			"byteLength":6336,
			"byteOffset":353424,
			"target":34962
		},
		{
			"buffer":0,
			"byteLength":6336,
			"byteOffset":359760,
			"target":34962
		},
		{
			"buffer":0,
			"byteLength":4224,
			"byteOffset":366096,
			"target":34962
		},
		{
			"buffer":0,
			"byteLength":4848,
			"byteOffset":370320,
			"target":34963
		},
		{
			"buffer":0,
			"byteLength":480,
			"byteOffset":375168,
			"target":34962
		},
		{
			"buffer":0,
			"byteLength":480,
			"byteOffset":375648,
			"target":34962
		},
		{
			"buffer":0,
			"byteLength":320,
			"byteOffset":376128,
			"target":34962
		},
		{
			"buffer":0,
			"byteLength":120,
			"byteOffset":376448,
			"target":34963
		},
		{
			"buffer":0,
			"byteLength":192,
			"byteOffset":376568,
			"target":34962
		},
		{
			"buffer":0,
			"byteLength":192,
			"byteOffset":376760,
			"target":34962
		},
		{
			"buffer":0,
			"byteLength":128,
			"byteOffset":376952,
			"target":34962
		},
		{
			"buffer":0,
			"byteLength":48,
			"byteOffset":377080,
			"target":34963
		},
		{
			"buffer":0,
			"byteLength":48,
			"byteOffset":377128,
			"target":34962
		},
		{
			"buffer":0,
			"byteLength":48,
			"byteOffset":377176,
			"target":34962
		},
		{
			"buffer":0,
			"byteLength":32,
			"byteOffset":377224,
			"target":34962
		},
		{
			"buffer":0,
			"byteLength":12,
			"byteOffset":377256,
			"target":34963
		}
	],
	"buffers":[
		{
			"byteLength":377268,
			"uri":"ChemicalFurnace.bin"
		}
	]
}
