{
	"asset":{
		"generator":"Khronos glTF Blender I/O v4.3.47",
		"version":"2.0"
	},
	"scene":0,
	"scenes":[
		{
			"name":"Scene",
			"nodes":[
				0
			]
		}
	],
	"nodes":[
		{
			"mesh":0,
			"name":"base",
			"translation":[
				0,
				0,
				0.12500014901161194
			]
		}
	],
	"materials":[
		{
			"doubleSided":true,
			"name":"fluid-connector",
			"pbrMetallicRoughness":{
				"baseColorFactor":[
					0.5,
					0.5,
					0.5,
					1
				]
			}
		},
		{
			"doubleSided":true,
			"name":"data-connector",
			"pbrMetallicRoughness":{
				"baseColorFactor":[
					0,
					0.05000000074505806,
					0.5,
					1
				]
			}
		},
		{
			"doubleSided":true,
			"name":"rad",
			"pbrMetallicRoughness":{
				"baseColorFactor":[
					0.015567878261208534,
					0.015567878261208534,
					0.015567878261208534,
					1
				]
			}
		}
	],
	"meshes":[
		{
			"name":"Cube.002",
			"primitives":[
				{
					"attributes":{
						"POSITION":0,
						"NORMAL":1
					},
					"indices":2,
					"material":0
				},
				{
					"attributes":{
						"POSITION":3,
						"NORMAL":4
					},
					"indices":5,
					"material":1
				},
				{
					"attributes":{
						"POSITION":6,
						"NORMAL":7
					},
					"indices":8,
					"material":2
				}
			]
		}
	],
	"accessors":[
		{
			"bufferView":0,
			"componentType":5126,
			"count":9216,
			"max":[
				0.4848964810371399,
				-0.24176070094108582,
				-0.2499997466802597
			],
			"min":[
				-0.48489660024642944,
				-0.49155375361442566,
				-0.2878338098526001
			],
			"type":"VEC3"
		},
		{
			"bufferView":1,
			"componentType":5126,
			"count":9216,
			"type":"VEC3"
		},
		{
			"bufferView":2,
			"componentType":5123,
			"count":21624,
			"type":"SCALAR"
		},
		{
			"bufferView":3,
			"componentType":5126,
			"count":552,
			"max":[
				0.029859129339456558,
				-0.397320032119751,
				-0.25000011920928955
			],
			"min":[
				-0.029859216883778572,
				-0.45703834295272827,
				-0.27064910531044006
			],
			"type":"VEC3"
		},
		{
			"bufferView":4,
			"componentType":5126,
			"count":552,
			"type":"VEC3"
		},
		{
			"bufferView":5,
			"componentType":5123,
			"count":1020,
			"type":"SCALAR"
		},
		{
			"bufferView":6,
			"componentType":5126,
			"count":3272,
			"max":[
				0.5,
				0.5,
				0.031681984663009644
			],
			"min":[
				-0.5,
				-0.5,
				-0.25
			],
			"type":"VEC3"
		},
		{
			"bufferView":7,
			"componentType":5126,
			"count":3272,
			"type":"VEC3"
		},
		{
			"bufferView":8,
			"componentType":5123,
			"count":3642,
			"type":"SCALAR"
		}
	],
	"bufferViews":[
		{
			"buffer":0,
			"byteLength":110592,
			"byteOffset":0,
			"target":34962
		},
		{
			"buffer":0,
			"byteLength":110592,
			"byteOffset":110592,
			"target":34962
		},
		{
			"buffer":0,
			"byteLength":43248,
			"byteOffset":221184,
			"target":34963
		},
		{
			"buffer":0,
			"byteLength":6624,
			"byteOffset":264432,
			"target":34962
		},
		{
			"buffer":0,
			"byteLength":6624,
			"byteOffset":271056,
			"target":34962
		},
		{
			"buffer":0,
			"byteLength":2040,
			"byteOffset":277680,
			"target":34963
		},
		{
			"buffer":0,
			"byteLength":39264,
			"byteOffset":279720,
			"target":34962
		},
		{
			"buffer":0,
			"byteLength":39264,
			"byteOffset":318984,
			"target":34962
		},
		{
			"buffer":0,
			"byteLength":7284,
			"byteOffset":358248,
			"target":34963
		}
	],
	"buffers":[
		{
			"byteLength":365532,
			"uri":"PassiveRadiator.bin"
		}
	]
}
