{
	"asset":{
		"generator":"Khronos glTF Blender I/O v4.3.47",
		"version":"2.0"
	},
	"scene":0,
	"scenes":[
		{
			"name":"Scene",
			"nodes":[
				0,
				1,
				2,
				3
			]
		}
	],
	"nodes":[
		{
			"mesh":0,
			"name":"rotor",
			"rotation":[
				0,
				-1,
				0,
				1.6292068494294654e-07
			],
			"translation":[
				0.5491013526916504,
				0,
				0
			]
		},
		{
			"mesh":1,
			"name":"base",
			"translation":[
				0.47415289282798767,
				0.0003226881963200867,
				0
			]
		},
		{
			"mesh":2,
			"name":"fluid_adapter_obj",
			"rotation":[
				0,
				0,
				-0.7071068286895752,
				0.7071068286895752
			],
			"translation":[
				1.6652417182922363,
				0.0003226960834581405,
				0
			]
		},
		{
			"mesh":3,
			"name":"fluid_adapter_obj.001",
			"translation":[
				-0.2956840991973877,
				0.75,
				0
			]
		}
	],
	"materials":[
		{
			"doubleSided":true,
			"name":"fan",
			"pbrMetallicRoughness":{
				"baseColorFactor":[
					0.7963865995407104,
					0.7963865995407104,
					0.7963865995407104,
					1
				]
			}
		},
		{
			"doubleSided":true,
			"name":"color1",
			"pbrMetallicRoughness":{
				"metallicFactor":0,
				"roughnessFactor":0
			}
		},
		{
			"doubleSided":true,
			"name":"body",
			"pbrMetallicRoughness":{
				"baseColorFactor":[
					0.009999999776482582,
					0.009999999776482582,
					0.009999999776482582,
					1
				],
				"metallicFactor":0
			}
		},
		{
			"doubleSided":true,
			"name":"color2",
			"pbrMetallicRoughness":{
				"baseColorFactor":[
					0.800000011920929,
					0.800000011920929,
					0.800000011920929,
					1
				]
			}
		},
		{
			"alphaMode":"MASK",
			"doubleSided":true,
			"name":"glass",
			"pbrMetallicRoughness":{
				"baseColorFactor":[
					1,
					1,
					1,
					0
				],
				"metallicFactor":0,
				"roughnessFactor":0
			}
		},
		{
			"doubleSided":true,
			"name":"hv-connector",
			"pbrMetallicRoughness":{
				"baseColorFactor":[
					0.5,
					0.15000000596046448,
					0,
					1
				]
			}
		},
		{
			"doubleSided":true,
			"name":"data-connector",
			"pbrMetallicRoughness":{
				"baseColorFactor":[
					0,
					0.05000000074505806,
					0.5,
					1
				]
			}
		},
		{
			"doubleSided":true,
			"name":"fluid-connector",
			"pbrMetallicRoughness":{
				"baseColorFactor":[
					0.5,
					0.5,
					0.5,
					1
				]
			}
		}
	],
	"meshes":[
		{
			"name":"Cube.001",
			"primitives":[
				{
					"attributes":{
						"POSITION":0,
						"NORMAL":1
					},
					"indices":2,
					"material":0
				}
			]
		},
		{
			"name":"Cube",
			"primitives":[
				{
					"attributes":{
						"POSITION":3,
						"NORMAL":4
					},
					"indices":5,
					"material":1
				},
				{
					"attributes":{
						"POSITION":6,
						"NORMAL":7
					},
					"indices":8,
					"material":2
				},
				{
					"attributes":{
						"POSITION":9,
						"NORMAL":10
					},
					"indices":11,
					"material":3
				},
				{
					"attributes":{
						"POSITION":12,
						"NORMAL":13
					},
					"indices":14,
					"material":4
				},
				{
					"attributes":{
						"POSITION":15,
						"NORMAL":16
					},
					"indices":17,
					"material":0
				},
				{
					"attributes":{
						"POSITION":18,
						"NORMAL":19
					},
					"indices":20,
					"material":5
				},
				{
					"attributes":{
						"POSITION":21,
						"NORMAL":22
					},
					"indices":23,
					"material":6
				}
			]
		},
		{
			"name":"fluid_adapter_data",
			"primitives":[
				{
					"attributes":{
						"POSITION":24,
						"NORMAL":25
					},
					"indices":26,
					"material":7
				}
			]
		},
		{
			"name":"fluid_adapter_data.001",
			"primitives":[
				{
					"attributes":{
						"POSITION":27,
						"NORMAL":28
					},
					"indices":26,
					"material":7
				}
			]
		}
	],
	"accessors":[
		{
			"bufferView":0,
			"componentType":5126,
			"count":24192,
			"max":[
				0.9002882838249207,
				0.6377493143081665,
				0.6377500891685486
			],
			"min":[
				-0.9002895355224609,
				-0.6377504467964172,
				-0.6377508640289307
			],
			"type":"VEC3"
		},
		{
			"bufferView":1,
			"componentType":5126,
			"count":24192,
			"type":"VEC3"
		},
		{
			"bufferView":2,
			"componentType":5123,
			"count":36288,
			"type":"SCALAR"
		},
		{
			"bufferView":3,
			"componentType":5126,
			"count":3410,
			"max":[
				1.150391936302185,
				0.749677300453186,
				0.7500001788139343
			],
			"min":[
				-0.9607614278793335,
				-0.750322699546814,
				-0.7500001788139343
			],
			"type":"VEC3"
		},
		{
			"bufferView":4,
			"componentType":5126,
			"count":3410,
			"type":"VEC3"
		},
		{
			"bufferView":5,
			"componentType":5123,
			"count":15876,
			"type":"SCALAR"
		},
		{
			"bufferView":6,
			"componentType":5126,
			"count":3406,
			"max":[
				1.1910887956619263,
				0.8352576494216919,
				0.8352576494216919
			],
			"min":[
				-1.849608302116394,
				-0.8912373781204224,
				-0.8352576494216919
			],
			"type":"VEC3"
		},
		{
			"bufferView":7,
			"componentType":5126,
			"count":3406,
			"type":"VEC3"
		},
		{
			"bufferView":8,
			"componentType":5123,
			"count":9948,
			"type":"SCALAR"
		},
		{
			"bufferView":9,
			"componentType":5126,
			"count":1152,
			"max":[
				-1.0138459205627441,
				0.7503225207328796,
				0.7503224611282349
			],
			"min":[
				-1.8496078252792358,
				-0.7503224611282349,
				-0.7503224611282349
			],
			"type":"VEC3"
		},
		{
			"bufferView":10,
			"componentType":5126,
			"count":1152,
			"type":"VEC3"
		},
		{
			"bufferView":11,
			"componentType":5123,
			"count":2304,
			"type":"SCALAR"
		},
		{
			"bufferView":12,
			"componentType":5126,
			"count":672,
			"max":[
				1.1444920301437378,
				0.5899587869644165,
				0.7499992847442627
			],
			"min":[
				-0.6634630560874939,
				-0.5899588465690613,
				-0.7499993443489075
			],
			"type":"VEC3"
		},
		{
			"bufferView":13,
			"componentType":5126,
			"count":672,
			"type":"VEC3"
		},
		{
			"bufferView":14,
			"componentType":5123,
			"count":1308,
			"type":"SCALAR"
		},
		{
			"bufferView":15,
			"componentType":5126,
			"count":21888,
			"max":[
				0.8843421936035156,
				0.603958010673523,
				0.6042819023132324
			],
			"min":[
				-0.7798923254013062,
				-0.6046046018600464,
				-0.6042816638946533
			],
			"type":"VEC3"
		},
		{
			"bufferView":16,
			"componentType":5126,
			"count":21888,
			"type":"VEC3"
		},
		{
			"bufferView":17,
			"componentType":5123,
			"count":32832,
			"type":"SCALAR"
		},
		{
			"bufferView":18,
			"componentType":5126,
			"count":696,
			"max":[
				-1.807860016822815,
				0.07035042345523834,
				0.07035043835639954
			],
			"min":[
				-1.8495793342590332,
				-0.07035045325756073,
				-0.07035043835639954
			],
			"type":"VEC3"
		},
		{
			"bufferView":19,
			"componentType":5126,
			"count":696,
			"type":"VEC3"
		},
		{
			"bufferView":20,
			"componentType":5123,
			"count":2148,
			"type":"SCALAR"
		},
		{
			"bufferView":21,
			"componentType":5126,
			"count":376,
			"max":[
				-1.7511944770812988,
				-0.3965127170085907,
				0.029859166592359543
			],
			"min":[
				-1.771843433380127,
				-0.4562310576438904,
				-0.02985917404294014
			],
			"type":"VEC3"
		},
		{
			"bufferView":22,
			"componentType":5126,
			"count":376,
			"type":"VEC3"
		},
		{
			"bufferView":23,
			"componentType":5123,
			"count":1020,
			"type":"SCALAR"
		},
		{
			"bufferView":24,
			"componentType":5126,
			"count":4608,
			"max":[
				0.12489652633666992,
				0.03783351182937622,
				0.12489652633666992
			],
			"min":[
				-0.12489652633666992,
				-2.4586915969848633e-07,
				-0.12489652633666992
			],
			"type":"VEC3"
		},
		{
			"bufferView":25,
			"componentType":5126,
			"count":4608,
			"type":"VEC3"
		},
		{
			"bufferView":26,
			"componentType":5123,
			"count":10812,
			"type":"SCALAR"
		},
		{
			"bufferView":27,
			"componentType":5126,
			"count":4608,
			"max":[
				0.12489652633666992,
				0.03783351182937622,
				0.12489652633666992
			],
			"min":[
				-0.12489652633666992,
				-2.4586915969848633e-07,
				-0.12489652633666992
			],
			"type":"VEC3"
		},
		{
			"bufferView":28,
			"componentType":5126,
			"count":4608,
			"type":"VEC3"
		}
	],
	"bufferViews":[
		{
			"buffer":0,
			"byteLength":290304,
			"byteOffset":0,
			"target":34962
		},
		{
			"buffer":0,
			"byteLength":290304,
			"byteOffset":290304,
			"target":34962
		},
		{
			"buffer":0,
			"byteLength":72576,
			"byteOffset":580608,
			"target":34963
		},
		{
			"buffer":0,
			"byteLength":40920,
			"byteOffset":653184,
			"target":34962
		},
		{
			"buffer":0,
			"byteLength":40920,
			"byteOffset":694104,
			"target":34962
		},
		{
			"buffer":0,
			"byteLength":31752,
			"byteOffset":735024,
			"target":34963
		},
		{
			"buffer":0,
			"byteLength":40872,
			"byteOffset":766776,
			"target":34962
		},
		{
			"buffer":0,
			"byteLength":40872,
			"byteOffset":807648,
			"target":34962
		},
		{
			"buffer":0,
			"byteLength":19896,
			"byteOffset":848520,
			"target":34963
		},
		{
			"buffer":0,
			"byteLength":13824,
			"byteOffset":868416,
			"target":34962
		},
		{
			"buffer":0,
			"byteLength":13824,
			"byteOffset":882240,
			"target":34962
		},
		{
			"buffer":0,
			"byteLength":4608,
			"byteOffset":896064,
			"target":34963
		},
		{
			"buffer":0,
			"byteLength":8064,
			"byteOffset":900672,
			"target":34962
		},
		{
			"buffer":0,
			"byteLength":8064,
			"byteOffset":908736,
			"target":34962
		},
		{
			"buffer":0,
			"byteLength":2616,
			"byteOffset":916800,
			"target":34963
		},
		{
			"buffer":0,
			"byteLength":262656,
			"byteOffset":919416,
			"target":34962
		},
		{
			"buffer":0,
			"byteLength":262656,
			"byteOffset":1182072,
			"target":34962
		},
		{
			"buffer":0,
			"byteLength":65664,
			"byteOffset":1444728,
			"target":34963
		},
		{
			"buffer":0,
			"byteLength":8352,
			"byteOffset":1510392,
			"target":34962
		},
		{
			"buffer":0,
			"byteLength":8352,
			"byteOffset":1518744,
			"target":34962
		},
		{
			"buffer":0,
			"byteLength":4296,
			"byteOffset":1527096,
			"target":34963
		},
		{
			"buffer":0,
			"byteLength":4512,
			"byteOffset":1531392,
			"target":34962
		},
		{
			"buffer":0,
			"byteLength":4512,
			"byteOffset":1535904,
			"target":34962
		},
		{
			"buffer":0,
			"byteLength":2040,
			"byteOffset":1540416,
			"target":34963
		},
		{
			"buffer":0,
			"byteLength":55296,
			"byteOffset":1542456,
			"target":34962
		},
		{
			"buffer":0,
			"byteLength":55296,
			"byteOffset":1597752,
			"target":34962
		},
		{
			"buffer":0,
			"byteLength":21624,
			"byteOffset":1653048,
			"target":34963
		},
		{
			"buffer":0,
			"byteLength":55296,
			"byteOffset":1674672,
			"target":34962
		},
		{
			"buffer":0,
			"byteLength":55296,
			"byteOffset":1729968,
			"target":34962
		}
	],
	"buffers":[
		{
			"byteLength":1785264,
			"uri":"SteamTurbine.bin"
		}
	]
}
