{
	"asset":{
		"generator":"Khronos glTF Blender I/O v4.1.63",
		"version":"2.0"
	},
	"scene":0,
	"scenes":[
		{
			"name":"Scene",
			"nodes":[
				0
			]
		}
	],
	"nodes":[
		{
			"mesh":0,
			"name":"body"
		}
	],
	"materials":[
		{
			"doubleSided":true,
			"name":"color1",
			"pbrMetallicRoughness":{
				"baseColorFactor":[
					1,
					1,
					1,
					1
				],
				"metallicFactor":0,
				"roughnessFactor":0
			}
		},
		{
			"doubleSided":true,
			"name":"body",
			"pbrMetallicRoughness":{
				"baseColorFactor":[
					0.009999999776482582,
					0.009999999776482582,
					0.009999999776482582,
					1
				],
				"metallicFactor":0,
				"roughnessFactor":1
			}
		},
		{
			"doubleSided":true,
			"name":"color2",
			"pbrMetallicRoughness":{
				"baseColorFactor":[
					0.800000011920929,
					0.800000011920929,
					0.800000011920929,
					1
				],
				"metallicFactor":1,
				"roughnessFactor":1
			}
		},
		{
			"doubleSided":true,
			"name":"hv-connector",
			"pbrMetallicRoughness":{
				"baseColorFactor":[
					0.5,
					0.1499999761581421,
					0,
					1
				],
				"metallicFactor":1,
				"roughnessFactor":1
			}
		},
		{
			"doubleSided":true,
			"name":"data-connector",
			"pbrMetallicRoughness":{
				"baseColorFactor":[
					0,
					0.05000019073486328,
					0.5,
					1
				],
				"metallicFactor":1,
				"roughnessFactor":1
			}
		},
		{
			"doubleSided":true,
			"name":"ch4",
			"pbrMetallicRoughness":{
				"baseColorFactor":[
					0.5,
					0.15000000596046448,
					0.15000000596046448,
					1
				],
				"metallicFactor":1,
				"roughnessFactor":1
			}
		},
		{
			"doubleSided":true,
			"name":"h2",
			"pbrMetallicRoughness":{
				"baseColorFactor":[
					0.800000011920929,
					0.7360000610351562,
					0.1599999964237213,
					1
				],
				"metallicFactor":1,
				"roughnessFactor":1
			}
		},
		{
			"doubleSided":true,
			"name":"fluid-connector",
			"pbrMetallicRoughness":{
				"baseColorFactor":[
					0.800000011920929,
					0.800000011920929,
					0.800000011920929,
					1
				],
				"metallicFactor":0,
				"roughnessFactor":0.5
			}
		},
		{
			"doubleSided":true,
			"name":"void",
			"pbrMetallicRoughness":{
				"baseColorFactor":[
					0,
					0,
					0,
					1
				],
				"metallicFactor":1,
				"roughnessFactor":1
			}
		}
	],
	"meshes":[
		{
			"name":"Cylinder",
			"primitives":[
				{
					"attributes":{
						"POSITION":0,
						"NORMAL":1
					},
					"indices":2,
					"material":0
				},
				{
					"attributes":{
						"POSITION":3,
						"NORMAL":4
					},
					"indices":5,
					"material":1
				},
				{
					"attributes":{
						"POSITION":6,
						"NORMAL":7
					},
					"indices":8,
					"material":2
				},
				{
					"attributes":{
						"POSITION":9,
						"NORMAL":10
					},
					"indices":11,
					"material":3
				},
				{
					"attributes":{
						"POSITION":12,
						"NORMAL":13
					},
					"indices":14,
					"material":4
				},
				{
					"attributes":{
						"POSITION":15,
						"NORMAL":16
					},
					"indices":17,
					"material":5
				},
				{
					"attributes":{
						"POSITION":18,
						"NORMAL":19
					},
					"indices":17,
					"material":6
				},
				{
					"attributes":{
						"POSITION":20,
						"NORMAL":21
					},
					"indices":22,
					"material":7
				},
				{
					"attributes":{
						"POSITION":23,
						"NORMAL":24
					},
					"indices":25,
					"material":8
				}
			]
		}
	],
	"accessors":[
		{
			"bufferView":0,
			"componentType":5126,
			"count":1809,
			"max":[
				0.5,
				1,
				0.5
			],
			"min":[
				-0.5,
				-1,
				-0.5
			],
			"type":"VEC3"
		},
		{
			"bufferView":1,
			"componentType":5126,
			"count":1809,
			"type":"VEC3"
		},
		{
			"bufferView":2,
			"componentType":5123,
			"count":5088,
			"type":"SCALAR"
		},
		{
			"bufferView":3,
			"componentType":5126,
			"count":8476,
			"max":[
				0.45739981532096863,
				0.9424299597740173,
				0.45739981532096863
			],
			"min":[
				-0.45739981532096863,
				-0.32768014073371887,
				-0.45739981532096863
			],
			"type":"VEC3"
		},
		{
			"bufferView":4,
			"componentType":5126,
			"count":8476,
			"type":"VEC3"
		},
		{
			"bufferView":5,
			"componentType":5123,
			"count":11904,
			"type":"SCALAR"
		},
		{
			"bufferView":6,
			"componentType":5126,
			"count":896,
			"max":[
				0.4579739272594452,
				0.6620292663574219,
				0.4579739272594452
			],
			"min":[
				-0.4579739272594452,
				-0.36734017729759216,
				-0.4579739272594452
			],
			"type":"VEC3"
		},
		{
			"bufferView":7,
			"componentType":5126,
			"count":896,
			"type":"VEC3"
		},
		{
			"bufferView":8,
			"componentType":5123,
			"count":2304,
			"type":"SCALAR"
		},
		{
			"bufferView":9,
			"componentType":5126,
			"count":696,
			"max":[
				0.07035043835639954,
				-0.8005613088607788,
				0.49924489855766296
			],
			"min":[
				-0.07035043835639954,
				-0.9412621259689331,
				0.4575255811214447
			],
			"type":"VEC3"
		},
		{
			"bufferView":10,
			"componentType":5126,
			"count":696,
			"type":"VEC3"
		},
		{
			"bufferView":11,
			"componentType":5123,
			"count":2148,
			"type":"SCALAR"
		},
		{
			"bufferView":12,
			"componentType":5126,
			"count":376,
			"max":[
				0.02985917031764984,
				-0.6548044085502625,
				0.4834741950035095
			],
			"min":[
				-0.02985917031764984,
				-0.7145227789878845,
				0.4628252387046814
			],
			"type":"VEC3"
		},
		{
			"bufferView":13,
			"componentType":5126,
			"count":376,
			"type":"VEC3"
		},
		{
			"bufferView":14,
			"componentType":5123,
			"count":1020,
			"type":"SCALAR"
		},
		{
			"bufferView":15,
			"componentType":5126,
			"count":704,
			"max":[
				-0.4619394838809967,
				-0.7231931686401367,
				0.12489652633666992
			],
			"min":[
				-0.4997732639312744,
				-0.9729862213134766,
				-0.12489652633666992
			],
			"type":"VEC3"
		},
		{
			"bufferView":16,
			"componentType":5126,
			"count":704,
			"type":"VEC3"
		},
		{
			"bufferView":17,
			"componentType":5123,
			"count":2106,
			"type":"SCALAR"
		},
		{
			"bufferView":18,
			"componentType":5126,
			"count":704,
			"max":[
				0.4997732639312744,
				-0.7231931686401367,
				0.12489652633666992
			],
			"min":[
				0.4619394838809967,
				-0.9729862213134766,
				-0.12489652633666992
			],
			"type":"VEC3"
		},
		{
			"bufferView":19,
			"componentType":5126,
			"count":704,
			"type":"VEC3"
		},
		{
			"bufferView":20,
			"componentType":5126,
			"count":7816,
			"max":[
				0.4945089817047119,
				-0.6961795091629028,
				0.2356983721256256
			],
			"min":[
				-0.4945089817047119,
				-1,
				-0.2356983721256256
			],
			"type":"VEC3"
		},
		{
			"bufferView":21,
			"componentType":5126,
			"count":7816,
			"type":"VEC3"
		},
		{
			"bufferView":22,
			"componentType":5123,
			"count":17424,
			"type":"SCALAR"
		},
		{
			"bufferView":23,
			"componentType":5126,
			"count":896,
			"max":[
				0.20043936371803284,
				0.9999107718467712,
				0.20043936371803284
			],
			"min":[
				-0.20043937861919403,
				0.18867012858390808,
				-0.20043936371803284
			],
			"type":"VEC3"
		},
		{
			"bufferView":24,
			"componentType":5126,
			"count":896,
			"type":"VEC3"
		},
		{
			"bufferView":25,
			"componentType":5123,
			"count":4410,
			"type":"SCALAR"
		}
	],
	"bufferViews":[
		{
			"buffer":0,
			"byteLength":21708,
			"byteOffset":0,
			"target":34962
		},
		{
			"buffer":0,
			"byteLength":21708,
			"byteOffset":21708,
			"target":34962
		},
		{
			"buffer":0,
			"byteLength":10176,
			"byteOffset":43416,
			"target":34963
		},
		{
			"buffer":0,
			"byteLength":101712,
			"byteOffset":53592,
			"target":34962
		},
		{
			"buffer":0,
			"byteLength":101712,
			"byteOffset":155304,
			"target":34962
		},
		{
			"buffer":0,
			"byteLength":23808,
			"byteOffset":257016,
			"target":34963
		},
		{
			"buffer":0,
			"byteLength":10752,
			"byteOffset":280824,
			"target":34962
		},
		{
			"buffer":0,
			"byteLength":10752,
			"byteOffset":291576,
			"target":34962
		},
		{
			"buffer":0,
			"byteLength":4608,
			"byteOffset":302328,
			"target":34963
		},
		{
			"buffer":0,
			"byteLength":8352,
			"byteOffset":306936,
			"target":34962
		},
		{
			"buffer":0,
			"byteLength":8352,
			"byteOffset":315288,
			"target":34962
		},
		{
			"buffer":0,
			"byteLength":4296,
			"byteOffset":323640,
			"target":34963
		},
		{
			"buffer":0,
			"byteLength":4512,
			"byteOffset":327936,
			"target":34962
		},
		{
			"buffer":0,
			"byteLength":4512,
			"byteOffset":332448,
			"target":34962
		},
		{
			"buffer":0,
			"byteLength":2040,
			"byteOffset":336960,
			"target":34963
		},
		{
			"buffer":0,
			"byteLength":8448,
			"byteOffset":339000,
			"target":34962
		},
		{
			"buffer":0,
			"byteLength":8448,
			"byteOffset":347448,
			"target":34962
		},
		{
			"buffer":0,
			"byteLength":4212,
			"byteOffset":355896,
			"target":34963
		},
		{
			"buffer":0,
			"byteLength":8448,
			"byteOffset":360108,
			"target":34962
		},
		{
			"buffer":0,
			"byteLength":8448,
			"byteOffset":368556,
			"target":34962
		},
		{
			"buffer":0,
			"byteLength":93792,
			"byteOffset":377004,
			"target":34962
		},
		{
			"buffer":0,
			"byteLength":93792,
			"byteOffset":470796,
			"target":34962
		},
		{
			"buffer":0,
			"byteLength":34848,
			"byteOffset":564588,
			"target":34963
		},
		{
			"buffer":0,
			"byteLength":10752,
			"byteOffset":599436,
			"target":34962
		},
		{
			"buffer":0,
			"byteLength":10752,
			"byteOffset":610188,
			"target":34962
		},
		{
			"buffer":0,
			"byteLength":8820,
			"byteOffset":620940,
			"target":34963
		}
	],
	"buffers":[
		{
			"byteLength":629760,
			"uri":"SabatierReactor.bin"
		}
	]
}
