{
	"asset":{
		"generator":"Khronos glTF Blender I/O v3.6.6",
		"version":"2.0"
	},
	"scene":0,
	"scenes":[
		{
			"name":"Scene",
			"nodes":[
				0,
				1
			]
		}
	],
	"nodes":[
		{
			"mesh":0,
			"name":"Cube"
		},
		{
			"mesh":1,
			"name":"Cylinder",
			"rotation":[
				-0.7071068286895752,
				0,
				0,
				0.7071068286895752
			]
		}
	],
	"materials":[
		{
			"doubleSided":true,
			"name":"color1",
			"pbrMetallicRoughness":{
				"baseColorFactor":[
					1,
					1,
					1,
					1
				],
				"metallicFactor":0,
				"roughnessFactor":0
			}
		},
		{
			"doubleSided":true,
			"name":"data-connector",
			"pbrMetallicRoughness":{
				"baseColorFactor":[
					0,
					0.05000007152557373,
					0.5,
					1
				],
				"metallicFactor":1,
				"roughnessFactor":1
			}
		},
		{
			"doubleSided":true,
			"name":"black",
			"pbrMetallicRoughness":{
				"baseColorFactor":[
					0.009999999776482582,
					0.009999999776482582,
					0.009999999776482582,
					1
				],
				"metallicFactor":0,
				"roughnessFactor":1
			}
		}
	],
	"meshes":[
		{
			"name":"Cube",
			"primitives":[
				{
					"attributes":{
						"POSITION":0,
						"NORMAL":1
					},
					"indices":2,
					"material":0
				},
				{
					"attributes":{
						"POSITION":3,
						"NORMAL":4
					},
					"indices":5,
					"material":1
				},
				{
					"attributes":{
						"POSITION":6,
						"NORMAL":7
					},
					"indices":8,
					"material":2
				}
			]
		},
		{
			"name":"Cylinder",
			"primitives":[
				{
					"attributes":{
						"POSITION":9,
						"NORMAL":10
					},
					"indices":11,
					"material":2
				}
			]
		}
	],
	"accessors":[
		{
			"bufferView":0,
			"componentType":5126,
			"count":114,
			"max":[
				0.125,
				0.25,
				0.125
			],
			"min":[
				-0.125,
				-0.25,
				-0.1114891767501831
			],
			"type":"VEC3"
		},
		{
			"bufferView":1,
			"componentType":5126,
			"count":114,
			"type":"VEC3"
		},
		{
			"bufferView":2,
			"componentType":5123,
			"count":258,
			"type":"SCALAR"
		},
		{
			"bufferView":3,
			"componentType":5126,
			"count":372,
			"max":[
				0.01492958515882492,
				0.25997838377952576,
				0.026880744844675064
			],
			"min":[
				-0.01492958515882492,
				0.25,
				-0.002978426404297352
			],
			"type":"VEC3"
		},
		{
			"bufferView":4,
			"componentType":5126,
			"count":372,
			"type":"VEC3"
		},
		{
			"bufferView":5,
			"componentType":5123,
			"count":1014,
			"type":"SCALAR"
		},
		{
			"bufferView":6,
			"componentType":5126,
			"count":20,
			"max":[
				0.02989783138036728,
				0.17938698828220367,
				-0.06152394413948059
			],
			"min":[
				-0.02989783138036728,
				-0.17938698828220367,
				-0.093658447265625
			],
			"type":"VEC3"
		},
		{
			"bufferView":7,
			"componentType":5126,
			"count":20,
			"type":"VEC3"
		},
		{
			"bufferView":8,
			"componentType":5123,
			"count":30,
			"type":"SCALAR"
		},
		{
			"bufferView":9,
			"componentType":5126,
			"count":704,
			"max":[
				0.08508323132991791,
				0.28513672947883606,
				0.03163670003414154
			],
			"min":[
				-0.08508323132991791,
				-0.0843726396560669,
				-0.03163667768239975
			],
			"type":"VEC3"
		},
		{
			"bufferView":10,
			"componentType":5126,
			"count":704,
			"type":"VEC3"
		},
		{
			"bufferView":11,
			"componentType":5123,
			"count":2280,
			"type":"SCALAR"
		}
	],
	"bufferViews":[
		{
			"buffer":0,
			"byteLength":1368,
			"byteOffset":0,
			"target":34962
		},
		{
			"buffer":0,
			"byteLength":1368,
			"byteOffset":1368,
			"target":34962
		},
		{
			"buffer":0,
			"byteLength":516,
			"byteOffset":2736,
			"target":34963
		},
		{
			"buffer":0,
			"byteLength":4464,
			"byteOffset":3252,
			"target":34962
		},
		{
			"buffer":0,
			"byteLength":4464,
			"byteOffset":7716,
			"target":34962
		},
		{
			"buffer":0,
			"byteLength":2028,
			"byteOffset":12180,
			"target":34963
		},
		{
			"buffer":0,
			"byteLength":240,
			"byteOffset":14208,
			"target":34962
		},
		{
			"buffer":0,
			"byteLength":240,
			"byteOffset":14448,
			"target":34962
		},
		{
			"buffer":0,
			"byteLength":60,
			"byteOffset":14688,
			"target":34963
		},
		{
			"buffer":0,
			"byteLength":8448,
			"byteOffset":14748,
			"target":34962
		},
		{
			"buffer":0,
			"byteLength":8448,
			"byteOffset":23196,
			"target":34962
		},
		{
			"buffer":0,
			"byteLength":4560,
			"byteOffset":31644,
			"target":34963
		}
	],
	"buffers":[
		{
			"byteLength":36204,
			"uri":"Throttle.bin"
		}
	]
}
