{
	"asset":{
		"generator":"Khronos glTF Blender I/O v3.6.6",
		"version":"2.0"
	},
	"scene":0,
	"scenes":[
		{
			"name":"Scene",
			"nodes":[
				0
			]
		}
	],
	"nodes":[
		{
			"mesh":0,
			"name":"Cube"
		}
	],
	"materials":[
		{
			"doubleSided":true,
			"name":"color2",
			"pbrMetallicRoughness":{
				"baseColorFactor":[
					0.800000011920929,
					0.800000011920929,
					0.800000011920929,
					1
				],
				"metallicFactor":1,
				"roughnessFactor":1
			}
		},
		{
			"doubleSided":true,
			"name":"data-connector",
			"pbrMetallicRoughness":{
				"baseColorFactor":[
					0,
					0.05000007152557373,
					0.5,
					1
				],
				"metallicFactor":1,
				"roughnessFactor":1
			}
		},
		{
			"doubleSided":true,
			"name":"color1",
			"pbrMetallicRoughness":{
				"baseColorFactor":[
					1,
					1,
					1,
					1
				],
				"metallicFactor":0,
				"roughnessFactor":0
			}
		}
	],
	"meshes":[
		{
			"name":"Cube.001",
			"primitives":[
				{
					"attributes":{
						"POSITION":0,
						"NORMAL":1
					},
					"indices":2,
					"material":0
				},
				{
					"attributes":{
						"POSITION":3,
						"NORMAL":4
					},
					"indices":5,
					"material":1
				},
				{
					"attributes":{
						"POSITION":6,
						"NORMAL":7
					},
					"indices":8,
					"material":2
				}
			]
		}
	],
	"accessors":[
		{
			"bufferView":0,
			"componentType":5126,
			"count":32,
			"max":[
				0.125,
				0.125,
				0.0625
			],
			"min":[
				-0.125,
				-0.125,
				-0.0625
			],
			"type":"VEC3"
		},
		{
			"bufferView":1,
			"componentType":5126,
			"count":32,
			"type":"VEC3"
		},
		{
			"bufferView":2,
			"componentType":5123,
			"count":72,
			"type":"SCALAR"
		},
		{
			"bufferView":3,
			"componentType":5126,
			"count":372,
			"max":[
				0.02985917031764984,
				0.14564894139766693,
				0.02985917031764984
			],
			"min":[
				-0.02985917031764984,
				0.125,
				-0.02985917031764984
			],
			"type":"VEC3"
		},
		{
			"bufferView":4,
			"componentType":5126,
			"count":372,
			"type":"VEC3"
		},
		{
			"bufferView":5,
			"componentType":5123,
			"count":1014,
			"type":"SCALAR"
		},
		{
			"bufferView":6,
			"componentType":5126,
			"count":20,
			"max":[
				0.07836746424436569,
				0.07836746424436569,
				-0.0625
			],
			"min":[
				-0.07836746424436569,
				-0.07836746424436569,
				-0.09483616054058075
			],
			"type":"VEC3"
		},
		{
			"bufferView":7,
			"componentType":5126,
			"count":20,
			"type":"VEC3"
		},
		{
			"bufferView":8,
			"componentType":5123,
			"count":30,
			"type":"SCALAR"
		}
	],
	"bufferViews":[
		{
			"buffer":0,
			"byteLength":384,
			"byteOffset":0,
			"target":34962
		},
		{
			"buffer":0,
			"byteLength":384,
			"byteOffset":384,
			"target":34962
		},
		{
			"buffer":0,
			"byteLength":144,
			"byteOffset":768,
			"target":34963
		},
		{
			"buffer":0,
			"byteLength":4464,
			"byteOffset":912,
			"target":34962
		},
		{
			"buffer":0,
			"byteLength":4464,
			"byteOffset":5376,
			"target":34962
		},
		{
			"buffer":0,
			"byteLength":2028,
			"byteOffset":9840,
			"target":34963
		},
		{
			"buffer":0,
			"byteLength":240,
			"byteOffset":11868,
			"target":34962
		},
		{
			"buffer":0,
			"byteLength":240,
			"byteOffset":12108,
			"target":34962
		},
		{
			"buffer":0,
			"byteLength":60,
			"byteOffset":12348,
			"target":34963
		}
	],
	"buffers":[
		{
			"byteLength":12408,
			"uri":"PushButton.bin"
		}
	]
}
