{
	"asset":{
		"generator":"Khronos glTF Blender I/O v4.0.44",
		"version":"2.0"
	},
	"scene":0,
	"scenes":[
		{
			"name":"Scene",
			"nodes":[
				0
			]
		}
	],
	"nodes":[
		{
			"mesh":0,
			"name":"body"
		}
	],
	"materials":[
		{
			"doubleSided":true,
			"name":"color1",
			"pbrMetallicRoughness":{
				"baseColorFactor":[
					1,
					1,
					1,
					1
				],
				"metallicFactor":0,
				"roughnessFactor":0
			}
		},
		{
			"doubleSided":true,
			"name":"body",
			"pbrMetallicRoughness":{
				"baseColorFactor":[
					0.009999999776482582,
					0.009999999776482582,
					0.009999999776482582,
					1
				],
				"metallicFactor":0,
				"roughnessFactor":1
			}
		},
		{
			"doubleSided":true,
			"name":"color2",
			"pbrMetallicRoughness":{
				"baseColorFactor":[
					0.800000011920929,
					0.800000011920929,
					0.800000011920929,
					1
				],
				"metallicFactor":1,
				"roughnessFactor":1
			}
		},
		{
			"doubleSided":true,
			"name":"data-connector",
			"pbrMetallicRoughness":{
				"baseColorFactor":[
					0,
					0.05000019073486328,
					0.5,
					1
				],
				"metallicFactor":1,
				"roughnessFactor":1
			}
		}
	],
	"meshes":[
		{
			"name":"Cube",
			"primitives":[
				{
					"attributes":{
						"POSITION":0,
						"NORMAL":1
					},
					"indices":2,
					"material":0
				},
				{
					"attributes":{
						"POSITION":3,
						"NORMAL":4
					},
					"indices":5,
					"material":1
				},
				{
					"attributes":{
						"POSITION":6,
						"NORMAL":7
					},
					"indices":8,
					"material":2
				},
				{
					"attributes":{
						"POSITION":9,
						"NORMAL":10
					},
					"indices":11,
					"material":3
				}
			]
		}
	],
	"accessors":[
		{
			"bufferView":0,
			"componentType":5126,
			"count":28,
			"max":[
				0.1249999925494194,
				0.125,
				0.125
			],
			"min":[
				-0.1249999925494194,
				-0.125,
				-0.125
			],
			"type":"VEC3"
		},
		{
			"bufferView":1,
			"componentType":5126,
			"count":28,
			"type":"VEC3"
		},
		{
			"bufferView":2,
			"componentType":5123,
			"count":54,
			"type":"SCALAR"
		},
		{
			"bufferView":3,
			"componentType":5126,
			"count":20,
			"max":[
				0.09425768256187439,
				0.09425769746303558,
				-0.09242992103099823
			],
			"min":[
				-0.09425768256187439,
				-0.09425768256187439,
				-0.125
			],
			"type":"VEC3"
		},
		{
			"bufferView":4,
			"componentType":5126,
			"count":20,
			"type":"VEC3"
		},
		{
			"bufferView":5,
			"componentType":5123,
			"count":30,
			"type":"SCALAR"
		},
		{
			"bufferView":6,
			"componentType":5126,
			"count":40,
			"max":[
				0.08641935139894485,
				0.08641935884952545,
				-0.09876178205013275
			],
			"min":[
				-0.08641935139894485,
				-0.08641934394836426,
				-0.13931246101856232
			],
			"type":"VEC3"
		},
		{
			"bufferView":7,
			"componentType":5126,
			"count":40,
			"type":"VEC3"
		},
		{
			"bufferView":8,
			"componentType":5123,
			"count":60,
			"type":"SCALAR"
		},
		{
			"bufferView":9,
			"componentType":5126,
			"count":376,
			"max":[
				0.029859188944101334,
				-0.1249999925494194,
				0.029859188944101334
			],
			"min":[
				-0.029859188944101334,
				-0.14564894139766693,
				-0.029859190806746483
			],
			"type":"VEC3"
		},
		{
			"bufferView":10,
			"componentType":5126,
			"count":376,
			"type":"VEC3"
		},
		{
			"bufferView":11,
			"componentType":5123,
			"count":1020,
			"type":"SCALAR"
		}
	],
	"bufferViews":[
		{
			"buffer":0,
			"byteLength":336,
			"byteOffset":0,
			"target":34962
		},
		{
			"buffer":0,
			"byteLength":336,
			"byteOffset":336,
			"target":34962
		},
		{
			"buffer":0,
			"byteLength":108,
			"byteOffset":672,
			"target":34963
		},
		{
			"buffer":0,
			"byteLength":240,
			"byteOffset":780,
			"target":34962
		},
		{
			"buffer":0,
			"byteLength":240,
			"byteOffset":1020,
			"target":34962
		},
		{
			"buffer":0,
			"byteLength":60,
			"byteOffset":1260,
			"target":34963
		},
		{
			"buffer":0,
			"byteLength":480,
			"byteOffset":1320,
			"target":34962
		},
		{
			"buffer":0,
			"byteLength":480,
			"byteOffset":1800,
			"target":34962
		},
		{
			"buffer":0,
			"byteLength":120,
			"byteOffset":2280,
			"target":34963
		},
		{
			"buffer":0,
			"byteLength":4512,
			"byteOffset":2400,
			"target":34962
		},
		{
			"buffer":0,
			"byteLength":4512,
			"byteOffset":6912,
			"target":34962
		},
		{
			"buffer":0,
			"byteLength":2040,
			"byteOffset":11424,
			"target":34963
		}
	],
	"buffers":[
		{
			"byteLength":13464,
			"uri":"PushButton.bin"
		}
	]
}
