{
	"asset":{
		"generator":"Khronos glTF Blender I/O v4.0.44",
		"version":"2.0"
	},
	"scene":0,
	"scenes":[
		{
			"name":"Scene",
			"nodes":[
				0,
				1
			]
		}
	],
	"nodes":[
		{
			"mesh":0,
			"name":"switch",
			"rotation":[
				0,
				-0.987688422203064,
				0.15643446147441864,
				1.9231003989261808e-07
			],
			"translation":[
				0,
				-0.04956763610243797,
				-0.15256966650485992
			]
		},
		{
			"mesh":1,
			"name":"body"
		}
	],
	"materials":[
		{
			"doubleSided":true,
			"name":"color2",
			"pbrMetallicRoughness":{
				"baseColorFactor":[
					0.800000011920929,
					0.800000011920929,
					0.800000011920929,
					1
				],
				"metallicFactor":1,
				"roughnessFactor":1
			}
		},
		{
			"doubleSided":true,
			"name":"color1",
			"pbrMetallicRoughness":{
				"baseColorFactor":[
					1,
					1,
					1,
					1
				],
				"metallicFactor":0,
				"roughnessFactor":0
			}
		},
		{
			"doubleSided":true,
			"name":"body",
			"pbrMetallicRoughness":{
				"baseColorFactor":[
					0.009999999776482582,
					0.009999999776482582,
					0.009999999776482582,
					1
				],
				"metallicFactor":0,
				"roughnessFactor":1
			}
		},
		{
			"doubleSided":true,
			"name":"data-connector",
			"pbrMetallicRoughness":{
				"baseColorFactor":[
					0,
					0.05000019073486328,
					0.5,
					1
				],
				"metallicFactor":1,
				"roughnessFactor":1
			}
		}
	],
	"meshes":[
		{
			"name":"Cube.004",
			"primitives":[
				{
					"attributes":{
						"POSITION":0,
						"NORMAL":1
					},
					"indices":2,
					"material":0
				}
			]
		},
		{
			"name":"Cube",
			"primitives":[
				{
					"attributes":{
						"POSITION":3,
						"NORMAL":4
					},
					"indices":5,
					"material":1
				},
				{
					"attributes":{
						"POSITION":6,
						"NORMAL":7
					},
					"indices":8,
					"material":2
				},
				{
					"attributes":{
						"POSITION":9,
						"NORMAL":10
					},
					"indices":11,
					"material":3
				}
			]
		}
	],
	"accessors":[
		{
			"bufferView":0,
			"componentType":5126,
			"count":98,
			"max":[
				0.1068093553185463,
				0.09833782911300659,
				0.030230721458792686
			],
			"min":[
				-0.10680929571390152,
				-0.0983378142118454,
				-0.09478288888931274
			],
			"type":"VEC3"
		},
		{
			"bufferView":1,
			"componentType":5126,
			"count":98,
			"type":"VEC3"
		},
		{
			"bufferView":2,
			"componentType":5123,
			"count":270,
			"type":"SCALAR"
		},
		{
			"bufferView":3,
			"componentType":5126,
			"count":28,
			"max":[
				0.1249999925494194,
				0.125,
				0.125
			],
			"min":[
				-0.1249999925494194,
				-0.125,
				-0.125
			],
			"type":"VEC3"
		},
		{
			"bufferView":4,
			"componentType":5126,
			"count":28,
			"type":"VEC3"
		},
		{
			"bufferView":5,
			"componentType":5123,
			"count":54,
			"type":"SCALAR"
		},
		{
			"bufferView":6,
			"componentType":5126,
			"count":20,
			"max":[
				0.09425770491361618,
				0.09425768256187439,
				-0.09242992103099823
			],
			"min":[
				-0.09425769001245499,
				-0.09425769746303558,
				-0.1249999925494194
			],
			"type":"VEC3"
		},
		{
			"bufferView":7,
			"componentType":5126,
			"count":20,
			"type":"VEC3"
		},
		{
			"bufferView":8,
			"componentType":5123,
			"count":30,
			"type":"SCALAR"
		},
		{
			"bufferView":9,
			"componentType":5126,
			"count":376,
			"max":[
				0.02985917031764984,
				-0.1249999925494194,
				0.02985917031764984
			],
			"min":[
				-0.02985917031764984,
				-0.14564894139766693,
				-0.02985917218029499
			],
			"type":"VEC3"
		},
		{
			"bufferView":10,
			"componentType":5126,
			"count":376,
			"type":"VEC3"
		},
		{
			"bufferView":11,
			"componentType":5123,
			"count":1020,
			"type":"SCALAR"
		}
	],
	"bufferViews":[
		{
			"buffer":0,
			"byteLength":1176,
			"byteOffset":0,
			"target":34962
		},
		{
			"buffer":0,
			"byteLength":1176,
			"byteOffset":1176,
			"target":34962
		},
		{
			"buffer":0,
			"byteLength":540,
			"byteOffset":2352,
			"target":34963
		},
		{
			"buffer":0,
			"byteLength":336,
			"byteOffset":2892,
			"target":34962
		},
		{
			"buffer":0,
			"byteLength":336,
			"byteOffset":3228,
			"target":34962
		},
		{
			"buffer":0,
			"byteLength":108,
			"byteOffset":3564,
			"target":34963
		},
		{
			"buffer":0,
			"byteLength":240,
			"byteOffset":3672,
			"target":34962
		},
		{
			"buffer":0,
			"byteLength":240,
			"byteOffset":3912,
			"target":34962
		},
		{
			"buffer":0,
			"byteLength":60,
			"byteOffset":4152,
			"target":34963
		},
		{
			"buffer":0,
			"byteLength":4512,
			"byteOffset":4212,
			"target":34962
		},
		{
			"buffer":0,
			"byteLength":4512,
			"byteOffset":8724,
			"target":34962
		},
		{
			"buffer":0,
			"byteLength":2040,
			"byteOffset":13236,
			"target":34963
		}
	],
	"buffers":[
		{
			"byteLength":15276,
			"uri":"ToggleButton.bin"
		}
	]
}
