{
	"asset":{
		"generator":"Khronos glTF Blender I/O v4.0.44",
		"version":"2.0"
	},
	"scene":0,
	"scenes":[
		{
			"name":"Scene",
			"nodes":[
				0,
				1,
				2
			]
		}
	],
	"nodes":[
		{
			"mesh":0,
			"name":"body",
			"rotation":[
				-0.7071068286895752,
				0,
				0,
				0.7071068286895752
			],
			"translation":[
				0,
				0,
				-0.12356272339820862
			]
		},
		{
			"mesh":1,
			"name":"wheel",
			"translation":[
				0,
				0,
				-0.4469296634197235
			]
		},
		{
			"mesh":2,
			"name":"support",
			"translation":[
				0,
				0,
				-0.39196228981018066
			]
		}
	],
	"materials":[
		{
			"doubleSided":true,
			"name":"color1",
			"pbrMetallicRoughness":{
				"baseColorFactor":[
					1,
					1,
					1,
					1
				],
				"metallicFactor":0,
				"roughnessFactor":0
			}
		},
		{
			"doubleSided":true,
			"name":"data-connector",
			"pbrMetallicRoughness":{
				"baseColorFactor":[
					0,
					0.05000019073486328,
					0.5,
					1
				],
				"metallicFactor":1,
				"roughnessFactor":1
			}
		},
		{
			"doubleSided":true,
			"name":"color2",
			"pbrMetallicRoughness":{
				"baseColorFactor":[
					0.800000011920929,
					0.800000011920929,
					0.800000011920929,
					1
				],
				"metallicFactor":1,
				"roughnessFactor":1
			}
		},
		{
			"doubleSided":true,
			"name":"body",
			"pbrMetallicRoughness":{
				"baseColorFactor":[
					0.009999999776482582,
					0.009999999776482582,
					0.009999999776482582,
					1
				],
				"metallicFactor":0,
				"roughnessFactor":1
			}
		},
		{
			"doubleSided":true,
			"name":"pin",
			"pbrMetallicRoughness":{
				"baseColorFactor":[
					1,
					1,
					1,
					1
				],
				"metallicFactor":1,
				"roughnessFactor":0
			}
		}
	],
	"meshes":[
		{
			"name":"Cylinder.001",
			"primitives":[
				{
					"attributes":{
						"POSITION":0,
						"NORMAL":1
					},
					"indices":2,
					"material":0
				},
				{
					"attributes":{
						"POSITION":3,
						"NORMAL":4
					},
					"indices":5,
					"material":1
				}
			]
		},
		{
			"name":"Cylinder",
			"primitives":[
				{
					"attributes":{
						"POSITION":6,
						"NORMAL":7
					},
					"indices":8,
					"material":2
				},
				{
					"attributes":{
						"POSITION":9,
						"NORMAL":10
					},
					"indices":11,
					"material":3
				},
				{
					"attributes":{
						"POSITION":12,
						"NORMAL":13
					},
					"indices":14,
					"material":4
				}
			]
		},
		{
			"name":"Cube.003",
			"primitives":[
				{
					"attributes":{
						"POSITION":15,
						"NORMAL":16
					},
					"indices":17,
					"material":2
				}
			]
		}
	],
	"accessors":[
		{
			"bufferView":0,
			"componentType":5126,
			"count":248,
			"max":[
				0.125,
				0.032995857298374176,
				0.1250000298023224
			],
			"min":[
				-0.125,
				-0.23944029211997986,
				-0.125
			],
			"type":"VEC3"
		},
		{
			"bufferView":1,
			"componentType":5126,
			"count":248,
			"type":"VEC3"
		},
		{
			"bufferView":2,
			"componentType":5123,
			"count":1086,
			"type":"SCALAR"
		},
		{
			"bufferView":3,
			"componentType":5126,
			"count":376,
			"max":[
				0.02985917031764984,
				-0.08458112180233002,
				0.14564895629882812
			],
			"min":[
				-0.02985917031764984,
				-0.1442994624376297,
				0.1250000149011612
			],
			"type":"VEC3"
		},
		{
			"bufferView":4,
			"componentType":5126,
			"count":376,
			"type":"VEC3"
		},
		{
			"bufferView":5,
			"componentType":5123,
			"count":1020,
			"type":"SCALAR"
		},
		{
			"bufferView":6,
			"componentType":5126,
			"count":576,
			"max":[
				0.06992903351783752,
				0.11719256639480591,
				0.1171925738453865
			],
			"min":[
				-0.06992902606725693,
				-0.1171925812959671,
				-0.1171925738453865
			],
			"type":"VEC3"
		},
		{
			"bufferView":7,
			"componentType":5126,
			"count":576,
			"type":"VEC3"
		},
		{
			"bufferView":8,
			"componentType":5123,
			"count":1728,
			"type":"SCALAR"
		},
		{
			"bufferView":9,
			"componentType":5126,
			"count":2112,
			"max":[
				0.08766806870698929,
				0.24945127964019775,
				0.24945127964019775
			],
			"min":[
				-0.08766807615756989,
				-0.24945127964019775,
				-0.24945127964019775
			],
			"type":"VEC3"
		},
		{
			"bufferView":10,
			"componentType":5126,
			"count":2112,
			"type":"VEC3"
		},
		{
			"bufferView":11,
			"componentType":5123,
			"count":8352,
			"type":"SCALAR"
		},
		{
			"bufferView":12,
			"componentType":5126,
			"count":480,
			"max":[
				0.10725158452987671,
				0.020046016201376915,
				0.020046012476086617
			],
			"min":[
				-0.1072515919804573,
				-0.020046016201376915,
				-0.020046012476086617
			],
			"type":"VEC3"
		},
		{
			"bufferView":13,
			"componentType":5126,
			"count":480,
			"type":"VEC3"
		},
		{
			"bufferView":14,
			"componentType":5123,
			"count":1428,
			"type":"SCALAR"
		},
		{
			"bufferView":15,
			"componentType":5126,
			"count":440,
			"max":[
				0.10298078507184982,
				0.08063235133886337,
				0.2510441541671753
			],
			"min":[
				-0.10298054665327072,
				-0.08296557515859604,
				-0.11129548400640488
			],
			"type":"VEC3"
		},
		{
			"bufferView":16,
			"componentType":5126,
			"count":440,
			"type":"VEC3"
		},
		{
			"bufferView":17,
			"componentType":5123,
			"count":1500,
			"type":"SCALAR"
		}
	],
	"bufferViews":[
		{
			"buffer":0,
			"byteLength":2976,
			"byteOffset":0,
			"target":34962
		},
		{
			"buffer":0,
			"byteLength":2976,
			"byteOffset":2976,
			"target":34962
		},
		{
			"buffer":0,
			"byteLength":2172,
			"byteOffset":5952,
			"target":34963
		},
		{
			"buffer":0,
			"byteLength":4512,
			"byteOffset":8124,
			"target":34962
		},
		{
			"buffer":0,
			"byteLength":4512,
			"byteOffset":12636,
			"target":34962
		},
		{
			"buffer":0,
			"byteLength":2040,
			"byteOffset":17148,
			"target":34963
		},
		{
			"buffer":0,
			"byteLength":6912,
			"byteOffset":19188,
			"target":34962
		},
		{
			"buffer":0,
			"byteLength":6912,
			"byteOffset":26100,
			"target":34962
		},
		{
			"buffer":0,
			"byteLength":3456,
			"byteOffset":33012,
			"target":34963
		},
		{
			"buffer":0,
			"byteLength":25344,
			"byteOffset":36468,
			"target":34962
		},
		{
			"buffer":0,
			"byteLength":25344,
			"byteOffset":61812,
			"target":34962
		},
		{
			"buffer":0,
			"byteLength":16704,
			"byteOffset":87156,
			"target":34963
		},
		{
			"buffer":0,
			"byteLength":5760,
			"byteOffset":103860,
			"target":34962
		},
		{
			"buffer":0,
			"byteLength":5760,
			"byteOffset":109620,
			"target":34962
		},
		{
			"buffer":0,
			"byteLength":2856,
			"byteOffset":115380,
			"target":34963
		},
		{
			"buffer":0,
			"byteLength":5280,
			"byteOffset":118236,
			"target":34962
		},
		{
			"buffer":0,
			"byteLength":5280,
			"byteOffset":123516,
			"target":34962
		},
		{
			"buffer":0,
			"byteLength":3000,
			"byteOffset":128796,
			"target":34963
		}
	],
	"buffers":[
		{
			"byteLength":131796,
			"uri":"SmallWheel.bin"
		}
	]
}
