{
	"asset":{
		"generator":"Khronos glTF Blender I/O v3.6.6",
		"version":"2.0"
	},
	"scene":0,
	"scenes":[
		{
			"name":"Scene",
			"nodes":[
				0,
				1,
				2,
				3,
				4
			]
		}
	],
	"nodes":[
		{
			"mesh":0,
			"name":"Box",
			"translation":[
				0,
				0,
				0.11550161242485046
			]
		},
		{
			"mesh":1,
			"name":"mudguard",
			"translation":[
				0,
				0,
				0.11550161242485046
			]
		},
		{
			"mesh":2,
			"name":"Torus",
			"translation":[
				0,
				0,
				-0.3288073241710663
			]
		},
		{
			"mesh":3,
			"name":"inner",
			"translation":[
				0,
				0,
				-0.33180755376815796
			]
		},
		{
			"mesh":4,
			"name":"suspension-cylinder",
			"translation":[
				0,
				0,
				0.22248366475105286
			]
		}
	],
	"materials":[
		{
			"doubleSided":true,
			"name":"body",
			"pbrMetallicRoughness":{
				"baseColorFactor":[
					0.009999999776482582,
					0.009999999776482582,
					0.009999999776482582,
					1
				],
				"metallicFactor":0,
				"roughnessFactor":1
			}
		},
		{
			"doubleSided":true,
			"name":"data-connector",
			"pbrMetallicRoughness":{
				"baseColorFactor":[
					0,
					0.05000007152557373,
					0.5,
					1
				],
				"metallicFactor":1,
				"roughnessFactor":1
			}
		},
		{
			"doubleSided":true,
			"name":"lv-connector",
			"pbrMetallicRoughness":{
				"baseColorFactor":[
					0.5,
					0,
					0,
					1
				],
				"metallicFactor":1,
				"roughnessFactor":1
			}
		},
		{
			"doubleSided":true,
			"name":"hv-connector",
			"pbrMetallicRoughness":{
				"baseColorFactor":[
					0.5,
					0.1499999761581421,
					0,
					1
				],
				"metallicFactor":1,
				"roughnessFactor":1
			}
		},
		{
			"doubleSided":true,
			"name":"pin",
			"pbrMetallicRoughness":{
				"baseColorFactor":[
					1,
					1,
					1,
					1
				],
				"metallicFactor":1,
				"roughnessFactor":0
			}
		},
		{
			"doubleSided":true,
			"name":"color1",
			"pbrMetallicRoughness":{
				"baseColorFactor":[
					0.800000011920929,
					0.800000011920929,
					0.800000011920929,
					1
				],
				"metallicFactor":0,
				"roughnessFactor":0
			}
		},
		{
			"doubleSided":true,
			"name":"tire",
			"pbrMetallicRoughness":{
				"baseColorFactor":[
					0.01341040339320898,
					0.01341040339320898,
					0.01341040339320898,
					1
				],
				"metallicFactor":0,
				"roughnessFactor":0.5
			}
		},
		{
			"doubleSided":true,
			"name":"color2",
			"pbrMetallicRoughness":{
				"baseColorFactor":[
					0.800000011920929,
					0.800000011920929,
					0.800000011920929,
					1
				],
				"metallicFactor":1,
				"roughnessFactor":1
			}
		}
	],
	"meshes":[
		{
			"name":"Torus.001",
			"primitives":[
				{
					"attributes":{
						"POSITION":0,
						"NORMAL":1
					},
					"indices":2,
					"material":0
				},
				{
					"attributes":{
						"POSITION":3,
						"NORMAL":4
					},
					"indices":5,
					"material":1
				},
				{
					"attributes":{
						"POSITION":6,
						"NORMAL":7
					},
					"indices":8,
					"material":2
				},
				{
					"attributes":{
						"POSITION":9,
						"NORMAL":10
					},
					"indices":11,
					"material":3
				},
				{
					"attributes":{
						"POSITION":12,
						"NORMAL":13
					},
					"indices":14,
					"material":4
				}
			]
		},
		{
			"name":"Torus.003",
			"primitives":[
				{
					"attributes":{
						"POSITION":15,
						"NORMAL":16
					},
					"indices":17,
					"material":5
				}
			]
		},
		{
			"name":"Torus",
			"primitives":[
				{
					"attributes":{
						"POSITION":18,
						"NORMAL":19
					},
					"indices":20,
					"material":6
				},
				{
					"attributes":{
						"POSITION":21,
						"NORMAL":22
					},
					"indices":23,
					"material":7
				},
				{
					"attributes":{
						"POSITION":24,
						"NORMAL":25
					},
					"indices":26,
					"material":0
				}
			]
		},
		{
			"name":"Torus.004",
			"primitives":[
				{
					"attributes":{
						"POSITION":27,
						"NORMAL":28
					},
					"indices":29,
					"material":0
				}
			]
		},
		{
			"name":"Torus.002",
			"primitives":[
				{
					"attributes":{
						"POSITION":30,
						"NORMAL":31
					},
					"indices":32,
					"material":0
				},
				{
					"attributes":{
						"POSITION":33,
						"NORMAL":34
					},
					"indices":35,
					"material":4
				}
			]
		}
	],
	"accessors":[
		{
			"bufferView":0,
			"componentType":5126,
			"count":644,
			"max":[
				0.2515621483325958,
				0.1794731169939041,
				0.04801957309246063
			],
			"min":[
				-0.2515621483325958,
				-0.17947307229042053,
				-0.3017115592956543
			],
			"type":"VEC3"
		},
		{
			"bufferView":1,
			"componentType":5126,
			"count":644,
			"type":"VEC3"
		},
		{
			"bufferView":2,
			"componentType":5123,
			"count":1848,
			"type":"SCALAR"
		},
		{
			"bufferView":3,
			"componentType":5126,
			"count":372,
			"max":[
				0.15485917031764984,
				0.20012202858924866,
				-0.029329396784305573
			],
			"min":[
				0.09514082968235016,
				0.17947308719158173,
				-0.08904773741960526
			],
			"type":"VEC3"
		},
		{
			"bufferView":4,
			"componentType":5126,
			"count":372,
			"type":"VEC3"
		},
		{
			"bufferView":5,
			"componentType":5123,
			"count":1020,
			"type":"SCALAR"
		},
		{
			"bufferView":6,
			"componentType":5126,
			"count":312,
			"max":[
				-0.0943741425871849,
				0.19985343515872955,
				-0.028562717139720917
			],
			"min":[
				-0.1556258499622345,
				0.17947301268577576,
				-0.08981441706418991
			],
			"type":"VEC3"
		},
		{
			"bufferView":7,
			"componentType":5126,
			"count":312,
			"type":"VEC3"
		},
		{
			"bufferView":8,
			"componentType":5123,
			"count":996,
			"type":"SCALAR"
		},
		{
			"bufferView":9,
			"componentType":5126,
			"count":696,
			"max":[
				0.07035044580698013,
				0.22119253873825073,
				0.04640229046344757
			],
			"min":[
				-0.07035043090581894,
				0.17947325110435486,
				-0.0942985862493515
			],
			"type":"VEC3"
		},
		{
			"bufferView":10,
			"componentType":5126,
			"count":696,
			"type":"VEC3"
		},
		{
			"bufferView":11,
			"componentType":5123,
			"count":2148,
			"type":"SCALAR"
		},
		{
			"bufferView":12,
			"componentType":5126,
			"count":125,
			"max":[
				0.10487524420022964,
				0.045625295490026474,
				-0.2993955910205841
			],
			"min":[
				-0.10487525165081024,
				-0.045625362545251846,
				-0.39656174182891846
			],
			"type":"VEC3"
		},
		{
			"bufferView":13,
			"componentType":5126,
			"count":125,
			"type":"VEC3"
		},
		{
			"bufferView":14,
			"componentType":5123,
			"count":372,
			"type":"SCALAR"
		},
		{
			"bufferView":15,
			"componentType":5126,
			"count":402,
			"max":[
				0.5369035005569458,
				0.6652138829231262,
				-0.09472208470106125
			],
			"min":[
				-0.5369036197662354,
				0.17947307229042053,
				-0.4903867542743683
			],
			"type":"VEC3"
		},
		{
			"bufferView":16,
			"componentType":5126,
			"count":402,
			"type":"VEC3"
		},
		{
			"bufferView":17,
			"componentType":5123,
			"count":1170,
			"type":"SCALAR"
		},
		{
			"bufferView":18,
			"componentType":5126,
			"count":2192,
			"max":[
				0.4991202652454376,
				0.4991202652454376,
				0.17686805129051208
			],
			"min":[
				-0.4991202652454376,
				-0.49912029504776,
				-0.18202438950538635
			],
			"type":"VEC3"
		},
		{
			"bufferView":19,
			"componentType":5126,
			"count":2192,
			"type":"VEC3"
		},
		{
			"bufferView":20,
			"componentType":5123,
			"count":5040,
			"type":"SCALAR"
		},
		{
			"bufferView":21,
			"componentType":5126,
			"count":272,
			"max":[
				0.2719253897666931,
				0.27192533016204834,
				-0.07129166275262833
			],
			"min":[
				-0.27192533016204834,
				-0.2719254195690155,
				-0.1720672994852066
			],
			"type":"VEC3"
		},
		{
			"bufferView":22,
			"componentType":5126,
			"count":272,
			"type":"VEC3"
		},
		{
			"bufferView":23,
			"componentType":5123,
			"count":912,
			"type":"SCALAR"
		},
		{
			"bufferView":24,
			"componentType":5126,
			"count":96,
			"max":[
				0.0919862613081932,
				0.09198625385761261,
				-0.09871163964271545
			],
			"min":[
				-0.091986283659935,
				-0.0919862687587738,
				-0.12719844281673431
			],
			"type":"VEC3"
		},
		{
			"bufferView":25,
			"componentType":5126,
			"count":96,
			"type":"VEC3"
		},
		{
			"bufferView":26,
			"componentType":5123,
			"count":282,
			"type":"SCALAR"
		},
		{
			"bufferView":27,
			"componentType":5126,
			"count":433,
			"max":[
				0.33546215295791626,
				0.33546215295791626,
				0.17722557485103607
			],
			"min":[
				-0.33546221256256104,
				-0.33546215295791626,
				0.03151509910821915
			],
			"type":"VEC3"
		},
		{
			"bufferView":28,
			"componentType":5126,
			"count":433,
			"type":"VEC3"
		},
		{
			"bufferView":29,
			"componentType":5123,
			"count":1296,
			"type":"SCALAR"
		},
		{
			"bufferView":30,
			"componentType":5126,
			"count":120,
			"max":[
				0.08040295541286469,
				0.18083569407463074,
				-0.4106364846229553
			],
			"min":[
				-0.0804029256105423,
				-0.18083588778972626,
				-0.5490396618843079
			],
			"type":"VEC3"
		},
		{
			"bufferView":31,
			"componentType":5126,
			"count":120,
			"type":"VEC3"
		},
		{
			"bufferView":32,
			"componentType":5123,
			"count":240,
			"type":"SCALAR"
		},
		{
			"bufferView":33,
			"componentType":5126,
			"count":16,
			"max":[
				0.08040295541286469,
				0.16671285033226013,
				-0.4106364846229553
			],
			"min":[
				-0.0804029256105423,
				-0.16671299934387207,
				-0.5023909211158752
			],
			"type":"VEC3"
		},
		{
			"bufferView":34,
			"componentType":5126,
			"count":16,
			"type":"VEC3"
		},
		{
			"bufferView":35,
			"componentType":5123,
			"count":24,
			"type":"SCALAR"
		}
	],
	"bufferViews":[
		{
			"buffer":0,
			"byteLength":7728,
			"byteOffset":0,
			"target":34962
		},
		{
			"buffer":0,
			"byteLength":7728,
			"byteOffset":7728,
			"target":34962
		},
		{
			"buffer":0,
			"byteLength":3696,
			"byteOffset":15456,
			"target":34963
		},
		{
			"buffer":0,
			"byteLength":4464,
			"byteOffset":19152,
			"target":34962
		},
		{
			"buffer":0,
			"byteLength":4464,
			"byteOffset":23616,
			"target":34962
		},
		{
			"buffer":0,
			"byteLength":2040,
			"byteOffset":28080,
			"target":34963
		},
		{
			"buffer":0,
			"byteLength":3744,
			"byteOffset":30120,
			"target":34962
		},
		{
			"buffer":0,
			"byteLength":3744,
			"byteOffset":33864,
			"target":34962
		},
		{
			"buffer":0,
			"byteLength":1992,
			"byteOffset":37608,
			"target":34963
		},
		{
			"buffer":0,
			"byteLength":8352,
			"byteOffset":39600,
			"target":34962
		},
		{
			"buffer":0,
			"byteLength":8352,
			"byteOffset":47952,
			"target":34962
		},
		{
			"buffer":0,
			"byteLength":4296,
			"byteOffset":56304,
			"target":34963
		},
		{
			"buffer":0,
			"byteLength":1500,
			"byteOffset":60600,
			"target":34962
		},
		{
			"buffer":0,
			"byteLength":1500,
			"byteOffset":62100,
			"target":34962
		},
		{
			"buffer":0,
			"byteLength":744,
			"byteOffset":63600,
			"target":34963
		},
		{
			"buffer":0,
			"byteLength":4824,
			"byteOffset":64344,
			"target":34962
		},
		{
			"buffer":0,
			"byteLength":4824,
			"byteOffset":69168,
			"target":34962
		},
		{
			"buffer":0,
			"byteLength":2340,
			"byteOffset":73992,
			"target":34963
		},
		{
			"buffer":0,
			"byteLength":26304,
			"byteOffset":76332,
			"target":34962
		},
		{
			"buffer":0,
			"byteLength":26304,
			"byteOffset":102636,
			"target":34962
		},
		{
			"buffer":0,
			"byteLength":10080,
			"byteOffset":128940,
			"target":34963
		},
		{
			"buffer":0,
			"byteLength":3264,
			"byteOffset":139020,
			"target":34962
		},
		{
			"buffer":0,
			"byteLength":3264,
			"byteOffset":142284,
			"target":34962
		},
		{
			"buffer":0,
			"byteLength":1824,
			"byteOffset":145548,
			"target":34963
		},
		{
			"buffer":0,
			"byteLength":1152,
			"byteOffset":147372,
			"target":34962
		},
		{
			"buffer":0,
			"byteLength":1152,
			"byteOffset":148524,
			"target":34962
		},
		{
			"buffer":0,
			"byteLength":564,
			"byteOffset":149676,
			"target":34963
		},
		{
			"buffer":0,
			"byteLength":5196,
			"byteOffset":150240,
			"target":34962
		},
		{
			"buffer":0,
			"byteLength":5196,
			"byteOffset":155436,
			"target":34962
		},
		{
			"buffer":0,
			"byteLength":2592,
			"byteOffset":160632,
			"target":34963
		},
		{
			"buffer":0,
			"byteLength":1440,
			"byteOffset":163224,
			"target":34962
		},
		{
			"buffer":0,
			"byteLength":1440,
			"byteOffset":164664,
			"target":34962
		},
		{
			"buffer":0,
			"byteLength":480,
			"byteOffset":166104,
			"target":34963
		},
		{
			"buffer":0,
			"byteLength":192,
			"byteOffset":166584,
			"target":34962
		},
		{
			"buffer":0,
			"byteLength":192,
			"byteOffset":166776,
			"target":34962
		},
		{
			"buffer":0,
			"byteLength":48,
			"byteOffset":166968,
			"target":34963
		}
	],
	"buffers":[
		{
			"byteLength":167016,
			"uri":"Wheel.bin"
		}
	]
}
