{
	"asset":{
		"generator":"Khronos glTF Blender I/O v4.0.44",
		"version":"2.0"
	},
	"scene":0,
	"scenes":[
		{
			"name":"Scene",
			"nodes":[
				0
			]
		}
	],
	"nodes":[
		{
			"mesh":0,
			"name":"Cylinder",
			"translation":[
				0,
				0.11763077974319458,
				0
			]
		}
	],
	"materials":[
		{
			"doubleSided":true,
			"name":"tube",
			"pbrMetallicRoughness":{
				"baseColorFactor":[
					1,
					1,
					1,
					1
				],
				"metallicFactor":1,
				"roughnessFactor":0
			}
		},
		{
			"doubleSided":true,
			"name":"interior",
			"pbrMetallicRoughness":{
				"baseColorFactor":[
					0,
					0,
					0,
					1
				],
				"metallicFactor":0,
				"roughnessFactor":0
			}
		},
		{
			"doubleSided":true,
			"name":"color2",
			"pbrMetallicRoughness":{
				"baseColorFactor":[
					0.800000011920929,
					0.800000011920929,
					0.800000011920929,
					1
				],
				"metallicFactor":1,
				"roughnessFactor":1
			}
		},
		{
			"doubleSided":true,
			"name":"body",
			"pbrMetallicRoughness":{
				"baseColorFactor":[
					0.009999999776482582,
					0.009999999776482582,
					0.009999999776482582,
					1
				],
				"metallicFactor":0,
				"roughnessFactor":1
			}
		}
	],
	"meshes":[
		{
			"name":"Cylinder.001",
			"primitives":[
				{
					"attributes":{
						"POSITION":0,
						"NORMAL":1
					},
					"indices":2,
					"material":0
				},
				{
					"attributes":{
						"POSITION":3,
						"NORMAL":4
					},
					"indices":5,
					"material":1
				},
				{
					"attributes":{
						"POSITION":6,
						"NORMAL":7
					},
					"indices":8,
					"material":2
				},
				{
					"attributes":{
						"POSITION":9,
						"NORMAL":10
					},
					"indices":11,
					"material":3
				}
			]
		}
	],
	"accessors":[
		{
			"bufferView":0,
			"componentType":5126,
			"count":128,
			"max":[
				0.24013786017894745,
				0.1463853418827057,
				0.24013786017894745
			],
			"min":[
				-0.24013786017894745,
				-0.43882325291633606,
				-0.24013786017894745
			],
			"type":"VEC3"
		},
		{
			"bufferView":1,
			"componentType":5126,
			"count":128,
			"type":"VEC3"
		},
		{
			"bufferView":2,
			"componentType":5123,
			"count":384,
			"type":"SCALAR"
		},
		{
			"bufferView":3,
			"componentType":5126,
			"count":192,
			"max":[
				0.1671309918165207,
				0.23697850108146667,
				0.1671309918165207
			],
			"min":[
				-0.1671309918165207,
				-0.36704355478286743,
				-0.1671309918165207
			],
			"type":"VEC3"
		},
		{
			"bufferView":4,
			"componentType":5126,
			"count":192,
			"type":"VEC3"
		},
		{
			"bufferView":5,
			"componentType":5123,
			"count":570,
			"type":"SCALAR"
		},
		{
			"bufferView":6,
			"componentType":5126,
			"count":1152,
			"max":[
				0.25013798475265503,
				0.2509043216705322,
				0.25013798475265503
			],
			"min":[
				-0.25013798475265503,
				0.1456877589225769,
				-0.25013798475265503
			],
			"type":"VEC3"
		},
		{
			"bufferView":7,
			"componentType":5126,
			"count":1152,
			"type":"VEC3"
		},
		{
			"bufferView":8,
			"componentType":5123,
			"count":5760,
			"type":"SCALAR"
		},
		{
			"bufferView":9,
			"componentType":5126,
			"count":704,
			"max":[
				0.24829046428203583,
				-0.43866458535194397,
				0.24829046428203583
			],
			"min":[
				-0.24829046428203583,
				-0.4709266126155853,
				-0.24829046428203583
			],
			"type":"VEC3"
		},
		{
			"bufferView":10,
			"componentType":5126,
			"count":704,
			"type":"VEC3"
		},
		{
			"bufferView":11,
			"componentType":5123,
			"count":2106,
			"type":"SCALAR"
		}
	],
	"bufferViews":[
		{
			"buffer":0,
			"byteLength":1536,
			"byteOffset":0,
			"target":34962
		},
		{
			"buffer":0,
			"byteLength":1536,
			"byteOffset":1536,
			"target":34962
		},
		{
			"buffer":0,
			"byteLength":768,
			"byteOffset":3072,
			"target":34963
		},
		{
			"buffer":0,
			"byteLength":2304,
			"byteOffset":3840,
			"target":34962
		},
		{
			"buffer":0,
			"byteLength":2304,
			"byteOffset":6144,
			"target":34962
		},
		{
			"buffer":0,
			"byteLength":1140,
			"byteOffset":8448,
			"target":34963
		},
		{
			"buffer":0,
			"byteLength":13824,
			"byteOffset":9588,
			"target":34962
		},
		{
			"buffer":0,
			"byteLength":13824,
			"byteOffset":23412,
			"target":34962
		},
		{
			"buffer":0,
			"byteLength":11520,
			"byteOffset":37236,
			"target":34963
		},
		{
			"buffer":0,
			"byteLength":8448,
			"byteOffset":48756,
			"target":34962
		},
		{
			"buffer":0,
			"byteLength":8448,
			"byteOffset":57204,
			"target":34962
		},
		{
			"buffer":0,
			"byteLength":4212,
			"byteOffset":65652,
			"target":34963
		}
	],
	"buffers":[
		{
			"byteLength":69864,
			"uri":"TrashCan.bin"
		}
	]
}
