{
	"asset":{
		"generator":"Khronos glTF Blender I/O v4.0.44",
		"version":"2.0"
	},
	"scene":0,
	"scenes":[
		{
			"name":"Scene",
			"nodes":[
				0,
				1
			]
		}
	],
	"nodes":[
		{
			"mesh":0,
			"name":"body"
		},
		{
			"mesh":1,
			"name":"drill",
			"translation":[
				0,
				-0.6080784201622009,
				-0.955426812171936
			]
		}
	],
	"materials":[
		{
			"doubleSided":true,
			"name":"color1",
			"pbrMetallicRoughness":{
				"baseColorFactor":[
					1,
					1,
					1,
					1
				],
				"metallicFactor":0,
				"roughnessFactor":0
			}
		},
		{
			"doubleSided":true,
			"name":"void",
			"pbrMetallicRoughness":{
				"baseColorFactor":[
					0,
					0,
					0,
					1
				],
				"metallicFactor":1,
				"roughnessFactor":1
			}
		},
		{
			"doubleSided":true,
			"name":"color2",
			"pbrMetallicRoughness":{
				"baseColorFactor":[
					0.800000011920929,
					0.800000011920929,
					0.800000011920929,
					1
				],
				"metallicFactor":1,
				"roughnessFactor":1
			}
		},
		{
			"doubleSided":true,
			"name":"item-connector",
			"pbrMetallicRoughness":{
				"baseColorFactor":[
					0.5,
					0.5,
					0.5,
					1
				],
				"metallicFactor":1,
				"roughnessFactor":1
			}
		},
		{
			"doubleSided":true,
			"name":"data-connector",
			"pbrMetallicRoughness":{
				"baseColorFactor":[
					0,
					0.050000905990600586,
					0.5,
					1
				],
				"metallicFactor":1,
				"roughnessFactor":1
			}
		},
		{
			"doubleSided":true,
			"name":"hv-connector",
			"pbrMetallicRoughness":{
				"baseColorFactor":[
					0.5,
					0.1500009298324585,
					0,
					1
				],
				"metallicFactor":1,
				"roughnessFactor":1
			}
		},
		{
			"doubleSided":true,
			"name":"lv-connector",
			"pbrMetallicRoughness":{
				"baseColorFactor":[
					0.5,
					0,
					0,
					1
				],
				"metallicFactor":1,
				"roughnessFactor":1
			}
		},
		{
			"doubleSided":true,
			"name":"drill",
			"pbrMetallicRoughness":{
				"baseColorFactor":[
					0.6000000238418579,
					0.6000000238418579,
					0.6000000238418579,
					1
				],
				"metallicFactor":1,
				"roughnessFactor":0
			}
		}
	],
	"meshes":[
		{
			"name":"Cube.001",
			"primitives":[
				{
					"attributes":{
						"POSITION":0,
						"NORMAL":1
					},
					"indices":2,
					"material":0
				},
				{
					"attributes":{
						"POSITION":3,
						"NORMAL":4
					},
					"indices":5,
					"material":1
				},
				{
					"attributes":{
						"POSITION":6,
						"NORMAL":7
					},
					"indices":8,
					"material":2
				},
				{
					"attributes":{
						"POSITION":9,
						"NORMAL":10
					},
					"indices":11,
					"material":3
				},
				{
					"attributes":{
						"POSITION":12,
						"NORMAL":13
					},
					"indices":14,
					"material":4
				},
				{
					"attributes":{
						"POSITION":15,
						"NORMAL":16
					},
					"indices":17,
					"material":5
				},
				{
					"attributes":{
						"POSITION":18,
						"NORMAL":19
					},
					"indices":20,
					"material":6
				}
			]
		},
		{
			"name":"Cylinder.004",
			"primitives":[
				{
					"attributes":{
						"POSITION":21,
						"NORMAL":22
					},
					"indices":23,
					"material":7
				}
			]
		}
	],
	"accessors":[
		{
			"bufferView":0,
			"componentType":5126,
			"count":1128,
			"max":[
				0.5000001192092896,
				1,
				0.5000001192092896
			],
			"min":[
				-0.5000001192092896,
				-1,
				-1.4500000476837158
			],
			"type":"VEC3"
		},
		{
			"bufferView":1,
			"componentType":5126,
			"count":1128,
			"type":"VEC3"
		},
		{
			"bufferView":2,
			"componentType":5123,
			"count":3096,
			"type":"SCALAR"
		},
		{
			"bufferView":3,
			"componentType":5126,
			"count":688,
			"max":[
				0.3873768448829651,
				0.9018537998199463,
				0.3558492958545685
			],
			"min":[
				-0.3873768448829651,
				-0.40078499913215637,
				-1.1267554759979248
			],
			"type":"VEC3"
		},
		{
			"bufferView":4,
			"componentType":5126,
			"count":688,
			"type":"VEC3"
		},
		{
			"bufferView":5,
			"componentType":5123,
			"count":1542,
			"type":"SCALAR"
		},
		{
			"bufferView":6,
			"componentType":5126,
			"count":622,
			"max":[
				0.38442614674568176,
				0.9328956007957458,
				0.3558492958545685
			],
			"min":[
				-0.38442614674568176,
				0.03617751970887184,
				-1.2472593784332275
			],
			"type":"VEC3"
		},
		{
			"bufferView":7,
			"componentType":5126,
			"count":622,
			"type":"VEC3"
		},
		{
			"bufferView":8,
			"componentType":5123,
			"count":1722,
			"type":"SCALAR"
		},
		{
			"bufferView":9,
			"componentType":5126,
			"count":116,
			"max":[
				0.4373767673969269,
				-0.6156336665153503,
				0.12499987334012985
			],
			"min":[
				0.38737669587135315,
				-0.8656336665153503,
				-0.12500013411045074
			],
			"type":"VEC3"
		},
		{
			"bufferView":10,
			"componentType":5126,
			"count":116,
			"type":"VEC3"
		},
		{
			"bufferView":11,
			"componentType":5123,
			"count":198,
			"type":"SCALAR"
		},
		{
			"bufferView":12,
			"componentType":5126,
			"count":376,
			"max":[
				-0.38737669587135315,
				-0.8052563071250916,
				0.09985930472612381
			],
			"min":[
				-0.40802568197250366,
				-0.8649746775627136,
				0.04014095664024353
			],
			"type":"VEC3"
		},
		{
			"bufferView":13,
			"componentType":5126,
			"count":376,
			"type":"VEC3"
		},
		{
			"bufferView":14,
			"componentType":5123,
			"count":1020,
			"type":"SCALAR"
		},
		{
			"bufferView":15,
			"componentType":5126,
			"count":696,
			"max":[
				-0.3873768448829651,
				-0.6157817840576172,
				0.07035057991743088
			],
			"min":[
				-0.4290962219238281,
				-0.7564826011657715,
				-0.07035031169652939
			],
			"type":"VEC3"
		},
		{
			"bufferView":16,
			"componentType":5126,
			"count":696,
			"type":"VEC3"
		},
		{
			"bufferView":17,
			"componentType":5123,
			"count":2148,
			"type":"SCALAR"
		},
		{
			"bufferView":18,
			"componentType":5126,
			"count":312,
			"max":[
				-0.38737666606903076,
				-0.8044896125793457,
				-0.03937401622533798
			],
			"min":[
				-0.40775710344314575,
				-0.8657413721084595,
				-0.10062572360038757
			],
			"type":"VEC3"
		},
		{
			"bufferView":19,
			"componentType":5126,
			"count":312,
			"type":"VEC3"
		},
		{
			"bufferView":20,
			"componentType":5123,
			"count":996,
			"type":"SCALAR"
		},
		{
			"bufferView":21,
			"componentType":5126,
			"count":4283,
			"max":[
				0.15489467978477478,
				0.7638745903968811,
				0.15489467978477478
			],
			"min":[
				-0.15489467978477478,
				-1.1361253261566162,
				-0.15489467978477478
			],
			"type":"VEC3"
		},
		{
			"bufferView":22,
			"componentType":5126,
			"count":4283,
			"type":"VEC3"
		},
		{
			"bufferView":23,
			"componentType":5123,
			"count":12795,
			"type":"SCALAR"
		}
	],
	"bufferViews":[
		{
			"buffer":0,
			"byteLength":13536,
			"byteOffset":0,
			"target":34962
		},
		{
			"buffer":0,
			"byteLength":13536,
			"byteOffset":13536,
			"target":34962
		},
		{
			"buffer":0,
			"byteLength":6192,
			"byteOffset":27072,
			"target":34963
		},
		{
			"buffer":0,
			"byteLength":8256,
			"byteOffset":33264,
			"target":34962
		},
		{
			"buffer":0,
			"byteLength":8256,
			"byteOffset":41520,
			"target":34962
		},
		{
			"buffer":0,
			"byteLength":3084,
			"byteOffset":49776,
			"target":34963
		},
		{
			"buffer":0,
			"byteLength":7464,
			"byteOffset":52860,
			"target":34962
		},
		{
			"buffer":0,
			"byteLength":7464,
			"byteOffset":60324,
			"target":34962
		},
		{
			"buffer":0,
			"byteLength":3444,
			"byteOffset":67788,
			"target":34963
		},
		{
			"buffer":0,
			"byteLength":1392,
			"byteOffset":71232,
			"target":34962
		},
		{
			"buffer":0,
			"byteLength":1392,
			"byteOffset":72624,
			"target":34962
		},
		{
			"buffer":0,
			"byteLength":396,
			"byteOffset":74016,
			"target":34963
		},
		{
			"buffer":0,
			"byteLength":4512,
			"byteOffset":74412,
			"target":34962
		},
		{
			"buffer":0,
			"byteLength":4512,
			"byteOffset":78924,
			"target":34962
		},
		{
			"buffer":0,
			"byteLength":2040,
			"byteOffset":83436,
			"target":34963
		},
		{
			"buffer":0,
			"byteLength":8352,
			"byteOffset":85476,
			"target":34962
		},
		{
			"buffer":0,
			"byteLength":8352,
			"byteOffset":93828,
			"target":34962
		},
		{
			"buffer":0,
			"byteLength":4296,
			"byteOffset":102180,
			"target":34963
		},
		{
			"buffer":0,
			"byteLength":3744,
			"byteOffset":106476,
			"target":34962
		},
		{
			"buffer":0,
			"byteLength":3744,
			"byteOffset":110220,
			"target":34962
		},
		{
			"buffer":0,
			"byteLength":1992,
			"byteOffset":113964,
			"target":34963
		},
		{
			"buffer":0,
			"byteLength":51396,
			"byteOffset":115956,
			"target":34962
		},
		{
			"buffer":0,
			"byteLength":51396,
			"byteOffset":167352,
			"target":34962
		},
		{
			"buffer":0,
			"byteLength":25590,
			"byteOffset":218748,
			"target":34963
		}
	],
	"buffers":[
		{
			"byteLength":244340,
			"uri":"MiningDrill.bin"
		}
	]
}
