{
	"asset":{
		"generator":"Khronos glTF Blender I/O v4.1.63",
		"version":"2.0"
	},
	"scene":0,
	"scenes":[
		{
			"name":"Scene",
			"nodes":[
				0
			]
		}
	],
	"nodes":[
		{
			"mesh":0,
			"name":"Cube",
			"translation":[
				-1.0144283771514893,
				-0.7277687191963196,
				0
			]
		}
	],
	"materials":[
		{
			"doubleSided":true,
			"name":"color1",
			"pbrMetallicRoughness":{
				"baseColorFactor":[
					1,
					1,
					1,
					1
				],
				"metallicFactor":0,
				"roughnessFactor":0
			}
		},
		{
			"doubleSided":true,
			"name":"screen",
			"pbrMetallicRoughness":{
				"baseColorFactor":[
					0,
					0,
					0,
					1
				],
				"metallicFactor":0,
				"roughnessFactor":1
			}
		},
		{
			"doubleSided":true,
			"name":"body",
			"pbrMetallicRoughness":{
				"baseColorFactor":[
					0.009999999776482582,
					0.009999999776482582,
					0.009999999776482582,
					1
				],
				"metallicFactor":0,
				"roughnessFactor":1
			}
		},
		{
			"doubleSided":true,
			"name":"color2",
			"pbrMetallicRoughness":{
				"baseColorFactor":[
					0.43832606077194214,
					0.43832606077194214,
					0.43832606077194214,
					1
				],
				"metallicFactor":1,
				"roughnessFactor":1
			}
		},
		{
			"doubleSided":true,
			"name":"fluid-connector",
			"pbrMetallicRoughness":{
				"baseColorFactor":[
					0.5,
					0.5,
					0.5,
					1
				],
				"metallicFactor":1,
				"roughnessFactor":1
			}
		},
		{
			"doubleSided":true,
			"name":"data-connector",
			"pbrMetallicRoughness":{
				"baseColorFactor":[
					0,
					0.05000019073486328,
					0.5,
					1
				],
				"metallicFactor":1,
				"roughnessFactor":1
			}
		},
		{
			"doubleSided":true,
			"name":"void",
			"pbrMetallicRoughness":{
				"baseColorFactor":[
					0,
					0,
					0,
					1
				],
				"metallicFactor":1,
				"roughnessFactor":1
			}
		},
		{
			"doubleSided":true,
			"name":"hv-connector",
			"pbrMetallicRoughness":{
				"baseColorFactor":[
					0.5,
					0.1500009298324585,
					0,
					1
				],
				"metallicFactor":1,
				"roughnessFactor":1
			}
		}
	],
	"meshes":[
		{
			"name":"Cube.003",
			"primitives":[
				{
					"attributes":{
						"POSITION":0,
						"NORMAL":1,
						"TEXCOORD_0":2
					},
					"indices":3,
					"material":0
				},
				{
					"attributes":{
						"POSITION":4,
						"NORMAL":5,
						"TEXCOORD_0":6
					},
					"indices":7,
					"material":1
				},
				{
					"attributes":{
						"POSITION":8,
						"NORMAL":9,
						"TEXCOORD_0":10
					},
					"indices":11,
					"material":2
				},
				{
					"attributes":{
						"POSITION":12,
						"NORMAL":13,
						"TEXCOORD_0":14
					},
					"indices":15,
					"material":3
				},
				{
					"attributes":{
						"POSITION":16,
						"NORMAL":17,
						"TEXCOORD_0":18
					},
					"indices":19,
					"material":4
				},
				{
					"attributes":{
						"POSITION":20,
						"NORMAL":21,
						"TEXCOORD_0":22
					},
					"indices":23,
					"material":5
				},
				{
					"attributes":{
						"POSITION":24,
						"NORMAL":25,
						"TEXCOORD_0":26
					},
					"indices":27,
					"material":6
				},
				{
					"attributes":{
						"POSITION":28,
						"NORMAL":29,
						"TEXCOORD_0":30
					},
					"indices":31,
					"material":7
				}
			]
		}
	],
	"accessors":[
		{
			"bufferView":0,
			"componentType":5126,
			"count":301,
			"max":[
				1.5144284963607788,
				1.7277687788009644,
				0.5000000596046448
			],
			"min":[
				0.5144284963607788,
				-0.2722312808036804,
				-0.5
			],
			"type":"VEC3"
		},
		{
			"bufferView":1,
			"componentType":5126,
			"count":301,
			"type":"VEC3"
		},
		{
			"bufferView":2,
			"componentType":5126,
			"count":301,
			"type":"VEC2"
		},
		{
			"bufferView":3,
			"componentType":5123,
			"count":591,
			"type":"SCALAR"
		},
		{
			"bufferView":4,
			"componentType":5126,
			"count":6,
			"max":[
				1.388860821723938,
				1.5991510152816772,
				-0.4814683198928833
			],
			"min":[
				0.6399962902069092,
				0.826386570930481,
				-0.48146843910217285
			],
			"type":"VEC3"
		},
		{
			"bufferView":5,
			"componentType":5126,
			"count":6,
			"type":"VEC3"
		},
		{
			"bufferView":6,
			"componentType":5126,
			"count":6,
			"type":"VEC2"
		},
		{
			"bufferView":7,
			"componentType":5123,
			"count":12,
			"type":"SCALAR"
		},
		{
			"bufferView":8,
			"componentType":5126,
			"count":20,
			"max":[
				1.5144284963607788,
				0.15420745313167572,
				0.41598641872406006
			],
			"min":[
				1.4803824424743652,
				-0.1536700427532196,
				0.19834743440151215
			],
			"type":"VEC3"
		},
		{
			"bufferView":9,
			"componentType":5126,
			"count":20,
			"type":"VEC3"
		},
		{
			"bufferView":10,
			"componentType":5126,
			"count":20,
			"type":"VEC2"
		},
		{
			"bufferView":11,
			"componentType":5123,
			"count":30,
			"type":"SCALAR"
		},
		{
			"bufferView":12,
			"componentType":5126,
			"count":580,
			"max":[
				1.512384295463562,
				1.6379448175430298,
				0.3975331783294678
			],
			"min":[
				0.516472578048706,
				-0.1432139277458191,
				-0.5071199536323547
			],
			"type":"VEC3"
		},
		{
			"bufferView":13,
			"componentType":5126,
			"count":580,
			"type":"VEC3"
		},
		{
			"bufferView":14,
			"componentType":5126,
			"count":580,
			"type":"VEC2"
		},
		{
			"bufferView":15,
			"componentType":5123,
			"count":1080,
			"type":"SCALAR"
		},
		{
			"bufferView":16,
			"componentType":5126,
			"count":9448,
			"max":[
				1.5644285678863525,
				0.7080396413803101,
				0.12500011920928955
			],
			"min":[
				0.4644284248352051,
				-0.12499991059303284,
				-0.1250000149011612
			],
			"type":"VEC3"
		},
		{
			"bufferView":17,
			"componentType":5126,
			"count":9448,
			"type":"VEC3"
		},
		{
			"bufferView":18,
			"componentType":5126,
			"count":9448,
			"type":"VEC2"
		},
		{
			"bufferView":19,
			"componentType":5123,
			"count":22020,
			"type":"SCALAR"
		},
		{
			"bufferView":20,
			"componentType":5126,
			"count":376,
			"max":[
				1.5010313987731934,
				0.11012783646583557,
				0.33702608942985535
			],
			"min":[
				1.4803824424743652,
				0.050409428775310516,
				0.2773076891899109
			],
			"type":"VEC3"
		},
		{
			"bufferView":21,
			"componentType":5126,
			"count":376,
			"type":"VEC3"
		},
		{
			"bufferView":22,
			"componentType":5126,
			"count":376,
			"type":"VEC2"
		},
		{
			"bufferView":23,
			"componentType":5123,
			"count":1020,
			"type":"SCALAR"
		},
		{
			"bufferView":24,
			"componentType":5126,
			"count":368,
			"max":[
				1.512384295463562,
				1.548145055770874,
				0.397533118724823
			],
			"min":[
				0.516472578048706,
				0.878892719745636,
				-0.3975328803062439
			],
			"type":"VEC3"
		},
		{
			"bufferView":25,
			"componentType":5126,
			"count":368,
			"type":"VEC3"
		},
		{
			"bufferView":26,
			"componentType":5126,
			"count":368,
			"type":"VEC2"
		},
		{
			"bufferView":27,
			"componentType":5123,
			"count":672,
			"type":"SCALAR"
		},
		{
			"bufferView":28,
			"componentType":5126,
			"count":696,
			"max":[
				1.5221017599105835,
				0.020662585273385048,
				0.37751731276512146
			],
			"min":[
				1.4803824424743652,
				-0.12003829330205917,
				0.2368164360523224
			],
			"type":"VEC3"
		},
		{
			"bufferView":29,
			"componentType":5126,
			"count":696,
			"type":"VEC3"
		},
		{
			"bufferView":30,
			"componentType":5126,
			"count":696,
			"type":"VEC2"
		},
		{
			"bufferView":31,
			"componentType":5123,
			"count":2148,
			"type":"SCALAR"
		}
	],
	"bufferViews":[
		{
			"buffer":0,
			"byteLength":3612,
			"byteOffset":0,
			"target":34962
		},
		{
			"buffer":0,
			"byteLength":3612,
			"byteOffset":3612,
			"target":34962
		},
		{
			"buffer":0,
			"byteLength":2408,
			"byteOffset":7224,
			"target":34962
		},
		{
			"buffer":0,
			"byteLength":1182,
			"byteOffset":9632,
			"target":34963
		},
		{
			"buffer":0,
			"byteLength":72,
			"byteOffset":10816,
			"target":34962
		},
		{
			"buffer":0,
			"byteLength":72,
			"byteOffset":10888,
			"target":34962
		},
		{
			"buffer":0,
			"byteLength":48,
			"byteOffset":10960,
			"target":34962
		},
		{
			"buffer":0,
			"byteLength":24,
			"byteOffset":11008,
			"target":34963
		},
		{
			"buffer":0,
			"byteLength":240,
			"byteOffset":11032,
			"target":34962
		},
		{
			"buffer":0,
			"byteLength":240,
			"byteOffset":11272,
			"target":34962
		},
		{
			"buffer":0,
			"byteLength":160,
			"byteOffset":11512,
			"target":34962
		},
		{
			"buffer":0,
			"byteLength":60,
			"byteOffset":11672,
			"target":34963
		},
		{
			"buffer":0,
			"byteLength":6960,
			"byteOffset":11732,
			"target":34962
		},
		{
			"buffer":0,
			"byteLength":6960,
			"byteOffset":18692,
			"target":34962
		},
		{
			"buffer":0,
			"byteLength":4640,
			"byteOffset":25652,
			"target":34962
		},
		{
			"buffer":0,
			"byteLength":2160,
			"byteOffset":30292,
			"target":34963
		},
		{
			"buffer":0,
			"byteLength":113376,
			"byteOffset":32452,
			"target":34962
		},
		{
			"buffer":0,
			"byteLength":113376,
			"byteOffset":145828,
			"target":34962
		},
		{
			"buffer":0,
			"byteLength":75584,
			"byteOffset":259204,
			"target":34962
		},
		{
			"buffer":0,
			"byteLength":44040,
			"byteOffset":334788,
			"target":34963
		},
		{
			"buffer":0,
			"byteLength":4512,
			"byteOffset":378828,
			"target":34962
		},
		{
			"buffer":0,
			"byteLength":4512,
			"byteOffset":383340,
			"target":34962
		},
		{
			"buffer":0,
			"byteLength":3008,
			"byteOffset":387852,
			"target":34962
		},
		{
			"buffer":0,
			"byteLength":2040,
			"byteOffset":390860,
			"target":34963
		},
		{
			"buffer":0,
			"byteLength":4416,
			"byteOffset":392900,
			"target":34962
		},
		{
			"buffer":0,
			"byteLength":4416,
			"byteOffset":397316,
			"target":34962
		},
		{
			"buffer":0,
			"byteLength":2944,
			"byteOffset":401732,
			"target":34962
		},
		{
			"buffer":0,
			"byteLength":1344,
			"byteOffset":404676,
			"target":34963
		},
		{
			"buffer":0,
			"byteLength":8352,
			"byteOffset":406020,
			"target":34962
		},
		{
			"buffer":0,
			"byteLength":8352,
			"byteOffset":414372,
			"target":34962
		},
		{
			"buffer":0,
			"byteLength":5568,
			"byteOffset":422724,
			"target":34962
		},
		{
			"buffer":0,
			"byteLength":4296,
			"byteOffset":428292,
			"target":34963
		}
	],
	"buffers":[
		{
			"byteLength":432588,
			"uri":"Crafter.bin"
		}
	]
}
