{
	"asset":{
		"generator":"Khronos glTF Blender I/O v3.5.30",
		"version":"2.0"
	},
	"scene":0,
	"scenes":[
		{
			"name":"Scene",
			"nodes":[
				0
			]
		}
	],
	"nodes":[
		{
			"mesh":0,
			"name":"Cube",
			"translation":[
				0,
				0.13394902646541595,
				0
			]
		}
	],
	"materials":[
		{
			"doubleSided":true,
			"name":"base",
			"pbrMetallicRoughness":{
				"baseColorFactor":[
					0.11927556246519089,
					0.08523522317409515,
					0.0451035238802433,
					1
				],
				"metallicFactor":0,
				"roughnessFactor":1
			}
		},
		{
			"doubleSided":true,
			"name":"top",
			"pbrMetallicRoughness":{
				"baseColorFactor":[
					0.23301485180854797,
					0.1663125902414322,
					0.0897068902850151,
					1
				],
				"metallicFactor":0,
				"roughnessFactor":1
			}
		}
	],
	"meshes":[
		{
			"name":"Cube",
			"primitives":[
				{
					"attributes":{
						"POSITION":0
					},
					"indices":1,
					"material":0
				},
				{
					"attributes":{
						"POSITION":2
					},
					"indices":3,
					"material":1
				}
			]
		}
	],
	"accessors":[
		{
			"bufferView":0,
			"componentType":5126,
			"count":8,
			"max":[
				0.16486340761184692,
				0.09786905348300934,
				0.238214373588562
			],
			"min":[
				-0.16486340761184692,
				-0.14563728868961334,
				-0.238214373588562
			],
			"type":"VEC3"
		},
		{
			"bufferView":1,
			"componentType":5123,
			"count":30,
			"type":"SCALAR"
		},
		{
			"bufferView":2,
			"componentType":5126,
			"count":12,
			"max":[
				0.17302000522613525,
				0.16241267323493958,
				0.2499999850988388
			],
			"min":[
				-0.17302000522613525,
				0.09786905348300934,
				-0.2499999850988388
			],
			"type":"VEC3"
		},
		{
			"bufferView":3,
			"componentType":5123,
			"count":54,
			"type":"SCALAR"
		}
	],
	"bufferViews":[
		{
			"buffer":0,
			"byteLength":96,
			"byteOffset":0,
			"target":34962
		},
		{
			"buffer":0,
			"byteLength":60,
			"byteOffset":96,
			"target":34963
		},
		{
			"buffer":0,
			"byteLength":144,
			"byteOffset":156,
			"target":34962
		},
		{
			"buffer":0,
			"byteLength":108,
			"byteOffset":300,
			"target":34963
		}
	],
	"buffers":[
		{
			"byteLength":408,
			"uri":"Box.bin"
		}
	]
}
