{
	"asset":{
		"generator":"Khronos glTF Blender I/O v4.0.44",
		"version":"2.0"
	},
	"scene":0,
	"scenes":[
		{
			"name":"Scene",
			"nodes":[
				0,
				1
			]
		}
	],
	"nodes":[
		{
			"mesh":0,
			"name":"console",
			"translation":[
				0,
				0.49569886922836304,
				0
			]
		},
		{
			"mesh":1,
			"name":"hdd",
			"translation":[
				0,
				0.4856988787651062,
				0.02729402296245098
			]
		}
	],
	"materials":[
		{
			"doubleSided":true,
			"name":"color1",
			"pbrMetallicRoughness":{
				"baseColorFactor":[
					1,
					1,
					1,
					1
				],
				"metallicFactor":0,
				"roughnessFactor":0
			}
		},
		{
			"doubleSided":true,
			"name":"power_button",
			"pbrMetallicRoughness":{
				"baseColorFactor":[
					0,
					0,
					0,
					1
				],
				"metallicFactor":0,
				"roughnessFactor":1
			}
		},
		{
			"doubleSided":true,
			"name":"screen",
			"pbrMetallicRoughness":{
				"baseColorTexture":{
					"index":0
				},
				"metallicFactor":0
			}
		},
		{
			"doubleSided":true,
			"name":"reboot_button",
			"pbrMetallicRoughness":{
				"baseColorFactor":[
					0.1328628659248352,
					0.09991736710071564,
					0.0006564378854818642,
					1
				],
				"metallicFactor":0,
				"roughnessFactor":1
			}
		},
		{
			"doubleSided":true,
			"name":"code_button",
			"pbrMetallicRoughness":{
				"baseColorFactor":[
					0.0318116620182991,
					0.03877115622162819,
					0.10653471946716309,
					1
				],
				"metallicFactor":0,
				"roughnessFactor":1
			}
		},
		{
			"doubleSided":true,
			"name":"lv-connector",
			"pbrMetallicRoughness":{
				"baseColorFactor":[
					0.5,
					0,
					0,
					1
				],
				"metallicFactor":1,
				"roughnessFactor":1
			}
		},
		{
			"doubleSided":true,
			"name":"hdd_bay",
			"pbrMetallicRoughness":{
				"baseColorFactor":[
					0.018274808302521706,
					0.031062906607985497,
					0.021525153890252113,
					1
				],
				"metallicFactor":0,
				"roughnessFactor":1
			}
		},
		{
			"doubleSided":true,
			"name":"data-connector",
			"pbrMetallicRoughness":{
				"baseColorFactor":[
					0,
					0.05000007152557373,
					0.5,
					1
				],
				"metallicFactor":1,
				"roughnessFactor":1
			}
		},
		{
			"doubleSided":true,
			"name":"hdd",
			"pbrMetallicRoughness":{
				"baseColorFactor":[
					1,
					1,
					1,
					1
				],
				"metallicFactor":1,
				"roughnessFactor":1
			}
		}
	],
	"meshes":[
		{
			"name":"Cube",
			"primitives":[
				{
					"attributes":{
						"POSITION":0,
						"NORMAL":1,
						"TEXCOORD_0":2
					},
					"indices":3,
					"material":0
				},
				{
					"attributes":{
						"POSITION":4,
						"NORMAL":5,
						"TEXCOORD_0":6
					},
					"indices":7,
					"material":1
				},
				{
					"attributes":{
						"POSITION":8,
						"NORMAL":9,
						"TEXCOORD_0":10
					},
					"indices":11,
					"material":2
				},
				{
					"attributes":{
						"POSITION":12,
						"NORMAL":13,
						"TEXCOORD_0":14
					},
					"indices":15,
					"material":3
				},
				{
					"attributes":{
						"POSITION":16,
						"NORMAL":17,
						"TEXCOORD_0":18
					},
					"indices":19,
					"material":4
				},
				{
					"attributes":{
						"POSITION":20,
						"NORMAL":21,
						"TEXCOORD_0":22
					},
					"indices":23,
					"material":5
				},
				{
					"attributes":{
						"POSITION":24,
						"NORMAL":25,
						"TEXCOORD_0":26
					},
					"indices":27,
					"material":6
				},
				{
					"attributes":{
						"POSITION":28,
						"NORMAL":29,
						"TEXCOORD_0":30
					},
					"indices":31,
					"material":7
				}
			]
		},
		{
			"name":"Cube.001",
			"primitives":[
				{
					"attributes":{
						"POSITION":32,
						"NORMAL":33,
						"TEXCOORD_0":34
					},
					"indices":35,
					"material":8
				}
			]
		}
	],
	"textures":[
		{
			"sampler":0,
			"source":0
		}
	],
	"images":[
		{
			"mimeType":"image/png",
			"name":"screen",
			"uri":"screen.png"
		}
	],
	"accessors":[
		{
			"bufferView":0,
			"componentType":5126,
			"count":525,
			"max":[
				0.5,
				0.32948851585388184,
				0.06827773153781891
			],
			"min":[
				-0.5,
				-0.6705114841461182,
				-0.431722491979599
			],
			"type":"VEC3"
		},
		{
			"bufferView":1,
			"componentType":5126,
			"count":525,
			"type":"VEC3"
		},
		{
			"bufferView":2,
			"componentType":5126,
			"count":525,
			"type":"VEC2"
		},
		{
			"bufferView":3,
			"componentType":5123,
			"count":1314,
			"type":"SCALAR"
		},
		{
			"bufferView":4,
			"componentType":5126,
			"count":335,
			"max":[
				-0.21981999278068542,
				-0.5801371335983276,
				-0.4258703887462616
			],
			"min":[
				-0.2828761637210846,
				-0.6431933045387268,
				-0.4573984742164612
			],
			"type":"VEC3"
		},
		{
			"bufferView":5,
			"componentType":5126,
			"count":335,
			"type":"VEC3"
		},
		{
			"bufferView":6,
			"componentType":5126,
			"count":335,
			"type":"VEC2"
		},
		{
			"bufferView":7,
			"componentType":5123,
			"count":1056,
			"type":"SCALAR"
		},
		{
			"bufferView":8,
			"componentType":5126,
			"count":16,
			"max":[
				0.48274174332618713,
				0.3149454593658447,
				-0.06421157717704773
			],
			"min":[
				-0.48701754212379456,
				-0.4608619809150696,
				-0.06421158462762833
			],
			"type":"VEC3"
		},
		{
			"bufferView":9,
			"componentType":5126,
			"count":16,
			"type":"VEC3"
		},
		{
			"bufferView":10,
			"componentType":5126,
			"count":16,
			"type":"VEC2"
		},
		{
			"bufferView":11,
			"componentType":5123,
			"count":42,
			"type":"SCALAR"
		},
		{
			"bufferView":12,
			"componentType":5126,
			"count":2584,
			"max":[
				-0.1608605682849884,
				-0.5403738021850586,
				-0.24811840057373047
			],
			"min":[
				-0.42081600427627563,
				-0.5521321892738342,
				-0.36390650272369385
			],
			"type":"VEC3"
		},
		{
			"bufferView":13,
			"componentType":5126,
			"count":2584,
			"type":"VEC3"
		},
		{
			"bufferView":14,
			"componentType":5126,
			"count":2584,
			"type":"VEC2"
		},
		{
			"bufferView":15,
			"componentType":5123,
			"count":5124,
			"type":"SCALAR"
		},
		{
			"bufferView":16,
			"componentType":5126,
			"count":1637,
			"max":[
				0.42979905009269714,
				-0.5403738021850586,
				-0.24811840057373047
			],
			"min":[
				0.15952450037002563,
				-0.5521321892738342,
				-0.36390650272369385
			],
			"type":"VEC3"
		},
		{
			"bufferView":17,
			"componentType":5126,
			"count":1637,
			"type":"VEC3"
		},
		{
			"bufferView":18,
			"componentType":5126,
			"count":1637,
			"type":"VEC2"
		},
		{
			"bufferView":19,
			"componentType":5123,
			"count":3282,
			"type":"SCALAR"
		},
		{
			"bufferView":20,
			"componentType":5126,
			"count":312,
			"max":[
				-0.5000275373458862,
				-0.5345368385314941,
				0.030625859275460243
			],
			"min":[
				-0.5204079151153564,
				-0.5957885980606079,
				-0.03062584064900875
			],
			"type":"VEC3"
		},
		{
			"bufferView":21,
			"componentType":5126,
			"count":312,
			"type":"VEC3"
		},
		{
			"bufferView":22,
			"componentType":5126,
			"count":312,
			"type":"VEC2"
		},
		{
			"bufferView":23,
			"componentType":5123,
			"count":996,
			"type":"SCALAR"
		},
		{
			"bufferView":24,
			"componentType":5126,
			"count":64,
			"max":[
				0.1854923963546753,
				-0.5683212876319885,
				-0.21002599596977234
			],
			"min":[
				-0.1854923963546753,
				-0.6556979417800903,
				-0.431722491979599
			],
			"type":"VEC3"
		},
		{
			"bufferView":25,
			"componentType":5126,
			"count":64,
			"type":"VEC3"
		},
		{
			"bufferView":26,
			"componentType":5126,
			"count":64,
			"type":"VEC2"
		},
		{
			"bufferView":27,
			"componentType":5123,
			"count":150,
			"type":"SCALAR"
		},
		{
			"bufferView":28,
			"componentType":5126,
			"count":7000,
			"max":[
				0.5206488966941833,
				0.274802565574646,
				0.029859185218811035
			],
			"min":[
				-0.5206489562988281,
				-0.40991586446762085,
				-0.029859161004424095
			],
			"type":"VEC3"
		},
		{
			"bufferView":29,
			"componentType":5126,
			"count":7000,
			"type":"VEC3"
		},
		{
			"bufferView":30,
			"componentType":5126,
			"count":7000,
			"type":"VEC2"
		},
		{
			"bufferView":31,
			"componentType":5123,
			"count":19044,
			"type":"SCALAR"
		},
		{
			"bufferView":32,
			"componentType":5126,
			"count":112,
			"max":[
				0.18131691217422485,
				-0.564677894115448,
				-0.26195982098579407
			],
			"min":[
				-0.18131691217422485,
				-0.6393415927886963,
				-0.47237613797187805
			],
			"type":"VEC3"
		},
		{
			"bufferView":33,
			"componentType":5126,
			"count":112,
			"type":"VEC3"
		},
		{
			"bufferView":34,
			"componentType":5126,
			"count":112,
			"type":"VEC2"
		},
		{
			"bufferView":35,
			"componentType":5123,
			"count":276,
			"type":"SCALAR"
		}
	],
	"bufferViews":[
		{
			"buffer":0,
			"byteLength":6300,
			"byteOffset":0,
			"target":34962
		},
		{
			"buffer":0,
			"byteLength":6300,
			"byteOffset":6300,
			"target":34962
		},
		{
			"buffer":0,
			"byteLength":4200,
			"byteOffset":12600,
			"target":34962
		},
		{
			"buffer":0,
			"byteLength":2628,
			"byteOffset":16800,
			"target":34963
		},
		{
			"buffer":0,
			"byteLength":4020,
			"byteOffset":19428,
			"target":34962
		},
		{
			"buffer":0,
			"byteLength":4020,
			"byteOffset":23448,
			"target":34962
		},
		{
			"buffer":0,
			"byteLength":2680,
			"byteOffset":27468,
			"target":34962
		},
		{
			"buffer":0,
			"byteLength":2112,
			"byteOffset":30148,
			"target":34963
		},
		{
			"buffer":0,
			"byteLength":192,
			"byteOffset":32260,
			"target":34962
		},
		{
			"buffer":0,
			"byteLength":192,
			"byteOffset":32452,
			"target":34962
		},
		{
			"buffer":0,
			"byteLength":128,
			"byteOffset":32644,
			"target":34962
		},
		{
			"buffer":0,
			"byteLength":84,
			"byteOffset":32772,
			"target":34963
		},
		{
			"buffer":0,
			"byteLength":31008,
			"byteOffset":32856,
			"target":34962
		},
		{
			"buffer":0,
			"byteLength":31008,
			"byteOffset":63864,
			"target":34962
		},
		{
			"buffer":0,
			"byteLength":20672,
			"byteOffset":94872,
			"target":34962
		},
		{
			"buffer":0,
			"byteLength":10248,
			"byteOffset":115544,
			"target":34963
		},
		{
			"buffer":0,
			"byteLength":19644,
			"byteOffset":125792,
			"target":34962
		},
		{
			"buffer":0,
			"byteLength":19644,
			"byteOffset":145436,
			"target":34962
		},
		{
			"buffer":0,
			"byteLength":13096,
			"byteOffset":165080,
			"target":34962
		},
		{
			"buffer":0,
			"byteLength":6564,
			"byteOffset":178176,
			"target":34963
		},
		{
			"buffer":0,
			"byteLength":3744,
			"byteOffset":184740,
			"target":34962
		},
		{
			"buffer":0,
			"byteLength":3744,
			"byteOffset":188484,
			"target":34962
		},
		{
			"buffer":0,
			"byteLength":2496,
			"byteOffset":192228,
			"target":34962
		},
		{
			"buffer":0,
			"byteLength":1992,
			"byteOffset":194724,
			"target":34963
		},
		{
			"buffer":0,
			"byteLength":768,
			"byteOffset":196716,
			"target":34962
		},
		{
			"buffer":0,
			"byteLength":768,
			"byteOffset":197484,
			"target":34962
		},
		{
			"buffer":0,
			"byteLength":512,
			"byteOffset":198252,
			"target":34962
		},
		{
			"buffer":0,
			"byteLength":300,
			"byteOffset":198764,
			"target":34963
		},
		{
			"buffer":0,
			"byteLength":84000,
			"byteOffset":199064,
			"target":34962
		},
		{
			"buffer":0,
			"byteLength":84000,
			"byteOffset":283064,
			"target":34962
		},
		{
			"buffer":0,
			"byteLength":56000,
			"byteOffset":367064,
			"target":34962
		},
		{
			"buffer":0,
			"byteLength":38088,
			"byteOffset":423064,
			"target":34963
		},
		{
			"buffer":0,
			"byteLength":1344,
			"byteOffset":461152,
			"target":34962
		},
		{
			"buffer":0,
			"byteLength":1344,
			"byteOffset":462496,
			"target":34962
		},
		{
			"buffer":0,
			"byteLength":896,
			"byteOffset":463840,
			"target":34962
		},
		{
			"buffer":0,
			"byteLength":552,
			"byteOffset":464736,
			"target":34963
		}
	],
	"samplers":[
		{
			"magFilter":9729,
			"minFilter":9987
		}
	],
	"buffers":[
		{
			"byteLength":465288,
			"uri":"Computer.bin"
		}
	]
}
