{
	"asset":{
		"generator":"Khronos glTF Blender I/O v3.6.6",
		"version":"2.0"
	},
	"scene":0,
	"scenes":[
		{
			"name":"Scene",
			"nodes":[
				0,
				1
			]
		}
	],
	"nodes":[
		{
			"mesh":0,
			"name":"console",
			"translation":[
				0,
				0.49569886922836304,
				0
			]
		},
		{
			"mesh":1,
			"name":"hdd",
			"translation":[
				0,
				0.4856988787651062,
				0.04916869103908539
			]
		}
	],
	"materials":[
		{
			"doubleSided":true,
			"name":"color1",
			"pbrMetallicRoughness":{
				"baseColorFactor":[
					1,
					1,
					1,
					1
				],
				"metallicFactor":0,
				"roughnessFactor":0
			}
		},
		{
			"doubleSided":true,
			"name":"power_button",
			"pbrMetallicRoughness":{
				"baseColorFactor":[
					0,
					0,
					0,
					1
				],
				"metallicFactor":0,
				"roughnessFactor":1
			}
		},
		{
			"doubleSided":true,
			"name":"screen",
			"pbrMetallicRoughness":{
				"baseColorFactor":[
					0,
					0,
					0,
					1
				],
				"metallicFactor":0,
				"roughnessFactor":1
			}
		},
		{
			"doubleSided":true,
			"name":"reboot_button",
			"pbrMetallicRoughness":{
				"baseColorFactor":[
					0.1328628659248352,
					0.09991736710071564,
					0.0006564378854818642,
					1
				],
				"metallicFactor":0,
				"roughnessFactor":1
			}
		},
		{
			"doubleSided":true,
			"name":"code_button",
			"pbrMetallicRoughness":{
				"baseColorFactor":[
					0.0318116620182991,
					0.03877115622162819,
					0.10653471946716309,
					1
				],
				"metallicFactor":0,
				"roughnessFactor":1
			}
		},
		{
			"doubleSided":true,
			"name":"lv-connector",
			"pbrMetallicRoughness":{
				"baseColorFactor":[
					0.5,
					0,
					0,
					1
				],
				"metallicFactor":1,
				"roughnessFactor":1
			}
		},
		{
			"doubleSided":true,
			"name":"hdd_bay",
			"pbrMetallicRoughness":{
				"baseColorFactor":[
					0.018274808302521706,
					0.031062906607985497,
					0.021525153890252113,
					1
				],
				"metallicFactor":0,
				"roughnessFactor":1
			}
		},
		{
			"doubleSided":true,
			"name":"data-connector",
			"pbrMetallicRoughness":{
				"baseColorFactor":[
					0,
					0.05000007152557373,
					0.5,
					1
				],
				"metallicFactor":1,
				"roughnessFactor":1
			}
		},
		{
			"doubleSided":true,
			"name":"hdd",
			"pbrMetallicRoughness":{
				"baseColorFactor":[
					0.035217974334955215,
					0.035217974334955215,
					0.035217974334955215,
					1
				],
				"metallicFactor":1,
				"roughnessFactor":0
			}
		}
	],
	"meshes":[
		{
			"name":"Cube",
			"primitives":[
				{
					"attributes":{
						"POSITION":0,
						"TEXCOORD_0":1,
						"NORMAL":2
					},
					"indices":3,
					"material":0
				},
				{
					"attributes":{
						"POSITION":4,
						"TEXCOORD_0":5,
						"NORMAL":6
					},
					"indices":7,
					"material":1
				},
				{
					"attributes":{
						"POSITION":8,
						"TEXCOORD_0":9,
						"NORMAL":10
					},
					"indices":11,
					"material":2
				},
				{
					"attributes":{
						"POSITION":12,
						"TEXCOORD_0":13,
						"NORMAL":14
					},
					"indices":15,
					"material":3
				},
				{
					"attributes":{
						"POSITION":16,
						"TEXCOORD_0":17,
						"NORMAL":18
					},
					"indices":19,
					"material":4
				},
				{
					"attributes":{
						"POSITION":20,
						"TEXCOORD_0":21,
						"NORMAL":22
					},
					"indices":23,
					"material":5
				},
				{
					"attributes":{
						"POSITION":24,
						"TEXCOORD_0":25,
						"NORMAL":26
					},
					"indices":27,
					"material":6
				},
				{
					"attributes":{
						"POSITION":28,
						"TEXCOORD_0":29,
						"NORMAL":30
					},
					"indices":31,
					"material":7
				}
			]
		},
		{
			"name":"Cube.001",
			"primitives":[
				{
					"attributes":{
						"POSITION":32,
						"TEXCOORD_0":33,
						"NORMAL":34
					},
					"indices":35,
					"material":8
				}
			]
		}
	],
	"accessors":[
		{
			"bufferView":0,
			"componentType":5126,
			"count":609,
			"max":[
				0.5,
				0.33250004053115845,
				0.06827773153781891
			],
			"min":[
				-0.5,
				-0.6705114841461182,
				-0.40576663613319397
			],
			"type":"VEC3"
		},
		{
			"bufferView":1,
			"componentType":5126,
			"count":609,
			"type":"VEC2"
		},
		{
			"bufferView":2,
			"componentType":5126,
			"count":609,
			"type":"VEC3"
		},
		{
			"bufferView":3,
			"componentType":5123,
			"count":1566,
			"type":"SCALAR"
		},
		{
			"bufferView":4,
			"componentType":5126,
			"count":317,
			"max":[
				-0.21981999278068542,
				-0.5801371335983276,
				-0.39991453289985657
			],
			"min":[
				-0.2828761637210846,
				-0.6431933045387268,
				-0.43144261837005615
			],
			"type":"VEC3"
		},
		{
			"bufferView":5,
			"componentType":5126,
			"count":317,
			"type":"VEC2"
		},
		{
			"bufferView":6,
			"componentType":5126,
			"count":317,
			"type":"VEC3"
		},
		{
			"bufferView":7,
			"componentType":5123,
			"count":1056,
			"type":"SCALAR"
		},
		{
			"bufferView":8,
			"componentType":5126,
			"count":16,
			"max":[
				0.48274174332618713,
				0.3224404454231262,
				-0.06421157717704773
			],
			"min":[
				-0.48701754212379456,
				-0.4533669948577881,
				-0.06421158462762833
			],
			"type":"VEC3"
		},
		{
			"bufferView":9,
			"componentType":5126,
			"count":16,
			"type":"VEC2"
		},
		{
			"bufferView":10,
			"componentType":5126,
			"count":16,
			"type":"VEC3"
		},
		{
			"bufferView":11,
			"componentType":5123,
			"count":42,
			"type":"SCALAR"
		},
		{
			"bufferView":12,
			"componentType":5126,
			"count":2584,
			"max":[
				-0.1608605682849884,
				-0.5403738021850586,
				-0.24811840057373047
			],
			"min":[
				-0.42081600427627563,
				-0.5521321892738342,
				-0.36390650272369385
			],
			"type":"VEC3"
		},
		{
			"bufferView":13,
			"componentType":5126,
			"count":2584,
			"type":"VEC2"
		},
		{
			"bufferView":14,
			"componentType":5126,
			"count":2584,
			"type":"VEC3"
		},
		{
			"bufferView":15,
			"componentType":5123,
			"count":5124,
			"type":"SCALAR"
		},
		{
			"bufferView":16,
			"componentType":5126,
			"count":1637,
			"max":[
				0.42979905009269714,
				-0.5403738021850586,
				-0.24811840057373047
			],
			"min":[
				0.15952450037002563,
				-0.5521321892738342,
				-0.36390650272369385
			],
			"type":"VEC3"
		},
		{
			"bufferView":17,
			"componentType":5126,
			"count":1637,
			"type":"VEC2"
		},
		{
			"bufferView":18,
			"componentType":5126,
			"count":1637,
			"type":"VEC3"
		},
		{
			"bufferView":19,
			"componentType":5123,
			"count":3282,
			"type":"SCALAR"
		},
		{
			"bufferView":20,
			"componentType":5126,
			"count":312,
			"max":[
				-0.5000275373458862,
				-0.5345368385314941,
				0.030625859275460243
			],
			"min":[
				-0.5204079151153564,
				-0.5957885980606079,
				-0.03062584064900875
			],
			"type":"VEC3"
		},
		{
			"bufferView":21,
			"componentType":5126,
			"count":312,
			"type":"VEC2"
		},
		{
			"bufferView":22,
			"componentType":5126,
			"count":312,
			"type":"VEC3"
		},
		{
			"bufferView":23,
			"componentType":5123,
			"count":996,
			"type":"SCALAR"
		},
		{
			"bufferView":24,
			"componentType":5126,
			"count":64,
			"max":[
				0.1854923963546753,
				-0.5683212876319885,
				-0.21002599596977234
			],
			"min":[
				-0.1854923963546753,
				-0.6556979417800903,
				-0.40576663613319397
			],
			"type":"VEC3"
		},
		{
			"bufferView":25,
			"componentType":5126,
			"count":64,
			"type":"VEC2"
		},
		{
			"bufferView":26,
			"componentType":5126,
			"count":64,
			"type":"VEC3"
		},
		{
			"bufferView":27,
			"componentType":5123,
			"count":150,
			"type":"SCALAR"
		},
		{
			"bufferView":28,
			"componentType":5126,
			"count":7004,
			"max":[
				0.5206488966941833,
				0.274802565574646,
				0.029859185218811035
			],
			"min":[
				-0.5206489562988281,
				-0.40991586446762085,
				-0.029859161004424095
			],
			"type":"VEC3"
		},
		{
			"bufferView":29,
			"componentType":5126,
			"count":7004,
			"type":"VEC2"
		},
		{
			"bufferView":30,
			"componentType":5126,
			"count":7004,
			"type":"VEC3"
		},
		{
			"bufferView":31,
			"componentType":5123,
			"count":19062,
			"type":"SCALAR"
		},
		{
			"bufferView":32,
			"componentType":5126,
			"count":154,
			"max":[
				0.18171092867851257,
				-0.5624328851699829,
				-0.2467244267463684
			],
			"min":[
				-0.18171092867851257,
				-0.641586422920227,
				-0.4858471155166626
			],
			"type":"VEC3"
		},
		{
			"bufferView":33,
			"componentType":5126,
			"count":154,
			"type":"VEC2"
		},
		{
			"bufferView":34,
			"componentType":5126,
			"count":154,
			"type":"VEC3"
		},
		{
			"bufferView":35,
			"componentType":5123,
			"count":468,
			"type":"SCALAR"
		}
	],
	"bufferViews":[
		{
			"buffer":0,
			"byteLength":7308,
			"byteOffset":0,
			"target":34962
		},
		{
			"buffer":0,
			"byteLength":4872,
			"byteOffset":7308,
			"target":34962
		},
		{
			"buffer":0,
			"byteLength":7308,
			"byteOffset":12180,
			"target":34962
		},
		{
			"buffer":0,
			"byteLength":3132,
			"byteOffset":19488,
			"target":34963
		},
		{
			"buffer":0,
			"byteLength":3804,
			"byteOffset":22620,
			"target":34962
		},
		{
			"buffer":0,
			"byteLength":2536,
			"byteOffset":26424,
			"target":34962
		},
		{
			"buffer":0,
			"byteLength":3804,
			"byteOffset":28960,
			"target":34962
		},
		{
			"buffer":0,
			"byteLength":2112,
			"byteOffset":32764,
			"target":34963
		},
		{
			"buffer":0,
			"byteLength":192,
			"byteOffset":34876,
			"target":34962
		},
		{
			"buffer":0,
			"byteLength":128,
			"byteOffset":35068,
			"target":34962
		},
		{
			"buffer":0,
			"byteLength":192,
			"byteOffset":35196,
			"target":34962
		},
		{
			"buffer":0,
			"byteLength":84,
			"byteOffset":35388,
			"target":34963
		},
		{
			"buffer":0,
			"byteLength":31008,
			"byteOffset":35472,
			"target":34962
		},
		{
			"buffer":0,
			"byteLength":20672,
			"byteOffset":66480,
			"target":34962
		},
		{
			"buffer":0,
			"byteLength":31008,
			"byteOffset":87152,
			"target":34962
		},
		{
			"buffer":0,
			"byteLength":10248,
			"byteOffset":118160,
			"target":34963
		},
		{
			"buffer":0,
			"byteLength":19644,
			"byteOffset":128408,
			"target":34962
		},
		{
			"buffer":0,
			"byteLength":13096,
			"byteOffset":148052,
			"target":34962
		},
		{
			"buffer":0,
			"byteLength":19644,
			"byteOffset":161148,
			"target":34962
		},
		{
			"buffer":0,
			"byteLength":6564,
			"byteOffset":180792,
			"target":34963
		},
		{
			"buffer":0,
			"byteLength":3744,
			"byteOffset":187356,
			"target":34962
		},
		{
			"buffer":0,
			"byteLength":2496,
			"byteOffset":191100,
			"target":34962
		},
		{
			"buffer":0,
			"byteLength":3744,
			"byteOffset":193596,
			"target":34962
		},
		{
			"buffer":0,
			"byteLength":1992,
			"byteOffset":197340,
			"target":34963
		},
		{
			"buffer":0,
			"byteLength":768,
			"byteOffset":199332,
			"target":34962
		},
		{
			"buffer":0,
			"byteLength":512,
			"byteOffset":200100,
			"target":34962
		},
		{
			"buffer":0,
			"byteLength":768,
			"byteOffset":200612,
			"target":34962
		},
		{
			"buffer":0,
			"byteLength":300,
			"byteOffset":201380,
			"target":34963
		},
		{
			"buffer":0,
			"byteLength":84048,
			"byteOffset":201680,
			"target":34962
		},
		{
			"buffer":0,
			"byteLength":56032,
			"byteOffset":285728,
			"target":34962
		},
		{
			"buffer":0,
			"byteLength":84048,
			"byteOffset":341760,
			"target":34962
		},
		{
			"buffer":0,
			"byteLength":38124,
			"byteOffset":425808,
			"target":34963
		},
		{
			"buffer":0,
			"byteLength":1848,
			"byteOffset":463932,
			"target":34962
		},
		{
			"buffer":0,
			"byteLength":1232,
			"byteOffset":465780,
			"target":34962
		},
		{
			"buffer":0,
			"byteLength":1848,
			"byteOffset":467012,
			"target":34962
		},
		{
			"buffer":0,
			"byteLength":936,
			"byteOffset":468860,
			"target":34963
		}
	],
	"buffers":[
		{
			"byteLength":469796,
			"uri":"Computer.bin"
		}
	]
}
