{
	"asset":{
		"generator":"Khronos glTF Blender I/O v4.1.63",
		"version":"2.0"
	},
	"scene":0,
	"scenes":[
		{
			"name":"Scene",
			"nodes":[
				0
			]
		}
	],
	"nodes":[
		{
			"mesh":0,
			"name":"body",
			"translation":[
				0,
				0.03361469507217407,
				0.03361469879746437
			]
		}
	],
	"materials":[
		{
			"doubleSided":true,
			"name":"body",
			"pbrMetallicRoughness":{
				"baseColorFactor":[
					0.009999999776482582,
					0.009999999776482582,
					0.009999999776482582,
					1
				],
				"metallicFactor":0,
				"roughnessFactor":1
			}
		},
		{
			"doubleSided":true,
			"name":"data-connector",
			"pbrMetallicRoughness":{
				"baseColorFactor":[
					0,
					0.05000019073486328,
					0.5,
					1
				],
				"metallicFactor":1,
				"roughnessFactor":1
			}
		},
		{
			"doubleSided":true,
			"name":"color1",
			"pbrMetallicRoughness":{
				"baseColorFactor":[
					1,
					1,
					1,
					1
				],
				"metallicFactor":0,
				"roughnessFactor":0
			}
		},
		{
			"doubleSided":true,
			"name":"plate",
			"pbrMetallicRoughness":{
				"baseColorFactor":[
					0.026240430772304535,
					0.026240430772304535,
					0.026240430772304535,
					1
				],
				"metallicFactor":0,
				"roughnessFactor":1
			}
		}
	],
	"meshes":[
		{
			"name":"Cube",
			"primitives":[
				{
					"attributes":{
						"POSITION":0,
						"NORMAL":1
					},
					"indices":2,
					"material":0
				},
				{
					"attributes":{
						"POSITION":3,
						"NORMAL":4
					},
					"indices":5,
					"material":1
				},
				{
					"attributes":{
						"POSITION":6,
						"NORMAL":7
					},
					"indices":8,
					"material":2
				},
				{
					"attributes":{
						"POSITION":9,
						"NORMAL":10
					},
					"indices":11,
					"material":3
				}
			]
		}
	],
	"accessors":[
		{
			"bufferView":0,
			"componentType":5126,
			"count":796,
			"max":[
				0.1250000298023224,
				0.1250000298023224,
				0.05000000447034836
			],
			"min":[
				-0.1250000298023224,
				-0.1250000298023224,
				-0.037474945187568665
			],
			"type":"VEC3"
		},
		{
			"bufferView":1,
			"componentType":5126,
			"count":796,
			"type":"VEC3"
		},
		{
			"bufferView":2,
			"componentType":5123,
			"count":3942,
			"type":"SCALAR"
		},
		{
			"bufferView":3,
			"componentType":5126,
			"count":376,
			"max":[
				0.029859131202101707,
				-0.12026843428611755,
				0.04656745865941048
			],
			"min":[
				-0.029859216883778572,
				-0.14564895629882812,
				-0.013150883838534355
			],
			"type":"VEC3"
		},
		{
			"bufferView":4,
			"componentType":5126,
			"count":376,
			"type":"VEC3"
		},
		{
			"bufferView":5,
			"componentType":5123,
			"count":1020,
			"type":"SCALAR"
		},
		{
			"bufferView":6,
			"componentType":5126,
			"count":6200,
			"max":[
				0.10611440986394882,
				0.10611440986394882,
				-0.028839530423283577
			],
			"min":[
				-0.10611440986394882,
				-0.10611440986394882,
				-0.037474971264600754
			],
			"type":"VEC3"
		},
		{
			"bufferView":7,
			"componentType":5126,
			"count":6200,
			"type":"VEC3"
		},
		{
			"bufferView":8,
			"componentType":5123,
			"count":18312,
			"type":"SCALAR"
		},
		{
			"bufferView":9,
			"componentType":5126,
			"count":84,
			"max":[
				0.09907344728708267,
				0.09907344728708267,
				-0.028839530423283577
			],
			"min":[
				-0.09907344728708267,
				-0.09907344728708267,
				-0.033614691346883774
			],
			"type":"VEC3"
		},
		{
			"bufferView":10,
			"componentType":5126,
			"count":84,
			"type":"VEC3"
		},
		{
			"bufferView":11,
			"componentType":5123,
			"count":246,
			"type":"SCALAR"
		}
	],
	"bufferViews":[
		{
			"buffer":0,
			"byteLength":9552,
			"byteOffset":0,
			"target":34962
		},
		{
			"buffer":0,
			"byteLength":9552,
			"byteOffset":9552,
			"target":34962
		},
		{
			"buffer":0,
			"byteLength":7884,
			"byteOffset":19104,
			"target":34963
		},
		{
			"buffer":0,
			"byteLength":4512,
			"byteOffset":26988,
			"target":34962
		},
		{
			"buffer":0,
			"byteLength":4512,
			"byteOffset":31500,
			"target":34962
		},
		{
			"buffer":0,
			"byteLength":2040,
			"byteOffset":36012,
			"target":34963
		},
		{
			"buffer":0,
			"byteLength":74400,
			"byteOffset":38052,
			"target":34962
		},
		{
			"buffer":0,
			"byteLength":74400,
			"byteOffset":112452,
			"target":34962
		},
		{
			"buffer":0,
			"byteLength":36624,
			"byteOffset":186852,
			"target":34963
		},
		{
			"buffer":0,
			"byteLength":1008,
			"byteOffset":223476,
			"target":34962
		},
		{
			"buffer":0,
			"byteLength":1008,
			"byteOffset":224484,
			"target":34962
		},
		{
			"buffer":0,
			"byteLength":492,
			"byteOffset":225492,
			"target":34963
		}
	],
	"buffers":[
		{
			"byteLength":225984,
			"uri":"DensitySensor.bin"
		}
	]
}
