{
	"asset":{
		"generator":"Khronos glTF Blender I/O v3.6.6",
		"version":"2.0"
	},
	"scene":0,
	"scenes":[
		{
			"name":"Scene",
			"nodes":[
				0
			]
		}
	],
	"nodes":[
		{
			"mesh":0,
			"name":"Cube"
		}
	],
	"materials":[
		{
			"doubleSided":true,
			"name":"color1",
			"pbrMetallicRoughness":{
				"baseColorFactor":[
					1,
					1,
					1,
					1
				],
				"metallicFactor":0,
				"roughnessFactor":0
			}
		},
		{
			"doubleSided":true,
			"name":"data-connector",
			"pbrMetallicRoughness":{
				"baseColorFactor":[
					0,
					0.05000007152557373,
					0.5,
					1
				],
				"metallicFactor":1,
				"roughnessFactor":1
			}
		}
	],
	"meshes":[
		{
			"name":"Cube.001",
			"primitives":[
				{
					"attributes":{
						"POSITION":0
					},
					"indices":1,
					"material":0
				},
				{
					"attributes":{
						"POSITION":2
					},
					"indices":3,
					"material":1
				}
			]
		}
	],
	"accessors":[
		{
			"bufferView":0,
			"componentType":5126,
			"count":84,
			"max":[
				0.07354824244976044,
				0.125,
				0.0625
			],
			"min":[
				-0.07354822754859924,
				0,
				-0.0625
			],
			"type":"VEC3"
		},
		{
			"bufferView":1,
			"componentType":5123,
			"count":150,
			"type":"SCALAR"
		},
		{
			"bufferView":2,
			"componentType":5126,
			"count":372,
			"max":[
				0.02985917031764984,
				0.14564894139766693,
				0.02985917031764984
			],
			"min":[
				-0.02985917031764984,
				0.125,
				-0.02985917031764984
			],
			"type":"VEC3"
		},
		{
			"bufferView":3,
			"componentType":5123,
			"count":1014,
			"type":"SCALAR"
		}
	],
	"bufferViews":[
		{
			"buffer":0,
			"byteLength":1008,
			"byteOffset":0,
			"target":34962
		},
		{
			"buffer":0,
			"byteLength":300,
			"byteOffset":1008,
			"target":34963
		},
		{
			"buffer":0,
			"byteLength":4464,
			"byteOffset":1308,
			"target":34962
		},
		{
			"buffer":0,
			"byteLength":2028,
			"byteOffset":5772,
			"target":34963
		}
	],
	"buffers":[
		{
			"byteLength":7800,
			"uri":"SpeedSensor.bin"
		}
	]
}
