{
	"asset":{
		"generator":"Khronos glTF Blender I/O v4.0.44",
		"version":"2.0"
	},
	"scene":0,
	"scenes":[
		{
			"name":"Scene",
			"nodes":[
				0
			]
		}
	],
	"nodes":[
		{
			"mesh":0,
			"name":"body"
		}
	],
	"materials":[
		{
			"doubleSided":true,
			"name":"color1",
			"pbrMetallicRoughness":{
				"baseColorFactor":[
					1,
					1,
					1,
					1
				],
				"metallicFactor":0,
				"roughnessFactor":0
			}
		},
		{
			"doubleSided":true,
			"name":"data-connector",
			"pbrMetallicRoughness":{
				"baseColorFactor":[
					0,
					0.05000007152557373,
					0.5,
					1
				],
				"metallicFactor":1,
				"roughnessFactor":1
			}
		}
	],
	"meshes":[
		{
			"name":"Cube",
			"primitives":[
				{
					"attributes":{
						"POSITION":0,
						"NORMAL":1
					},
					"indices":2,
					"material":0
				},
				{
					"attributes":{
						"POSITION":3,
						"NORMAL":4
					},
					"indices":5,
					"material":1
				}
			]
		}
	],
	"accessors":[
		{
			"bufferView":0,
			"componentType":5126,
			"count":44,
			"max":[
				0.12500004470348358,
				0.07112880796194077,
				0.12500004470348358
			],
			"min":[
				-0.12500004470348358,
				-0.0714285671710968,
				-0.12500004470348358
			],
			"type":"VEC3"
		},
		{
			"bufferView":1,
			"componentType":5126,
			"count":44,
			"type":"VEC3"
		},
		{
			"bufferView":2,
			"componentType":5123,
			"count":66,
			"type":"SCALAR"
		},
		{
			"bufferView":3,
			"componentType":5126,
			"count":376,
			"max":[
				0.02985919639468193,
				0.0917777568101883,
				0.0821133479475975
			],
			"min":[
				-0.029859162867069244,
				0.07112881541252136,
				0.022394994273781776
			],
			"type":"VEC3"
		},
		{
			"bufferView":4,
			"componentType":5126,
			"count":376,
			"type":"VEC3"
		},
		{
			"bufferView":5,
			"componentType":5123,
			"count":1020,
			"type":"SCALAR"
		}
	],
	"bufferViews":[
		{
			"buffer":0,
			"byteLength":528,
			"byteOffset":0,
			"target":34962
		},
		{
			"buffer":0,
			"byteLength":528,
			"byteOffset":528,
			"target":34962
		},
		{
			"buffer":0,
			"byteLength":132,
			"byteOffset":1056,
			"target":34963
		},
		{
			"buffer":0,
			"byteLength":4512,
			"byteOffset":1188,
			"target":34962
		},
		{
			"buffer":0,
			"byteLength":4512,
			"byteOffset":5700,
			"target":34962
		},
		{
			"buffer":0,
			"byteLength":2040,
			"byteOffset":10212,
			"target":34963
		}
	],
	"buffers":[
		{
			"byteLength":12252,
			"uri":"VehiclePhysicsSensor.bin"
		}
	]
}
