{
	"asset":{
		"generator":"Khronos glTF Blender I/O v4.3.47",
		"version":"2.0"
	},
	"scene":0,
	"scenes":[
		{
			"name":"Scene",
			"nodes":[
				0,
				1
			]
		}
	],
	"nodes":[
		{
			"mesh":0,
			"name":"base"
		},
		{
			"mesh":1,
			"name":"screen",
			"translation":[
				0,
				0.24170532822608948,
				-0.7160519957542419
			]
		}
	],
	"materials":[
		{
			"doubleSided":true,
			"name":"color2",
			"pbrMetallicRoughness":{
				"baseColorFactor":[
					0.800000011920929,
					0.800000011920929,
					0.800000011920929,
					1
				]
			}
		},
		{
			"doubleSided":true,
			"name":"nuts",
			"pbrMetallicRoughness":{
				"baseColorFactor":[
					0.48288801312446594,
					0.48288801312446594,
					0.48288801312446594,
					1
				]
			}
		},
		{
			"doubleSided":true,
			"name":"fluid-connector",
			"pbrMetallicRoughness":{
				"baseColorFactor":[
					0.5,
					0.5,
					0.5,
					1
				]
			}
		},
		{
			"doubleSided":true,
			"name":"data-connector",
			"pbrMetallicRoughness":{
				"baseColorFactor":[
					0,
					0.05000000074505806,
					0.5,
					1
				]
			}
		},
		{
			"doubleSided":true,
			"name":"hv-connector",
			"pbrMetallicRoughness":{
				"baseColorFactor":[
					0.5,
					0.15000000596046448,
					0,
					1
				]
			}
		},
		{
			"doubleSided":true,
			"name":"body",
			"pbrMetallicRoughness":{
				"baseColorFactor":[
					0.009999999776482582,
					0.009999999776482582,
					0.009999999776482582,
					1
				],
				"metallicFactor":0
			}
		},
		{
			"doubleSided":true,
			"name":"color2.001",
			"pbrMetallicRoughness":{
				"baseColorFactor":[
					0.800000011920929,
					0.800000011920929,
					0.800000011920929,
					1
				]
			}
		},
		{
			"doubleSided":true,
			"name":"screen",
			"pbrMetallicRoughness":{
				"baseColorFactor":[
					0,
					0,
					0,
					1
				]
			}
		}
	],
	"meshes":[
		{
			"name":"Cylinder",
			"primitives":[
				{
					"attributes":{
						"POSITION":0,
						"NORMAL":1,
						"TEXCOORD_0":2
					},
					"indices":3,
					"material":0
				},
				{
					"attributes":{
						"POSITION":4,
						"NORMAL":5,
						"TEXCOORD_0":6
					},
					"indices":7,
					"material":1
				},
				{
					"attributes":{
						"POSITION":8,
						"NORMAL":9,
						"TEXCOORD_0":10
					},
					"indices":11,
					"material":2
				},
				{
					"attributes":{
						"POSITION":12,
						"NORMAL":13,
						"TEXCOORD_0":14
					},
					"indices":15,
					"material":3
				},
				{
					"attributes":{
						"POSITION":16,
						"NORMAL":17,
						"TEXCOORD_0":18
					},
					"indices":19,
					"material":4
				},
				{
					"attributes":{
						"POSITION":20,
						"NORMAL":21,
						"TEXCOORD_0":22
					},
					"indices":23,
					"material":5
				}
			]
		},
		{
			"name":"Cube.009",
			"primitives":[
				{
					"attributes":{
						"POSITION":24,
						"NORMAL":25,
						"TEXCOORD_0":26
					},
					"indices":27,
					"material":6
				},
				{
					"attributes":{
						"POSITION":28,
						"NORMAL":29,
						"TEXCOORD_0":30
					},
					"indices":31,
					"material":7
				}
			]
		}
	],
	"accessors":[
		{
			"bufferView":0,
			"componentType":5126,
			"count":5090,
			"max":[
				0.7441332936286926,
				1.2499996423721313,
				0.7441332936286926
			],
			"min":[
				-0.7441332936286926,
				-1.0960352420806885,
				-0.7441332936286926
			],
			"type":"VEC3"
		},
		{
			"bufferView":1,
			"componentType":5126,
			"count":5090,
			"type":"VEC3"
		},
		{
			"bufferView":2,
			"componentType":5126,
			"count":5090,
			"type":"VEC2"
		},
		{
			"bufferView":3,
			"componentType":5123,
			"count":16032,
			"type":"SCALAR"
		},
		{
			"bufferView":4,
			"componentType":5126,
			"count":5376,
			"max":[
				0.7352710366249084,
				0.7372599840164185,
				0.7352714538574219
			],
			"min":[
				-0.7352718114852905,
				0.701408863067627,
				-0.7352710962295532
			],
			"type":"VEC3"
		},
		{
			"bufferView":5,
			"componentType":5126,
			"count":5376,
			"type":"VEC3"
		},
		{
			"bufferView":6,
			"componentType":5126,
			"count":5376,
			"type":"VEC2"
		},
		{
			"bufferView":7,
			"componentType":5123,
			"count":8640,
			"type":"SCALAR"
		},
		{
			"bufferView":8,
			"componentType":5126,
			"count":27648,
			"max":[
				0.7395484447479248,
				0.17821121215820312,
				0.12489660084247589
			],
			"min":[
				-0.7395485043525696,
				-0.9415818452835083,
				-0.12489652633666992
			],
			"type":"VEC3"
		},
		{
			"bufferView":9,
			"componentType":5126,
			"count":27648,
			"type":"VEC3"
		},
		{
			"bufferView":10,
			"componentType":5126,
			"count":27648,
			"type":"VEC2"
		},
		{
			"bufferView":11,
			"componentType":5123,
			"count":64872,
			"type":"SCALAR"
		},
		{
			"bufferView":12,
			"componentType":5126,
			"count":376,
			"max":[
				0.029859300702810287,
				-0.6379726529121399,
				0.7223638892173767
			],
			"min":[
				-0.02985905297100544,
				-0.697691023349762,
				0.7017149329185486
			],
			"type":"VEC3"
		},
		{
			"bufferView":13,
			"componentType":5126,
			"count":376,
			"type":"VEC3"
		},
		{
			"bufferView":14,
			"componentType":5126,
			"count":376,
			"type":"VEC2"
		},
		{
			"bufferView":15,
			"componentType":5123,
			"count":1020,
			"type":"SCALAR"
		},
		{
			"bufferView":16,
			"componentType":5126,
			"count":696,
			"max":[
				0.07035057246685028,
				-0.7463347911834717,
				0.7434344291687012
			],
			"min":[
				-0.07035031914710999,
				-0.8870357275009155,
				0.7017150521278381
			],
			"type":"VEC3"
		},
		{
			"bufferView":17,
			"componentType":5126,
			"count":696,
			"type":"VEC3"
		},
		{
			"bufferView":18,
			"componentType":5126,
			"count":696,
			"type":"VEC2"
		},
		{
			"bufferView":19,
			"componentType":5123,
			"count":2148,
			"type":"SCALAR"
		},
		{
			"bufferView":20,
			"componentType":5126,
			"count":4824,
			"max":[
				0.6270400285720825,
				-1.0960350036621094,
				0.5514639616012573
			],
			"min":[
				-0.6270401477813721,
				-1.25,
				-0.5514640212059021
			],
			"type":"VEC3"
		},
		{
			"bufferView":21,
			"componentType":5126,
			"count":4824,
			"type":"VEC3"
		},
		{
			"bufferView":22,
			"componentType":5126,
			"count":4824,
			"type":"VEC2"
		},
		{
			"bufferView":23,
			"componentType":5123,
			"count":13752,
			"type":"SCALAR"
		},
		{
			"bufferView":24,
			"componentType":5126,
			"count":48,
			"max":[
				0.25,
				0.1250000149011612,
				0.003184169763699174
			],
			"min":[
				-0.25,
				-0.1249999850988388,
				-0.001321021351031959
			],
			"type":"VEC3"
		},
		{
			"bufferView":25,
			"componentType":5126,
			"count":48,
			"type":"VEC3"
		},
		{
			"bufferView":26,
			"componentType":5126,
			"count":48,
			"type":"VEC2"
		},
		{
			"bufferView":27,
			"componentType":5123,
			"count":78,
			"type":"SCALAR"
		},
		{
			"bufferView":28,
			"componentType":5126,
			"count":4,
			"max":[
				0.24469351768493652,
				0.11953790485858917,
				-0.000542126945219934
			],
			"min":[
				-0.24469351768493652,
				-0.11953793466091156,
				-0.000542126945219934
			],
			"type":"VEC3"
		},
		{
			"bufferView":29,
			"componentType":5126,
			"count":4,
			"type":"VEC3"
		},
		{
			"bufferView":30,
			"componentType":5126,
			"count":4,
			"type":"VEC2"
		},
		{
			"bufferView":31,
			"componentType":5123,
			"count":6,
			"type":"SCALAR"
		}
	],
	"bufferViews":[
		{
			"buffer":0,
			"byteLength":61080,
			"byteOffset":0,
			"target":34962
		},
		{
			"buffer":0,
			"byteLength":61080,
			"byteOffset":61080,
			"target":34962
		},
		{
			"buffer":0,
			"byteLength":40720,
			"byteOffset":122160,
			"target":34962
		},
		{
			"buffer":0,
			"byteLength":32064,
			"byteOffset":162880,
			"target":34963
		},
		{
			"buffer":0,
			"byteLength":64512,
			"byteOffset":194944,
			"target":34962
		},
		{
			"buffer":0,
			"byteLength":64512,
			"byteOffset":259456,
			"target":34962
		},
		{
			"buffer":0,
			"byteLength":43008,
			"byteOffset":323968,
			"target":34962
		},
		{
			"buffer":0,
			"byteLength":17280,
			"byteOffset":366976,
			"target":34963
		},
		{
			"buffer":0,
			"byteLength":331776,
			"byteOffset":384256,
			"target":34962
		},
		{
			"buffer":0,
			"byteLength":331776,
			"byteOffset":716032,
			"target":34962
		},
		{
			"buffer":0,
			"byteLength":221184,
			"byteOffset":1047808,
			"target":34962
		},
		{
			"buffer":0,
			"byteLength":129744,
			"byteOffset":1268992,
			"target":34963
		},
		{
			"buffer":0,
			"byteLength":4512,
			"byteOffset":1398736,
			"target":34962
		},
		{
			"buffer":0,
			"byteLength":4512,
			"byteOffset":1403248,
			"target":34962
		},
		{
			"buffer":0,
			"byteLength":3008,
			"byteOffset":1407760,
			"target":34962
		},
		{
			"buffer":0,
			"byteLength":2040,
			"byteOffset":1410768,
			"target":34963
		},
		{
			"buffer":0,
			"byteLength":8352,
			"byteOffset":1412808,
			"target":34962
		},
		{
			"buffer":0,
			"byteLength":8352,
			"byteOffset":1421160,
			"target":34962
		},
		{
			"buffer":0,
			"byteLength":5568,
			"byteOffset":1429512,
			"target":34962
		},
		{
			"buffer":0,
			"byteLength":4296,
			"byteOffset":1435080,
			"target":34963
		},
		{
			"buffer":0,
			"byteLength":57888,
			"byteOffset":1439376,
			"target":34962
		},
		{
			"buffer":0,
			"byteLength":57888,
			"byteOffset":1497264,
			"target":34962
		},
		{
			"buffer":0,
			"byteLength":38592,
			"byteOffset":1555152,
			"target":34962
		},
		{
			"buffer":0,
			"byteLength":27504,
			"byteOffset":1593744,
			"target":34963
		},
		{
			"buffer":0,
			"byteLength":576,
			"byteOffset":1621248,
			"target":34962
		},
		{
			"buffer":0,
			"byteLength":576,
			"byteOffset":1621824,
			"target":34962
		},
		{
			"buffer":0,
			"byteLength":384,
			"byteOffset":1622400,
			"target":34962
		},
		{
			"buffer":0,
			"byteLength":156,
			"byteOffset":1622784,
			"target":34963
		},
		{
			"buffer":0,
			"byteLength":48,
			"byteOffset":1622940,
			"target":34962
		},
		{
			"buffer":0,
			"byteLength":48,
			"byteOffset":1622988,
			"target":34962
		},
		{
			"buffer":0,
			"byteLength":32,
			"byteOffset":1623036,
			"target":34962
		},
		{
			"buffer":0,
			"byteLength":12,
			"byteOffset":1623068,
			"target":34963
		}
	],
	"buffers":[
		{
			"byteLength":1623080,
			"uri":"ChemicalReactor.bin"
		}
	]
}
