{
	"asset":{
		"generator":"Khronos glTF Blender I/O v3.6.6",
		"version":"2.0"
	},
	"scene":0,
	"scenes":[
		{
			"name":"Scene",
			"nodes":[
				0
			]
		}
	],
	"nodes":[
		{
			"mesh":0,
			"name":"Cube"
		}
	],
	"materials":[
		{
			"doubleSided":true,
			"name":"body",
			"pbrMetallicRoughness":{
				"baseColorFactor":[
					0.052218127995729446,
					0.052218127995729446,
					0.052218127995729446,
					1
				],
				"metallicFactor":0,
				"roughnessFactor":0
			}
		},
		{
			"doubleSided":true,
			"name":"data-connector",
			"pbrMetallicRoughness":{
				"baseColorFactor":[
					0,
					0.007363209966570139,
					0.4969233274459839,
					1
				],
				"metallicFactor":1,
				"roughnessFactor":1
			}
		},
		{
			"doubleSided":true,
			"name":"highvoltage",
			"pbrMetallicRoughness":{
				"baseColorFactor":[
					0.7356586456298828,
					0.3108188211917877,
					0,
					1
				],
				"metallicFactor":1,
				"roughnessFactor":1
			}
		},
		{
			"doubleSided":true,
			"name":"lowvoltage",
			"pbrMetallicRoughness":{
				"baseColorFactor":[
					0.6618639230728149,
					0.005146953742951155,
					0,
					1
				],
				"metallicFactor":1,
				"roughnessFactor":1
			}
		},
		{
			"doubleSided":true,
			"name":"arrow",
			"pbrMetallicRoughness":{
				"baseColorFactor":[
					1,
					1,
					1,
					1
				],
				"metallicFactor":0,
				"roughnessFactor":0
			}
		},
		{
			"doubleSided":true,
			"name":"faces",
			"pbrMetallicRoughness":{
				"baseColorFactor":[
					0.15232519805431366,
					0.15232519805431366,
					0.15232519805431366,
					1
				],
				"metallicFactor":0,
				"roughnessFactor":0
			}
		},
		{
			"doubleSided":true,
			"name":"data-connector-seat",
			"pbrMetallicRoughness":{
				"baseColorFactor":[
					0.7819000482559204,
					0,
					0.8000000715255737,
					1
				],
				"metallicFactor":1,
				"roughnessFactor":1
			}
		}
	],
	"meshes":[
		{
			"name":"Cube.001",
			"primitives":[
				{
					"attributes":{
						"POSITION":0,
						"NORMAL":1
					},
					"indices":2,
					"material":0
				},
				{
					"attributes":{
						"POSITION":3,
						"NORMAL":4
					},
					"indices":5,
					"material":1
				},
				{
					"attributes":{
						"POSITION":6,
						"NORMAL":7
					},
					"indices":8,
					"material":2
				},
				{
					"attributes":{
						"POSITION":9,
						"NORMAL":10
					},
					"indices":11,
					"material":3
				},
				{
					"attributes":{
						"POSITION":12,
						"NORMAL":13
					},
					"indices":14,
					"material":4
				},
				{
					"attributes":{
						"POSITION":15,
						"NORMAL":16
					},
					"indices":17,
					"material":5
				},
				{
					"attributes":{
						"POSITION":18,
						"NORMAL":19
					},
					"indices":20,
					"material":6
				}
			]
		}
	],
	"accessors":[
		{
			"bufferView":0,
			"componentType":5126,
			"count":144,
			"max":[
				0.25,
				0.25,
				0.25
			],
			"min":[
				-0.25,
				-0.25,
				-0.25
			],
			"type":"VEC3"
		},
		{
			"bufferView":1,
			"componentType":5126,
			"count":144,
			"type":"VEC3"
		},
		{
			"bufferView":2,
			"componentType":5123,
			"count":204,
			"type":"SCALAR"
		},
		{
			"bufferView":3,
			"componentType":5126,
			"count":372,
			"max":[
				0.02985917031764984,
				0.24409450590610504,
				-0.04066832363605499
			],
			"min":[
				-0.02985917031764984,
				0.2234455645084381,
				-0.10038666427135468
			],
			"type":"VEC3"
		},
		{
			"bufferView":4,
			"componentType":5126,
			"count":372,
			"type":"VEC3"
		},
		{
			"bufferView":5,
			"componentType":5123,
			"count":1062,
			"type":"SCALAR"
		},
		{
			"bufferView":6,
			"componentType":5126,
			"count":696,
			"max":[
				0.2651650309562683,
				0.07035043835639954,
				0.07035043835639954
			],
			"min":[
				0.22344572842121124,
				-0.07035043835639954,
				-0.07035043835639954
			],
			"type":"VEC3"
		},
		{
			"bufferView":7,
			"componentType":5126,
			"count":696,
			"type":"VEC3"
		},
		{
			"bufferView":8,
			"componentType":5123,
			"count":2148,
			"type":"SCALAR"
		},
		{
			"bufferView":9,
			"componentType":5126,
			"count":288,
			"max":[
				-0.2234455645084381,
				0.030625849962234497,
				0.030625849962234497
			],
			"min":[
				-0.24382591247558594,
				-0.030625849962234497,
				-0.030625849962234497
			],
			"type":"VEC3"
		},
		{
			"bufferView":10,
			"componentType":5126,
			"count":288,
			"type":"VEC3"
		},
		{
			"bufferView":11,
			"componentType":5123,
			"count":930,
			"type":"SCALAR"
		},
		{
			"bufferView":12,
			"componentType":5126,
			"count":12,
			"max":[
				0.13077647984027863,
				0.2234455645084381,
				0.13077647984027863
			],
			"min":[
				-0.13077647984027863,
				0.2234455645084381,
				-0.13077647984027863
			],
			"type":"VEC3"
		},
		{
			"bufferView":13,
			"componentType":5126,
			"count":12,
			"type":"VEC3"
		},
		{
			"bufferView":14,
			"componentType":5123,
			"count":42,
			"type":"SCALAR"
		},
		{
			"bufferView":15,
			"componentType":5126,
			"count":36,
			"max":[
				0.2234455645084381,
				0.13077647984027863,
				0.13077647984027863
			],
			"min":[
				-0.2234455645084381,
				-0.13077647984027863,
				-0.2234455645084381
			],
			"type":"VEC3"
		},
		{
			"bufferView":16,
			"componentType":5126,
			"count":36,
			"type":"VEC3"
		},
		{
			"bufferView":17,
			"componentType":5123,
			"count":96,
			"type":"SCALAR"
		},
		{
			"bufferView":18,
			"componentType":5126,
			"count":372,
			"max":[
				0.02985917031764984,
				0.24409450590610504,
				0.05632360279560089
			],
			"min":[
				-0.02985917031764984,
				0.2234455645084381,
				-0.0033947359770536423
			],
			"type":"VEC3"
		},
		{
			"bufferView":19,
			"componentType":5126,
			"count":372,
			"type":"VEC3"
		},
		{
			"bufferView":20,
			"componentType":5123,
			"count":1062,
			"type":"SCALAR"
		}
	],
	"bufferViews":[
		{
			"buffer":0,
			"byteLength":1728,
			"byteOffset":0,
			"target":34962
		},
		{
			"buffer":0,
			"byteLength":1728,
			"byteOffset":1728,
			"target":34962
		},
		{
			"buffer":0,
			"byteLength":408,
			"byteOffset":3456,
			"target":34963
		},
		{
			"buffer":0,
			"byteLength":4464,
			"byteOffset":3864,
			"target":34962
		},
		{
			"buffer":0,
			"byteLength":4464,
			"byteOffset":8328,
			"target":34962
		},
		{
			"buffer":0,
			"byteLength":2124,
			"byteOffset":12792,
			"target":34963
		},
		{
			"buffer":0,
			"byteLength":8352,
			"byteOffset":14916,
			"target":34962
		},
		{
			"buffer":0,
			"byteLength":8352,
			"byteOffset":23268,
			"target":34962
		},
		{
			"buffer":0,
			"byteLength":4296,
			"byteOffset":31620,
			"target":34963
		},
		{
			"buffer":0,
			"byteLength":3456,
			"byteOffset":35916,
			"target":34962
		},
		{
			"buffer":0,
			"byteLength":3456,
			"byteOffset":39372,
			"target":34962
		},
		{
			"buffer":0,
			"byteLength":1860,
			"byteOffset":42828,
			"target":34963
		},
		{
			"buffer":0,
			"byteLength":144,
			"byteOffset":44688,
			"target":34962
		},
		{
			"buffer":0,
			"byteLength":144,
			"byteOffset":44832,
			"target":34962
		},
		{
			"buffer":0,
			"byteLength":84,
			"byteOffset":44976,
			"target":34963
		},
		{
			"buffer":0,
			"byteLength":432,
			"byteOffset":45060,
			"target":34962
		},
		{
			"buffer":0,
			"byteLength":432,
			"byteOffset":45492,
			"target":34962
		},
		{
			"buffer":0,
			"byteLength":192,
			"byteOffset":45924,
			"target":34963
		},
		{
			"buffer":0,
			"byteLength":4464,
			"byteOffset":46116,
			"target":34962
		},
		{
			"buffer":0,
			"byteLength":4464,
			"byteOffset":50580,
			"target":34962
		},
		{
			"buffer":0,
			"byteLength":2124,
			"byteOffset":55044,
			"target":34963
		}
	],
	"buffers":[
		{
			"byteLength":57168,
			"uri":"Magic.bin"
		}
	]
}
