{
	"asset":{
		"generator":"Khronos glTF Blender I/O v4.0.44",
		"version":"2.0"
	},
	"scene":0,
	"scenes":[
		{
			"name":"Scene",
			"nodes":[
				0,
				1,
				2
			]
		}
	],
	"nodes":[
		{
			"mesh":0,
			"name":"Cube"
		},
		{
			"mesh":1,
			"name":"Torus1",
			"rotation":[
				0,
				0.2729519307613373,
				0,
				0.9620276689529419
			]
		},
		{
			"mesh":2,
			"name":"Torus2",
			"rotation":[
				0.4542236924171448,
				0,
				0.8908876776695251,
				3.8941937674508154e-08
			]
		}
	],
	"materials":[
		{
			"doubleSided":true,
			"name":"color1",
			"pbrMetallicRoughness":{
				"baseColorFactor":[
					1,
					1,
					1,
					1
				],
				"metallicFactor":0,
				"roughnessFactor":0
			}
		},
		{
			"doubleSided":true,
			"name":"data-connector",
			"pbrMetallicRoughness":{
				"baseColorFactor":[
					0,
					0.05000007152557373,
					0.5,
					1
				],
				"metallicFactor":1,
				"roughnessFactor":1
			}
		},
		{
			"doubleSided":true,
			"name":"lv-connector",
			"pbrMetallicRoughness":{
				"baseColorFactor":[
					0.5,
					0,
					0,
					1
				],
				"metallicFactor":1,
				"roughnessFactor":1
			}
		},
		{
			"doubleSided":true,
			"name":"inside",
			"pbrMetallicRoughness":{
				"baseColorFactor":[
					0.009999999776482582,
					0.009999999776482582,
					0.009999999776482582,
					1
				],
				"metallicFactor":0,
				"roughnessFactor":1
			}
		},
		{
			"doubleSided":true,
			"name":"hv-connector",
			"pbrMetallicRoughness":{
				"baseColorFactor":[
					0.5,
					0.1499999761581421,
					0,
					1
				],
				"metallicFactor":1,
				"roughnessFactor":1
			}
		},
		{
			"doubleSided":true,
			"name":"wheel",
			"pbrMetallicRoughness":{
				"baseColorFactor":[
					0.5814629197120667,
					0.5814629197120667,
					0.5814629197120667,
					1
				],
				"metallicFactor":1,
				"roughnessFactor":0
			}
		},
		{
			"doubleSided":true,
			"name":"wheeltrim",
			"pbrMetallicRoughness":{
				"baseColorFactor":[
					0.07657898962497711,
					0.07657898962497711,
					0.07657898962497711,
					1
				],
				"metallicFactor":1,
				"roughnessFactor":0
			}
		}
	],
	"meshes":[
		{
			"name":"Cube.005",
			"primitives":[
				{
					"attributes":{
						"POSITION":0,
						"NORMAL":1
					},
					"indices":2,
					"material":0
				},
				{
					"attributes":{
						"POSITION":3,
						"NORMAL":4
					},
					"indices":5,
					"material":1
				},
				{
					"attributes":{
						"POSITION":6,
						"NORMAL":7
					},
					"indices":8,
					"material":2
				},
				{
					"attributes":{
						"POSITION":9,
						"NORMAL":10
					},
					"indices":11,
					"material":3
				},
				{
					"attributes":{
						"POSITION":12,
						"NORMAL":13
					},
					"indices":14,
					"material":4
				}
			]
		},
		{
			"name":"Torus",
			"primitives":[
				{
					"attributes":{
						"POSITION":15,
						"NORMAL":16
					},
					"indices":17,
					"material":5
				},
				{
					"attributes":{
						"POSITION":18,
						"NORMAL":19
					},
					"indices":20,
					"material":6
				}
			]
		},
		{
			"name":"Torus",
			"primitives":[
				{
					"attributes":{
						"POSITION":21,
						"NORMAL":22
					},
					"indices":17,
					"material":5
				},
				{
					"attributes":{
						"POSITION":23,
						"NORMAL":24
					},
					"indices":20,
					"material":6
				}
			]
		}
	],
	"accessors":[
		{
			"bufferView":0,
			"componentType":5126,
			"count":284,
			"max":[
				0.5,
				0.5,
				0.5
			],
			"min":[
				-0.5,
				-0.5,
				-0.5
			],
			"type":"VEC3"
		},
		{
			"bufferView":1,
			"componentType":5126,
			"count":284,
			"type":"VEC3"
		},
		{
			"bufferView":2,
			"componentType":5123,
			"count":498,
			"type":"SCALAR"
		},
		{
			"bufferView":3,
			"componentType":5126,
			"count":376,
			"max":[
				-0.03264082968235016,
				0.5206489562988281,
				0.02985917031764984
			],
			"min":[
				-0.09235917031764984,
				0.5,
				-0.02985917031764984
			],
			"type":"VEC3"
		},
		{
			"bufferView":4,
			"componentType":5126,
			"count":376,
			"type":"VEC3"
		},
		{
			"bufferView":5,
			"componentType":5123,
			"count":1020,
			"type":"SCALAR"
		},
		{
			"bufferView":6,
			"componentType":5126,
			"count":312,
			"max":[
				0.0931258499622345,
				0.5203803181648254,
				0.030625849962234497
			],
			"min":[
				0.0318741500377655,
				0.4999999403953552,
				-0.030625849962234497
			],
			"type":"VEC3"
		},
		{
			"bufferView":7,
			"componentType":5126,
			"count":312,
			"type":"VEC3"
		},
		{
			"bufferView":8,
			"componentType":5123,
			"count":996,
			"type":"SCALAR"
		},
		{
			"bufferView":9,
			"componentType":5126,
			"count":128,
			"max":[
				0.4466121196746826,
				0.26252037286758423,
				0.4466121196746826
			],
			"min":[
				-0.4466121196746826,
				-0.26252037286758423,
				-0.4466121196746826
			],
			"type":"VEC3"
		},
		{
			"bufferView":10,
			"componentType":5126,
			"count":128,
			"type":"VEC3"
		},
		{
			"bufferView":11,
			"componentType":5123,
			"count":288,
			"type":"SCALAR"
		},
		{
			"bufferView":12,
			"componentType":5126,
			"count":696,
			"max":[
				0.28241288661956787,
				0.5417194366455078,
				0.07035043835639954
			],
			"min":[
				0.1417120099067688,
				0.5000001788139343,
				-0.07035043835639954
			],
			"type":"VEC3"
		},
		{
			"bufferView":13,
			"componentType":5126,
			"count":696,
			"type":"VEC3"
		},
		{
			"bufferView":14,
			"componentType":5123,
			"count":2148,
			"type":"SCALAR"
		},
		{
			"bufferView":15,
			"componentType":5126,
			"count":1536,
			"max":[
				0.4638354182243347,
				0,
				0.4638354182243347
			],
			"min":[
				-0.4638354778289795,
				-0.125,
				-0.4638354778289795
			],
			"type":"VEC3"
		},
		{
			"bufferView":16,
			"componentType":5126,
			"count":1536,
			"type":"VEC3"
		},
		{
			"bufferView":17,
			"componentType":5123,
			"count":4680,
			"type":"SCALAR"
		},
		{
			"bufferView":18,
			"componentType":5126,
			"count":192,
			"max":[
				0.38566502928733826,
				0,
				0.38566505908966064
			],
			"min":[
				-0.38566508889198303,
				-0.125,
				-0.3856651782989502
			],
			"type":"VEC3"
		},
		{
			"bufferView":19,
			"componentType":5126,
			"count":192,
			"type":"VEC3"
		},
		{
			"bufferView":20,
			"componentType":5123,
			"count":312,
			"type":"SCALAR"
		},
		{
			"bufferView":21,
			"componentType":5126,
			"count":1536,
			"max":[
				0.4638354182243347,
				0,
				0.4638354182243347
			],
			"min":[
				-0.4638354778289795,
				-0.125,
				-0.4638354778289795
			],
			"type":"VEC3"
		},
		{
			"bufferView":22,
			"componentType":5126,
			"count":1536,
			"type":"VEC3"
		},
		{
			"bufferView":23,
			"componentType":5126,
			"count":192,
			"max":[
				0.38566502928733826,
				0,
				0.38566505908966064
			],
			"min":[
				-0.38566508889198303,
				-0.125,
				-0.3856651782989502
			],
			"type":"VEC3"
		},
		{
			"bufferView":24,
			"componentType":5126,
			"count":192,
			"type":"VEC3"
		}
	],
	"bufferViews":[
		{
			"buffer":0,
			"byteLength":3408,
			"byteOffset":0,
			"target":34962
		},
		{
			"buffer":0,
			"byteLength":3408,
			"byteOffset":3408,
			"target":34962
		},
		{
			"buffer":0,
			"byteLength":996,
			"byteOffset":6816,
			"target":34963
		},
		{
			"buffer":0,
			"byteLength":4512,
			"byteOffset":7812,
			"target":34962
		},
		{
			"buffer":0,
			"byteLength":4512,
			"byteOffset":12324,
			"target":34962
		},
		{
			"buffer":0,
			"byteLength":2040,
			"byteOffset":16836,
			"target":34963
		},
		{
			"buffer":0,
			"byteLength":3744,
			"byteOffset":18876,
			"target":34962
		},
		{
			"buffer":0,
			"byteLength":3744,
			"byteOffset":22620,
			"target":34962
		},
		{
			"buffer":0,
			"byteLength":1992,
			"byteOffset":26364,
			"target":34963
		},
		{
			"buffer":0,
			"byteLength":1536,
			"byteOffset":28356,
			"target":34962
		},
		{
			"buffer":0,
			"byteLength":1536,
			"byteOffset":29892,
			"target":34962
		},
		{
			"buffer":0,
			"byteLength":576,
			"byteOffset":31428,
			"target":34963
		},
		{
			"buffer":0,
			"byteLength":8352,
			"byteOffset":32004,
			"target":34962
		},
		{
			"buffer":0,
			"byteLength":8352,
			"byteOffset":40356,
			"target":34962
		},
		{
			"buffer":0,
			"byteLength":4296,
			"byteOffset":48708,
			"target":34963
		},
		{
			"buffer":0,
			"byteLength":18432,
			"byteOffset":53004,
			"target":34962
		},
		{
			"buffer":0,
			"byteLength":18432,
			"byteOffset":71436,
			"target":34962
		},
		{
			"buffer":0,
			"byteLength":9360,
			"byteOffset":89868,
			"target":34963
		},
		{
			"buffer":0,
			"byteLength":2304,
			"byteOffset":99228,
			"target":34962
		},
		{
			"buffer":0,
			"byteLength":2304,
			"byteOffset":101532,
			"target":34962
		},
		{
			"buffer":0,
			"byteLength":624,
			"byteOffset":103836,
			"target":34963
		},
		{
			"buffer":0,
			"byteLength":18432,
			"byteOffset":104460,
			"target":34962
		},
		{
			"buffer":0,
			"byteLength":18432,
			"byteOffset":122892,
			"target":34962
		},
		{
			"buffer":0,
			"byteLength":2304,
			"byteOffset":141324,
			"target":34962
		},
		{
			"buffer":0,
			"byteLength":2304,
			"byteOffset":143628,
			"target":34962
		}
	],
	"buffers":[
		{
			"byteLength":145932,
			"uri":"Gyroscope.bin"
		}
	]
}
