{
	"asset":{
		"generator":"Khronos glTF Blender I/O v4.0.44",
		"version":"2.0"
	},
	"scene":0,
	"scenes":[
		{
			"name":"Scene",
			"nodes":[
				0,
				1
			]
		}
	],
	"nodes":[
		{
			"mesh":0,
			"name":"slave",
			"rotation":[
				0,
				0,
				-0.08715575188398361,
				0.9961947202682495
			],
			"translation":[
				0,
				0,
				-0.27403882145881653
			]
		},
		{
			"mesh":1,
			"name":"master",
			"rotation":[
				-0.7071068286895752,
				0,
				0,
				0.7071068286895752
			],
			"translation":[
				0,
				0,
				-0.023870062083005905
			]
		}
	],
	"materials":[
		{
			"doubleSided":true,
			"name":"color2",
			"pbrMetallicRoughness":{
				"baseColorFactor":[
					0.800000011920929,
					0.800000011920929,
					0.800000011920929,
					1
				],
				"metallicFactor":1,
				"roughnessFactor":1
			}
		},
		{
			"doubleSided":true,
			"name":"body",
			"pbrMetallicRoughness":{
				"baseColorFactor":[
					0.009999999776482582,
					0.009999999776482582,
					0.009999999776482582,
					1
				],
				"metallicFactor":0,
				"roughnessFactor":1
			}
		},
		{
			"doubleSided":true,
			"name":"color1",
			"pbrMetallicRoughness":{
				"baseColorFactor":[
					1,
					1,
					1,
					1
				],
				"metallicFactor":0,
				"roughnessFactor":0
			}
		},
		{
			"doubleSided":true,
			"name":"data-connector",
			"pbrMetallicRoughness":{
				"baseColorFactor":[
					0,
					0.05000007152557373,
					0.5,
					1
				],
				"metallicFactor":1,
				"roughnessFactor":1
			}
		},
		{
			"doubleSided":true,
			"name":"lv-connector",
			"pbrMetallicRoughness":{
				"baseColorFactor":[
					0.5,
					0,
					0,
					1
				],
				"metallicFactor":1,
				"roughnessFactor":1
			}
		}
	],
	"meshes":[
		{
			"name":"Cube.001",
			"primitives":[
				{
					"attributes":{
						"POSITION":0,
						"NORMAL":1
					},
					"indices":2,
					"material":0
				}
			]
		},
		{
			"name":"Cylinder",
			"primitives":[
				{
					"attributes":{
						"POSITION":3,
						"NORMAL":4
					},
					"indices":5,
					"material":1
				},
				{
					"attributes":{
						"POSITION":6,
						"NORMAL":7
					},
					"indices":8,
					"material":2
				},
				{
					"attributes":{
						"POSITION":9,
						"NORMAL":10
					},
					"indices":11,
					"material":3
				},
				{
					"attributes":{
						"POSITION":12,
						"NORMAL":13
					},
					"indices":14,
					"material":4
				}
			]
		}
	],
	"accessors":[
		{
			"bufferView":0,
			"componentType":5126,
			"count":24,
			"max":[
				0.125,
				0.125,
				0.125
			],
			"min":[
				-0.125,
				-0.125,
				-0.125
			],
			"type":"VEC3"
		},
		{
			"bufferView":1,
			"componentType":5126,
			"count":24,
			"type":"VEC3"
		},
		{
			"bufferView":2,
			"componentType":5123,
			"count":36,
			"type":"SCALAR"
		},
		{
			"bufferView":3,
			"componentType":5126,
			"count":1536,
			"max":[
				0.11892545223236084,
				0.12766237556934357,
				0.11892543733119965
			],
			"min":[
				-0.11892545223236084,
				0.09859727323055267,
				-0.11892546713352203
			],
			"type":"VEC3"
		},
		{
			"bufferView":4,
			"componentType":5126,
			"count":1536,
			"type":"VEC3"
		},
		{
			"bufferView":5,
			"componentType":5123,
			"count":4596,
			"type":"SCALAR"
		},
		{
			"bufferView":6,
			"componentType":5126,
			"count":24,
			"max":[
				0.125,
				0.1011299341917038,
				0.1250000149011612
			],
			"min":[
				-0.125,
				-0.12483122944831848,
				-0.1250000149011612
			],
			"type":"VEC3"
		},
		{
			"bufferView":7,
			"componentType":5126,
			"count":24,
			"type":"VEC3"
		},
		{
			"bufferView":8,
			"componentType":5123,
			"count":36,
			"type":"SCALAR"
		},
		{
			"bufferView":9,
			"componentType":5126,
			"count":376,
			"max":[
				0.02985917031764984,
				0.060744915157556534,
				0.14564892649650574
			],
			"min":[
				-0.02985917031764984,
				0.001026572659611702,
				0.12499997764825821
			],
			"type":"VEC3"
		},
		{
			"bufferView":10,
			"componentType":5126,
			"count":376,
			"type":"VEC3"
		},
		{
			"bufferView":11,
			"componentType":5123,
			"count":1020,
			"type":"SCALAR"
		},
		{
			"bufferView":12,
			"componentType":5126,
			"count":312,
			"max":[
				0.030625849962234497,
				-0.02337862364947796,
				0.14538033306598663
			],
			"min":[
				-0.030625849962234497,
				-0.0846303254365921,
				0.12499991804361343
			],
			"type":"VEC3"
		},
		{
			"bufferView":13,
			"componentType":5126,
			"count":312,
			"type":"VEC3"
		},
		{
			"bufferView":14,
			"componentType":5123,
			"count":996,
			"type":"SCALAR"
		}
	],
	"bufferViews":[
		{
			"buffer":0,
			"byteLength":288,
			"byteOffset":0,
			"target":34962
		},
		{
			"buffer":0,
			"byteLength":288,
			"byteOffset":288,
			"target":34962
		},
		{
			"buffer":0,
			"byteLength":72,
			"byteOffset":576,
			"target":34963
		},
		{
			"buffer":0,
			"byteLength":18432,
			"byteOffset":648,
			"target":34962
		},
		{
			"buffer":0,
			"byteLength":18432,
			"byteOffset":19080,
			"target":34962
		},
		{
			"buffer":0,
			"byteLength":9192,
			"byteOffset":37512,
			"target":34963
		},
		{
			"buffer":0,
			"byteLength":288,
			"byteOffset":46704,
			"target":34962
		},
		{
			"buffer":0,
			"byteLength":288,
			"byteOffset":46992,
			"target":34962
		},
		{
			"buffer":0,
			"byteLength":72,
			"byteOffset":47280,
			"target":34963
		},
		{
			"buffer":0,
			"byteLength":4512,
			"byteOffset":47352,
			"target":34962
		},
		{
			"buffer":0,
			"byteLength":4512,
			"byteOffset":51864,
			"target":34962
		},
		{
			"buffer":0,
			"byteLength":2040,
			"byteOffset":56376,
			"target":34963
		},
		{
			"buffer":0,
			"byteLength":3744,
			"byteOffset":58416,
			"target":34962
		},
		{
			"buffer":0,
			"byteLength":3744,
			"byteOffset":62160,
			"target":34962
		},
		{
			"buffer":0,
			"byteLength":1992,
			"byteOffset":65904,
			"target":34963
		}
	],
	"buffers":[
		{
			"byteLength":67896,
			"uri":"SmallPivot.bin"
		}
	]
}
