{
	"asset":{
		"generator":"Khronos glTF Blender I/O v3.6.6",
		"version":"2.0"
	},
	"scene":0,
	"scenes":[
		{
			"name":"Scene",
			"nodes":[
				0
			]
		}
	],
	"nodes":[
		{
			"mesh":0,
			"name":"Cube"
		}
	],
	"materials":[
		{
			"doubleSided":true,
			"name":"color1",
			"pbrMetallicRoughness":{
				"baseColorFactor":[
					1,
					1,
					1,
					1
				],
				"metallicFactor":0,
				"roughnessFactor":0
			}
		},
		{
			"doubleSided":true,
			"name":"color2",
			"pbrMetallicRoughness":{
				"baseColorFactor":[
					0.800000011920929,
					0.800000011920929,
					0.800000011920929,
					1
				],
				"metallicFactor":1,
				"roughnessFactor":1
			}
		},
		{
			"doubleSided":true,
			"name":"magnet",
			"pbrMetallicRoughness":{
				"baseColorFactor":[
					0.800000011920929,
					0.800000011920929,
					0.800000011920929,
					1
				],
				"metallicFactor":1,
				"roughnessFactor":0
			}
		},
		{
			"doubleSided":true,
			"name":"port",
			"pbrMetallicRoughness":{
				"baseColorFactor":[
					0.006370149087160826,
					0.006370149087160826,
					0.006370149087160826,
					1
				],
				"metallicFactor":1,
				"roughnessFactor":1
			}
		},
		{
			"doubleSided":true,
			"name":"fluid-connector",
			"pbrMetallicRoughness":{
				"baseColorFactor":[
					0.44999998807907104,
					0.44999998807907104,
					0.44999998807907104,
					1
				],
				"metallicFactor":1,
				"roughnessFactor":1
			}
		},
		{
			"doubleSided":true,
			"name":"lv-connector",
			"pbrMetallicRoughness":{
				"baseColorFactor":[
					0.8000000715255737,
					0,
					0.006208333652466536,
					1
				],
				"metallicFactor":1,
				"roughnessFactor":1
			}
		},
		{
			"doubleSided":true,
			"name":"hv-connector",
			"pbrMetallicRoughness":{
				"baseColorFactor":[
					0.8000000715255737,
					0.5071301460266113,
					0,
					1
				],
				"metallicFactor":1,
				"roughnessFactor":1
			}
		},
		{
			"doubleSided":true,
			"name":"data-connector",
			"pbrMetallicRoughness":{
				"baseColorFactor":[
					0,
					0,
					0.8000000715255737,
					1
				],
				"metallicFactor":1,
				"roughnessFactor":1
			}
		}
	],
	"meshes":[
		{
			"name":"Cube",
			"primitives":[
				{
					"attributes":{
						"POSITION":0,
						"NORMAL":1
					},
					"indices":2,
					"material":0
				},
				{
					"attributes":{
						"POSITION":3,
						"NORMAL":4
					},
					"indices":5,
					"material":1
				},
				{
					"attributes":{
						"POSITION":6,
						"NORMAL":7
					},
					"indices":8,
					"material":2
				},
				{
					"attributes":{
						"POSITION":9,
						"NORMAL":10
					},
					"indices":11,
					"material":3
				},
				{
					"attributes":{
						"POSITION":12,
						"NORMAL":13
					},
					"indices":14,
					"material":4
				},
				{
					"attributes":{
						"POSITION":15,
						"NORMAL":16
					},
					"indices":17,
					"material":5
				},
				{
					"attributes":{
						"POSITION":18,
						"NORMAL":19
					},
					"indices":20,
					"material":6
				},
				{
					"attributes":{
						"POSITION":21,
						"NORMAL":22
					},
					"indices":23,
					"material":7
				}
			]
		}
	],
	"accessors":[
		{
			"bufferView":0,
			"componentType":5126,
			"count":2384,
			"max":[
				0.25,
				0.25,
				0.32059356570243835
			],
			"min":[
				-0.25,
				-0.25,
				-0.3176078200340271
			],
			"type":"VEC3"
		},
		{
			"bufferView":1,
			"componentType":5126,
			"count":2384,
			"type":"VEC3"
		},
		{
			"bufferView":2,
			"componentType":5123,
			"count":6762,
			"type":"SCALAR"
		},
		{
			"bufferView":3,
			"componentType":5126,
			"count":2548,
			"max":[
				0.25202319025993347,
				0.3713010549545288,
				0.2938053607940674
			],
			"min":[
				-0.25202319025993347,
				-0.25202319025993347,
				-0.3176078200340271
			],
			"type":"VEC3"
		},
		{
			"bufferView":4,
			"componentType":5126,
			"count":2548,
			"type":"VEC3"
		},
		{
			"bufferView":5,
			"componentType":5123,
			"count":7146,
			"type":"SCALAR"
		},
		{
			"bufferView":6,
			"componentType":5126,
			"count":592,
			"max":[
				0.1959916204214096,
				0.1959916204214096,
				-0.307628333568573
			],
			"min":[
				-0.1959916204214096,
				-0.1959916204214096,
				-0.3176078200340271
			],
			"type":"VEC3"
		},
		{
			"bufferView":7,
			"componentType":5126,
			"count":592,
			"type":"VEC3"
		},
		{
			"bufferView":8,
			"componentType":5123,
			"count":1536,
			"type":"SCALAR"
		},
		{
			"bufferView":9,
			"componentType":5126,
			"count":792,
			"max":[
				0.08367306739091873,
				0.08367306739091873,
				-0.22736650705337524
			],
			"min":[
				-0.08367306739091873,
				-0.08367306739091873,
				-0.3176078200340271
			],
			"type":"VEC3"
		},
		{
			"bufferView":10,
			"componentType":5126,
			"count":792,
			"type":"VEC3"
		},
		{
			"bufferView":11,
			"componentType":5123,
			"count":2304,
			"type":"SCALAR"
		},
		{
			"bufferView":12,
			"componentType":5126,
			"count":4608,
			"max":[
				0.12489652633666992,
				0.02929636836051941,
				0.3584664463996887
			],
			"min":[
				-0.12489652633666992,
				-0.22049668431282043,
				0.320632666349411
			],
			"type":"VEC3"
		},
		{
			"bufferView":13,
			"componentType":5126,
			"count":4608,
			"type":"VEC3"
		},
		{
			"bufferView":14,
			"componentType":5123,
			"count":10812,
			"type":"SCALAR"
		},
		{
			"bufferView":15,
			"componentType":5126,
			"count":312,
			"max":[
				0.15062585473060608,
				0.08820214122533798,
				0.34101325273513794
			],
			"min":[
				0.08937414735555649,
				0.02695043757557869,
				0.32063284516334534
			],
			"type":"VEC3"
		},
		{
			"bufferView":16,
			"componentType":5126,
			"count":312,
			"type":"VEC3"
		},
		{
			"bufferView":17,
			"componentType":5123,
			"count":996,
			"type":"SCALAR"
		},
		{
			"bufferView":18,
			"componentType":5126,
			"count":696,
			"max":[
				0.07035043835639954,
				0.22460268437862396,
				0.3623523712158203
			],
			"min":[
				-0.07035043835639954,
				0.08390180766582489,
				0.32063305377960205
			],
			"type":"VEC3"
		},
		{
			"bufferView":19,
			"componentType":5126,
			"count":696,
			"type":"VEC3"
		},
		{
			"bufferView":20,
			"componentType":5123,
			"count":2148,
			"type":"SCALAR"
		},
		{
			"bufferView":21,
			"componentType":5126,
			"count":752,
			"max":[
				0.02985917031764984,
				0.34152132272720337,
				0.34128186106681824
			],
			"min":[
				-0.14985916018486023,
				0.027717117220163345,
				0.2938053607940674
			],
			"type":"VEC3"
		},
		{
			"bufferView":22,
			"componentType":5126,
			"count":752,
			"type":"VEC3"
		},
		{
			"bufferView":23,
			"componentType":5123,
			"count":2040,
			"type":"SCALAR"
		}
	],
	"bufferViews":[
		{
			"buffer":0,
			"byteLength":28608,
			"byteOffset":0,
			"target":34962
		},
		{
			"buffer":0,
			"byteLength":28608,
			"byteOffset":28608,
			"target":34962
		},
		{
			"buffer":0,
			"byteLength":13524,
			"byteOffset":57216,
			"target":34963
		},
		{
			"buffer":0,
			"byteLength":30576,
			"byteOffset":70740,
			"target":34962
		},
		{
			"buffer":0,
			"byteLength":30576,
			"byteOffset":101316,
			"target":34962
		},
		{
			"buffer":0,
			"byteLength":14292,
			"byteOffset":131892,
			"target":34963
		},
		{
			"buffer":0,
			"byteLength":7104,
			"byteOffset":146184,
			"target":34962
		},
		{
			"buffer":0,
			"byteLength":7104,
			"byteOffset":153288,
			"target":34962
		},
		{
			"buffer":0,
			"byteLength":3072,
			"byteOffset":160392,
			"target":34963
		},
		{
			"buffer":0,
			"byteLength":9504,
			"byteOffset":163464,
			"target":34962
		},
		{
			"buffer":0,
			"byteLength":9504,
			"byteOffset":172968,
			"target":34962
		},
		{
			"buffer":0,
			"byteLength":4608,
			"byteOffset":182472,
			"target":34963
		},
		{
			"buffer":0,
			"byteLength":55296,
			"byteOffset":187080,
			"target":34962
		},
		{
			"buffer":0,
			"byteLength":55296,
			"byteOffset":242376,
			"target":34962
		},
		{
			"buffer":0,
			"byteLength":21624,
			"byteOffset":297672,
			"target":34963
		},
		{
			"buffer":0,
			"byteLength":3744,
			"byteOffset":319296,
			"target":34962
		},
		{
			"buffer":0,
			"byteLength":3744,
			"byteOffset":323040,
			"target":34962
		},
		{
			"buffer":0,
			"byteLength":1992,
			"byteOffset":326784,
			"target":34963
		},
		{
			"buffer":0,
			"byteLength":8352,
			"byteOffset":328776,
			"target":34962
		},
		{
			"buffer":0,
			"byteLength":8352,
			"byteOffset":337128,
			"target":34962
		},
		{
			"buffer":0,
			"byteLength":4296,
			"byteOffset":345480,
			"target":34963
		},
		{
			"buffer":0,
			"byteLength":9024,
			"byteOffset":349776,
			"target":34962
		},
		{
			"buffer":0,
			"byteLength":9024,
			"byteOffset":358800,
			"target":34962
		},
		{
			"buffer":0,
			"byteLength":4080,
			"byteOffset":367824,
			"target":34963
		}
	],
	"buffers":[
		{
			"byteLength":371904,
			"uri":"DockingPort.bin"
		}
	]
}
