{
	"asset":{
		"generator":"Khronos glTF Blender I/O v3.6.6",
		"version":"2.0"
	},
	"scene":0,
	"scenes":[
		{
			"name":"Scene",
			"nodes":[
				0,
				1
			]
		}
	],
	"nodes":[
		{
			"mesh":0,
			"name":"Cube"
		},
		{
			"mesh":1,
			"name":"Cylinder",
			"rotation":[
				-0.7071068286895752,
				0,
				0,
				0.7071068286895752
			]
		}
	],
	"materials":[
		{
			"doubleSided":true,
			"name":"color1",
			"pbrMetallicRoughness":{
				"baseColorFactor":[
					1,
					1,
					1,
					1
				],
				"metallicFactor":0,
				"roughnessFactor":0
			}
		},
		{
			"doubleSided":true,
			"name":"data-connector",
			"pbrMetallicRoughness":{
				"baseColorFactor":[
					0,
					0.05000007152557373,
					0.5,
					1
				],
				"metallicFactor":1,
				"roughnessFactor":1
			}
		},
		{
			"doubleSided":true,
			"name":"black",
			"pbrMetallicRoughness":{
				"baseColorFactor":[
					0.009999999776482582,
					0.009999999776482582,
					0.009999999776482582,
					1
				],
				"metallicFactor":0,
				"roughnessFactor":1
			}
		}
	],
	"meshes":[
		{
			"name":"Cube",
			"primitives":[
				{
					"attributes":{
						"POSITION":0,
						"NORMAL":1
					},
					"indices":2,
					"material":0
				},
				{
					"attributes":{
						"POSITION":3,
						"NORMAL":4
					},
					"indices":5,
					"material":1
				},
				{
					"attributes":{
						"POSITION":6,
						"NORMAL":7
					},
					"indices":8,
					"material":2
				}
			]
		},
		{
			"name":"Cylinder",
			"primitives":[
				{
					"attributes":{
						"POSITION":9,
						"NORMAL":10
					},
					"indices":11,
					"material":2
				}
			]
		}
	],
	"accessors":[
		{
			"bufferView":0,
			"componentType":5126,
			"count":110,
			"max":[
				0.125,
				0.25,
				0.125
			],
			"min":[
				-0.125,
				-0.25,
				-0.1114891767501831
			],
			"type":"VEC3"
		},
		{
			"bufferView":1,
			"componentType":5126,
			"count":110,
			"type":"VEC3"
		},
		{
			"bufferView":2,
			"componentType":5123,
			"count":240,
			"type":"SCALAR"
		},
		{
			"bufferView":3,
			"componentType":5126,
			"count":376,
			"max":[
				0.02985917031764984,
				0.2703028619289398,
				0.041810330003499985
			],
			"min":[
				-0.02985917031764984,
				0.2496539205312729,
				-0.017908010631799698
			],
			"type":"VEC3"
		},
		{
			"bufferView":4,
			"componentType":5126,
			"count":376,
			"type":"VEC3"
		},
		{
			"bufferView":5,
			"componentType":5123,
			"count":1020,
			"type":"SCALAR"
		},
		{
			"bufferView":6,
			"componentType":5126,
			"count":20,
			"max":[
				0.02989783138036728,
				0.17938698828220367,
				-0.06152394413948059
			],
			"min":[
				-0.02989783138036728,
				-0.17938698828220367,
				-0.093658447265625
			],
			"type":"VEC3"
		},
		{
			"bufferView":7,
			"componentType":5126,
			"count":20,
			"type":"VEC3"
		},
		{
			"bufferView":8,
			"componentType":5123,
			"count":30,
			"type":"SCALAR"
		},
		{
			"bufferView":9,
			"componentType":5126,
			"count":704,
			"max":[
				0.08508323132991791,
				0.28513672947883606,
				0.03163670003414154
			],
			"min":[
				-0.08508323132991791,
				-0.0843726396560669,
				-0.03163667768239975
			],
			"type":"VEC3"
		},
		{
			"bufferView":10,
			"componentType":5126,
			"count":704,
			"type":"VEC3"
		},
		{
			"bufferView":11,
			"componentType":5123,
			"count":2280,
			"type":"SCALAR"
		}
	],
	"bufferViews":[
		{
			"buffer":0,
			"byteLength":1320,
			"byteOffset":0,
			"target":34962
		},
		{
			"buffer":0,
			"byteLength":1320,
			"byteOffset":1320,
			"target":34962
		},
		{
			"buffer":0,
			"byteLength":480,
			"byteOffset":2640,
			"target":34963
		},
		{
			"buffer":0,
			"byteLength":4512,
			"byteOffset":3120,
			"target":34962
		},
		{
			"buffer":0,
			"byteLength":4512,
			"byteOffset":7632,
			"target":34962
		},
		{
			"buffer":0,
			"byteLength":2040,
			"byteOffset":12144,
			"target":34963
		},
		{
			"buffer":0,
			"byteLength":240,
			"byteOffset":14184,
			"target":34962
		},
		{
			"buffer":0,
			"byteLength":240,
			"byteOffset":14424,
			"target":34962
		},
		{
			"buffer":0,
			"byteLength":60,
			"byteOffset":14664,
			"target":34963
		},
		{
			"buffer":0,
			"byteLength":8448,
			"byteOffset":14724,
			"target":34962
		},
		{
			"buffer":0,
			"byteLength":8448,
			"byteOffset":23172,
			"target":34962
		},
		{
			"buffer":0,
			"byteLength":4560,
			"byteOffset":31620,
			"target":34963
		}
	],
	"buffers":[
		{
			"byteLength":36180,
			"uri":"ThrottleLever.bin"
		}
	]
}
