{
	"asset":{
		"generator":"Khronos glTF Blender I/O v4.0.44",
		"version":"2.0"
	},
	"scene":0,
	"scenes":[
		{
			"name":"Scene",
			"nodes":[
				0,
				1
			]
		}
	],
	"nodes":[
		{
			"mesh":0,
			"name":"body",
			"translation":[
				0,
				0.15000000596046448,
				-0.20029115676879883
			]
		},
		{
			"mesh":1,
			"name":"Cylinder",
			"rotation":[
				-0.7071068286895752,
				0,
				0,
				0.7071068286895752
			]
		}
	],
	"materials":[
		{
			"doubleSided":true,
			"name":"color1",
			"pbrMetallicRoughness":{
				"baseColorFactor":[
					1,
					1,
					1,
					1
				],
				"metallicFactor":0,
				"roughnessFactor":0
			}
		},
		{
			"doubleSided":true,
			"name":"data-connector",
			"pbrMetallicRoughness":{
				"baseColorFactor":[
					0,
					0.05000007152557373,
					0.5,
					1
				],
				"metallicFactor":1,
				"roughnessFactor":1
			}
		},
		{
			"doubleSided":true,
			"name":"black",
			"pbrMetallicRoughness":{
				"baseColorFactor":[
					0.009999999776482582,
					0.009999999776482582,
					0.009999999776482582,
					1
				],
				"metallicFactor":0,
				"roughnessFactor":1
			}
		}
	],
	"meshes":[
		{
			"name":"Mesh",
			"primitives":[
				{
					"attributes":{
						"POSITION":0,
						"NORMAL":1
					},
					"indices":2,
					"material":0
				},
				{
					"attributes":{
						"POSITION":3,
						"NORMAL":4
					},
					"indices":5,
					"material":1
				},
				{
					"attributes":{
						"POSITION":6,
						"NORMAL":7
					},
					"indices":8,
					"material":2
				}
			]
		},
		{
			"name":"Cylinder",
			"primitives":[
				{
					"attributes":{
						"POSITION":9,
						"NORMAL":10
					},
					"indices":11,
					"material":2
				}
			]
		}
	],
	"accessors":[
		{
			"bufferView":0,
			"componentType":5126,
			"count":98,
			"max":[
				0.125,
				0.10000000894069672,
				0.32529115676879883
			],
			"min":[
				-0.125,
				-0.3999999761581421,
				0.07529114186763763
			],
			"type":"VEC3"
		},
		{
			"bufferView":1,
			"componentType":5126,
			"count":98,
			"type":"VEC3"
		},
		{
			"bufferView":2,
			"componentType":5123,
			"count":216,
			"type":"SCALAR"
		},
		{
			"bufferView":3,
			"componentType":5126,
			"count":376,
			"max":[
				0.02985917031764984,
				0.12030286341905594,
				0.24210147559642792
			],
			"min":[
				-0.02985917031764984,
				0.09965392202138901,
				0.18238313496112823
			],
			"type":"VEC3"
		},
		{
			"bufferView":4,
			"componentType":5126,
			"count":376,
			"type":"VEC3"
		},
		{
			"bufferView":5,
			"componentType":5123,
			"count":1020,
			"type":"SCALAR"
		},
		{
			"bufferView":6,
			"componentType":5126,
			"count":20,
			"max":[
				0.02989783138036728,
				-0.02086447738111019,
				0.13876721262931824
			],
			"min":[
				-0.02989783138036728,
				-0.279135525226593,
				0.10663270205259323
			],
			"type":"VEC3"
		},
		{
			"bufferView":7,
			"componentType":5126,
			"count":20,
			"type":"VEC3"
		},
		{
			"bufferView":8,
			"componentType":5123,
			"count":30,
			"type":"SCALAR"
		},
		{
			"bufferView":9,
			"componentType":5126,
			"count":704,
			"max":[
				0.08508323132991791,
				0.28513672947883606,
				0.03163670003414154
			],
			"min":[
				-0.08508323132991791,
				-0.0843726396560669,
				-0.03163667768239975
			],
			"type":"VEC3"
		},
		{
			"bufferView":10,
			"componentType":5126,
			"count":704,
			"type":"VEC3"
		},
		{
			"bufferView":11,
			"componentType":5123,
			"count":2280,
			"type":"SCALAR"
		}
	],
	"bufferViews":[
		{
			"buffer":0,
			"byteLength":1176,
			"byteOffset":0,
			"target":34962
		},
		{
			"buffer":0,
			"byteLength":1176,
			"byteOffset":1176,
			"target":34962
		},
		{
			"buffer":0,
			"byteLength":432,
			"byteOffset":2352,
			"target":34963
		},
		{
			"buffer":0,
			"byteLength":4512,
			"byteOffset":2784,
			"target":34962
		},
		{
			"buffer":0,
			"byteLength":4512,
			"byteOffset":7296,
			"target":34962
		},
		{
			"buffer":0,
			"byteLength":2040,
			"byteOffset":11808,
			"target":34963
		},
		{
			"buffer":0,
			"byteLength":240,
			"byteOffset":13848,
			"target":34962
		},
		{
			"buffer":0,
			"byteLength":240,
			"byteOffset":14088,
			"target":34962
		},
		{
			"buffer":0,
			"byteLength":60,
			"byteOffset":14328,
			"target":34963
		},
		{
			"buffer":0,
			"byteLength":8448,
			"byteOffset":14388,
			"target":34962
		},
		{
			"buffer":0,
			"byteLength":8448,
			"byteOffset":22836,
			"target":34962
		},
		{
			"buffer":0,
			"byteLength":4560,
			"byteOffset":31284,
			"target":34963
		}
	],
	"buffers":[
		{
			"byteLength":35844,
			"uri":"ThrottleLever.bin"
		}
	]
}
